<svg width="227" height="345" viewBox="0 0 227 345" fill="none" xmlns="http://www.w3.org/2000/svg">
<rect width="227" height="345" fill="#F5F5F5"/>
<path d="M11.7176 189H0.234652V157.727H11.7176C14.8937 157.727 17.6321 158.353 19.9328 159.605C22.2335 160.847 24.0048 162.639 25.2467 164.98C26.4989 167.312 27.1249 170.101 27.1249 173.348C27.1249 176.606 26.4989 179.405 25.2467 181.747C24.0048 184.088 22.2335 185.885 19.9328 187.137C17.6321 188.379 14.8937 189 11.7176 189ZM7.62528 182.694H11.4275C13.2191 182.694 14.7309 182.388 15.9626 181.777C17.2046 181.156 18.1411 180.164 18.7723 178.8C19.4136 177.436 19.7343 175.618 19.7343 173.348C19.7343 171.088 19.4136 169.276 18.7723 167.912C18.131 166.548 17.1842 165.561 15.9321 164.95C14.6901 164.339 13.1581 164.034 11.3359 164.034H7.62528V182.694ZM37.8739 157.727H46.1196L52.8383 170.875H53.1132L59.8319 157.727H68.0777L56.6405 178.449V189H49.311V178.449L37.8739 157.727ZM84.5681 189H76.6277L87.225 157.727H97.013L107.61 189H99.67L92.2336 165.469H91.9893L84.5681 189ZM83.6061 176.692H100.54V182.342H83.6061V176.692ZM120.944 189V157.727H128.334V182.984H141.421V189H120.944ZM181.839 157.727V189H175.563L162.92 170.646H162.706V189H155.315V157.727H161.698L174.219 176.036H174.479V157.727H181.839ZM203.136 189H195.195L205.793 157.727H215.581L226.178 189H218.237L210.801 165.469H210.557L203.136 189ZM202.174 176.692H219.108V182.342H202.174V176.692Z" fill="black"/>
<path d="M137.5 209.5L156.607 209.5L70.5001 345L97.0001 209L115.5 209.5L106 258.5L137.5 209.5Z" fill="#D43A3A"/>
<path d="M155.5 1.5L129 134L110.5 135L119 87.5L89 134L69.5 134L155.5 2.2081e-06L155.5 1.5Z" fill="#D43A3A"/>
</svg>
