<svg width="83" height="77" viewBox="0 0 83 77" fill="none" xmlns="http://www.w3.org/2000/svg">
<path d="M4.21825 44H0V33H4.21825C5.38498 33 6.39093 33.2202 7.23609 33.6606C8.08125 34.0974 8.73193 34.7277 9.18814 35.5512C9.64814 36.3714 9.8781 37.3524 9.8781 38.4945C9.8781 39.6405 9.64814 40.625 9.18814 41.4488C8.73193 42.2722 8.08125 42.9043 7.23609 43.3447C6.39093 43.7816 5.38498 44 4.21825 44ZM2.71494 41.7819H4.11168C4.76982 41.7819 5.32518 41.6743 5.77764 41.4594C6.23389 41.2409 6.57791 40.892 6.80978 40.4122C7.04536 39.9325 7.16317 39.293 7.16317 38.4945C7.16317 37.6996 7.04536 37.0623 6.80978 36.5825C6.5742 36.1027 6.2264 35.7555 5.76644 35.5406C5.31019 35.3257 4.74741 35.2184 4.07803 35.2184H2.71494V41.7819ZM13.8267 33H16.8558L19.3239 37.6247H19.4249L21.893 33H24.9221L20.7206 40.2888V44H18.0281V40.2888L13.8267 33ZM30.9798 44H28.0629L31.9558 33H35.5514L39.4442 44H36.5274L33.7957 35.7232H33.706L30.9798 44ZM30.6264 39.6708H36.847V41.6581H30.6264V39.6708ZM44.3424 44V33H47.0571V41.8839H51.8646V44H44.3424ZM66.7121 33V44H64.4066L59.7623 37.5441H59.6836V44H56.9686V33H59.3134L63.9129 39.44H64.0084V33H66.7121ZM74.5356 44H71.6184L75.5116 33H79.1072L83 44H80.0829L77.3513 35.7232H77.2617L74.5356 44ZM74.1822 39.6708H80.4028V41.6581H74.1822V39.6708Z" fill="white"/>
<path d="M46.8921 46.758H51.1848L31.8392 77L37.793 46.6464L41.9493 46.758L39.815 57.6942L46.8921 46.758Z" fill="#FF4343"/>
<path d="M50.9361 0.334782L44.9824 29.9072L40.826 30.1304L42.7357 19.529L35.9956 29.9072H31.6145L50.9361 0V0.334782Z" fill="white"/>
</svg>
