<svg width="239" height="140" viewBox="0 0 239 140" fill="none" xmlns="http://www.w3.org/2000/svg">
<path d="M79.0106 92.8279L72.4706 69.2479V68.3479H76.1906L81.7106 89.5279H81.8306L88.1306 68.3479H91.5506L98.0306 89.5279H98.1506L103.551 68.3479H107.271V69.2479L100.791 92.8279H95.2706L89.9306 75.0679H89.8106L84.5306 92.8279H79.0106ZM120.689 93.4279C118.009 93.4279 115.789 92.8279 114.029 91.6279C112.309 90.3879 111.029 88.8079 110.189 86.8879C109.389 84.9279 108.989 82.9079 108.989 80.8279C108.989 78.5479 109.429 76.4679 110.309 74.5879C111.229 72.6679 112.549 71.1479 114.269 70.0279C116.029 68.9079 118.129 68.3479 120.569 68.3479C123.689 68.3479 126.289 69.3679 128.369 71.4079C130.449 73.4079 131.569 76.1079 131.729 79.5079C131.769 79.6679 131.789 79.9079 131.789 80.2279C131.789 80.5079 131.789 80.7679 131.789 81.0079H112.709C112.709 83.8479 113.389 86.0879 114.749 87.7279C116.149 89.3279 118.109 90.1279 120.629 90.1279C122.509 90.1279 124.109 89.6479 125.429 88.6879C126.789 87.7279 127.629 86.4279 127.949 84.7879H131.729C131.329 87.2679 130.149 89.3279 128.189 90.9679C126.229 92.6079 123.729 93.4279 120.689 93.4279ZM112.829 78.9079H127.829C127.829 78.0679 127.589 77.0679 127.109 75.9079C126.669 74.7479 125.909 73.7479 124.829 72.9079C123.789 72.0279 122.349 71.5879 120.509 71.5879C118.829 71.5879 117.449 71.9479 116.369 72.6679C115.289 73.3879 114.469 74.3079 113.909 75.4279C113.349 76.5479 112.989 77.7079 112.829 78.9079ZM149.319 93.4279C147.719 93.4279 146.359 93.1679 145.239 92.6479C144.159 92.0879 143.259 91.4479 142.539 90.7279C141.859 90.0079 141.339 89.3279 140.979 88.6879C140.619 88.0479 140.399 87.6279 140.319 87.4279H140.199L139.599 92.8279H136.239V59.0479H140.199L140.259 74.5279H140.379C140.459 74.3279 140.659 73.9079 140.979 73.2679C141.299 72.6279 141.799 71.9279 142.479 71.1679C143.159 70.4079 144.039 69.7679 145.119 69.2479C146.239 68.6879 147.619 68.4079 149.259 68.4079C151.619 68.4079 153.579 68.9479 155.139 70.0279C156.739 71.1079 157.939 72.6079 158.739 74.5279C159.539 76.4079 159.939 78.5479 159.939 80.9479C159.939 83.3479 159.539 85.4879 158.739 87.3679C157.939 89.2479 156.739 90.7279 155.139 91.8079C153.579 92.8879 151.639 93.4279 149.319 93.4279ZM148.359 90.0079C150.279 90.0079 151.799 89.5679 152.919 88.6879C154.039 87.8079 154.859 86.6879 155.379 85.3279C155.899 83.9279 156.159 82.4679 156.159 80.9479C156.159 79.3879 155.879 77.9279 155.319 76.5679C154.759 75.2079 153.879 74.1079 152.679 73.2679C151.479 72.3879 149.939 71.9479 148.059 71.9479C145.699 71.9479 143.819 72.7679 142.419 74.4079C141.019 76.0079 140.319 78.1879 140.319 80.9479C140.319 83.7479 141.059 85.9679 142.539 87.6079C144.059 89.2079 145.999 90.0079 148.359 90.0079ZM172.454 93.4279C170.454 93.4279 168.834 93.0679 167.594 92.3479C166.394 91.6279 165.474 90.6679 164.834 89.4679C164.194 88.2279 163.754 86.8879 163.514 85.4479C163.314 83.9679 163.214 82.4879 163.214 81.0079V68.4079H167.054V81.0679C167.054 82.6679 167.214 84.1479 167.534 85.5079C167.854 86.8679 168.494 87.9479 169.454 88.7479C170.454 89.5479 171.894 89.9479 173.774 89.9479C175.574 89.9479 176.974 89.5479 177.974 88.7479C179.014 87.9079 179.774 86.8279 180.254 85.5079C180.734 84.1879 181.014 82.8079 181.094 81.3679V68.4079H185.054V92.8279H181.754L181.094 87.3679H180.974C180.774 88.0479 180.354 88.8679 179.714 89.8279C179.074 90.7879 178.154 91.6279 176.954 92.3479C175.794 93.0679 174.294 93.4279 172.454 93.4279ZM202.833 93.4279C201.273 93.4279 199.933 93.1679 198.813 92.6479C197.733 92.0879 196.853 91.4479 196.173 90.7279C195.493 90.0079 194.973 89.3279 194.613 88.6879C194.293 88.0479 194.093 87.6279 194.013 87.4279H193.893V102.908H189.933V68.4079H193.233L193.893 74.5279H194.013C194.093 74.3279 194.293 73.9079 194.613 73.2679C194.933 72.6279 195.413 71.9279 196.053 71.1679C196.733 70.4079 197.613 69.7679 198.693 69.2479C199.813 68.6879 201.193 68.4079 202.833 68.4079C205.193 68.4079 207.153 68.9479 208.713 70.0279C210.313 71.1079 211.513 72.6079 212.313 74.5279C213.153 76.4079 213.573 78.5679 213.573 81.0079C213.573 84.6479 212.653 87.6279 210.813 89.9479C208.973 92.2679 206.313 93.4279 202.833 93.4279ZM202.053 90.0079C203.933 90.0079 205.433 89.5679 206.553 88.6879C207.713 87.8079 208.533 86.6879 209.013 85.3279C209.533 83.9279 209.793 82.4679 209.793 80.9479C209.793 79.3879 209.513 77.9279 208.953 76.5679C208.393 75.2079 207.513 74.1079 206.313 73.2679C205.153 72.3879 203.613 71.9479 201.693 71.9479C199.373 71.9479 197.513 72.7679 196.113 74.4079C194.713 76.0079 194.013 78.1879 194.013 80.9479C194.013 83.7479 194.753 85.9679 196.233 87.6079C197.713 89.2079 199.653 90.0079 202.053 90.0079Z" fill="white"/>
<path fill-rule="evenodd" clip-rule="evenodd" d="M2.27409 34.4148L24.8255 65.3558L3.90861 80.6011L4.19359 111.001L37.0127 87.081L72.2906 136.554L71.6727 106.063L46.6437 71.7228L68.8804 55.5155L68.5954 25.1154L35.1177 49.5157L1.68671 3.64786L2.27409 34.4148Z" fill="none"/>
<path d="M24.8255 65.3558L25.4145 66.1639L26.2227 65.5749L25.6336 64.7668L24.8255 65.3558ZM2.27409 34.4148L1.27427 34.4339L1.28029 34.7491L1.46596 35.0038L2.27409 34.4148ZM3.90861 80.6011L3.3196 79.793L2.90383 80.096L2.90865 80.6105L3.90861 80.6011ZM4.19359 111.001L3.19363 111.011L3.21185 112.954L4.78259 111.809L4.19359 111.001ZM37.0127 87.081L37.8269 86.5004L37.2402 85.6777L36.4237 86.2728L37.0127 87.081ZM72.2906 136.554L71.4764 137.135L73.356 139.77L73.2904 136.534L72.2906 136.554ZM71.6727 106.063L72.6725 106.043L72.6662 105.728L72.4809 105.474L71.6727 106.063ZM46.6437 71.7228L46.0547 70.9147L45.2466 71.5037L45.8356 72.3118L46.6437 71.7228ZM68.8804 55.5155L69.4694 56.3237L69.8851 56.0206L69.8803 55.5061L68.8804 55.5155ZM68.5954 25.1154L69.5953 25.106L69.5771 23.1624L68.0064 24.3072L68.5954 25.1154ZM35.1177 49.5157L34.3095 50.1047L34.8985 50.9129L35.7067 50.3239L35.1177 49.5157ZM1.68671 3.64786L2.49483 3.05885L0.626336 0.495238L0.686889 3.66695L1.68671 3.64786ZM25.6336 64.7668L3.08222 33.8258L1.46596 35.0038L24.0174 65.9448L25.6336 64.7668ZM4.49762 81.4093L25.4145 66.1639L24.2365 64.5476L3.3196 79.793L4.49762 81.4093ZM5.19354 110.992L4.90857 80.5918L2.90865 80.6105L3.19363 111.011L5.19354 110.992ZM36.4237 86.2728L3.60458 110.193L4.78259 111.809L37.6017 87.8891L36.4237 86.2728ZM73.1048 135.973L37.8269 86.5004L36.1985 87.6616L71.4764 137.135L73.1048 135.973ZM70.6729 106.083L71.2908 136.574L73.2904 136.534L72.6725 106.043L70.6729 106.083ZM45.8356 72.3118L70.8646 106.652L72.4809 105.474L47.4518 71.1338L45.8356 72.3118ZM47.2327 72.5309L69.4694 56.3237L68.2914 54.7074L46.0547 70.9147L47.2327 72.5309ZM69.8803 55.5061L69.5953 25.106L67.5954 25.1247L67.8804 55.5249L69.8803 55.5061ZM68.0064 24.3072L34.5287 48.7076L35.7067 50.3239L69.1844 25.9235L68.0064 24.3072ZM0.878579 4.23686L34.3095 50.1047L35.9258 48.9267L2.49483 3.05885L0.878579 4.23686ZM3.27391 34.3957L2.68652 3.62877L0.686889 3.66695L1.27427 34.4339L3.27391 34.3957Z" fill="white"/>
</svg>
