<svg width="253" height="143" viewBox="0 0 253 143" fill="none" xmlns="http://www.w3.org/2000/svg">
<path d="M51.9553 84.5372L15.5204 33.5009L14.9065 0.668477L51.7674 52.3016L51.9553 84.5372Z" fill="white"/>
<path d="M51.4978 58.746L88.0589 109.959L88.7048 142.497L51.4978 89.226L51.4978 58.746Z" fill="url(#paint0_linear_113_2)"/>
<path d="M17.5267 115.229L52.9864 88.8427L52.6886 56.4017L17.2289 82.7879L17.5267 115.229Z" fill="url(#paint1_linear_113_2)"/>
<path d="M84.8422 23.577L49.3825 49.9633L49.6804 82.4043L85.1401 56.0181L84.8422 23.577Z" fill="white"/>
<path d="M92.72 92.9907L86.18 69.4107V68.5107H89.9L95.42 89.6907H95.54L101.84 68.5107H105.26L111.74 89.6907H111.86L117.26 68.5107H120.98V69.4107L114.5 92.9907H108.98L103.64 75.2307H103.52L98.24 92.9907H92.72ZM134.398 93.5907C131.718 93.5907 129.498 92.9907 127.738 91.7907C126.018 90.5507 124.738 88.9707 123.898 87.0507C123.098 85.0907 122.698 83.0707 122.698 80.9907C122.698 78.7107 123.138 76.6307 124.018 74.7507C124.938 72.8307 126.258 71.3107 127.978 70.1907C129.738 69.0707 131.838 68.5107 134.278 68.5107C137.398 68.5107 139.998 69.5307 142.078 71.5707C144.158 73.5707 145.278 76.2707 145.438 79.6707C145.478 79.8307 145.498 80.0707 145.498 80.3907C145.498 80.6707 145.498 80.9307 145.498 81.1707H126.418C126.418 84.0107 127.098 86.2507 128.458 87.8907C129.858 89.4907 131.818 90.2907 134.338 90.2907C136.218 90.2907 137.818 89.8107 139.138 88.8507C140.498 87.8907 141.338 86.5907 141.658 84.9507H145.438C145.038 87.4307 143.858 89.4907 141.898 91.1307C139.938 92.7707 137.438 93.5907 134.398 93.5907ZM126.538 79.0707H141.538C141.538 78.2307 141.298 77.2307 140.818 76.0707C140.378 74.9107 139.618 73.9107 138.538 73.0707C137.498 72.1907 136.058 71.7507 134.218 71.7507C132.538 71.7507 131.158 72.1107 130.078 72.8307C128.998 73.5507 128.178 74.4707 127.618 75.5907C127.058 76.7107 126.698 77.8707 126.538 79.0707ZM163.028 93.5907C161.428 93.5907 160.068 93.3307 158.948 92.8107C157.868 92.2507 156.968 91.6107 156.248 90.8907C155.568 90.1707 155.048 89.4907 154.688 88.8507C154.328 88.2107 154.108 87.7907 154.028 87.5907H153.908L153.308 92.9907H149.948V59.2107H153.908L153.968 74.6907H154.088C154.168 74.4907 154.368 74.0707 154.688 73.4307C155.008 72.7907 155.508 72.0907 156.188 71.3307C156.868 70.5707 157.748 69.9307 158.828 69.4107C159.948 68.8507 161.328 68.5707 162.968 68.5707C165.328 68.5707 167.288 69.1107 168.848 70.1907C170.448 71.2707 171.648 72.7707 172.448 74.6907C173.248 76.5707 173.648 78.7107 173.648 81.1107C173.648 83.5107 173.248 85.6507 172.448 87.5307C171.648 89.4107 170.448 90.8907 168.848 91.9707C167.288 93.0507 165.348 93.5907 163.028 93.5907ZM162.068 90.1707C163.988 90.1707 165.508 89.7307 166.628 88.8507C167.748 87.9707 168.568 86.8507 169.088 85.4907C169.608 84.0907 169.868 82.6307 169.868 81.1107C169.868 79.5507 169.588 78.0907 169.028 76.7307C168.468 75.3707 167.588 74.2707 166.388 73.4307C165.188 72.5507 163.648 72.1107 161.768 72.1107C159.408 72.1107 157.528 72.9307 156.128 74.5707C154.728 76.1707 154.028 78.3507 154.028 81.1107C154.028 83.9107 154.768 86.1307 156.248 87.7707C157.768 89.3707 159.708 90.1707 162.068 90.1707ZM186.163 93.5907C184.163 93.5907 182.543 93.2307 181.303 92.5107C180.103 91.7907 179.183 90.8307 178.543 89.6307C177.903 88.3907 177.463 87.0507 177.223 85.6107C177.023 84.1307 176.923 82.6507 176.923 81.1707V68.5707H180.763V81.2307C180.763 82.8307 180.923 84.3107 181.243 85.6707C181.563 87.0307 182.203 88.1107 183.163 88.9107C184.163 89.7107 185.603 90.1107 187.483 90.1107C189.283 90.1107 190.683 89.7107 191.683 88.9107C192.723 88.0707 193.483 86.9907 193.963 85.6707C194.443 84.3507 194.723 82.9707 194.803 81.5307V68.5707H198.763V92.9907H195.463L194.803 87.5307H194.683C194.483 88.2107 194.063 89.0307 193.423 89.9907C192.783 90.9507 191.863 91.7907 190.663 92.5107C189.503 93.2307 188.003 93.5907 186.163 93.5907ZM216.542 93.5907C214.982 93.5907 213.642 93.3307 212.522 92.8107C211.442 92.2507 210.562 91.6107 209.882 90.8907C209.202 90.1707 208.682 89.4907 208.322 88.8507C208.002 88.2107 207.802 87.7907 207.722 87.5907H207.602V103.071H203.642V68.5707H206.942L207.602 74.6907H207.722C207.802 74.4907 208.002 74.0707 208.322 73.4307C208.642 72.7907 209.122 72.0907 209.762 71.3307C210.442 70.5707 211.322 69.9307 212.402 69.4107C213.522 68.8507 214.902 68.5707 216.542 68.5707C218.902 68.5707 220.862 69.1107 222.422 70.1907C224.022 71.2707 225.222 72.7707 226.022 74.6907C226.862 76.5707 227.282 78.7307 227.282 81.1707C227.282 84.8107 226.362 87.7907 224.522 90.1107C222.682 92.4307 220.022 93.5907 216.542 93.5907ZM215.762 90.1707C217.642 90.1707 219.142 89.7307 220.262 88.8507C221.422 87.9707 222.242 86.8507 222.722 85.4907C223.242 84.0907 223.502 82.6307 223.502 81.1107C223.502 79.5507 223.222 78.0907 222.662 76.7307C222.102 75.3707 221.222 74.2707 220.022 73.4307C218.862 72.5507 217.322 72.1107 215.402 72.1107C213.082 72.1107 211.222 72.9307 209.822 74.5707C208.422 76.1707 207.722 78.3507 207.722 81.1107C207.722 83.9107 208.462 86.1307 209.942 87.7707C211.422 89.3707 213.362 90.1707 215.762 90.1707Z" fill="white"/>
<defs>
<linearGradient id="paint0_linear_113_2" x1="54.8753" y1="62.5623" x2="88.3468" y2="125.488" gradientUnits="userSpaceOnUse">
<stop stop-color="#5813FF"/>
<stop offset="1" stop-color="#D97BFF"/>
</linearGradient>
<linearGradient id="paint1_linear_113_2" x1="48.081" y1="62.5623" x2="16.0739" y2="93.9128" gradientUnits="userSpaceOnUse">
<stop stop-color="#5813FF"/>
<stop offset="1" stop-color="#D97BFF"/>
</linearGradient>
</defs>
</svg>
