<svg width="149" height="220" viewBox="0 0 149 220" fill="none" xmlns="http://www.w3.org/2000/svg">
<path fill-rule="evenodd" clip-rule="evenodd" d="M101.776 0.539429L101.272 3.09664L84.79 86.7582L84.7105 87.1616H84.2994H72.7096H72.1115L72.2175 86.5729L77.0803 59.578L59.7167 86.3142L59.5688 86.5418H59.2973H47.1327H46.2144L46.7127 85.7705L100.362 2.72866L101.776 0.539429ZM77.3091 58.3076L78.0122 57.2251L77.7833 58.4954L72.7997 86.1616L72.7096 86.6616H73.2177H84.2994L100.521 4.32565L100.782 2.99999L100.049 4.13489L47.4557 85.5418L47.1327 86.0418H47.7279H59.2973L77.3091 58.3076ZM0.5 120.119V119.619V100.183V99.6826H1H8.47912C10.6099 99.6826 12.4758 100.083 14.0596 100.906C15.6439 101.722 16.87 102.905 17.7272 104.446C18.5927 105.985 19.0143 107.806 19.0143 109.891C19.0143 111.983 18.5928 113.81 17.7276 115.355C16.8704 116.897 15.6444 118.082 14.0603 118.905L14.0588 118.906C12.4752 119.722 10.6096 120.119 8.47912 120.119H1H0.5ZM17.2909 115.111C18.1065 113.656 18.5143 111.916 18.5143 109.891C18.5143 107.873 18.1065 106.14 17.2909 104.69C16.4821 103.235 15.3284 102.122 13.8299 101.35C12.3314 100.572 10.5478 100.183 8.47912 100.183H1.5H1V100.683V119.119V119.619H1.5H8.47912C10.5478 119.619 12.3314 119.233 13.8299 118.461C15.3284 117.683 16.4821 116.566 17.2909 115.111ZM24.6485 99.6826H25.5153H30.886H31.1854L31.3267 99.9466L35.3515 107.462L39.3763 99.9466L39.5177 99.6826H39.8171H45.1878H46.0546L45.6206 100.433L38.2385 113.196V119.619V120.119H37.7385H32.9646H32.4646V119.619V113.196L25.0825 100.433L24.6485 99.6826ZM32.9646 113.062V119.119V119.619H33.4646H37.2385H37.7385V119.119V113.062L44.8986 100.683L45.1878 100.183H44.6102H39.8171L35.6351 107.992L35.513 108.22L35.4411 108.354H35.262L35.19 108.22L35.0679 107.992L30.886 100.183H26.0929H25.5153L25.8045 100.683L32.9646 113.062ZM56.2897 120.119H55.9284H50.7566H50.0485L50.2854 119.452L57.1877 100.015L57.3058 99.6826H57.6589H64.034H64.3871L64.5052 100.015L71.4073 119.452L71.6442 120.119H70.9361H65.7646H65.4035L65.2899 119.776L60.8419 106.346L56.4031 119.776L56.2897 120.119ZM60.5784 105.55L55.9284 119.619H51.2872H50.7566L50.9342 119.119L57.6589 100.183H64.034L70.7586 119.119L70.9361 119.619H70.4055H65.7646L61.105 105.55L60.9407 105.053L60.9211 104.994H60.762L60.7424 105.054L60.5784 105.55ZM79.1208 120.119V119.619V100.183V99.6826H79.6208H84.4341H84.9341V100.183V115.38H92.958H93.458V115.88V119.619V120.119H92.958H79.6208H79.1208ZM84.9341 115.88H84.4341V115.38V100.683V100.183H83.9341H80.1208H79.6208V100.683V119.119V119.619H80.1208H92.458H92.958V119.119V116.38V115.88H92.458H84.9341ZM119.783 99.6826V100.183V119.619V120.119H119.283H115.196H114.94L114.79 119.912L107.321 109.566V119.619V120.119H106.821H102.008H101.508V119.619V100.183V99.6826H102.008H106.165H106.422L106.571 99.8913L113.989 110.242V100.183V99.6826H114.489H119.283H119.783ZM114.489 110.94V111.062V111.44V111.562H114.32L113.989 111.1L106.165 100.183H102.508H102.008V100.683V119.119V119.619H102.508H106.321H106.821V119.119V108.873V108.712V108.313V108.212H106.961L107.321 108.711L115.196 119.619H118.783H119.283V119.119V100.683V100.183H118.783H114.989H114.489V100.683V110.94ZM133.516 120.119H133.154H127.982H127.274L127.511 119.452L134.414 100.015L134.532 99.6826H134.885H141.26H141.613L141.731 100.015L148.633 119.452L148.87 120.119H148.162H142.99H142.629L142.515 119.776L138.068 106.346L133.629 119.776L133.516 120.119ZM137.804 105.55L133.154 119.619H128.513H127.982L128.16 119.119L134.885 100.183H141.26L147.985 119.119L148.162 119.619H147.632H142.99L138.331 105.55L138.166 105.053L138.147 104.994H137.988L137.968 105.053L137.804 105.55ZM6.15329 114.066V114.466H6.55329H8.29702C9.16108 114.466 9.91764 114.322 10.5508 114.017L10.5519 114.016C11.2082 113.697 11.7004 113.185 12.0262 112.5C12.3559 111.817 12.5066 110.939 12.5066 109.894C12.5066 108.852 12.3556 107.976 12.0256 107.293C11.6946 106.608 11.1968 106.098 10.5351 105.784C9.89709 105.478 9.13166 105.336 8.25501 105.336H6.55329H6.15329V105.736V114.066ZM10.3629 106.145C10.9371 106.418 11.3713 106.858 11.6654 107.467C11.9595 108.076 12.1066 108.885 12.1066 109.894C12.1066 110.907 11.9595 111.719 11.6654 112.328C11.3759 112.936 10.9464 113.379 10.3769 113.656C9.81199 113.929 9.11866 114.066 8.29702 114.066H6.95329H6.55329V113.666V106.136V105.736H6.95329H8.25501C9.09069 105.736 9.79328 105.872 10.3629 106.145Z" fill="white"/>
<path d="M89.553 132.58H89.417L89.3431 132.694L70.3957 161.974L76.0742 132.878L76.1323 132.58H75.8288H64.288H64.0823L64.0427 132.782L47.5113 217.063L47.2568 218.361L47.9674 217.246L101.683 132.965L101.928 132.58H101.472H89.553Z" stroke="#FF4343" stroke-width="0.5" stroke-miterlimit="16" stroke-linecap="square"/>
</svg>
