<svg width="79" height="100" viewBox="0 0 79 100" fill="none" xmlns="http://www.w3.org/2000/svg">
<mask id="mask0_21_11" style="mask-type:alpha" maskUnits="userSpaceOnUse" x="0" y="0" width="79" height="67">
<path d="M5.5833 11.1667C2.49971 11.1667 -3.43323e-05 8.66692 -3.43323e-05 5.58333C-3.43323e-05 2.49974 2.49971 0 5.5833 0C8.66688 0 11.1666 2.49974 11.1666 5.58333C11.1666 8.66692 8.66688 11.1667 5.5833 11.1667Z" fill="white"/>
<path d="M5.5833 29.7777C2.49971 29.7777 -3.43323e-05 27.278 -3.43323e-05 24.1944C-3.43323e-05 21.1108 2.49971 18.6111 5.5833 18.6111C8.66688 18.6111 11.1666 21.1108 11.1666 24.1944C11.1666 27.278 8.66688 29.7777 5.5833 29.7777Z" fill="white"/>
<path d="M5.5833 48.389C2.49971 48.389 -3.43323e-05 45.8892 -3.43323e-05 42.8056C-3.43323e-05 39.722 2.49971 37.2223 5.5833 37.2223C8.66688 37.2223 11.1666 39.722 11.1666 42.8056C11.1666 45.8892 8.66688 48.389 5.5833 48.389Z" fill="white"/>
<path d="M5.5833 67C2.49971 67 -3.43323e-05 64.5003 -3.43323e-05 61.4167C-3.43323e-05 58.3331 2.49971 55.8334 5.5833 55.8334C8.66688 55.8334 11.1666 58.3331 11.1666 61.4167C11.1666 64.5003 8.66688 67 5.5833 67Z" fill="white"/>
<path d="M27.9167 11.1667C24.8331 11.1667 22.3333 8.66692 22.3333 5.58333C22.3333 2.49974 24.8331 0 27.9167 0C31.0003 0 33.5 2.49974 33.5 5.58333C33.5 8.66692 31.0003 11.1667 27.9167 11.1667Z" fill="white"/>
<path d="M27.9167 29.7777C24.8331 29.7777 22.3333 27.278 22.3333 24.1944C22.3333 21.1108 24.8331 18.6111 27.9167 18.6111C31.0003 18.6111 33.5 21.1108 33.5 24.1944C33.5 27.278 31.0003 29.7777 27.9167 29.7777Z" fill="white"/>
<path d="M27.9167 48.389C24.8331 48.389 22.3333 45.8892 22.3333 42.8056C22.3333 39.722 24.8331 37.2223 27.9167 37.2223C31.0003 37.2223 33.5 39.722 33.5 42.8056C33.5 45.8892 31.0003 48.389 27.9167 48.389Z" fill="white"/>
<path d="M27.9167 67C24.8331 67 22.3333 64.5003 22.3333 61.4167C22.3333 58.3331 24.8331 55.8334 27.9167 55.8334C31.0003 55.8334 33.5 58.3331 33.5 61.4167C33.5 64.5003 31.0003 67 27.9167 67Z" fill="white"/>
<path d="M50.25 11.1667C47.1664 11.1667 44.6667 8.66692 44.6667 5.58333C44.6667 2.49974 47.1664 0 50.25 0C53.3336 0 55.8333 2.49974 55.8333 5.58333C55.8333 8.66692 53.3336 11.1667 50.25 11.1667Z" fill="white"/>
<path d="M50.25 29.7777C47.1664 29.7777 44.6667 27.278 44.6667 24.1944C44.6667 21.1108 47.1664 18.6111 50.25 18.6111C53.3336 18.6111 55.8333 21.1108 55.8333 24.1944C55.8333 27.278 53.3336 29.7777 50.25 29.7777Z" fill="white"/>
<path d="M50.25 48.389C47.1664 48.389 44.6667 45.8892 44.6667 42.8056C44.6667 39.722 47.1664 37.2223 50.25 37.2223C53.3336 37.2223 55.8333 39.722 55.8333 42.8056C55.8333 45.8892 53.3336 48.389 50.25 48.389Z" fill="white"/>
<path d="M50.25 67C47.1664 67 44.6667 64.5003 44.6667 61.4167C44.6667 58.3331 47.1664 55.8334 50.25 55.8334C53.3336 55.8334 55.8333 58.3331 55.8333 61.4167C55.8333 64.5003 53.3336 67 50.25 67Z" fill="white"/>
<path d="M72.5833 11.1667C69.4997 11.1667 67 8.66692 67 5.58333C67 2.49974 69.4997 0 72.5833 0C75.6669 0 78.1666 2.49974 78.1666 5.58333C78.1666 8.66692 75.6669 11.1667 72.5833 11.1667Z" fill="white"/>
<path d="M72.5833 29.7777C69.4997 29.7777 67 27.278 67 24.1944C67 21.1108 69.4997 18.6111 72.5833 18.6111C75.6669 18.6111 78.1666 21.1108 78.1666 24.1944C78.1666 27.278 75.6669 29.7777 72.5833 29.7777Z" fill="white"/>
<path d="M72.5833 48.389C69.4997 48.389 67 45.8892 67 42.8056C67 39.722 69.4997 37.2223 72.5833 37.2223C75.6669 37.2223 78.1666 39.722 78.1666 42.8056C78.1666 45.8892 75.6669 48.389 72.5833 48.389Z" fill="white"/>
<path d="M72.5833 67C69.4997 67 67 64.5003 67 61.4167C67 58.3331 69.4997 55.8334 72.5833 55.8334C75.6669 55.8334 78.1666 58.3331 78.1666 61.4167C78.1666 64.5003 75.6669 67 72.5833 67Z" fill="white"/>
</mask>
<g mask="url(#mask0_21_11)">
<path d="M90 -2H-12V69H90V-2Z" fill="url(#paint0_linear_21_11)"/>
</g>
<defs>
<linearGradient id="paint0_linear_21_11" x1="-12" y1="-2" x2="70.6245" y2="86.9897" gradientUnits="userSpaceOnUse">
<stop stop-color="#FF0000"/>
<stop offset="1" stop-color="#FF7B7B"/>
</linearGradient>
</defs>
</svg>
