<svg cache-id="f38f09e8379b4d4bb77b32f7d7593a13" id="evxH3WKEOoU1" xmlns="http://www.w3.org/2000/svg" xmlns:xlink="http://www.w3.org/1999/xlink" viewBox="0 0 281 378" shape-rendering="geometricPrecision" text-rendering="geometricPrecision" width="281" height="378"><rect width="280.044" height="377.451" rx="10" ry="10" transform="translate(.782532 0.393433)" fill="#fff"/><path d="M25.7559,31.1533h1.2614l2.9659,7.2444h.1023l2.9659-7.2444h1.2613v8.7273h-.9886v-6.6307h-.0852l-2.7273,6.6307h-.9545l-2.7273-6.6307h-.0852v6.6307h-.9887v-8.7273Zm10.6758,8.7273v-8.7273h5.267v.9375h-4.2102v2.9489h3.9375v.9375h-3.9375v2.9659h4.2784v.9375h-5.3352ZM50.524,31.1533v8.7273h-1.0227l-4.7557-6.8523h-.0852v6.8523h-1.0568v-8.7273h1.0227l4.7727,6.8694h.0853v-6.8694h1.0397Zm7.842,0h1.0568v5.7785c0,.5965-.1406,1.1292-.4219,1.598-.2784.4659-.6718.8338-1.1804,1.1037-.5085.267-1.1051.4005-1.7897.4005s-1.2813-.1335-1.7898-.4005c-.5085-.2699-.9034-.6378-1.1847-1.1037-.2784-.4688-.4176-1.0015-.4176-1.598v-5.7785h1.0568v5.6932c0,.4262.0938.8054.2813,1.1378.1875.3296.4545.5895.8011.7798.3495.1875.7671.2813,1.2529.2813s.9034-.0938,1.2528-.2813c.3494-.1903.6165-.4502.8012-.7798.1875-.3324.2812-.7116.2812-1.1378v-5.6932Zm6.5423,8.7273v-8.7273h3.0511c.6079,0,1.1094.1052,1.5043.3154.3948.2074.6889.4872.8821.8395.1931.3494.2897.7372.2897,1.1633c0,.375-.0667.6847-.2003.929-.1306.2443-.3039.4375-.5198.5795-.2131.1421-.4446.2472-.6946.3154v.0852c.267.0171.5355.1108.8054.2813.2698.1704.4957.4147.6775.7329s.2727.7074.2727,1.1676c0,.4375-.0994.831-.2983,1.1804s-.5127.6265-.9417.831-.9872.3068-1.6747.3068h-3.1534Zm1.0568-.9375h2.0966c.6903,0,1.1804-.1335,1.4701-.4006.2927-.2698.439-.5965.439-.9801c0-.2954-.0753-.5681-.2259-.8181-.1506-.2529-.3651-.4546-.6435-.6052-.2784-.1534-.6079-.2301-.9886-.2301h-2.1477v3.0341Zm0-3.9545h1.9602c.3182,0,.6051-.0625.8608-.1875.2585-.125.4631-.3012.6136-.5284.1534-.2273.2301-.4944.2301-.8012c0-.3835-.1335-.7088-.4005-.9758-.2671-.2699-.6904-.4049-1.2699-.4049h-1.9943v2.8978Zm12.4751-3.8353h1.0568v5.7785c0,.5965-.1406,1.1292-.4218,1.598-.2784.4659-.6719.8338-1.1804,1.1037-.5086.267-1.1051.4005-1.7898.4005s-1.2813-.1335-1.7898-.4005c-.5085-.2699-.9034-.6378-1.1846-1.1037-.2784-.4688-.4177-1.0015-.4177-1.598v-5.7785h1.0569v5.6932c0,.4262.0937.8054.2812,1.1378.1875.3296.4546.5895.8012.7798.3494.1875.767.2813,1.2528.2813s.9034-.0938,1.2528-.2813c.3495-.1903.6165-.4502.8012-.7798.1875-.3324.2812-.7116.2812-1.1378v-5.6932Zm2.69.9375v-.9375h6.5455v.9375h-2.7444v7.7898h-1.0568v-7.7898h-2.7443ZM96.3071,35.517c0,.9204-.1662,1.7159-.4986,2.3863s-.7884,1.1875-1.3679,1.5512c-.5796.3636-1.2415.5454-1.9858.5454s-1.4063-.1818-1.9858-.5454c-.5796-.3637-1.0355-.8807-1.3679-1.5512s-.4986-1.4659-.4986-2.3863c0-.9205.1662-1.7159.4986-2.3864s.7883-1.1875,1.3679-1.5511s1.2415-.5455,1.9858-.5455s1.4062.1818,1.9858.5455c.5795.3636,1.0355.8807,1.3679,1.5511s.4986,1.4659.4986,2.3864Zm-1.0228,0c0-.7557-.1264-1.3935-.3792-1.9134-.25-.5199-.5895-.9133-1.0185-1.1804-.4261-.267-.9034-.4005-1.4318-.4005s-1.0071.1335-1.4361.4005c-.4261.2671-.7656.6605-1.0185,1.1804-.25.5199-.375,1.1577-.375,1.9134s.125,1.3934.375,1.9133c.2529.5199.5924.9134,1.0185,1.1804.429.2671.9077.4006,1.4361.4006s1.0057-.1335,1.4318-.4006c.429-.267.7685-.6605,1.0185-1.1804.2528-.5199.3792-1.1576.3792-1.9133Zm10.1637,0c0,.9204-.167,1.7159-.499,2.3863s-.788,1.1875-1.368,1.5512c-.579.3636-1.241.5454-1.986.5454-.744,0-1.406-.1818-1.9854-.5454-.5795-.3637-1.0355-.8807-1.3679-1.5512s-.4986-1.4659-.4986-2.3863c0-.9205.1662-1.7159.4986-2.3864s.7884-1.1875,1.3679-1.5511c.5794-.3637,1.2414-.5455,1.9854-.5455.745,0,1.407.1818,1.986.5455.58.3636,1.036.8807,1.368,1.5511s.499,1.4659.499,2.3864Zm-1.023,0c0-.7557-.126-1.3935-.379-1.9134-.25-.5199-.59-.9133-1.019-1.1804-.426-.267-.903-.4005-1.432-.4005-.528,0-1.007.1335-1.436.4005-.4258.2671-.7653.6605-1.0181,1.1804-.25.5199-.375,1.1577-.375,1.9134s.125,1.3934.375,1.9133c.2528.5199.5923.9134,1.0181,1.1804.429.2671.908.4006,1.436.4006.529,0,1.006-.1335,1.432-.4006.429-.267.769-.6605,1.019-1.1804.253-.5199.379-1.1576.379-1.9133Zm9.72-4.3637v8.7273h-1.023l-4.755-6.8523h-.086v6.8523h-1.056v-8.7273h1.022l4.773,6.8694h.085v-6.8694h1.04Zm6.888,2.1819c-.052-.4319-.259-.7671-.623-1.0057-.363-.2387-.809-.358-1.338-.358-.386,0-.724.0625-1.014.1875-.287.125-.511.2969-.673.5156-.159.2188-.239.4674-.239.7458c0,.2329.056.4332.166.6008.114.1648.259.3026.435.4134.176.1079.361.1974.554.2685.193.0681.371.1235.533.1662l.886.2386c.227.0596.48.142.759.2471.281.1052.549.2486.805.4304.258.179.472.4091.639.6904.168.2812.252.6264.252,1.0355c0,.4716-.124.8977-.371,1.2784-.244.3807-.602.6832-1.074.9077-.469.2244-1.038.3366-1.709.3366-.625,0-1.166-.1008-1.623-.3025-.455-.2017-.813-.483-1.074-.8438-.259-.3608-.405-.7798-.439-1.2571h1.091c.028.3296.139.6023.332.8182.196.2131.443.3722.742.4773.301.1022.625.1534.971.1534.404,0,.766-.0654,1.087-.196.321-.1336.575-.3182.763-.554.187-.2387.281-.5171.281-.8352c0-.2898-.081-.5256-.243-.7074-.162-.1819-.375-.3296-.639-.4432-.264-.1137-.55-.2131-.857-.2983l-1.074-.3068c-.681-.1961-1.221-.4759-1.619-.8395s-.597-.8395-.597-1.4276c0-.4886.133-.9147.397-1.2784.267-.3665.625-.6506,1.074-.8523.451-.2045.956-.3068,1.512-.3068.563,0,1.063.1009,1.5.3026.438.1988.785.4716,1.04.8182.259.3466.395.74.409,1.1804h-1.022Z"/><rect width="234" height="56.6469" rx="0" ry="0" transform="translate(23.8045 112.994)" fill="#540072" fill-opacity="0.38"/><rect width="5.44725" height="25.3161" rx="2.72362" ry="2.72362" transform="matrix(0-1 1 0 42.874 153.6484)" fill="#fff"/><rect width="5.44725" height="25.3161" rx="2.72362" ry="2.72362" transform="matrix(0-1 1 0 42.874 144.0414)" fill="#fff"/><rect width="5.44725" height="25.3161" rx="2.72362" ry="2.72362" transform="matrix(0-1 1 0 42.8736 134.4344)" fill="#fff"/><circle r="6.85566" transform="translate(234.5 141.318)" fill="#832c8a" stroke="#fff"/><rect width="234" height="56.6469" rx="0" ry="0" transform="translate(23.8045 175.677)" fill="#540072" fill-opacity="0.38"/><rect width="5.44725" height="25.3161" rx="0" ry="0" transform="matrix(0-1 1 0 42.499 217.0282)" fill="#fff"/><rect width="5.44725" height="25.3161" rx="0" ry="0" transform="matrix(0-1 1 0 42.499 207.4212)" fill="#fff"/><rect width="5.44725" height="25.3161" rx="0" ry="0" transform="matrix(0-1 1 0 42.499 197.8142)" fill="#fff"/><circle r="6.85566" transform="translate(234.5 204.697)" fill="#832c8a" stroke="#fff"/><rect width="234" height="56.6469" rx="0" ry="0" transform="translate(23.8044 238.36)" fill="#540072" fill-opacity="0.38"/><rect width="5.44725" height="15.0544" rx="2.72362" ry="2.72362" transform="matrix(0-1 1 0 43.201 279.014)" fill="#fff"/><rect width="5.44725" height="19.2142" rx="2.72362" ry="2.72362" transform="matrix(0-1 1 0 43.201 269.407)" fill="#fff"/><rect width="5.44725" height="25.3161" rx="2.72362" ry="2.72362" transform="matrix(0-1 1 0 43.201 259.8)" fill="#fff"/><circle r="6.85566" transform="translate(234.5 266.684)" fill="#832c8a" stroke="#fff"/><rect width="234" height="56.6469" rx="0" ry="0" transform="translate(23.8045 301.043)" fill="#540072" fill-opacity="0.38"/><circle r="6.85566" transform="translate(234.5 329.367)" fill="#832c8a" stroke="#fff"/><rect width="234" height="56.6469" rx="0" ry="0" transform="translate(23.5 50.3109)" fill="#540072" fill-opacity="0.38" stroke="#832c8a" stroke-opacity="0"/><circle r="6.85566" transform="translate(234.5 79.5122)" fill="#832c8a" stroke="#fff"/><path id="evxH3WKEOoU23" d="M233.512,69.7529c.181-1.1215,1.795-1.1215,1.975,0l1.292,8.0319c.039.2423.166.4618.356.6167l6.31,5.1352c.881.717.074,2.1145-.987,1.71L234.856,82.35c-.23-.0874-.483-.0874-.712,0l-7.602,2.8967c-1.062.4045-1.869-.993-.988-1.71l6.31-5.1352c.19-.1549.317-.3744.356-.6167l1.292-8.0319Z" transform="translate(.000496 250.904613)" fill="#fb29ff"/><rect width="5.44725" height="25.3161" rx="2.72362" ry="2.72362" transform="translate(43.201 65.9763)" fill="#fff"/><rect width="5.44725" height="25.3161" rx="2.72362" ry="2.72362" transform="translate(52.8081 65.9763)" fill="#fff"/><rect width="5.44725" height="25.3161" rx="2.72362" ry="2.72362" transform="translate(62.4152 65.9763)" fill="#fff"/><path d="M55.8887,335.003v-.153c.017-1.628.1875-2.924.5113-3.887.3239-.963.7841-1.743,1.3807-2.339.5966-.597,1.3125-1.147,2.1478-1.649.5028-.307.9545-.669,1.3551-1.087.4005-.426.7159-.916.946-1.47.2386-.554.3579-1.168.3579-1.841c0-.835-.196-1.56-.588-2.173-.3921-.614-.9162-1.087-1.5725-1.419-.6562-.333-1.3849-.499-2.186-.499-.6989,0-1.3722.145-2.0199.435-.6478.289-1.189.745-1.6236,1.368-.4347.622-.6861,1.436-.7543,2.441h-3.2216c.0682-1.449.4432-2.689,1.125-3.72.6904-1.031,1.598-1.819,2.723-2.365c1.1336-.545,2.3907-.818,3.7714-.818c1.5,0,2.8039.298,3.9119.895c1.1165.596,1.9773,1.415,2.5824,2.454.6136,1.04.9204,2.225.9204,3.554c0,.938-.1449,1.786-.4346,2.544-.2813.759-.6904,1.436-1.2273,2.033-.5284.597-1.1676,1.125-1.9176,1.585-.75.469-1.3509.963-1.8026,1.483-.4517.512-.7798,1.121-.9843,1.828-.2046.708-.3154,1.59-.3324,2.647v.153h-3.0682Zm1.6363,7.568c-.6306,0-1.1718-.226-1.6235-.677-.4517-.452-.6776-.993-.6776-1.624s.2259-1.172.6776-1.623c.4517-.452.9929-.678,1.6235-.678.6307,0,1.1719.226,1.6236.678.4517.451.6776.992.6776,1.623c0,.418-.1066.801-.3196,1.151-.2046.349-.4816.63-.831.843-.3409.205-.7244.307-1.1506.307Z" fill="#fff"/><circle r="19.5966" transform="translate(55.1569 266.783)" fill="none" stroke="#fff"/><g id="evxH3WKEOoU29" transform="translate(44.753885 2.205648)"><path d="M244.861,114.237l9.595,7.644l9.595,7.643-10.75-.172-5.495,9.242-1.472-12.178-1.473-12.179Z"/><path d="M245.485,113.455l-1.909-1.52.293,2.423l1.472,12.178l1.473,12.178.352,2.914l1.5-2.523l5.198-8.744l10.171.163l2.935.047-2.296-1.829-9.595-7.643-9.594-7.644Z" fill="none" stroke="#af30bb" stroke-width="2" stroke-opacity="0.51"/></g>
<script><![CDATA[
!function(t,n){"object"==typeof exports&&"undefined"!=typeof module?module.exports=n():"function"==typeof define&&define.amd?define(n):((t="undefined"!=typeof globalThis?globalThis:t||self).__SVGATOR_PLAYER__=t.__SVGATOR_PLAYER__||{},t.__SVGATOR_PLAYER__["5c7f360c"]=n())}(this,(function(){"use strict";function t(t,n){var e=Object.keys(t);if(Object.getOwnPropertySymbols){var r=Object.getOwnPropertySymbols(t);n&&(r=r.filter((function(n){return Object.getOwnPropertyDescriptor(t,n).enumerable}))),e.push.apply(e,r)}return e}function n(n){for(var e=1;e<arguments.length;e++){var r=null!=arguments[e]?arguments[e]:{};e%2?t(Object(r),!0).forEach((function(t){o(n,t,r[t])})):Object.getOwnPropertyDescriptors?Object.defineProperties(n,Object.getOwnPropertyDescriptors(r)):t(Object(r)).forEach((function(t){Object.defineProperty(n,t,Object.getOwnPropertyDescriptor(r,t))}))}return n}function e(t){return(e="function"==typeof Symbol&&"symbol"==typeof Symbol.iterator?function(t){return typeof t}:function(t){return t&&"function"==typeof Symbol&&t.constructor===Symbol&&t!==Symbol.prototype?"symbol":typeof t})(t)}function r(t,n){if(!(t instanceof n))throw new TypeError("Cannot call a class as a function")}function i(t,n){for(var e=0;e<n.length;e++){var r=n[e];r.enumerable=r.enumerable||!1,r.configurable=!0,"value"in r&&(r.writable=!0),Object.defineProperty(t,r.key,r)}}function u(t,n,e){return n&&i(t.prototype,n),e&&i(t,e),t}function o(t,n,e){return n in t?Object.defineProperty(t,n,{value:e,enumerable:!0,configurable:!0,writable:!0}):t[n]=e,t}function a(t){return(a=Object.setPrototypeOf?Object.getPrototypeOf:function(t){return t.__proto__||Object.getPrototypeOf(t)})(t)}function l(t,n){return(l=Object.setPrototypeOf||function(t,n){return t.__proto__=n,t})(t,n)}function s(){if("undefined"==typeof Reflect||!Reflect.construct)return!1;if(Reflect.construct.sham)return!1;if("function"==typeof Proxy)return!0;try{return Boolean.prototype.valueOf.call(Reflect.construct(Boolean,[],(function(){}))),!0}catch(t){return!1}}function f(t,n,e){return(f=s()?Reflect.construct:function(t,n,e){var r=[null];r.push.apply(r,n);var i=new(Function.bind.apply(t,r));return e&&l(i,e.prototype),i}).apply(null,arguments)}function c(t,n){if(n&&("object"==typeof n||"function"==typeof n))return n;if(void 0!==n)throw new TypeError("Derived constructors may only return object or undefined");return function(t){if(void 0===t)throw new ReferenceError("this hasn't been initialised - super() hasn't been called");return t}(t)}function h(t,n,e){return(h="undefined"!=typeof Reflect&&Reflect.get?Reflect.get:function(t,n,e){var r=function(t,n){for(;!Object.prototype.hasOwnProperty.call(t,n)&&null!==(t=a(t)););return t}(t,n);if(r){var i=Object.getOwnPropertyDescriptor(r,n);return i.get?i.get.call(e):i.value}})(t,n,e||t)}function v(t){return function(t){if(Array.isArray(t))return y(t)}(t)||function(t){if("undefined"!=typeof Symbol&&null!=t[Symbol.iterator]||null!=t["@@iterator"])return Array.from(t)}(t)||function(t,n){if(!t)return;if("string"==typeof t)return y(t,n);var e=Object.prototype.toString.call(t).slice(8,-1);"Object"===e&&t.constructor&&(e=t.constructor.name);if("Map"===e||"Set"===e)return Array.from(t);if("Arguments"===e||/^(?:Ui|I)nt(?:8|16|32)(?:Clamped)?Array$/.test(e))return y(t,n)}(t)||function(){throw new TypeError("Invalid attempt to spread non-iterable instance.\nIn order to be iterable, non-array objects must have a [Symbol.iterator]() method.")}()}function y(t,n){(null==n||n>t.length)&&(n=t.length);for(var e=0,r=new Array(n);e<n;e++)r[e]=t[e];return r}Number.isInteger||(Number.isInteger=function(t){return"number"==typeof t&&isFinite(t)&&Math.floor(t)===t}),Number.EPSILON||(Number.EPSILON=2220446049250313e-31);var g=d(Math.pow(10,-6));function d(t){var n=arguments.length>1&&void 0!==arguments[1]?arguments[1]:6;if(Number.isInteger(t))return t;var e=Math.pow(10,n);return Math.round((+t+Number.EPSILON)*e)/e}function p(t,n){var e=arguments.length>2&&void 0!==arguments[2]?arguments[2]:g;return Math.abs(t-n)<e}var m=Math.PI/180;function b(t){return t}function w(t,n,e){var r=1-e;return 3*e*r*(t*r+n*e)+e*e*e}function x(){var t=arguments.length>0&&void 0!==arguments[0]?arguments[0]:0,n=arguments.length>1&&void 0!==arguments[1]?arguments[1]:0,e=arguments.length>2&&void 0!==arguments[2]?arguments[2]:1,r=arguments.length>3&&void 0!==arguments[3]?arguments[3]:1;return t<0||t>1||e<0||e>1?null:p(t,n)&&p(e,r)?b:function(i){if(i<=0)return t>0?i*n/t:0===n&&e>0?i*r/e:0;if(i>=1)return e<1?1+(i-1)*(r-1)/(e-1):1===e&&t<1?1+(i-1)*(n-1)/(t-1):1;for(var u,o=0,a=1;o<a;){var l=w(t,e,u=(o+a)/2);if(p(i,l))break;l<i?o=u:a=u}return w(n,r,u)}}function A(){return 1}function k(t){return 1===t?1:0}function _(){var t=arguments.length>0&&void 0!==arguments[0]?arguments[0]:1,n=arguments.length>1&&void 0!==arguments[1]?arguments[1]:0;if(1===t){if(0===n)return k;if(1===n)return A}var e=1/t;return function(t){return t>=1?1:(t+=n*e)-t%e}}var S=Math.sin,O=Math.cos,j=Math.acos,M=Math.asin,P=Math.tan,E=Math.atan2,I=Math.PI/180,R=180/Math.PI,F=Math.sqrt,N=function(){function t(){var n=arguments.length>0&&void 0!==arguments[0]?arguments[0]:1,e=arguments.length>1&&void 0!==arguments[1]?arguments[1]:0,i=arguments.length>2&&void 0!==arguments[2]?arguments[2]:0,u=arguments.length>3&&void 0!==arguments[3]?arguments[3]:1,o=arguments.length>4&&void 0!==arguments[4]?arguments[4]:0,a=arguments.length>5&&void 0!==arguments[5]?arguments[5]:0;r(this,t),this.m=[n,e,i,u,o,a],this.i=null,this.w=null,this.s=null}return u(t,[{key:"determinant",get:function(){var t=this.m;return t[0]*t[3]-t[1]*t[2]}},{key:"isIdentity",get:function(){if(null===this.i){var t=this.m;this.i=1===t[0]&&0===t[1]&&0===t[2]&&1===t[3]&&0===t[4]&&0===t[5]}return this.i}},{key:"point",value:function(t,n){var e=this.m;return{x:e[0]*t+e[2]*n+e[4],y:e[1]*t+e[3]*n+e[5]}}},{key:"translateSelf",value:function(){var t=arguments.length>0&&void 0!==arguments[0]?arguments[0]:0,n=arguments.length>1&&void 0!==arguments[1]?arguments[1]:0;if(!t&&!n)return this;var e=this.m;return e[4]+=e[0]*t+e[2]*n,e[5]+=e[1]*t+e[3]*n,this.w=this.s=this.i=null,this}},{key:"rotateSelf",value:function(){var t=arguments.length>0&&void 0!==arguments[0]?arguments[0]:0;if(t%=360){var n=S(t*=I),e=O(t),r=this.m,i=r[0],u=r[1];r[0]=i*e+r[2]*n,r[1]=u*e+r[3]*n,r[2]=r[2]*e-i*n,r[3]=r[3]*e-u*n,this.w=this.s=this.i=null}return this}},{key:"scaleSelf",value:function(){var t=arguments.length>0&&void 0!==arguments[0]?arguments[0]:1,n=arguments.length>1&&void 0!==arguments[1]?arguments[1]:1;if(1!==t||1!==n){var e=this.m;e[0]*=t,e[1]*=t,e[2]*=n,e[3]*=n,this.w=this.s=this.i=null}return this}},{key:"skewSelf",value:function(t,n){if(n%=360,(t%=360)||n){var e=this.m,r=e[0],i=e[1],u=e[2],o=e[3];t&&(t=P(t*I),e[2]+=r*t,e[3]+=i*t),n&&(n=P(n*I),e[0]+=u*n,e[1]+=o*n),this.w=this.s=this.i=null}return this}},{key:"resetSelf",value:function(){var t=arguments.length>0&&void 0!==arguments[0]?arguments[0]:1,n=arguments.length>1&&void 0!==arguments[1]?arguments[1]:0,e=arguments.length>2&&void 0!==arguments[2]?arguments[2]:0,r=arguments.length>3&&void 0!==arguments[3]?arguments[3]:1,i=arguments.length>4&&void 0!==arguments[4]?arguments[4]:0,u=arguments.length>5&&void 0!==arguments[5]?arguments[5]:0,o=this.m;return o[0]=t,o[1]=n,o[2]=e,o[3]=r,o[4]=i,o[5]=u,this.w=this.s=this.i=null,this}},{key:"recomposeSelf",value:function(){var t=arguments.length>0&&void 0!==arguments[0]?arguments[0]:null,n=arguments.length>1&&void 0!==arguments[1]?arguments[1]:null,e=arguments.length>2&&void 0!==arguments[2]?arguments[2]:null,r=arguments.length>3&&void 0!==arguments[3]?arguments[3]:null,i=arguments.length>4&&void 0!==arguments[4]?arguments[4]:null;return this.isIdentity||this.resetSelf(),t&&(t.x||t.y)&&this.translateSelf(t.x,t.y),n&&this.rotateSelf(n),e&&(e.x&&this.skewSelf(e.x,0),e.y&&this.skewSelf(0,e.y)),!r||1===r.x&&1===r.y||this.scaleSelf(r.x,r.y),i&&(i.x||i.y)&&this.translateSelf(i.x,i.y),this}},{key:"decompose",value:function(){var t=arguments.length>0&&void 0!==arguments[0]?arguments[0]:0,n=arguments.length>1&&void 0!==arguments[1]?arguments[1]:0,e=this.m,r=e[0]*e[0]+e[1]*e[1],i=[[e[0],e[1]],[e[2],e[3]]],u=F(r);if(0===u)return{origin:{x:d(e[4]),y:d(e[5])},translate:{x:d(t),y:d(n)},scale:{x:0,y:0},skew:{x:0,y:0},rotate:0};i[0][0]/=u,i[0][1]/=u;var o=e[0]*e[3]-e[1]*e[2]<0;o&&(u=-u);var a=i[0][0]*i[1][0]+i[0][1]*i[1][1];i[1][0]-=i[0][0]*a,i[1][1]-=i[0][1]*a;var l=F(i[1][0]*i[1][0]+i[1][1]*i[1][1]);if(0===l)return{origin:{x:d(e[4]),y:d(e[5])},translate:{x:d(t),y:d(n)},scale:{x:d(u),y:0},skew:{x:0,y:0},rotate:0};i[1][0]/=l,i[1][1]/=l,a/=l;var s=0;return i[1][1]<0?(s=j(i[1][1])*R,i[0][1]<0&&(s=360-s)):s=M(i[0][1])*R,o&&(s=-s),a=E(a,F(i[0][0]*i[0][0]+i[0][1]*i[0][1]))*R,o&&(a=-a),{origin:{x:d(e[4]),y:d(e[5])},translate:{x:d(t),y:d(n)},scale:{x:d(u),y:d(l)},skew:{x:d(a),y:0},rotate:d(s)}}},{key:"clone",value:function(){var t=this.m;return new this.constructor(t[0],t[1],t[2],t[3],t[4],t[5])}},{key:"toString",value:function(){var t=arguments.length>0&&void 0!==arguments[0]?arguments[0]:" ";if(null===this.s){var n=this.m.map((function(t){return d(t)}));1===n[0]&&0===n[1]&&0===n[2]&&1===n[3]?this.s="translate("+n[4]+t+n[5]+")":this.s="matrix("+n.join(t)+")"}return this.s}}],[{key:"create",value:function(t){return t?Array.isArray(t)?f(this,v(t)):t instanceof this?t.clone():(new this).recomposeSelf(t.origin,t.rotate,t.skew,t.scale,t.translate):new this}}]),t}();function T(t,n,e){return t>=.5?e:n}function q(t,n,e){return 0===t||n===e?n:t*(e-n)+n}function B(t,n,e){var r=q(t,n,e);return r<=0?0:r}function L(t,n,e){var r=q(t,n,e);return r<=0?0:r>=1?1:r}function C(t,n,e){return 0===t?n:1===t?e:{x:q(t,n.x,e.x),y:q(t,n.y,e.y)}}function D(t,n,e){var r=function(t,n,e){return Math.round(q(t,n,e))}(t,n,e);return r<=0?0:r>=255?255:r}function z(t,n,e){return 0===t?n:1===t?e:{r:D(t,n.r,e.r),g:D(t,n.g,e.g),b:D(t,n.b,e.b),a:q(t,null==n.a?1:n.a,null==e.a?1:e.a)}}function V(t,n){for(var e=[],r=0;r<t;r++)e.push(n);return e}function G(t,n){if(--n<=0)return t;var e=(t=Object.assign([],t)).length;do{for(var r=0;r<e;r++)t.push(t[r])}while(--n>0);return t}var Y,$=function(){function t(n){r(this,t),this.list=n,this.length=n.length}return u(t,[{key:"setAttribute",value:function(t,n){for(var e=this.list,r=0;r<this.length;r++)e[r].setAttribute(t,n)}},{key:"removeAttribute",value:function(t){for(var n=this.list,e=0;e<this.length;e++)n[e].removeAttribute(t)}},{key:"style",value:function(t,n){for(var e=this.list,r=0;r<this.length;r++)e[r].style[t]=n}}]),t}(),U=/-./g,Q=function(t,n){return n.toUpperCase()};function H(t){return"function"==typeof t?t:T}function J(t){return t?"function"==typeof t?t:Array.isArray(t)?function(t){var n=arguments.length>1&&void 0!==arguments[1]?arguments[1]:b;if(!Array.isArray(t))return n;switch(t.length){case 1:return _(t[0])||n;case 2:return _(t[0],t[1])||n;case 4:return x(t[0],t[1],t[2],t[3])||n}return n}(t,null):function(t,n){var e=arguments.length>2&&void 0!==arguments[2]?arguments[2]:b;switch(t){case"linear":return b;case"steps":return _(n.steps||1,n.jump||0)||e;case"bezier":case"cubic-bezier":return x(n.x1||0,n.y1||0,n.x2||0,n.y2||0)||e}return e}(t.type,t.value,null):null}function Z(t,n,e){var r=arguments.length>3&&void 0!==arguments[3]&&arguments[3],i=n.length-1;if(t<=n[0].t)return r?[0,0,n[0].v]:n[0].v;if(t>=n[i].t)return r?[i,1,n[i].v]:n[i].v;var u,o=n[0],a=null;for(u=1;u<=i;u++){if(!(t>n[u].t)){a=n[u];break}o=n[u]}return null==a?r?[i,1,n[i].v]:n[i].v:o.t===a.t?r?[u,1,a.v]:a.v:(t=(t-o.t)/(a.t-o.t),o.e&&(t=o.e(t)),r?[u,t,e(t,o.v,a.v)]:e(t,o.v,a.v))}function K(t,n){var e=arguments.length>2&&void 0!==arguments[2]?arguments[2]:null;return t&&t.length?"function"!=typeof n?null:("function"!=typeof e&&(e=null),function(r){var i=Z(r,t,n);return null!=i&&e&&(i=e(i)),i}):null}function W(t,n){return t.t-n.t}function X(t,n,r,i,u){var o,a="@"===r[0],l="#"===r[0],s=Y[r],f=T;switch(a?(o=r.substr(1),r=o.replace(U,Q)):l&&(r=r.substr(1)),e(s)){case"function":if(f=s(i,u,Z,J,r,a,n,t),l)return f;break;case"string":f=K(i,H(s));break;case"object":if((f=K(i,H(s.i),s.f))&&"function"==typeof s.u)return s.u(n,f,r,a,t)}return f?function(t,n,e){if(arguments.length>3&&void 0!==arguments[3]&&arguments[3])return t instanceof $?function(r){return t.style(n,e(r))}:function(r){return t.style[n]=e(r)};if(Array.isArray(n)){var r=n.length;return function(i){var u=e(i);if(null==u)for(var o=0;o<r;o++)t[o].removeAttribute(n);else for(var a=0;a<r;a++)t[a].setAttribute(n,u)}}return function(r){var i=e(r);null==i?t.removeAttribute(n):t.setAttribute(n,i)}}(n,r,f,a):null}function tt(t,n,r,i){if(!i||"object"!==e(i))return null;var u=null,o=null;return Array.isArray(i)?o=function(t){if(!t||!t.length)return null;for(var n=0;n<t.length;n++)t[n].e&&(t[n].e=J(t[n].e));return t.sort(W)}(i):(o=i.keys,u=i.data||null),o?X(t,n,r,o,u):null}function nt(t,n,e){if(!e)return null;var r=[];for(var i in e)if(e.hasOwnProperty(i)){var u=tt(t,n,i,e[i]);u&&r.push(u)}return r.length?r:null}function et(t,n){if(!n.settings.duration||n.settings.duration<0)return null;var e,r,i,u,o,a=function(t,n){if(!n)return null;var e=[];if(Array.isArray(n))for(var r=n.length,i=0;i<r;i++){var u=n[i];if(2===u.length){var o=null;if("string"==typeof u[0])o=t.getElementById(u[0]);else if(Array.isArray(u[0])){o=[];for(var a=0;a<u[0].length;a++)if("string"==typeof u[0][a]){var l=t.getElementById(u[0][a]);l&&o.push(l)}o=o.length?1===o.length?o[0]:new $(o):null}if(o){var s=nt(t,o,u[1]);s&&(e=e.concat(s))}}}else for(var f in n)if(n.hasOwnProperty(f)){var c=t.getElementById(f);if(c){var h=nt(t,c,n[f]);h&&(e=e.concat(h))}}return e.length?e:null}(t,n.elements);return a?(e=a,r=n.settings,i=r.duration,u=e.length,o=null,function(t,n){var a=r.iterations||1/0,l=(r.alternate&&a%2==0)^r.direction>0?i:0,s=t%i,f=1+(t-s)/i;n*=r.direction,r.alternate&&f%2==0&&(n=-n);var c=!1;if(f>a)s=l,c=!0,-1===r.fill&&(s=r.direction>0?0:i);else if(n<0&&(s=i-s),s===o)return!1;o=s;for(var h=0;h<u;h++)e[h](s);return c}):null}function rt(t,n){if(Y=n,!t||!t.root||!Array.isArray(t.animations))return null;var e=function(t){for(var n=document.getElementsByTagName("svg"),e=0;e<n.length;e++)if(n[e].id===t.root&&!n[e].svgatorAnimation)return n[e].svgatorAnimation=!0,n[e];return null}(t);if(!e)return null;var r=t.animations.map((function(t){return et(e,t)})).filter((function(t){return!!t}));return r.length?{svg:e,animations:r,animationSettings:t.animationSettings,options:t.options||void 0}:null}function it(t){return+("0x"+(t.replace(/[^0-9a-fA-F]+/g,"")||27))}function ut(t,n,e){return!t||!e||n>t.length?t:t.substring(0,n)+ut(t.substring(n+1),e,e)}function ot(t){var n=arguments.length>1&&void 0!==arguments[1]?arguments[1]:27;return!t||t%n?t%n:ot(t/n,n)}function at(t,n,e){if(t&&t.length){var r=it(e),i=it(n),u=ot(r)+5,o=ut(t,ot(r,5),u);return o=o.replace(/\x7c$/g,"==").replace(/\x2f$/g,"="),o=function(t,n,e){var r=+("0x"+t.substring(0,4));t=t.substring(4);for(var i=n%r+e%27,u=[],o=0;o<t.length;o+=2)if("|"!==t[o]){var a=+("0x"+t[o]+t[o+1])-i;u.push(a)}else{var l=+("0x"+t.substring(o+1,o+1+4))-i;o+=3,u.push(l)}return String.fromCharCode.apply(String,u)}(o=(o=atob(o)).replace(/[\x41-\x5A]/g,""),i,r),o=JSON.parse(o)}}var lt=[{key:"alternate",def:!1},{key:"fill",def:1},{key:"iterations",def:0},{key:"direction",def:1},{key:"speed",def:1},{key:"fps",def:100}],st=function(){function t(n,e){var i=this,u=arguments.length>2&&void 0!==arguments[2]?arguments[2]:null;r(this,t),this._id=0,this._running=!1,this._rollingBack=!1,this._animations=n,this._settings=e,(!u||u<"2022-05-02")&&delete this._settings.speed,lt.forEach((function(t){i._settings[t.key]=i._settings[t.key]||t.def})),this.duration=e.duration,this.offset=e.offset||0,this.rollbackStartOffset=0}return u(t,[{key:"alternate",get:function(){return this._settings.alternate}},{key:"fill",get:function(){return this._settings.fill}},{key:"iterations",get:function(){return this._settings.iterations}},{key:"direction",get:function(){return this._settings.direction}},{key:"speed",get:function(){return this._settings.speed}},{key:"fps",get:function(){return this._settings.fps}},{key:"maxFiniteDuration",get:function(){return this.iterations>0?this.iterations*this.duration:this.duration}},{key:"_apply",value:function(t){for(var n=arguments.length>1&&void 0!==arguments[1]?arguments[1]:{},e=this._animations,r=e.length,i=0,u=0;u<r;u++)n[u]?i++:(n[u]=e[u](t,1),n[u]&&i++);return i}},{key:"_rollback",value:function(t){var n=this,e=1/0,r=null;this.rollbackStartOffset=t,this._rollingBack=!0,this._running=!0;this._id=window.requestAnimationFrame((function i(u){if(n._rollingBack){null==r&&(r=u);var o=Math.round(t-(u-r)*n.speed);if(o>n.duration&&e!==1/0){var a=!!n.alternate&&o/n.duration%2>1,l=o%n.duration;o=(l+=a?n.duration:0)||n.duration}var s=(n.fps?1e3/n.fps:0)*n.speed,f=Math.max(0,o);f<e-s&&(n.offset=f,e=f,n._apply(f));var c=n.iterations>0&&-1===n.fill&&o>=n.maxFiniteDuration;(o<=0||n.offset<o||c)&&n.stop(),n._id=window.requestAnimationFrame(i)}}))}},{key:"_start",value:function(){var t=this,n=arguments.length>0&&void 0!==arguments[0]?arguments[0]:0,e=-1/0,r=null,i={};this._running=!0;var u=function u(o){null==r&&(r=o);var a=Math.round((o-r)*t.speed+n),l=(t.fps?1e3/t.fps:0)*t.speed;if(a>e+l&&!t._rollingBack&&(t.offset=a,e=a,t._apply(a,i)===t._animations.length))return void t.pause(!0);t._id=window.requestAnimationFrame(u)};this._id=window.requestAnimationFrame(u)}},{key:"_pause",value:function(){this._id&&window.cancelAnimationFrame(this._id),this._running=!1}},{key:"play",value:function(){if(!this._running)return this._rollingBack?this._rollback(this.offset):this._start(this.offset)}},{key:"stop",value:function(){this._pause(),this.offset=0,this.rollbackStartOffset=0,this._rollingBack=!1,this._apply(0)}},{key:"reachedToEnd",value:function(){return this.iterations>0&&this.offset>=this.iterations*this.duration}},{key:"restart",value:function(){var t=arguments.length>0&&void 0!==arguments[0]&&arguments[0];this.stop(t),this.play(t)}},{key:"pause",value:function(){this._pause()}},{key:"reverse",value:function(){this.direction=-this.direction}}],[{key:"build",value:function(t,n){delete t.animationSettings,t.options=at(t.options,t.root,"5c7f360c"),t.animations.map((function(n){n.settings=at(n.s,t.root,"5c7f360c"),delete n.s,t.animationSettings||(t.animationSettings=n.settings)}));var e=t.version;if(!(t=rt(t,n)))return null;var r=t.options||{},i=new this(t.animations,t.animationSettings,e);return{el:t.svg,options:r,player:i}}},{key:"push",value:function(t){return this.build(t)}},{key:"init",value:function(){var t=this,n=window.__SVGATOR_PLAYER__&&window.__SVGATOR_PLAYER__["5c7f360c"];Array.isArray(n)&&n.splice(0).forEach((function(n){return t.build(n)}))}}]),t}();function ft(t){return d(t)+""}function ct(t){var n=arguments.length>1&&void 0!==arguments[1]?arguments[1]:" ";return t&&t.length?t.map(ft).join(n):""}function ht(t){if(!t)return"transparent";if(null==t.a||t.a>=1){var n=function(t){return 1===(t=parseInt(t).toString(16)).length?"0"+t:t},e=function(t){return t.charAt(0)===t.charAt(1)},r=n(t.r),i=n(t.g),u=n(t.b);return e(r)&&e(i)&&e(u)&&(r=r.charAt(0),i=i.charAt(0),u=u.charAt(0)),"#"+r+i+u}return"rgba("+t.r+","+t.g+","+t.b+","+t.a+")"}function vt(t){return t?"url(#"+t+")":"none"}!function(){for(var t=0,n=["ms","moz","webkit","o"],e=0;e<n.length&&!window.requestAnimationFrame;++e)window.requestAnimationFrame=window[n[e]+"RequestAnimationFrame"],window.cancelAnimationFrame=window[n[e]+"CancelAnimationFrame"]||window[n[e]+"CancelRequestAnimationFrame"];window.requestAnimationFrame||(window.requestAnimationFrame=function(n){var e=Date.now(),r=Math.max(0,16-(e-t)),i=window.setTimeout((function(){n(e+r)}),r);return t=e+r,i},window.cancelAnimationFrame=window.clearTimeout)}();var yt={f:null,i:function(t,n,e){return 0===t?n:1===t?e:{x:B(t,n.x,e.x),y:B(t,n.y,e.y)}},u:function(t,n){return function(e){var r=n(e);t.setAttribute("rx",ft(r.x)),t.setAttribute("ry",ft(r.y))}}},gt={f:null,i:function(t,n,e){return 0===t?n:1===t?e:{width:B(t,n.width,e.width),height:B(t,n.height,e.height)}},u:function(t,n){return function(e){var r=n(e);t.setAttribute("width",ft(r.width)),t.setAttribute("height",ft(r.height))}}};Object.freeze({M:2,L:2,Z:0,H:1,V:1,C:6,Q:4,T:2,S:4,A:7});var dt={},pt=null;function mt(t){var n=function(){if(pt)return pt;if("object"!==("undefined"==typeof document?"undefined":e(document))||!document.createElementNS)return{};var t=document.createElementNS("http://www.w3.org/2000/svg","svg");return t&&t.style?(t.style.position="absolute",t.style.opacity="0.01",t.style.zIndex="-9999",t.style.left="-9999px",t.style.width="1px",t.style.height="1px",pt={svg:t}):{}}().svg;if(!n)return function(t){return null};var r=document.createElementNS(n.namespaceURI,"path");r.setAttributeNS(null,"d",t),r.setAttributeNS(null,"fill","none"),r.setAttributeNS(null,"stroke","none"),n.appendChild(r);var i=r.getTotalLength();return function(t){var n=r.getPointAtLength(i*t);return{x:n.x,y:n.y}}}function bt(t){return dt[t]?dt[t]:dt[t]=mt(t)}function wt(t,n,e,r){if(!t||!r)return!1;var i=["M",t.x,t.y];if(n&&e&&(i.push("C"),i.push(n.x),i.push(n.y),i.push(e.x),i.push(e.y)),n?!e:e){var u=n||e;i.push("Q"),i.push(u.x),i.push(u.y)}return n||e||i.push("L"),i.push(r.x),i.push(r.y),i.join(" ")}function xt(t,n,e,r){var i=arguments.length>4&&void 0!==arguments[4]?arguments[4]:1,u=wt(t,n,e,r),o=bt(u);try{return o(i)}catch(t){return null}}function At(t,n,e){return t+(n-t)*e}function kt(t,n,e){var r=arguments.length>3&&void 0!==arguments[3]&&arguments[3],i={x:At(t.x,n.x,e),y:At(t.y,n.y,e)};return r&&(i.a=_t(t,n)),i}function _t(t,n){return Math.atan2(n.y-t.y,n.x-t.x)}function St(t,n,e,r){var i=1-r;return i*i*t+2*i*r*n+r*r*e}function Ot(t,n,e,r){return 2*(1-r)*(n-t)+2*r*(e-n)}function jt(t,n,e,r){var i=arguments.length>4&&void 0!==arguments[4]&&arguments[4],u=xt(t,n,null,e,r);return u||(u={x:St(t.x,n.x,e.x,r),y:St(t.y,n.y,e.y,r)}),i&&(u.a=Mt(t,n,e,r)),u}function Mt(t,n,e,r){return Math.atan2(Ot(t.y,n.y,e.y,r),Ot(t.x,n.x,e.x,r))}function Pt(t,n,e,r,i){var u=i*i;return i*u*(r-t+3*(n-e))+3*u*(t+e-2*n)+3*i*(n-t)+t}function Et(t,n,e,r,i){var u=1-i;return 3*(u*u*(n-t)+2*u*i*(e-n)+i*i*(r-e))}function It(t,n,e,r,i){var u=arguments.length>5&&void 0!==arguments[5]&&arguments[5],o=xt(t,n,e,r,i);return o||(o={x:Pt(t.x,n.x,e.x,r.x,i),y:Pt(t.y,n.y,e.y,r.y,i)}),u&&(o.a=Rt(t,n,e,r,i)),o}function Rt(t,n,e,r,i){return Math.atan2(Et(t.y,n.y,e.y,r.y,i),Et(t.x,n.x,e.x,r.x,i))}function Ft(t,n,e){var r=arguments.length>3&&void 0!==arguments[3]&&arguments[3];if(Tt(n)){if(qt(e))return jt(n,e.start,e,t,r)}else if(Tt(e)){if(Bt(n))return jt(n,n.end,e,t,r)}else{if(Bt(n))return qt(e)?It(n,n.end,e.start,e,t,r):jt(n,n.end,e,t,r);if(qt(e))return jt(n,e.start,e,t,r)}return kt(n,e,t,r)}function Nt(t,n,e){var r=Ft(t,n,e,!0);return r.a=function(t){return arguments.length>1&&void 0!==arguments[1]&&arguments[1]?t+Math.PI:t}(r.a)/m,r}function Tt(t){return!t.type||"corner"===t.type}function qt(t){return null!=t.start&&!Tt(t)}function Bt(t){return null!=t.end&&!Tt(t)}var Lt=new N;var Ct={f:ft,i:q},Dt={f:ft,i:L};function zt(t,n,e){return t.map((function(t){return function(t,n,e){var r=t.v;if(!r||"g"!==r.t||r.s||!r.v||!r.r)return t;var i=e.getElementById(r.r),u=i&&i.querySelectorAll("stop")||[];return r.s=r.v.map((function(t,n){var e=u[n]&&u[n].getAttribute("offset");return{c:t,o:e=d(parseInt(e)/100)}})),delete r.v,t}(t,0,e)}))}var Vt={gt:"gradientTransform",c:{x:"cx",y:"cy"},rd:"r",f:{x:"x1",y:"y1"},to:{x:"x2",y:"y2"}};function Gt(t,n,r,i,u,o,a,l){return zt(t,0,l),n=function(t,n,e){for(var r,i,u,o=t.length-1,a={},l=0;l<=o;l++)(r=t[l]).e&&(r.e=n(r.e)),r.v&&"g"===(i=r.v).t&&i.r&&(u=e.getElementById(i.r))&&(a[i.r]={e:u,s:u.querySelectorAll("stop")});return a}(t,i,l),function(i){var u=r(i,t,Yt);if(!u)return"none";if("c"===u.t)return ht(u.v);if("g"===u.t){if(!n[u.r])return vt(u.r);var o=n[u.r];return function(t,n){for(var e=t.s,r=e.length;r<n.length;r++){var i=e[e.length-1].cloneNode();i.id=Qt(i.id),t.e.appendChild(i),e=t.s=t.e.querySelectorAll("stop")}for(var u=0,o=e.length,a=n.length-1;u<o;u++)e[u].setAttribute("stop-color",ht(n[Math.min(u,a)].c)),e[u].setAttribute("offset",n[Math.min(u,a)].o)}(o,u.s),Object.keys(Vt).forEach((function(t){if(void 0!==u[t])if("object"!==e(Vt[t])){var n,r="gt"===t?(n=u[t],Array.isArray(n)?"matrix("+n.join(" ")+")":""):u[t],i=Vt[t];o.e.setAttribute(i,r)}else Object.keys(Vt[t]).forEach((function(n){if(void 0!==u[t][n]){var e=u[t][n],r=Vt[t][n];o.e.setAttribute(r,e)}}))})),vt(u.r)}return"none"}}function Yt(t,e,r){if(0===t)return e;if(1===t)return r;if(e&&r){var i=e.t;if(i===r.t)switch(e.t){case"c":return{t:i,v:z(t,e.v,r.v)};case"g":if(e.r===r.r){var u={t:i,s:$t(t,e.s,r.s),r:e.r};return e.gt&&r.gt&&(u.gt=function(t,n,e){var r=n.length;if(r!==e.length)return T(t,n,e);for(var i=new Array(r),u=0;u<r;u++)i[u]=q(t,n[u],e[u]);return i}(t,e.gt,r.gt)),e.c?(u.c=C(t,e.c,r.c),u.rd=B(t,e.rd,r.rd)):e.f&&(u.f=C(t,e.f,r.f),u.to=C(t,e.to,r.to)),u}}if("c"===e.t&&"g"===r.t||"c"===r.t&&"g"===e.t){var o="c"===e.t?e:r,a="g"===e.t?n({},e):n({},r),l=a.s.map((function(t){return{c:o.v,o:t.o}}));return a.s="c"===e.t?$t(t,l,a.s):$t(t,a.s,l),a}}return T(t,e,r)}function $t(t,n,e){if(n.length===e.length)return n.map((function(n,r){return Ut(t,n,e[r])}));for(var r=Math.max(n.length,e.length),i=[],u=0;u<r;u++){var o=Ut(t,n[Math.min(u,n.length-1)],e[Math.min(u,e.length-1)]);i.push(o)}return i}function Ut(t,n,e){return{o:L(t,n.o,e.o||0),c:z(t,n.c,e.c||{})}}function Qt(t){return t.replace(/-fill-([0-9]+)$/,(function(t,n){return"-fill-"+(+n+1)}))}var Ht={fill:Gt,"fill-opacity":Dt,stroke:Gt,"stroke-opacity":Dt,"stroke-width":Ct,"stroke-dashoffset":{f:ft,i:q},"stroke-dasharray":{f:function(t){var n=arguments.length>1&&void 0!==arguments[1]?arguments[1]:" ";return t&&t.length>0&&(t=t.map((function(t){return d(t,4)}))),ct(t,n)},i:function(t,n,e){var r,i,u,o=n.length,a=e.length;if(o!==a)if(0===o)n=V(o=a,0);else if(0===a)a=o,e=V(o,0);else{var l=(u=(r=o)*(i=a)/function(t,n){for(var e;n;)e=n,n=t%n,t=e;return t||1}(r,i))<0?-u:u;n=G(n,Math.floor(l/o)),e=G(e,Math.floor(l/a)),o=a=l}for(var s=[],f=0;f<o;f++)s.push(d(B(t,n[f],e[f])));return s}},opacity:Dt,transform:function(t,n,r,i){if(!(t=function(t,n){if(!t||"object"!==e(t))return null;var r=!1;for(var i in t)t.hasOwnProperty(i)&&(t[i]&&t[i].length?(t[i].forEach((function(t){t.e&&(t.e=n(t.e))})),r=!0):delete t[i]);return r?t:null}(t,i)))return null;var u=function(e,i,u){var o=arguments.length>3&&void 0!==arguments[3]?arguments[3]:null;return t[e]?r(i,t[e],u):n&&n[e]?n[e]:o};return n&&n.a&&t.o?function(n){var e=r(n,t.o,Nt);return Lt.recomposeSelf(e,u("r",n,q,0)+e.a,u("k",n,C),u("s",n,C),u("t",n,C)).toString()}:function(t){return Lt.recomposeSelf(u("o",t,Ft,null),u("r",t,q,0),u("k",t,C),u("s",t,C),u("t",t,C)).toString()}},r:Ct,"#size":gt,"#radius":yt,_:function(t,n){if(Array.isArray(t))for(var e=0;e<t.length;e++)this[t[e]]=n;else this[t]=n}},Jt=function(t){!function(t,n){if("function"!=typeof n&&null!==n)throw new TypeError("Super expression must either be null or a function");t.prototype=Object.create(n&&n.prototype,{constructor:{value:t,writable:!0,configurable:!0}}),n&&l(t,n)}(o,t);var n,e,i=(n=o,e=s(),function(){var t,r=a(n);if(e){var i=a(this).constructor;t=Reflect.construct(r,arguments,i)}else t=r.apply(this,arguments);return c(this,t)});function o(){return r(this,o),i.apply(this,arguments)}return u(o,null,[{key:"build",value:function(t){var n=h(a(o),"build",this).call(this,t,Ht);if(!n)return null;n.el,n.options,function(t,n,e){t.play()}(n.player)}}]),o}(st);return Jt.init(),Jt}));
(function(s,i,o,w,a,b){w[o]=w[o]||{};w[o][s]=w[o][s]||[];w[o][s].push(i);})('5c7f360c',{"root":"evxH3WKEOoU1","version":"2022-05-04","animations":[{"elements":{"evxH3WKEOoU23":{"transform":{"data":{"t":{"x":-234.499512,"y":-77.115284}},"keys":{"o":[{"t":0,"v":{"x":234.500008,"y":328.019897,"type":"corner"}},{"t":500,"v":{"x":234.495345,"y":328.019897,"type":"corner"}},{"t":600,"v":{"x":234.500008,"y":78.634724,"type":"corner"}},{"t":1200,"v":{"x":234.731926,"y":78.165097,"type":"corner"}},{"t":1300,"v":{"x":234.499512,"y":139.998387,"type":"corner"}},{"t":1900,"v":{"x":234.443297,"y":139.998387,"type":"corner"}},{"t":2000,"v":{"x":234.500008,"y":203.887176,"type":"corner"}},{"t":2700,"v":{"x":234.500008,"y":204.000824,"type":"corner"}},{"t":2800,"v":{"x":234.488017,"y":265.363987,"type":"corner"}},{"t":3400,"v":{"x":234.500008,"y":265.363987,"type":"corner"}},{"t":3500,"v":{"x":234.488017,"y":327.838521,"type":"corner"}}]}},"opacity":[{"t":0,"v":1},{"t":500,"v":1},{"t":600,"v":0},{"t":700,"v":1},{"t":1200,"v":1},{"t":1300,"v":0},{"t":1400,"v":1},{"t":1900,"v":1},{"t":2000,"v":0},{"t":2100,"v":1},{"t":2600,"v":1},{"t":2700,"v":0},{"t":2800,"v":1},{"t":3300,"v":1},{"t":3400,"v":0},{"t":3500,"v":1}]},"evxH3WKEOoU29":{"transform":{"data":{"t":{"x":-255.273003,"y":-126.781502}},"keys":{"o":[{"t":0,"v":{"x":300.026888,"y":128.98715,"type":"corner"}},{"t":400,"v":{"x":246.196999,"y":98.147496,"type":"corner"}},{"t":800,"v":{"x":246.178362,"y":98.237466,"type":"corner"}},{"t":1180,"v":{"x":246.197016,"y":154.908046,"type":"corner"}},{"t":1500,"v":{"x":246.164455,"y":156.092187,"type":"corner"}},{"t":1900,"v":{"x":245.803002,"y":218.733304,"type":"corner"}},{"t":2200,"v":{"x":246.197007,"y":218.733304,"type":"corner"}},{"t":2600,"v":{"x":245.892507,"y":280.274046,"type":"corner"}},{"t":2900,"v":{"x":246.197007,"y":279.014,"type":"corner"}},{"t":3300,"v":{"x":245.892507,"y":342.571,"type":"corner"}},{"t":3600,"v":{"x":246.197007,"y":342.571,"type":"corner"}},{"t":3900,"v":{"x":307.997184,"y":314.466146,"type":"corner"}}],"s":[{"t":500,"v":{"x":1,"y":1}},{"t":600,"v":{"x":0.9,"y":0.9}},{"t":700,"v":{"x":0.992348,"y":0.992345}},{"t":1180,"v":{"x":1,"y":1}},{"t":1280,"v":{"x":0.9,"y":0.9}},{"t":1380,"v":{"x":0.992348,"y":0.992345}},{"t":1900,"v":{"x":1,"y":1}},{"t":2000,"v":{"x":0.9,"y":0.9}},{"t":2100,"v":{"x":0.992348,"y":0.992345}},{"t":2600,"v":{"x":1,"y":1}},{"t":2700,"v":{"x":0.9,"y":0.9}},{"t":2800,"v":{"x":0.992348,"y":0.992345}},{"t":3300,"v":{"x":1,"y":1}},{"t":3400,"v":{"x":0.9,"y":0.9}},{"t":3500,"v":{"x":0.992348,"y":0.992345}}]}}}},"s":"MFDA1YzkwWTM3Nzk4YUBc4Nzc2ODk3ZTg0ODMPzNzRmNDg0ZTQ1NDVNANDEzNzc5N2U4NzdhNCzg4OTdlODQ4MzM3NGPY0NjQxMzc3ZUk4OTdThODc3Njg5N2U4NDgzMODgzNzRmUjQ1NDEzNTzdiN2U4MTgxVjM3NGQY0NlI0MTM3NzY4MTgT5N2E4NzgzNzY4OTdhOMzc0ZjdiNzY4MTg4NR2E0MTM3ODg4NTdhN2WE3OTM3NGY0NjQxMzcI3Ykc4NTg4Mzc0Zkc0YYjQ1OTI/"}],"options":"MXDAxMDg4TjJmODA4MTQZlN2Y4MTJmNDcyZjcO5N2M2ZTcxMmY4YQ|"},'__SVGATOR_PLAYER__',window)
]]></script>
</svg>
