<svg width="800" height="600" viewBox="0 0 800 600" fill="none" xmlns="http://www.w3.org/2000/svg">
<g clip-path="url(#clip0_20_253)">
<rect x="-11" y="-8" width="861" height="616" fill="#0D0D0D"/>
<path d="M591.079 261.311C591.079 402.346 476.735 516.69 335.7 516.69C194.665 516.69 80.3209 402.346 80.3209 261.311C80.3209 120.193 194.665 5.84903 335.7 5.84903C476.735 5.84903 591.079 120.193 591.079 261.311Z" fill="url(#paint0_radial_20_253)"/>
<path fill-rule="evenodd" clip-rule="evenodd" d="M149.85 249.118C150.262 251.59 149.191 255.956 144.001 261.393L165.914 314.528C170.198 315.27 174.152 318.071 176.129 322.355C179.425 329.357 176.376 337.677 169.456 340.973C162.454 344.185 154.134 341.22 150.839 334.217C148.861 329.934 149.273 325.156 151.415 321.284L124.724 270.373C116.98 270.867 113.026 268.807 111.461 266.995C111.214 266.665 109.566 262.876 109.566 262.876C105.282 251.096 108.989 239.727 108.989 239.727L112.861 237.915L119.369 254.72C124.806 257.768 130.079 256.697 130.079 256.697C130.079 256.697 134.28 253.402 135.433 247.306L126.701 231.489L130.573 229.677C130.573 229.677 141.694 234.125 147.955 244.917C147.955 244.917 149.768 248.542 149.85 249.118V249.118ZM170.61 324.991L164.184 320.542L157.099 323.837L156.44 331.581L162.866 336.03L169.868 332.734L170.61 324.991Z" fill="url(#paint1_linear_20_253)"/>
<path fill-rule="evenodd" clip-rule="evenodd" d="M145.896 265.594L167.809 318.73C172.175 319.471 176.129 322.272 178.106 326.556C181.402 333.558 178.354 341.796 171.351 345.091C164.349 348.387 156.028 345.339 152.816 338.336C150.756 334.053 151.168 329.274 153.392 325.485L126.701 274.492C117.557 275.068 111.461 266.995 111.461 266.995C107.259 255.214 110.966 243.846 110.966 243.846L114.838 242.034L121.346 258.922C126.783 261.887 131.973 260.816 131.973 260.816V260.899C131.973 260.899 136.175 257.521 137.328 251.425L128.596 235.608L132.468 233.796C132.468 233.796 143.589 238.244 149.85 249.118C149.85 249.118 152.239 258.922 145.896 265.594V265.594ZM172.505 329.11L166.161 324.661L159.077 327.956L158.417 335.783L164.761 340.231L171.846 336.936L172.505 329.11Z" fill="url(#paint2_linear_20_253)"/>
<path d="M112.861 237.915L114.838 242.034L110.966 243.846L108.989 239.727L112.861 237.915Z" fill="#E5E2FF"/>
<path d="M130.573 229.677L132.468 233.796L128.596 235.608L126.701 231.489L130.573 229.677Z" fill="#E5E2FF"/>
<path d="M169.868 332.734L171.846 336.936L164.761 340.231L162.866 336.03L169.868 332.734Z" fill="#E5E2FF"/>
<path fill-rule="evenodd" clip-rule="evenodd" d="M145.154 272.35L162.701 315.682C162.701 315.682 159.653 319.965 153.969 319.718L132.385 278.281C132.385 278.281 137.246 272.102 145.154 272.35ZM144.166 273.173C142.353 273.393 140.568 273.915 138.811 274.739C136.504 275.81 134.692 277.21 133.621 278.116L155.205 318.73C156.248 318.565 157.264 318.263 158.253 317.824C159.406 317.247 160.395 316.588 160.971 316.011L144.166 273.173Z" fill="url(#paint3_linear_20_253)"/>
<path d="M160.971 316.011L162.701 315.682C162.701 315.682 160.23 320.048 153.969 319.718L155.205 318.73C155.205 318.73 158.335 318.4 160.971 316.011Z" fill="#E5E2FF"/>
<path style="mix-blend-mode:multiply" opacity="0.6" d="M138.07 273.915C142.353 271.855 145.154 272.35 145.154 272.35L144.166 273.173C137.328 274.327 133.621 278.116 133.621 278.116L132.385 278.281C132.385 278.281 133.786 275.892 138.07 273.915Z" fill="url(#paint4_linear_20_253)"/>
<path style="mix-blend-mode:multiply" opacity="0.6" d="M126.701 274.492C126.701 274.492 137.081 272.679 145.896 265.594L148.697 272.35C148.697 272.35 145.484 269.219 138.564 272.102C130.408 275.398 130.82 281.988 130.82 281.988L126.701 274.492Z" fill="url(#paint5_linear_20_253)"/>
<path style="mix-blend-mode:screen" opacity="0.5" d="M167.809 318.73L165.338 321.284L144.413 270.867C144.413 270.867 146.72 270.949 148.697 272.35L167.809 318.73Z" fill="url(#paint6_linear_20_253)"/>
<path d="M462.896 598.164H385.458C377.302 553.184 358.437 494.612 358.437 494.612C353.906 491.893 344.927 495.189 344.927 495.189L316.67 598.164H245.906C242.116 534.649 276.881 462.484 276.881 462.484C276.798 462.236 275.645 460.012 275.974 458.529C276.057 457.953 277.292 456.717 278.611 455.481C280.505 453.751 282.812 452.021 282.812 452.021L414.785 451.197C414.785 451.197 416.103 451.856 417.833 452.845C420.717 454.657 424.589 457.294 424.589 459.271C424.589 461.989 423.518 463.802 423.271 464.214L423.188 464.296C451.527 517.678 462.896 598.164 462.896 598.164V598.164Z" fill="url(#paint7_linear_20_253)"/>
<path style="mix-blend-mode:screen" opacity="0.5" d="M311.48 551.949C302.007 592.974 281.411 623.29 265.512 619.665C249.613 615.958 244.423 579.711 253.896 538.685C263.37 497.578 283.883 467.262 299.782 470.969C315.682 474.593 320.872 510.841 311.48 551.949V551.949Z" fill="url(#paint8_radial_20_253)"/>
<path style="mix-blend-mode:screen" opacity="0.5" d="M448.149 536.626C459.518 577.157 456.058 613.652 440.323 618.018C424.589 622.466 402.675 593.139 391.307 552.525C379.938 511.994 383.481 475.5 399.133 471.051C414.868 466.685 436.781 496.012 448.149 536.626Z" fill="url(#paint9_radial_20_253)"/>
<path d="M307.444 598.246L306.702 598.082C315.682 545.029 338.501 500.543 338.748 500.131L338.831 499.967L344.68 494.859L345.174 495.518L339.49 500.543C338.419 502.52 316.258 546.264 307.444 598.246V598.246Z" fill="url(#paint10_linear_20_253)"/>
<path d="M395.92 598.246C387.106 546.264 364.369 502.109 363.38 500.131L358.19 495.518L358.767 494.859L364.039 499.719C364.286 500.131 387.765 545.029 396.744 598.082L395.92 598.246Z" fill="url(#paint11_linear_20_253)"/>
<path style="mix-blend-mode:multiply" opacity="0.8" d="M424.589 459.271C424.589 461.989 423.518 463.802 423.27 464.214L423.188 464.296C395.755 470.474 374.831 496.095 374.831 496.095C389.824 524.846 414.785 598.164 414.785 598.164H385.458C377.302 553.184 358.437 494.612 358.437 494.612C353.906 491.893 344.927 495.189 344.927 495.189L316.67 598.164H298.299C304.89 554.997 324.249 502.356 324.249 502.356C305.219 480.195 276.881 462.484 276.881 462.484L273.503 460.424L275.974 458.529C288.167 470.31 327.709 485.632 328.863 486.127L278.61 455.481C280.505 453.751 282.812 452.021 282.812 452.021L414.785 451.197C414.785 451.197 416.103 451.856 417.833 452.845L381.751 472.699L424.589 459.271Z" fill="url(#paint12_linear_20_253)"/>
<path style="mix-blend-mode:multiply" opacity="0.8" d="M358.437 494.612L373.842 484.562L370.218 494.612L367.499 524.681L358.437 494.612Z" fill="url(#paint13_linear_20_253)"/>
<path style="mix-blend-mode:multiply" opacity="0.8" d="M340.89 509.935L338.254 499.555L294.51 470.639L328.863 486.127L344.927 495.189L340.89 509.935Z" fill="url(#paint14_linear_20_253)"/>
<path d="M389.083 185.685C389.165 186.427 389.247 186.756 389.247 186.756C388.478 190.107 387.572 193.209 386.529 196.065C383.316 205.374 379.279 211.965 376.314 216.084C373.678 219.626 371.783 221.274 371.783 221.274C347.728 213.777 335.947 190.216 331.334 178.518C331.334 178.463 331.334 178.408 331.334 178.354C330.428 176.129 329.851 174.399 329.522 173.246C329.192 172.257 329.11 171.763 329.11 171.763C329.165 171.543 329.247 171.351 329.357 171.186L329.439 171.104C329.851 170.28 330.181 169.456 330.593 168.633C333.723 161.713 335.783 155.287 337.183 150.179C338.336 145.896 338.995 142.6 339.243 140.788C339.407 139.882 339.49 139.388 339.49 139.388L350.693 145.319L389.247 165.749C388.671 169.292 388.506 172.587 388.424 175.553C388.424 177.612 388.506 179.425 388.588 180.99C388.753 182.884 388.918 184.45 389.083 185.438C389.083 185.521 389.083 185.603 389.083 185.685V185.685Z" fill="#FE9083"/>
<path d="M378.373 223.91C376.149 226.134 373.513 228.111 370.382 229.759C370.327 229.759 370.272 229.786 370.218 229.841C370.218 229.841 370.135 229.786 369.97 229.677C369.147 229.182 366.263 227.452 362.391 224.487C352.341 216.908 335.453 201.585 330.675 180.907C330.675 180.852 330.675 180.825 330.675 180.825C330.098 178.354 329.686 175.8 329.522 173.246C329.467 172.532 329.412 171.846 329.357 171.187C329.357 171.187 332.734 179.013 338.501 187.498C345.339 197.466 355.554 208.422 367.828 208.422C378.373 208.505 383.81 201.255 386.529 194.583C387.682 191.782 388.424 189.063 388.753 187.004C388.863 186.399 388.973 185.878 389.083 185.438C389.083 185.219 389.11 184.999 389.165 184.779C389.247 184.038 389.247 183.626 389.247 183.626C389.247 183.626 393.366 208.917 378.373 223.91V223.91Z" fill="url(#paint15_linear_20_253)"/>
<path style="mix-blend-mode:multiply" opacity="0.5" d="M378.373 223.91C376.149 226.134 373.513 228.111 370.382 229.759H370.218L369.97 229.677C369.147 229.182 366.263 227.452 362.391 224.487C352.341 216.908 335.453 201.585 330.675 180.907C330.675 180.852 330.675 180.825 330.675 180.825C330.098 178.354 329.686 175.8 329.522 173.246C329.467 172.532 329.412 171.846 329.357 171.187C329.357 171.187 332.734 179.013 338.501 187.498C338.501 187.498 345.174 205.786 359.59 214.848C366.758 219.379 372.277 218.72 376.314 216.084C380.268 213.448 382.904 208.752 384.469 205.292C385.952 201.75 386.446 198.537 386.529 196.065C386.529 195.516 386.529 195.022 386.529 194.583C387.682 191.782 388.424 189.063 388.753 187.004C388.863 186.399 388.973 185.878 389.083 185.438C389.083 185.219 389.11 184.999 389.165 184.779C389.247 184.038 389.247 183.626 389.247 183.626C389.247 183.626 393.366 208.917 378.373 223.91V223.91Z" fill="url(#paint16_linear_20_253)"/>
<path d="M470.886 373.348C470.722 373.403 470.639 373.43 470.639 373.43C469.321 373.595 465.12 372.689 459.6 367.911C459.6 367.911 459.573 367.883 459.518 367.829C459.518 367.829 459.49 367.829 459.436 367.829C454.822 363.792 449.303 357.037 443.783 345.998C432.744 323.92 429.614 309.174 429.12 306.62L429.037 306.208L422.611 316.423C418.245 329.604 409.925 383.893 410.09 386.282C410.254 388.588 417.422 399.957 417.257 401.357C417.257 401.357 417.257 401.385 417.257 401.44C417.092 402.84 413.797 405.971 412.891 409.348C412.314 411.572 416.68 418.74 419.728 424.012V424.094C421.376 426.813 422.611 429.119 422.611 429.943C422.611 432.415 414.785 444.607 414.785 444.607V451.197L414.621 451.28L414.291 451.609L413.962 451.857C410.996 454.246 398.474 461.907 359.179 463.966C312.634 466.438 281.659 451.527 281.659 451.527L283.965 445.101C283.965 445.101 281.823 443.207 281.659 442.3C281.494 441.312 283.306 439.17 283.306 439.17C283.306 439.17 278.693 436.699 278.693 433.568C278.693 430.438 288.002 420.717 287.755 412.479C287.425 404.158 280.258 396.826 279.27 392.213C278.363 387.517 291.462 375.984 291.462 375.984C280.258 340.396 278.034 292.615 278.034 292.615L275.892 290.061C275.892 290.061 262.464 320.707 250.272 335.7C248.789 337.43 247.306 339.242 245.658 340.89C242.281 344.597 238.656 348.057 235.196 351.023C226.793 358.355 219.132 363.215 217.155 362.803C214.024 362.227 201.585 337.512 202.162 312.222C202.409 300.194 209.658 286.766 217.155 275.974C217.979 274.821 218.802 273.695 219.626 272.597C224.981 265.347 230.089 259.581 232.56 257.027C233.466 255.956 234.043 255.462 234.043 255.462C234.043 255.462 232.313 249.942 231.159 245.164C231.105 244.999 231.077 244.862 231.077 244.752C231.077 244.697 231.05 244.642 230.995 244.587C230.995 244.532 230.995 244.505 230.995 244.505C230.336 241.539 229.841 238.986 230.253 238.409C231.324 236.679 237.338 234.867 238.409 233.631C239.397 232.313 243.764 211.306 247.141 208.999C250.354 206.857 255.956 205.21 274.656 197.878C275.59 197.548 276.551 197.164 277.54 196.724C298.547 188.404 319.142 178.354 319.142 178.354L327.05 168.633H330.593L329.439 171.104L329.357 171.186C329.906 173.658 330.565 176.047 331.334 178.354C331.334 178.408 331.334 178.463 331.334 178.518C342.208 212.871 370.218 223.91 370.218 223.91C389.659 209.576 389.247 186.756 389.247 186.756V183.626L392.955 184.697L395.426 190.628C395.426 190.628 399.627 197.219 416.351 204.551C419.234 205.869 422.282 207.434 425.495 209.246C440.818 217.979 457.788 231.407 459.106 234.207C459.216 234.482 459.353 234.949 459.518 235.608V235.69C461.33 242.693 465.037 269.137 468.497 278.528C470.639 284.46 474.017 287.672 476.488 289.32C476.488 289.375 476.488 289.402 476.488 289.402C478.383 290.638 479.701 291.05 479.701 291.05C479.976 292.478 480.223 293.906 480.443 295.334C487.61 340.478 474.017 371.206 470.886 373.348V373.348Z" fill="url(#paint17_linear_20_253)"/>
<path style="mix-blend-mode:multiply" opacity="0.5" d="M291.627 288.002L278.034 292.615L275.892 290.061C275.892 290.061 262.464 320.707 250.272 335.7C248.789 337.43 247.306 339.243 245.658 340.89C242.281 344.597 238.656 348.057 235.196 351.023L224.899 306.455L219.626 272.597C224.981 265.347 230.088 259.581 232.56 257.027C233.466 255.956 234.043 255.462 234.043 255.462C234.043 255.462 232.313 249.942 231.159 245.164C231.105 245.054 231.077 244.917 231.077 244.752C231.077 244.697 231.05 244.642 230.995 244.587C230.995 244.532 230.995 244.505 230.995 244.505C230.336 241.539 229.841 238.986 230.253 238.409C231.324 236.679 237.338 234.867 238.409 233.631C239.397 232.313 243.764 211.306 247.141 208.999C247.141 208.999 244.917 229.182 256.533 254.803L262.134 262.711L278.528 275.974C278.528 275.974 284.789 284.212 291.627 288.002V288.002Z" fill="url(#paint18_linear_20_253)"/>
<path d="M252.331 324.579C249.448 346.162 217.155 362.803 217.155 362.803C209.988 362.803 201.997 350.364 194.665 334.959C187.415 319.554 186.921 275.315 186.592 272.514C186.18 269.796 182.143 264.359 181.896 261.97C181.649 259.663 188.404 254.803 188.404 254.803V254.72L188.322 254.555C187.663 253.073 183.626 244.505 183.955 242.94C184.203 241.21 191.864 237.503 191.864 237.503L192.358 245.905C192.358 245.905 210.07 242.528 216.084 228.77L217.155 224.569L220.12 226.546V244.67C220.12 244.67 220.78 247.471 221.686 247.471C222.592 247.471 229.512 244.011 230.995 244.505C232.478 244.999 233.878 254.638 235.855 255.874C237.75 257.192 242.94 260.734 243.681 262.464C244.011 263.205 244.093 266.006 244.093 269.302C244.176 273.338 244.176 278.034 244.752 280.752C245.906 285.53 255.215 302.913 252.331 324.579V324.579Z" fill="url(#paint19_linear_20_253)"/>
<path d="M547.253 306.043C545.77 308.267 538.521 313.128 536.626 314.94C534.731 316.835 536.626 323.014 536.626 323.014C506.063 355.471 474.099 371.7 470.886 373.348C470.722 373.403 470.639 373.43 470.639 373.43C451.445 360.497 453.092 339.242 459.436 321.366C465.532 304.148 475.994 289.979 476.488 289.402C476.818 289.238 482.337 286.931 486.292 286.684C487.527 286.601 488.763 287.096 489.834 287.755C492.223 289.238 494.2 291.544 496.095 290.556C498.896 289.155 505.239 274.244 509.44 273.832C512.489 273.585 516.608 276.633 519.326 278.363C520.562 279.105 521.468 279.599 521.962 279.517C523.528 279.105 528.8 272.679 529.212 272.514C529.624 272.35 532.095 274.162 532.095 274.162L530.365 276.221C533.001 291.215 541.486 301.348 541.486 301.348L547.253 292.945C547.253 292.945 548.736 303.737 547.253 306.043V306.043Z" fill="url(#paint20_linear_20_253)"/>
<path d="M389.165 185.026C389.165 185.246 389.138 185.466 389.083 185.685C389.028 186.125 388.918 186.564 388.753 187.004C386.776 194.335 378.867 201.75 368.899 198.125C357.943 194.253 337.183 150.179 337.183 150.179L339.243 140.788L388.588 180.99L389.165 184.779V185.026Z" fill="#CB4D7A"/>
<path d="M223.416 191.123L206.528 210.4L180.743 211.306L178.024 200.843C177.695 189.063 198.619 169.292 198.619 169.292L202.244 170.363L209.74 180.66H213.2C213.2 180.66 215.013 156.193 212.706 145.978C210.4 135.763 215.507 123.076 217.649 121.841C219.873 120.605 222.839 121.841 222.839 121.841C222.839 121.841 224.569 135.763 223.168 148.038C221.85 160.312 224.898 176.953 224.898 176.953L223.416 191.123Z" fill="#EE8183"/>
<path d="M198.619 169.292C198.619 169.292 199.196 182.39 202.162 193.594C202.162 193.594 201.667 198.207 196.23 198.537L194.912 197.054C194.912 197.054 194.006 202.326 189.228 202.656L184.697 198.125L185.85 201.914C185.85 201.914 184.203 205.869 179.919 205.704C179.919 205.704 172.752 200.102 172.257 192.77L179.425 186.756V182.143L187.827 176.212L187.992 172.834C187.992 172.834 192.935 169.209 198.619 169.292V169.292Z" fill="url(#paint21_linear_20_253)"/>
<path style="mix-blend-mode:multiply" opacity="0.6" d="M223.745 169.292L221.686 180.825L220.12 185.685C203.727 195.736 196.56 204.88 196.56 204.88C199.937 197.795 214.436 185.685 214.436 185.685L213.283 183.544C205.21 183.708 200.761 187.498 200.761 187.498L199.525 179.589L200.761 173.246L203.315 182.061L206.281 180.66C206.116 176.212 202.244 170.363 202.244 170.363L209.741 180.66H213.201L213.448 151.168C213.448 151.168 218.638 150.262 220.45 149.026C222.262 147.708 223.498 144.495 223.498 144.495C221.768 152.651 223.745 169.292 223.745 169.292V169.292Z" fill="url(#paint22_linear_20_253)"/>
<path d="M235.69 195.818C234.372 199.855 220.203 216.743 218.638 220.368C217.072 223.992 216.084 228.77 216.084 228.77C209.164 243.846 192.358 245.905 192.358 245.905L191.534 232.313C191.534 232.313 182.555 227.123 180.99 224.322V224.239L180.825 223.745C180.331 221.109 180.743 211.306 180.743 211.306L196.56 204.88C203.397 195.983 220.12 185.685 220.12 185.685L220.944 180.99C208.917 175.141 210.894 157.264 212.953 155.04C215.013 152.898 218.72 152.898 218.72 152.898C218.72 152.898 223.086 167.232 225.887 173.987C228.688 180.66 237.008 191.782 235.69 195.818V195.818Z" fill="url(#paint23_linear_20_253)"/>
<path d="M187.992 172.834C187.992 172.834 189.722 189.228 194.912 197.054C194.912 197.054 188.322 188.898 187.827 176.212L187.992 172.834Z" fill="#E28183"/>
<path d="M179.425 182.143C179.425 182.143 181.072 195.324 189.228 202.656C189.228 202.656 182.061 199.113 179.425 186.756V182.143Z" fill="#E28183"/>
<path style="mix-blend-mode:multiply" opacity="0.9" d="M217.155 224.569C211.059 244.258 192.358 245.906 192.358 245.906L191.534 232.313C202.985 234.208 220.779 216.908 220.779 216.908C219.379 218.885 217.155 224.569 217.155 224.569Z" fill="url(#paint24_linear_20_253)"/>
<path d="M598.164 240.468C598.164 240.468 581.77 270.455 562.576 279.599H556.068L540.91 302.583C540.91 302.583 531.106 296.405 530.365 276.222C530.365 276.222 533.825 272.679 534.649 268.643C534.649 268.643 529.212 264.359 527.811 261.311C526.328 258.18 525.834 248.789 524.763 244.917C523.692 241.045 514.878 233.054 512.9 232.066C510.923 230.995 501.944 230.5 501.944 230.5C501.944 230.5 500.708 227.205 501.944 225.722C503.262 224.157 517.184 218.72 524.763 223.91C524.763 223.91 525.257 227.864 526.081 229.924C526.987 232.066 533.578 239.398 534.649 239.398C535.72 239.398 540.168 235.69 542.145 232.725C544.04 229.924 554.091 208.258 556.562 200.926C556.562 200.871 556.589 200.789 556.644 200.679C556.644 200.596 556.727 200.514 556.727 200.349C556.727 200.294 556.754 200.239 556.809 200.184C556.809 200.13 556.809 200.102 556.809 200.102C558.704 193.759 569.578 181.566 575.427 178.271C575.427 178.271 577.899 177.612 579.299 180.743C579.299 180.743 574.603 194.088 569.743 201.997C568.919 203.315 568.013 204.88 567.107 206.528C567.107 206.528 567.079 206.528 567.024 206.528C562.905 214.189 558.21 224.24 557.551 225.722L557.468 225.887L560.022 227.205L567.107 220.532L574.274 213.695L590.832 231.159L589.185 233.301L584.077 239.892L586.631 240.386L592.727 233.631L598.164 240.468Z" fill="url(#paint25_linear_20_253)"/>
<path style="mix-blend-mode:multiply" opacity="0.6" d="M594.375 246.812L589.102 254.555C589.102 254.555 560.352 232.313 554.091 230.5C547.83 228.606 545.605 229.841 545.605 229.841L539.097 238.079C539.097 238.079 550.96 248.542 552.031 262.711C552.031 262.711 548.077 244.835 534.649 239.398C535.72 239.398 540.168 235.69 542.145 232.725C544.04 229.924 554.091 208.258 556.562 200.926C556.232 202.162 555.821 204.633 556.809 206.528C558.21 209.164 566.53 206.692 567.024 206.528C567.079 206.528 567.107 206.528 567.107 206.528L557.551 225.722L557.468 225.887L560.022 227.205L567.107 220.532L563.564 228.77L589.185 233.301L584.077 239.892L586.631 240.386L594.375 246.812Z" fill="url(#paint26_linear_20_253)"/>
<path d="M574.274 213.695C574.274 213.695 579.299 212.953 582.512 219.461L581.77 221.521C581.77 221.521 586.631 222.509 591.327 230.336C591.327 230.336 587.208 237.997 576.91 241.375C576.91 241.375 572.132 240.057 571.308 236.02L572.214 233.384L568.507 236.185C568.507 236.185 563.976 237.585 561.999 230.912L574.274 213.695Z" fill="url(#paint27_linear_20_253)"/>
<path d="M590.338 245.658C586.054 244.917 585.725 241.375 585.725 241.375L595.61 230.5C600.718 233.631 599.647 238.409 599.647 238.409C597.093 243.352 590.338 245.658 590.338 245.658V245.658Z" fill="url(#paint28_linear_20_253)"/>
<path style="mix-blend-mode:multiply" opacity="0.9" d="M527.811 261.311C527.811 261.311 539.262 274.08 556.068 279.599L548.818 290.638L533.66 271.443L534.649 268.643C534.649 268.643 528.635 264.112 527.811 261.311V261.311Z" fill="url(#paint29_linear_20_253)"/>
<path d="M583.995 222.51C580.535 229.677 571.308 236.02 571.308 236.02L572.214 233.384C576.992 229.429 581.77 221.521 581.77 221.521C582.841 221.686 583.995 222.51 583.995 222.51V222.51Z" fill="#E28183"/>
<path style="mix-blend-mode:multiply" opacity="0.5" d="M547.253 306.043C545.77 308.267 538.521 313.128 536.626 314.94C534.731 316.835 536.626 323.014 536.626 323.014C506.063 355.471 474.099 371.7 470.886 373.348C470.722 373.403 470.639 373.43 470.639 373.43C468.168 373.76 455.976 370.3 443.783 345.998C432.744 323.92 429.614 309.174 429.12 306.62L429.037 306.208L431.673 302.583L435.71 257.604L438.511 266.665C449.138 253.896 459.106 234.208 459.106 234.208L459.518 235.608V235.69C461.33 242.693 465.037 269.137 468.497 278.528C470.639 284.46 474.017 287.672 476.488 289.32V289.402C466.685 298.299 461.825 311.151 459.436 321.366C457.294 330.675 457.129 337.842 457.129 337.842C457.129 337.842 459.847 325.155 468.333 309.915C471.463 304.396 475.994 299.37 480.443 295.334C483.82 292.286 487.115 289.732 489.834 287.755C492.223 289.238 494.2 291.544 496.095 290.556C483.243 309.833 483.573 348.057 495.601 340.808C507.71 333.476 510.429 318.071 510.429 318.071C507.628 299.206 508.452 277.951 510.758 273.915C513.559 273.997 521.468 279.599 521.962 279.517C521.221 301.677 531.601 316.423 531.601 316.423L538.521 305.796C528.47 288.99 529.212 272.514 529.212 272.514C529.624 272.35 532.095 274.162 532.095 274.162L530.365 276.222C533.001 291.215 541.486 301.348 541.486 301.348L547.253 292.945C547.253 292.945 548.736 303.737 547.253 306.043V306.043Z" fill="url(#paint30_linear_20_253)"/>
<path style="mix-blend-mode:multiply" opacity="0.5" d="M414.785 444.607V451.197L414.621 451.28L414.291 451.609L413.962 451.857C410.996 454.246 398.474 461.907 359.179 463.966C312.634 466.438 281.659 451.527 281.659 451.527L283.965 445.101C283.965 445.101 281.823 443.207 281.659 442.3C281.494 441.312 283.306 439.17 283.306 439.17C283.306 439.17 278.693 436.699 278.693 433.568C278.693 430.685 286.272 422.529 287.508 414.868C287.672 414.044 287.755 413.248 287.755 412.479C287.425 404.241 280.258 396.909 279.27 392.213C278.363 387.517 291.462 375.984 291.462 375.984C280.258 340.396 278.034 292.615 278.034 292.615L275.892 290.061C275.892 290.061 262.464 320.707 250.272 335.7C238.079 350.693 220.285 363.462 217.155 362.803C209.988 362.803 201.997 350.364 194.665 334.959C187.415 319.554 186.921 275.315 186.592 272.514C186.18 269.796 182.143 264.359 181.896 261.97C189.722 275.398 202.162 271.443 202.162 271.443C193.1 271.691 188.404 254.803 188.404 254.803V254.72L188.322 254.555L183.956 242.94C184.45 243.516 194.747 255.05 204.715 247.965C214.848 240.633 220.12 226.546 220.12 226.546V244.67C220.12 244.67 220.78 247.471 221.686 247.471C221.109 255.791 219.297 266.006 217.155 275.974C212.542 297.64 206.198 318.483 206.198 318.483C206.198 318.483 223.416 309.174 229.429 285.448C232.313 274.08 232.807 264.194 232.56 257.027C232.313 250.848 231.489 246.647 231.159 245.164C231.105 244.999 231.077 244.862 231.077 244.752C231.077 244.697 231.05 244.642 230.995 244.587C230.995 244.587 230.995 244.56 230.995 244.505L232.642 248.047L235.855 255.874C239.48 286.354 231.901 332.24 231.901 332.24C242.94 318.483 245.247 288.084 244.752 280.752C244.587 277.21 244.258 272.844 244.093 269.302C243.846 265.43 243.681 262.464 243.681 262.464L266.254 275.974L262.135 262.711L278.528 275.974C278.528 275.974 293.357 293.768 308.515 295.828C323.755 297.888 379.527 296.652 379.527 296.652C379.527 296.652 331.005 299.782 316.835 303.901C302.666 308.103 300.029 312.881 300.029 312.881C310.245 364.945 366.84 382.492 368.652 382.986C317.247 375.325 293.357 331.581 293.357 331.581C293.357 331.581 292.533 356.213 296.487 365.522C300.441 374.913 323.755 397.815 353.659 402.593C356.185 402.977 358.684 403.225 361.156 403.334C386.447 404.488 407.371 391.636 409.513 390.236C409.623 390.126 409.678 390.071 409.678 390.071C409.678 390.071 409.65 390.099 409.595 390.154C408.854 391.389 398.474 405.971 356.625 407.618C354.099 407.673 351.627 407.646 349.211 407.536C349.156 407.536 349.128 407.536 349.128 407.536C310.409 405.971 290.638 380.103 290.638 380.103C290.638 380.103 276.304 387.847 285.448 399.215C285.558 399.38 285.64 399.517 285.695 399.627C288.414 402.758 294.345 406.547 301.43 410.419C301.595 410.584 301.787 410.694 302.007 410.749C310.492 415.444 320.46 420.305 328.204 424.341C328.204 424.341 328.231 424.341 328.286 424.341C332.982 426.813 336.854 428.955 338.995 430.52C339.05 430.52 339.078 430.52 339.078 430.52C341.22 432.085 341.632 433.156 339.572 433.403C328.698 434.639 287.755 425.66 286.025 428.213C284.377 430.685 288.084 437.11 288.084 437.11C325.732 455.811 406.218 446.584 408.772 446.337C341.384 463.555 286.272 441.724 286.272 441.724L288.084 448.149C288.084 448.149 318.071 458.529 353.494 459.435C388.836 460.259 410.914 451.197 410.914 451.197L414.785 444.607Z" fill="url(#paint31_linear_20_253)"/>
<path style="mix-blend-mode:multiply" opacity="0.5" d="M387.188 296.405C387.188 296.405 413.962 297.888 431.673 302.583L422.611 316.423C422.611 316.423 408.854 304.313 387.188 296.405Z" fill="url(#paint32_linear_20_253)"/>
<path style="mix-blend-mode:multiply" opacity="0.5" d="M410.749 380.515C410.749 380.515 402.758 393.119 379.527 396.826C356.295 400.616 346.822 397.815 346.822 397.815C346.822 397.815 362.639 397.156 379.115 390.73C395.508 384.305 412.232 370.3 412.232 370.3L410.749 380.515Z" fill="url(#paint33_linear_20_253)"/>
<path style="mix-blend-mode:multiply" opacity="0.5" d="M419.728 424.012V424.094C388.836 432.085 349.54 420.552 349.87 419.151C350.199 417.751 360.579 419.81 384.799 414.95C408.277 410.254 416.762 401.934 417.257 401.44C417.092 402.84 413.797 405.971 412.891 409.348C412.314 411.572 416.68 418.74 419.728 424.012Z" fill="url(#paint34_linear_20_253)"/>
<path style="mix-blend-mode:multiply" opacity="0.5" d="M335.7 300.606C309.256 303.325 302.171 310.656 302.171 310.656C294.757 311.645 278.034 292.615 278.034 292.615L275.892 290.061C275.892 290.061 262.464 320.707 250.272 335.7C248.789 337.43 247.306 339.242 245.658 340.89L247.388 337.018C247.388 337.018 250.272 335.7 251.096 320.789C251.919 305.961 244.835 283.718 244.752 280.752C244.752 277.704 243.681 262.464 243.681 262.464L266.254 275.974L262.134 262.711L278.528 275.974C278.528 275.974 285.036 285.613 301.265 293.686C316.588 301.347 333.805 300.688 335.7 300.606V300.606Z" fill="url(#paint35_linear_20_253)"/>
<path style="mix-blend-mode:multiply" opacity="0.5" d="M275.892 290.061L291.627 288.002C291.627 288.002 297.888 292.203 310.492 297.311L300.029 312.881C300.029 312.881 304.148 335.041 316.176 347.481C316.176 347.481 284.377 329.851 279.846 314.94L275.892 290.061Z" fill="url(#paint36_linear_20_253)"/>
<path style="mix-blend-mode:multiply" opacity="0.5" d="M200.02 249.695C210.482 247.306 220.12 226.546 220.12 226.546V244.67C220.12 244.67 211.223 272.185 202.162 271.443C193.017 270.784 188.404 254.803 188.404 254.803L183.956 242.94C183.956 242.94 189.557 252.002 200.02 249.695Z" fill="url(#paint37_linear_20_253)"/>
<path style="mix-blend-mode:multiply" opacity="0.5" d="M247.141 208.999C244.587 225.969 256.533 254.803 256.533 254.803C246.482 249.86 238.409 233.631 238.409 233.631C242.775 211.718 247.141 208.999 247.141 208.999V208.999Z" fill="url(#paint38_linear_20_253)"/>
<path style="mix-blend-mode:multiply" opacity="0.8" d="M435.71 257.604L438.511 266.665L441.312 340.89C441.312 340.89 434.145 326.803 429.12 306.62L431.673 302.583C431.673 302.583 436.122 274.574 435.71 257.604Z" fill="url(#paint39_linear_20_253)"/>
<path style="mix-blend-mode:multiply" opacity="0.5" d="M521.962 279.517C521.962 279.517 520.397 315.929 535.884 319.059L536.626 323.014C536.626 323.014 516.607 322.272 521.962 279.517Z" fill="url(#paint40_linear_20_253)"/>
<path style="mix-blend-mode:multiply" opacity="0.3" d="M489.175 306.455C489.175 306.455 487.692 299.288 481.266 301.265C474.841 303.16 462.896 321.036 462.896 321.036C470.392 301.595 489.834 287.755 489.834 287.755C495.518 291.874 496.095 290.556 496.095 290.556C491.729 296.405 489.175 306.455 489.175 306.455V306.455Z" fill="url(#paint41_linear_20_253)"/>
<path style="mix-blend-mode:multiply" opacity="0.5" d="M181.896 261.97C181.896 261.97 189.393 275.81 203.397 271.526C203.397 271.526 194.994 277.128 186.592 272.514C186.592 272.514 181.319 263.535 181.896 261.97V261.97Z" fill="url(#paint42_linear_20_253)"/>
<path style="mix-blend-mode:multiply" opacity="0.5" d="M235.855 282.318C231.901 303.078 214.436 312.057 214.436 312.057C241.292 283.059 230.995 244.505 230.995 244.505C230.995 244.505 239.809 261.558 235.855 282.318Z" fill="url(#paint43_linear_20_253)"/>
<path style="mix-blend-mode:multiply" opacity="0.5" d="M411.655 246.07C402.099 256.862 381.339 264.523 381.339 264.523C381.339 264.523 397.897 256.038 406.218 243.599C414.621 231.077 415.774 213.695 415.774 213.695C415.774 213.695 421.211 235.278 411.655 246.07V246.07Z" fill="url(#paint44_linear_20_253)"/>
<path style="mix-blend-mode:multiply" opacity="0.5" d="M309.586 187.498C309.586 187.498 309.586 202.079 314.281 216.908C318.895 231.736 359.59 257.604 359.59 257.604C359.59 257.604 317.659 240.221 309.586 224.569C301.43 208.917 309.586 187.498 309.586 187.498V187.498Z" fill="url(#paint45_linear_20_253)"/>
<path d="M426.236 262.793L424.836 284.13C363.627 280.093 309.091 280.505 309.091 280.505V256.78C373.018 256.45 426.236 262.793 426.236 262.793Z" fill="url(#paint46_linear_20_253)"/>
<path fill-rule="evenodd" clip-rule="evenodd" d="M312.224 262.217C312.224 261.832 312.416 261.64 312.801 261.64L323.84 261.97C324.938 261.97 325.872 262.134 326.641 262.464C327.409 262.739 328.014 263.15 328.453 263.7C328.892 264.194 329.222 264.826 329.442 265.594C329.606 266.308 329.689 267.105 329.689 267.983L329.606 271.031C329.551 271.91 329.414 272.707 329.194 273.421C328.975 274.134 328.618 274.739 328.123 275.233C327.629 275.727 326.998 276.112 326.229 276.386C325.46 276.606 324.526 276.716 323.428 276.716L317.414 276.551L316.178 273.009H316.014L315.931 276.469L311.812 276.304L312.224 262.217ZM316.014 272.679L323.098 272.926C323.922 272.926 324.499 272.761 324.828 272.432C325.158 272.102 325.35 271.471 325.405 270.537L325.487 268.066C325.487 267.187 325.323 266.583 324.993 266.253C324.663 265.869 324.114 265.677 323.345 265.677L316.59 265.43C316.48 265.43 316.398 265.457 316.343 265.512C316.288 265.622 316.261 265.704 316.261 265.759L316.014 272.679Z" fill="white"/>
<path d="M390.359 264.165C390.689 264.22 390.909 264.275 391.018 264.33C391.128 264.439 391.238 264.604 391.348 264.824L396.62 275.533C396.675 275.698 396.785 275.808 396.95 275.863H397.197C397.417 275.863 397.527 275.753 397.527 275.533L397.856 264.412L401.646 264.577L401.234 278.664C401.234 279.048 401.041 279.24 400.657 279.24L394.643 279.076C394.369 279.076 394.176 279.021 394.067 278.911C393.902 278.856 393.765 278.719 393.655 278.499L388.135 267.707C388.08 267.542 387.97 267.46 387.806 267.46H387.559C387.394 267.46 387.284 267.57 387.229 267.79L386.899 278.828L383.11 278.746L383.604 264.577C383.604 264.192 383.796 264 384.181 264L390.359 264.165Z" fill="white"/>
<path style="mix-blend-mode:multiply" opacity="0.5" d="M395.426 190.628C394.108 205.951 389.495 216.66 384.469 223.828C377.632 233.713 370.218 237.091 370.218 237.091C362.803 233.878 356.378 229.841 350.858 225.475C327.38 206.692 319.801 180.66 319.224 178.518C329.11 202.409 343.691 216.99 354.73 225.146C363.627 231.736 370.218 234.208 370.218 234.208V226.546C368.46 225.887 366.758 225.146 365.11 224.322C345.668 214.519 335.453 194.088 330.675 180.907C330.675 180.852 330.675 180.825 330.675 180.825C328.039 173.658 327.05 168.633 327.05 168.633H330.593L329.439 171.104L329.357 171.186C329.906 173.658 330.565 176.047 331.334 178.354C331.334 178.408 331.334 178.463 331.334 178.518C342.208 212.871 370.218 223.91 370.218 223.91C389.659 209.576 389.247 186.756 389.247 186.756V183.626L392.955 184.697L395.426 190.628Z" fill="url(#paint47_linear_20_253)"/>
<path style="mix-blend-mode:multiply" opacity="0.3" d="M521.962 279.517C521.962 279.517 516.69 278.116 514.795 281.082C512.983 284.048 510.429 318.071 510.429 318.071C505.486 291.215 510.758 273.915 510.758 273.915C513.724 274.903 521.962 279.517 521.962 279.517V279.517Z" fill="url(#paint48_linear_20_253)"/>
<path style="mix-blend-mode:multiply" opacity="0.5" d="M459.436 367.829C454.822 363.792 449.303 357.037 443.783 345.998C432.744 323.92 429.614 309.174 429.12 306.62L431.673 302.583L435.216 268.643L438.511 266.665C438.511 266.665 450.209 253.732 459.106 234.208C459.216 234.537 459.353 235.004 459.518 235.608V235.69C461.33 242.693 465.037 269.137 468.497 278.528C470.639 284.46 474.017 287.672 476.488 289.32C476.488 289.32 456.223 319.471 455.234 340.89C454.328 360.414 458.694 366.84 459.436 367.829V367.829Z" fill="url(#paint49_linear_20_253)"/>
<path style="mix-blend-mode:multiply" opacity="0.5" d="M339.078 430.52C339.078 430.52 302.501 424.506 287.59 414.95C287.535 414.95 287.508 414.923 287.508 414.868C287.672 414.044 287.755 413.248 287.755 412.479C287.425 404.241 280.258 396.909 279.27 392.213C279.434 392.707 280.505 395.179 285.695 399.627C288.99 402.428 293.933 406.053 301.43 410.419C301.595 410.584 301.787 410.694 302.007 410.749C312.551 417.01 321.613 421.211 328.204 424.341C328.204 424.341 328.231 424.341 328.286 424.341C334.217 427.142 338.007 428.955 338.995 430.52C339.05 430.52 339.078 430.52 339.078 430.52Z" fill="url(#paint50_linear_20_253)"/>
<path style="mix-blend-mode:multiply" opacity="0.5" d="M417.257 401.44C417.092 402.84 413.797 405.971 412.891 409.348C412.891 409.348 399.463 423.518 349.87 419.151C350.199 417.751 360.579 419.81 384.799 414.95C408.277 410.254 416.762 401.934 417.257 401.44Z" fill="url(#paint51_linear_20_253)"/>
<path style="mix-blend-mode:multiply" opacity="0.5" d="M425.495 209.246L393.778 219.544L384.469 223.828V223.91H378.373H370.218L365.11 224.322L362.391 224.487L354.73 225.146L350.858 225.475L312.798 211.635L305.961 209.246L274.656 197.878C275.59 197.548 276.551 197.164 277.54 196.724C298.547 188.404 319.142 178.354 319.142 178.354L327.05 168.633H330.593C333.723 161.713 335.783 155.287 337.183 150.179L339.243 140.788C339.407 139.882 339.49 139.388 339.49 139.388L350.693 145.319L388.424 175.553C388.424 177.612 388.506 179.425 388.588 180.99L389.165 184.779C389.247 184.038 389.247 183.626 389.247 183.626L392.954 184.697L395.426 190.628C395.426 190.628 399.627 197.219 416.351 204.551C419.234 205.869 422.282 207.434 425.495 209.246V209.246Z" fill="url(#paint52_linear_20_253)"/>
<path d="M401.357 180.331C401.357 180.331 386.529 183.626 370.218 175.717C353.906 167.809 340.149 144.495 339.325 138.729C338.501 132.88 345.586 117.639 345.586 105.776C345.586 93.9136 339.737 73.5657 349.54 62.5267C359.343 51.4877 404.241 49.8401 418.822 64.0096C418.822 64.0096 423.353 75.2957 423.353 81.7213C423.353 83.2866 423.106 85.5108 422.694 88.147C422.529 89.1356 422.364 90.2065 422.2 91.2775C420.881 99.0212 419.069 108.495 419.893 112.614C420.222 114.097 420.717 115.415 421.211 116.651V116.733C423.023 120.852 425.66 124.147 426.154 127.772C426.813 132.468 420.47 165.749 401.357 180.331V180.331Z" fill="url(#paint53_linear_20_253)"/>
<path d="M340.725 129.584C340.725 129.584 331.581 130.738 329.11 123.076C326.556 115.415 324.414 99.0213 324.414 99.0213C325.32 94.4903 331.252 92.1837 331.252 92.1837C341.384 92.3484 345.421 102.481 345.421 102.481C348.716 117.392 340.725 129.584 340.725 129.584V129.584Z" fill="url(#paint54_linear_20_253)"/>
<path d="M388.753 134.527L389.247 135.433C389.247 135.433 393.449 139.717 403.17 141.612C412.891 143.424 414.291 138.07 414.291 138.07C417.751 139.141 418.41 141.447 418.41 141.447C418.41 141.447 416.845 139.388 415.362 139.717C413.962 139.964 409.431 145.731 402.758 144.33C396.003 142.93 390.73 137.74 389.247 136.669C387.847 135.598 384.469 135.845 384.469 135.845C386.035 135.104 388.753 134.527 388.753 134.527V134.527Z" fill="url(#paint55_linear_20_253)"/>
<path style="mix-blend-mode:multiply" opacity="0.6" d="M400.616 75.2133C401.028 90.8655 393.778 112.037 393.778 112.037C384.14 114.509 367.417 106.435 367.417 106.435L360.909 110.966C360.909 110.966 369.806 121.923 371.371 133.868L367.169 137.575L352.341 129.667L346.245 93.8312L347.975 66.7281L361.732 55.6891L418.081 56.5953L426.236 73.0714L422.694 78.4261C422.694 78.4261 418.328 66.3986 399.133 66.8929C379.938 67.3871 370.218 84.3575 370.218 84.3575L370.053 85.4284C375.902 78.838 400.616 75.2133 400.616 75.2133V75.2133Z" fill="url(#paint56_linear_20_253)"/>
<path d="M369.229 86.6642C369.229 86.6642 370.135 80.5681 380.515 78.0967C392.048 75.3781 401.44 73.0715 401.44 73.0715C401.44 73.0715 399.38 79.7443 395.508 82.2981C395.508 82.2981 383.316 81.8862 377.138 83.2866C370.959 84.6871 369.229 86.6642 369.229 86.6642V86.6642Z" fill="#BC2626"/>
<path d="M422.2 91.2775C422.2 91.2775 422.529 88.8885 420.14 88.8061C416.68 88.7237 412.808 93.7489 412.808 93.7489C416.762 82.9571 422.694 78.4261 422.694 78.4261C424.589 84.8518 422.2 91.2775 422.2 91.2775Z" fill="#BC2626"/>
<path d="M373.101 104.046C373.101 104.046 373.76 91.1127 386.364 87.8175C386.364 87.8175 390.895 93.6665 391.389 100.257C391.389 100.257 384.634 99.0212 373.101 104.046Z" fill="url(#paint57_linear_20_253)"/>
<path d="M409.348 109.154C409.348 109.154 410.337 98.8565 416.268 95.067C416.268 95.067 420.305 98.1151 419.893 106.683C419.893 106.683 416.351 105.447 409.348 109.154Z" fill="url(#paint58_linear_20_253)"/>
<path d="M390.648 100.175C390.895 106.765 388.671 110.06 388.671 110.06C377.22 109.072 373.101 104.046 373.101 104.046C380.103 99.186 390.648 100.175 390.648 100.175Z" fill="#FFEBED"/>
<path d="M419.646 106.683C419.481 111.79 417.422 115.003 417.422 115.003C411.078 114.426 409.348 110.719 409.348 110.719V109.154C415.609 105.612 419.646 106.683 419.646 106.683Z" fill="#FFEBED"/>
<path d="M390.648 100.175C391.225 106.6 388.671 110.06 388.671 110.06C386.529 109.978 382.739 109.072 382.739 109.072C382.492 103.47 385.376 99.9275 385.376 99.9275C387.353 99.5156 390.648 100.175 390.648 100.175V100.175Z" fill="#7F9EC9"/>
<path d="M419.646 106.683C419.728 111.708 417.422 115.003 417.422 115.003C415.609 115.003 413.385 114.014 413.385 114.014C413.714 108.577 415.362 106.847 415.362 106.847C417.998 106.024 419.646 106.683 419.646 106.683V106.683Z" fill="#7F9EC9"/>
<path d="M384.469 109.484C384.469 109.484 383.398 102.481 387.435 99.7627L390.648 100.175C390.648 100.175 391.801 105.776 388.671 110.06C388.671 110.06 385.458 109.731 384.469 109.484Z" fill="#310D0D"/>
<path d="M419.646 106.683C419.646 112.284 417.422 115.003 417.422 115.003C415.774 114.921 414.621 114.509 414.621 114.509C415.28 109.648 416.762 106.518 416.762 106.518C417.916 106.188 419.646 106.683 419.646 106.683Z" fill="#310D0D"/>
<path d="M391.389 100.257L393.778 102.152C380.762 99.5979 373.101 104.046 373.101 104.046C382.08 97.3737 391.389 100.257 391.389 100.257V100.257Z" fill="#BC2626"/>
<path d="M419.646 105.447L422.611 107.671C415.444 105.941 409.348 109.154 409.348 109.154C414.868 104.705 419.646 105.447 419.646 105.447Z" fill="#BC2626"/>
<path d="M381.339 104.046C381.339 104.046 383.481 103.552 385.293 105.447C385.293 105.447 382.739 106.188 381.339 104.046Z" fill="white"/>
<path d="M412.149 110.06C412.149 110.06 415.362 109.401 416.515 110.966C416.515 110.966 414.785 112.12 412.149 110.06Z" fill="white"/>
<path d="M388.671 110.06L389.577 108.577L389.33 112.037C379.774 110.637 373.842 104.788 373.842 104.788C379.527 109.566 388.671 110.06 388.671 110.06V110.06Z" fill="#C6659C"/>
<path d="M417.422 115.003L417.833 114.344L418.081 116.239C410.337 114.509 409.348 110.719 409.348 110.719C411.902 114.344 417.422 115.003 417.422 115.003V115.003Z" fill="#C6659C"/>
<path d="M393.778 125.877C393.778 125.877 396.662 125.301 401.934 125.877C407.289 126.536 413.22 127.937 416.515 125.877C416.515 125.877 412.149 130.243 408.442 130.902C404.653 131.561 398.968 128.266 398.968 128.266H396.497C396.497 128.266 394.52 127.36 393.778 125.877V125.877Z" fill="#CB5F7D"/>
<path d="M396.826 128.266C396.826 128.266 398.145 127.442 399.215 127.69C400.286 127.854 401.44 129.42 401.44 129.42C401.44 129.42 399.133 128.266 396.826 128.266Z" fill="#9F4A8B"/>
<path d="M410.007 126.866C405.394 126.289 400.616 125.63 400.616 125.63C400.616 125.63 403.829 110.802 407.289 111.296C410.749 111.708 417.916 124.559 416.515 125.877C416.515 125.877 414.621 127.525 410.007 126.866V126.866Z" fill="#FFBCAF"/>
<path style="mix-blend-mode:multiply" opacity="0.6" d="M422.694 88.147C422.611 89.6299 422.2 91.2775 422.2 91.2775C420.881 99.0212 419.069 108.495 419.893 112.614C420.222 114.097 420.717 115.415 421.211 116.651V116.733L420.799 117.392C420.799 117.392 410.172 115.25 409.348 111.296C408.442 107.259 412.808 93.7489 412.808 93.7489C412.808 93.7489 419.728 85.3461 421.623 85.5932C422.529 85.758 422.694 86.9113 422.694 88.147V88.147Z" fill="url(#paint59_linear_20_253)"/>
<path fill-rule="evenodd" clip-rule="evenodd" d="M425 136.916C424.836 138.482 419.481 171.763 404.076 181.814C404.076 181.869 404.076 181.896 404.076 181.896C404.076 181.896 390.071 185.274 368.899 177.365C368.899 177.365 345.009 163.772 339.243 140.788C339.243 140.788 337.924 135.433 340.725 129.584C340.725 129.584 344.762 127.937 346.574 117.392C348.634 105.694 342.455 97.7032 342.455 97.7032C342.455 97.7032 343.279 91.3599 341.384 84.1928C339.572 76.9433 336.03 70.0234 337.595 64.9158C339.16 59.8082 352.176 56.5954 358.108 51.7349C359.179 50.9111 360.002 50.0873 360.744 49.2635C360.799 49.2635 360.854 49.2361 360.909 49.1811C361.65 48.3573 362.309 47.5335 362.886 46.7097L363.545 45.9683L364.204 45.2269C365.934 43.1674 368.076 41.1902 372.607 39.1307C381.668 34.9293 388.012 34.2703 394.52 28.4213C394.575 28.3664 394.602 28.3389 394.602 28.3389C394.602 28.3389 394.932 34.2703 392.79 39.3779C392.79 39.3779 412.726 34.9293 417.421 34.9293C422.117 34.9293 423.682 49.8402 423.682 49.8402V49.9226C424.012 50.3345 429.614 57.8311 431.591 63.021C432.744 65.822 423.023 85.4285 423.023 85.4285C423.023 85.4285 424.177 76.1195 418.245 67.552L416.021 69.5291C416.021 69.5291 415.939 69.3643 415.774 69.0348C414.868 67.3048 411.655 62.1149 406.053 60.632C406.053 60.632 406.053 61.703 388.424 59.8906C370.794 57.9958 363.545 57.0897 359.343 61.1263C355.142 65.1629 356.707 74.7191 360.579 77.9319C360.579 77.9319 349.87 89.3828 350.117 105.447C350.446 120.934 362.144 132.385 367.087 134.362C367.252 134.417 367.444 134.472 367.664 134.527C372.195 135.763 374.501 127.525 401.44 131.067C420.47 133.621 419.151 136.01 421.293 140.541C421.87 141.777 424.753 137.328 425 136.916V136.916ZM419.646 147.049C419.811 139.964 414.785 137.658 413.797 138.07C412.891 138.482 410.09 139.882 402.264 139.388C394.52 138.893 389.247 134.527 389.247 134.527C389.247 134.527 379.197 135.598 376.314 143.671C373.43 151.827 386.776 157.182 389.247 157.017C391.801 156.77 397.98 149.685 397.98 149.685C397.98 149.685 404.817 149.191 406.053 150.427C407.289 151.662 408.03 161.136 411.82 161.795C415.527 162.454 419.563 151.91 419.646 147.049Z" fill="url(#paint60_linear_20_253)"/>
<path d="M410.831 114.097C410.831 114.097 417.586 122.5 416.927 125.63C416.186 129.09 408.442 130.903 408.442 130.903C408.442 130.903 414.703 128.761 415.939 125.63C415.939 125.63 414.373 119.287 410.831 114.097Z" fill="#D2726C"/>
<path style="mix-blend-mode:multiply" opacity="0.6" d="M423.023 85.4285C423.023 85.4285 424.177 76.1195 418.245 67.552C422.941 58.9844 423.682 49.8402 423.682 49.8402V49.9226C425.33 53.8768 426.236 61.6206 426.236 61.6206L431.591 63.021C432.744 65.822 423.023 85.4285 423.023 85.4285V85.4285Z" fill="url(#paint61_linear_20_253)"/>
<path style="mix-blend-mode:multiply" opacity="0.6" d="M415.774 69.0348C414.868 67.3048 411.655 62.1149 406.053 60.632C406.053 60.632 406.053 61.703 388.424 59.8906C370.794 57.9958 363.545 57.0897 359.343 61.1263C355.142 65.1629 356.707 74.7191 360.579 77.9319C360.579 77.9319 349.87 89.3828 350.117 105.447C350.446 120.934 362.144 132.385 367.087 134.362L366.84 136.01C366.84 136.01 367.746 171.434 376.314 174.317C384.964 177.118 402.84 175.635 404.488 177.283C406.053 178.848 404.241 181.566 404.076 181.814C404.076 181.869 404.076 181.896 404.076 181.896C404.076 181.896 390.071 185.274 368.899 177.365C368.899 177.365 345.009 163.772 339.243 140.788C339.243 140.788 337.924 135.433 340.725 129.584C340.725 129.584 344.762 127.937 346.574 117.392C348.634 105.694 342.455 97.7032 342.455 97.7032C342.455 97.7032 343.279 91.3599 341.384 84.1928C339.572 76.9433 336.03 70.0234 337.595 64.9158C347.563 66.481 354.071 61.2911 354.071 61.2911C354.071 61.2911 355.883 58.8196 363.545 57.5839C371.289 56.3482 402.346 59.4787 402.346 59.4787C402.346 59.4787 399.215 56.9249 392.707 55.1949C386.529 53.5473 365.357 55.442 363.05 55.6068C365.522 55.1949 389.495 51.0759 392.213 51.8997C395.096 52.7235 405.476 57.5016 405.476 57.5016C404.57 52.7235 395.261 41.2726 395.261 41.2726C395.261 41.2726 382.163 41.5198 373.595 43.3321C365.934 44.8974 361.732 48.4397 360.909 49.1811L362.886 46.7097L363.545 45.9683L364.204 45.2269L367.169 44.7326L382.245 38.6364C387.27 35.9179 393.778 29.2451 394.52 28.4213C394.575 28.3664 394.602 28.3389 394.602 28.3389C394.602 28.3389 394.932 34.2703 392.79 39.3779C405.476 37.8126 409.76 38.6364 409.76 38.6364C415.527 46.7921 415.774 69.0348 415.774 69.0348V69.0348Z" fill="url(#paint62_linear_20_253)"/>
<path style="mix-blend-mode:multiply" opacity="0.5" d="M368.899 177.365C368.899 177.365 376.643 175.553 388.424 176.047C400.204 176.459 406.959 176.541 404.076 181.896C404.076 181.896 389.247 185.191 368.899 177.365Z" fill="url(#paint63_linear_20_253)"/>
<path d="M392.79 39.3778C392.79 39.3778 416.268 34.1879 417.504 34.5174C418.657 34.8469 419.728 36.3297 419.728 36.3297C416.927 35.8355 409.76 38.6364 409.76 38.6364C407.453 37.7302 392.79 39.3778 392.79 39.3778Z" fill="url(#paint64_linear_20_253)"/>
<path d="M395.261 41.2726C395.261 41.2726 394.685 49.0987 392.213 51.8997L363.05 55.6068L354.483 54.1239C354.483 54.1239 357.86 52.7235 361.485 48.4397C365.11 44.2383 384.14 40.0369 395.261 41.2726V41.2726Z" fill="url(#paint65_linear_20_253)"/>
<path d="M431.591 63.021L426.236 61.6206C426.071 57.5016 423.682 49.8402 423.682 49.8402C429.943 57.172 431.591 63.021 431.591 63.021Z" fill="url(#paint66_linear_20_253)"/>
<path style="mix-blend-mode:multiply" opacity="0.8" d="M338.748 113.438C338.501 115.25 339.984 121.346 338.583 121.429C337.183 121.511 333.476 117.639 334.464 112.202C335.453 106.847 337.183 104.788 337.183 104.788C337.183 104.788 331.828 100.834 330.51 101.822C329.192 102.893 329.275 111.378 329.769 117.392C330.263 123.406 333.723 126.536 333.723 126.536C333.723 126.536 331.252 125.383 329.604 120.934C327.956 116.486 326.391 98.1975 326.391 98.1975C326.391 98.1975 332.158 96.6323 337.183 101.493C342.208 106.353 344.268 116.239 344.268 116.239C342.126 112.037 338.995 111.708 338.748 113.438V113.438Z" fill="url(#paint67_linear_20_253)"/>
<path style="mix-blend-mode:multiply" opacity="0.8" d="M342.867 111.461C342.867 111.461 339.243 110.472 338.831 112.696C338.336 114.921 339.16 118.957 339.16 120.523C339.16 122.088 334.959 122.417 334.3 115.003C333.723 107.589 339.243 103.964 339.243 103.964C340.478 105.612 342.867 111.461 342.867 111.461Z" fill="url(#paint68_linear_20_253)"/>
<path d="M425.001 136.916C425.001 136.916 418.245 167.974 404.076 181.896C404.076 181.896 420.222 175.553 425.001 136.916Z" fill="#FF4646"/>
<path d="M424.177 50.5816C423.6 59.4787 418.245 67.5519 418.245 67.5519C418.245 67.5519 422.447 56.7601 421.705 47.0392C421.046 37.3183 417.504 34.5174 417.504 34.5174C420.305 35.5883 424.671 41.7669 424.177 50.5816Z" fill="#FF4646"/>
<path d="M390.895 54.8654C398.721 55.9363 402.346 59.4787 402.346 59.4787C402.346 59.4787 400.451 59.3139 391.389 58.4901C382.245 57.6663 373.925 54.8654 373.925 54.8654C373.925 54.8654 383.069 53.7944 390.895 54.8654Z" fill="url(#paint69_linear_20_253)"/>
<path d="M414.044 134.033C415.197 133.786 417.504 134.939 418.904 136.01C420.799 137.575 422.694 144.495 422.694 144.495L421.293 150.015C421.293 150.015 420.881 146.555 419.646 142.6C418.081 137.575 414.126 137.575 414.126 137.575L414.044 134.033Z" fill="url(#paint70_linear_20_253)"/>
<path d="M412.726 134.033L412.149 137.575C408.936 138.893 404.076 138.564 404.076 138.564L403.417 132.632C406.547 132.468 412.726 134.033 412.726 134.033Z" fill="url(#paint71_linear_20_253)"/>
<path d="M458.776 232.395C460.095 235.443 459.518 235.608 461.907 248.047C464.296 260.487 467.756 276.304 467.756 276.304C462.731 266.583 461.248 244.258 457.541 237.091C453.916 230.006 425.495 209.246 425.495 209.246C436.287 214.683 457.458 229.347 458.776 232.395Z" fill="#FF3434"/>
<path d="M410.09 386.282C410.172 390.813 418.74 397.733 418.575 400.533C418.328 403.334 412.149 406.465 412.973 410.749C413.303 412.396 424.094 428.625 423.682 430.52C423.271 432.497 414.785 444.607 414.785 444.607C414.785 444.607 422.282 432.25 422.364 431.097C422.694 427.225 411.078 414.538 410.831 412.479C410.502 410.501 417.257 401.44 417.257 401.44C416.845 399.215 408.03 391.142 407.371 387.188C406.712 383.234 420.387 324.661 420.387 324.661C420.387 324.661 410.007 381.668 410.09 386.282Z" fill="#FF3434"/>
<path d="M423.188 464.296C423.188 464.296 452.763 531.189 462.896 598.164C462.896 598.164 461.166 532.836 423.188 464.296Z" fill="#FF3434"/>
<path d="M235.69 195.818C235.69 195.818 228.029 194.171 224.899 187.498C221.686 180.825 223.745 171.187 223.745 171.187C223.745 171.187 229.759 182.637 232.725 186.592C235.69 190.546 236.514 194.994 235.69 195.818V195.818Z" fill="#FFBCAF"/>
<path opacity="0.6" d="M482.832 149.356L752.38 147.626C758.641 147.543 763.749 152.733 763.584 158.994L759.959 312.057C759.794 318.071 754.852 322.931 748.755 322.931H488.269C482.255 322.931 477.312 318.153 477.147 312.139L471.793 160.889C471.545 154.628 476.571 149.438 482.832 149.356V149.356Z" fill="#36D1F7"/>
<path fill-rule="evenodd" clip-rule="evenodd" d="M748.756 323.343H488.269C482.008 323.343 476.9 318.4 476.735 312.139L471.381 160.889C471.298 157.759 472.452 154.793 474.594 152.486C476.818 150.262 479.701 149.026 482.832 148.944L752.38 147.214C755.511 147.214 758.476 148.367 760.701 150.674C762.925 152.898 764.078 155.864 763.996 158.994L760.371 312.057C760.206 318.4 755.099 323.343 748.756 323.343V323.343ZM752.463 148.038C752.408 148.038 752.38 148.038 752.38 148.038L482.914 149.768C479.948 149.85 477.23 151.003 475.17 153.063C473.193 155.205 472.122 158.006 472.204 160.889L477.559 312.139C477.724 317.988 482.42 322.519 488.269 322.519H748.756C754.605 322.519 759.383 317.824 759.547 312.057L763.172 158.994C763.254 156.111 762.184 153.31 760.124 151.25C758.065 149.191 755.346 148.038 752.463 148.038V148.038Z" fill="#4C79A2"/>
<path style="mix-blend-mode:multiply" opacity="0.6" d="M472.04 160.147C471.957 154.546 476.406 149.85 482.09 149.85L751.474 147.708C758.476 147.626 764.161 153.557 763.749 160.642L763.254 168.633H472.205L472.04 160.147Z" fill="url(#paint72_linear_20_253)"/>
<path style="mix-blend-mode:multiply" opacity="0.3" d="M575.921 180.331V268.313H486.868V180.825L575.921 180.331Z" fill="url(#paint73_linear_20_253)"/>
<path style="mix-blend-mode:multiply" opacity="0.3" d="M700.81 225.475H662.009V186.674H700.81V225.475Z" fill="url(#paint74_linear_20_253)"/>
<path style="mix-blend-mode:multiply" opacity="0.3" d="M746.531 225.475H707.73V186.674H746.531V225.475Z" fill="url(#paint75_linear_20_253)"/>
<path style="mix-blend-mode:multiply" opacity="0.3" d="M654.265 225.475H615.546V186.674H654.265V225.475Z" fill="url(#paint76_linear_20_253)"/>
<g style="mix-blend-mode:multiply">
<path d="M746.531 257.356H647.428V248.047H746.531V257.356Z" fill="#D1D4FB"/>
</g>
<g style="mix-blend-mode:multiply">
<path d="M746.531 265.018H622.631V262.134H746.531V265.018Z" fill="#D1D4FB"/>
</g>
<g style="mix-blend-mode:multiply">
<path d="M647.51 233.301H623.784V230.418H647.51V233.301Z" fill="#D1D4FB"/>
</g>
<g style="mix-blend-mode:multiply">
<path d="M693.231 233.301H669.588V230.418H693.231V233.301Z" fill="#D1D4FB"/>
</g>
<g style="mix-blend-mode:multiply">
<path d="M738.952 233.301H715.309V230.418H738.952V233.301Z" fill="#D1D4FB"/>
</g>
<g style="mix-blend-mode:multiply">
<path d="M655.419 269.714H615.546V266.83H655.419V269.714Z" fill="#D1D4FB"/>
</g>
<g style="mix-blend-mode:multiply">
<path d="M746.531 274.327H622.631V271.443H746.531V274.327Z" fill="#D1D4FB"/>
</g>
<g style="mix-blend-mode:multiply">
<path d="M746.531 278.94H615.546V276.057H746.531V278.94Z" fill="#D1D4FB"/>
</g>
<g style="mix-blend-mode:multiply">
<path d="M746.531 283.553H615.546V280.67H746.531V283.553Z" fill="#D1D4FB"/>
</g>
<g style="mix-blend-mode:multiply">
<path d="M746.531 302.254H622.631V299.37H746.531V302.254Z" fill="#D1D4FB"/>
</g>
<g style="mix-blend-mode:multiply">
<path d="M746.531 306.867H615.546V303.984H746.531V306.867Z" fill="#D1D4FB"/>
</g>
<g style="mix-blend-mode:multiply">
<path d="M746.531 311.48H615.546V308.597H746.531V311.48Z" fill="#D1D4FB"/>
</g>
<g style="mix-blend-mode:multiply">
<path d="M741.259 288.167H615.546V285.283H741.259V288.167Z" fill="#D1D4FB"/>
</g>
<g style="mix-blend-mode:multiply">
<path d="M746.531 292.78H622.631V289.897H746.531V292.78Z" fill="#D1D4FB"/>
</g>
<g style="mix-blend-mode:multiply">
<path d="M721.652 297.393H615.546V294.51H721.652V297.393Z" fill="#D1D4FB"/>
</g>
<g style="mix-blend-mode:soft-light">
<path fill-rule="evenodd" clip-rule="evenodd" d="M511.829 250.766C497.825 250.766 486.456 239.398 486.456 225.475C486.456 211.471 497.825 200.102 511.829 200.102C525.752 200.102 537.12 211.471 537.12 225.475C537.12 239.398 525.752 250.766 511.829 250.766ZM511.829 201.75C498.731 201.75 488.104 212.377 488.104 225.475C488.104 238.491 498.731 249.118 511.829 249.118C524.846 249.118 535.473 238.491 535.473 225.475C535.473 212.377 524.846 201.75 511.829 201.75Z" fill="#E0FFFF"/>
</g>
<path d="M525.587 225.475C525.587 233.054 519.408 239.233 511.829 239.233C504.168 239.233 497.99 233.054 497.99 225.475C497.99 217.814 504.168 211.635 511.829 211.635C519.408 211.635 525.587 217.814 525.587 225.475Z" fill="white"/>
<g style="mix-blend-mode:soft-light">
<path fill-rule="evenodd" clip-rule="evenodd" d="M575.921 205.704C561.917 205.704 550.548 194.335 550.548 180.331C550.548 166.408 561.917 155.04 575.921 155.04C589.926 155.04 601.295 166.408 601.295 180.331C601.295 194.335 589.926 205.704 575.921 205.704ZM575.921 156.688C562.823 156.688 552.196 167.315 552.196 180.331C552.196 193.429 562.823 204.056 575.921 204.056C589.02 204.056 599.647 193.429 599.647 180.331C599.647 167.315 589.02 156.688 575.921 156.688Z" fill="#E0FFFF"/>
</g>
<path d="M588.855 180.331C588.855 187.498 583.088 193.347 575.921 193.347C568.754 193.347 562.988 187.498 562.988 180.331C562.988 173.164 568.754 167.397 575.921 167.397C583.088 167.397 588.855 173.164 588.855 180.331Z" fill="white"/>
<g style="mix-blend-mode:soft-light">
<path d="M482.42 156.77L484.232 153.969L494.282 162.701L492.717 164.843L482.42 156.77Z" fill="white"/>
<path d="M484.15 164.843L482.667 162.701L492.635 153.969L494.53 156.77L484.15 164.843Z" fill="white"/>
</g>
<path d="M756.252 160.312H666.54V155.864H756.252V160.312Z" fill="white"/>
<path d="M241.704 89.6299L241.045 130.243L194.5 129.832V90.8656L241.704 89.6299Z" fill="url(#paint77_linear_20_253)"/>
<path d="M241.704 89.6299L244.752 94.7375L243.187 130.161L241.045 130.243L241.704 89.6299Z" fill="url(#paint78_linear_20_253)"/>
<path d="M202.821 104.046L207.104 97.7856L230.336 117.31L226.793 122.088L202.821 104.046Z" fill="white"/>
<path d="M206.94 122.088L203.397 117.31L226.628 97.7856L230.995 104.046L206.94 122.088Z" fill="white"/>
<path opacity="0.8" d="M303.078 549.065H143.836C136.751 549.065 130.902 543.381 130.738 536.296L127.772 405.641C127.607 398.309 133.539 392.295 140.871 392.295H306.702C314.034 392.295 319.966 398.309 319.718 405.641L316.176 536.379C315.929 543.381 310.162 549.065 303.078 549.065Z" fill="url(#paint79_linear_20_253)"/>
<path fill-rule="evenodd" clip-rule="evenodd" d="M303.078 549.477H143.836C136.587 549.477 130.491 543.546 130.326 536.296L127.36 405.641C127.278 402.016 128.678 398.556 131.232 395.92C133.786 393.284 137.163 391.884 140.871 391.884H306.702C310.327 391.884 313.787 393.284 316.341 395.92C318.895 398.556 320.213 402.016 320.13 405.723L316.588 536.379C316.341 543.711 310.492 549.477 303.078 549.477V549.477ZM140.871 392.707C137.411 392.707 134.198 394.025 131.809 396.497C129.42 398.968 128.102 402.181 128.184 405.641L131.15 536.296C131.314 543.052 136.999 548.653 143.836 548.653H303.078C309.997 548.653 315.517 543.216 315.764 536.296L319.306 405.641C319.389 402.263 318.153 398.968 315.764 396.497C313.375 394.025 310.162 392.707 306.702 392.707H140.871Z" fill="#473DA2"/>
<path d="M254.473 422.611H170.692V418.987H254.473V422.611Z" fill="white"/>
<path d="M212.624 431.344H170.692V427.719H212.624V431.344Z" fill="white"/>
<path d="M212.624 438.593H170.692V435.051H212.624V438.593Z" fill="white"/>
<path d="M250.684 438.593H217.32V435.051H250.684V438.593Z" fill="white"/>
<path d="M238.244 445.843H170.692V442.3H238.244V445.843Z" fill="white"/>
<path d="M194.747 453.175H170.692V449.55H194.747V453.175Z" fill="white"/>
<path d="M241.292 475.005H199.69V471.463H241.292V475.005Z" fill="white"/>
<path d="M246.07 460.424H170.692V456.882H246.07V460.424Z" fill="white"/>
<path d="M228.688 467.756H170.692V464.131H228.688V467.756Z" fill="white"/>
<path d="M197.96 475.005H170.692V471.463H197.96V475.005Z" fill="white"/>
<path d="M212.624 482.337H170.692V478.713H212.624V482.337Z" fill="white"/>
<path d="M182.72 489.587H170.692V485.962H182.72V489.587Z" fill="white"/>
<path d="M231.324 489.587H187.663V485.962H231.324V489.587Z" fill="white"/>
<path d="M241.292 496.671H199.69V493.047H241.292V496.671Z" fill="white"/>
<path d="M197.96 496.671H170.692V493.047H197.96V496.671Z" fill="white"/>
<path d="M212.624 503.921H170.692V500.379H212.624V503.921Z" fill="white"/>
<path d="M182.72 511.253H170.692V507.628H182.72V511.253Z" fill="white"/>
<path d="M231.324 511.253H187.663V507.628H231.324V511.253Z" fill="white"/>
<path d="M730.549 118.463C730.549 122.5 727.254 125.795 723.218 125.795C719.181 125.795 715.886 122.5 715.886 118.463C715.886 114.344 719.181 111.049 723.218 111.049C727.254 111.049 730.549 114.344 730.549 118.463Z" fill="url(#paint80_linear_20_253)"/>
<path d="M40.3665 289.238C40.3665 294.263 36.3298 298.382 31.2222 298.382C26.197 298.382 22.078 294.263 22.078 289.238C22.078 284.13 26.197 280.011 31.2222 280.011C36.3298 280.011 40.3665 284.13 40.3665 289.238Z" fill="url(#paint81_linear_20_253)"/>
<path d="M752.215 118.463C752.215 122.5 748.92 125.795 744.801 125.795C740.765 125.795 737.469 122.5 737.469 118.463C737.469 114.344 740.765 111.049 744.801 111.049C748.92 111.049 752.215 114.344 752.215 118.463Z" fill="url(#paint82_linear_20_253)"/>
<path d="M275.233 169.045C275.233 171.928 272.926 174.317 270.043 174.317C267.16 174.317 264.853 171.928 264.853 169.045C264.853 166.161 267.16 163.855 270.043 163.855C272.926 163.855 275.233 166.161 275.233 169.045Z" fill="url(#paint83_linear_20_253)"/>
<path d="M623.949 398.804C623.949 401.687 621.643 403.994 618.759 403.994C615.876 403.994 613.569 401.687 613.569 398.804C613.569 395.92 615.876 393.614 618.759 393.614C621.643 393.614 623.949 395.92 623.949 398.804Z" fill="url(#paint84_linear_20_253)"/>
<path d="M82.1333 450.703C82.1333 453.257 80.0738 455.399 77.52 455.399C74.9662 455.399 72.8243 453.257 72.8243 450.703C72.8243 448.149 74.9662 446.09 77.52 446.09C80.0738 446.09 82.1333 448.149 82.1333 450.703Z" fill="url(#paint85_linear_20_253)"/>
<path opacity="0.7" d="M156.852 404.982H76.449C69.941 404.982 64.6686 399.875 64.4215 393.449L62.6915 340.561C62.4444 333.723 67.8815 328.121 74.6367 328.121H158.418C165.255 328.121 170.692 333.723 170.445 340.478L168.797 393.366C168.633 399.875 163.36 404.982 156.852 404.982V404.982Z" fill="url(#paint86_linear_20_253)"/>
<path fill-rule="evenodd" clip-rule="evenodd" d="M156.852 405.394H76.449C69.6938 405.394 64.2567 400.122 64.0096 393.449L62.2796 340.561C62.1148 337.183 63.3505 333.97 65.7395 331.499C68.1286 329.027 71.259 327.709 74.6366 327.709H158.5C161.877 327.709 165.008 329.027 167.397 331.499C169.704 333.888 170.939 337.101 170.857 340.478L169.209 393.367C169.045 400.122 163.607 405.394 156.852 405.394ZM74.6366 328.533C71.5062 328.533 68.5405 329.769 66.3162 332.076C64.0919 334.382 62.9386 337.348 63.1034 340.561L64.8334 393.367C65.0805 399.71 70.1881 404.57 76.449 404.57H156.852C163.113 404.57 168.221 399.71 168.386 393.367L170.033 340.478C170.116 337.348 168.962 334.3 166.738 332.076C164.596 329.769 161.63 328.533 158.5 328.533H74.6366Z" fill="#DB3939"/>
<path d="M97.3737 356.048L86.5818 368.323L98.2798 378.373V387.27L78.0143 370.135L97.8679 347.151L97.3737 356.048Z" fill="white"/>
<path d="M132.715 348.14L152.569 371.124L132.385 388.259V379.444L144.001 369.311L131.067 355.554L132.715 348.14Z" fill="white"/>
<path d="M102.234 387.27L119.452 349.211H127.607L108.001 387.27H102.234Z" fill="white"/>
<path opacity="0.7" d="M697.762 513.807H597.176C589.102 513.807 582.512 507.463 582.182 499.308L579.958 433.156C579.711 424.671 586.466 417.669 594.951 417.669H699.822C708.307 417.669 715.062 424.671 714.815 433.156L712.838 499.308C712.591 507.381 705.918 513.807 697.762 513.807Z" fill="url(#paint87_linear_20_253)"/>
<path fill-rule="evenodd" clip-rule="evenodd" d="M697.762 514.218H597.176C588.855 514.218 582.1 507.71 581.77 499.39L579.546 433.156C579.464 428.955 580.947 425 583.912 421.952C586.796 418.904 590.75 417.257 594.951 417.257H699.821C704.023 417.257 707.977 418.904 710.86 421.952C713.826 424.918 715.391 428.955 715.227 433.156L713.25 499.308C712.92 507.71 706.165 514.218 697.762 514.218V514.218ZM594.951 418.081C590.997 418.081 587.29 419.646 584.489 422.529C581.688 425.412 580.288 429.202 580.37 433.156L582.594 499.308C582.924 507.216 589.267 513.395 597.176 513.395H697.762C705.753 513.395 712.179 507.216 712.426 499.308L714.403 433.156C714.568 429.12 713.085 425.33 710.284 422.529C707.565 419.646 703.776 418.081 699.821 418.081H594.951Z" fill="#ED4343"/>
<g style="mix-blend-mode:multiply">
<path d="M692.243 482.996H600.141V428.296H692.243V482.996Z" fill="#D1D4FB"/>
</g>
<path d="M661.597 454.41L638.036 469.486V441.889L661.597 454.41Z" fill="white"/>
<g style="mix-blend-mode:multiply">
<path d="M692.243 498.072H600.141V493.129H692.243V498.072Z" fill="#D1D4FB"/>
</g>
<path d="M623.949 493.129V498.072H600.141V493.129H623.949Z" fill="white"/>
<path fill-rule="evenodd" clip-rule="evenodd" d="M540.827 438.346C539.619 440.268 538.329 442.026 536.956 443.619L539.262 450.044L529.541 457.376L528.553 450.127C526.576 451.033 524.516 451.527 522.621 451.527L521.633 454.822L520.315 459.683L511.665 456.305L514.96 448.644C513.477 447.408 512.241 445.76 511.253 443.783L505.816 448.891L503.262 436.781L508.946 433.239C508.864 430.602 509.029 427.801 509.605 424.836L504.25 423.93L509.276 410.172L513.971 412.808C515.372 410.254 516.937 407.948 518.667 405.971L516.443 399.463L526.164 392.131L527.152 399.463C529.129 398.556 531.106 398.062 533.084 398.062L535.225 390.318L544.04 393.202L540.663 400.863C540.992 401.138 541.322 401.44 541.651 401.769C542.75 402.923 543.656 404.268 544.37 405.806L549.807 400.616L552.361 412.726L546.759 416.268C546.841 418.493 546.676 420.799 546.264 423.188C546.21 423.682 546.127 424.177 546.017 424.671L551.454 425.577L546.429 439.335L541.734 436.699C541.404 437.248 541.102 437.797 540.827 438.346V438.346ZM527.811 424.753L532.672 410.996C534.319 412.232 530.53 417.174 527.811 424.753ZM523.033 438.511C524.269 438.181 525.175 432.415 527.811 424.836L523.033 438.511Z" fill="url(#paint88_linear_20_253)"/>
<path fill-rule="evenodd" clip-rule="evenodd" d="M540.827 438.346L533.248 442.959L539.262 450.044L529.541 457.376L521.633 454.822L517.102 453.339L518.338 455.728L520.315 459.683L507.875 455.646L499.225 452.268L502.026 445.843L493.376 444.854L497.907 428.543L506.969 403.417L504.003 395.426L513.724 388.094L521.303 391.719L522.868 385.787L531.601 389.165L535.225 390.318L544.04 393.202L541.651 397.98L549.807 400.616L551.702 412.396L546.017 415.197L545.441 422.776L546.264 423.188L551.454 425.577L546.429 439.335L540.827 438.346ZM537.367 396.579L539.674 402.099L541.651 397.98L537.367 396.579ZM523.033 438.593L527.811 424.836L532.672 411.078C527.811 409.348 521.715 414.126 519.079 421.788C516.443 429.367 518.173 436.863 523.033 438.593V438.593Z" fill="url(#paint89_linear_20_253)"/>
<path fill-rule="evenodd" clip-rule="evenodd" d="M529.294 432.662C527.894 435.216 526.328 437.522 524.516 439.582L526.823 446.008L517.102 453.339L516.113 446.09C514.136 446.996 512.159 447.408 510.182 447.49L507.875 455.646L499.225 452.268L502.52 444.607C501.038 443.371 499.802 441.641 498.813 439.664L493.376 444.854L490.822 432.744L496.507 429.202C496.424 426.566 496.671 423.682 497.248 420.799L491.811 419.893L496.836 406.135L501.532 408.772C502.932 406.218 504.498 403.911 506.228 401.934L504.003 395.426L513.724 388.094L514.713 395.344C516.69 394.52 518.667 394.026 520.644 394.026L522.868 385.787L531.601 389.165L528.223 396.826C529.788 398.062 531.024 399.792 531.93 401.769L537.367 396.579L540.004 408.689L534.319 412.232C534.402 414.868 534.155 417.751 533.578 420.634L539.015 421.541L533.99 435.298L529.294 432.662ZM524.104 423.765C526.74 416.186 525.01 408.689 520.232 406.959C515.372 405.312 509.276 410.09 506.639 417.669C504.003 425.248 505.733 432.744 510.594 434.474C515.372 436.204 521.468 431.344 524.104 423.765V423.765Z" fill="url(#paint90_linear_20_253)"/>
<g style="mix-blend-mode:multiply" opacity="0.5">
<path d="M546.759 416.268L534.319 412.232L540.004 408.689L552.361 412.726L546.759 416.268Z" fill="#601734"/>
</g>
<g style="mix-blend-mode:soft-light">
<path d="M539.262 450.044L526.823 446.008L524.516 439.582L536.956 443.619L539.262 450.044Z" fill="#B3D9FF"/>
</g>
<g style="mix-blend-mode:multiply" opacity="0.5">
<path d="M531.601 389.165L544.04 393.202L541.898 398.062L537.367 396.579L535.061 398.804L528.223 396.826L531.601 389.165Z" fill="#601734"/>
</g>
<g style="mix-blend-mode:multiply" opacity="0.5">
<path d="M516.113 446.09L516.69 450.126L510.182 447.49C512.653 447.902 516.113 446.09 516.113 446.09V446.09Z" fill="#601734"/>
</g>
<g style="mix-blend-mode:multiply" opacity="0.5">
<path d="M524.928 412.973C523.692 413.879 522.127 415.939 522.127 415.939L511.17 410.172C522.045 400.863 524.928 412.973 524.928 412.973V412.973Z" fill="#601734"/>
</g>
<path d="M259.498 0L270.043 21.1718L262.958 24.3846L253.073 4.94282L259.498 0Z" fill="#FF1D1D"/>
<path d="M25.8674 489.34L35.094 499.555L31.3045 503.921L21.5013 493.211L25.8674 489.34Z" fill="#6877FF"/>
<path d="M518.667 129.172L508.864 135.186L504.91 127.69L515.701 121.429L518.667 129.172Z" fill="#4F31E0"/>
<path d="M567.189 507.71L553.102 517.678L549.148 510.264L562.823 502.191L567.189 507.71Z" fill="#4F31E0"/>
<path d="M548.571 78.0143L546.182 22.5723H618.759L615.794 77.8495L548.571 78.0143Z" fill="url(#paint91_linear_20_253)"/>
<path d="M548.571 78.0143H546.182L543.958 25.7851L546.182 22.5723L548.571 78.0143Z" fill="url(#paint92_linear_20_253)"/>
<path d="M570.237 36.4945L563.894 36.3298L564.553 65.6572L570.237 65.4924V69.4467L560.434 70.4352L558.869 32.3755L570.237 33.6112V36.4945Z" fill="white"/>
<path d="M593.633 33.6112L605.002 32.3755L603.436 70.4352L593.633 69.4467V65.4924L599.317 65.6572L599.977 36.3298L593.633 36.4945V33.6112Z" fill="white"/>
<path d="M2.05951 199.278L0 161.63H49.5106L47.863 199.443L2.05951 199.278Z" fill="url(#paint93_linear_20_253)"/>
<path d="M49.5107 161.63L50.9935 163.855L49.5107 199.443H47.8631L49.5107 161.63Z" fill="url(#paint94_linear_20_253)"/>
<path d="M30.3984 169.209C30.3984 169.209 35.8355 169.045 36.8241 169.456C37.7303 169.868 36.5769 178.765 36.5769 178.765L38.7188 180.743L36.7417 182.637C36.7417 182.637 36.8241 191.617 35.506 192.358C34.2703 193.1 29.9041 192.358 29.9041 192.358V190.134C29.9041 190.134 33.4465 190.381 34.0231 189.887C34.5998 189.393 34.5998 181.566 34.5998 181.566L35.506 180.578L34.5998 179.424C34.5998 179.424 34.7646 173.823 34.6822 172.257C34.5998 171.269 30.3984 171.186 30.3984 171.186V169.209Z" fill="white"/>
<path d="M17.959 171.186C17.959 171.186 13.84 171.269 13.7576 172.257C13.6752 173.823 13.84 179.424 13.84 179.424L12.8514 180.578L13.84 181.566C13.84 181.566 13.7576 189.393 14.4166 189.887C14.9933 190.381 18.5357 190.134 18.5357 190.134V192.358C18.5357 192.358 14.1695 193.1 12.8514 192.358C11.6157 191.617 11.6981 182.637 11.6981 182.637L9.72095 180.743L11.8628 178.765C11.8628 178.765 10.6271 169.868 11.6157 169.456C12.6043 169.045 17.959 169.209 17.959 169.209V171.186Z" fill="white"/>
<path fill-rule="evenodd" clip-rule="evenodd" d="M465.532 83.0394L453.422 51.2406L484.891 57.831L465.532 83.0394ZM454.657 52.3939L465.779 81.3918L483.408 58.4077L454.657 52.3939Z" fill="#744CA2"/>
<path d="M552.443 533.084L551.784 532.589L562.493 518.09L563.152 518.585L552.443 533.084Z" fill="#744CA2"/>
<path d="M452.433 399.051L440.982 384.799L441.641 384.305L453.092 398.556L452.433 399.051Z" fill="#744CA2"/>
<path d="M99.3508 499.143L76.449 482.502L76.9433 481.843L99.8451 498.484L99.3508 499.143Z" fill="#744CA2"/>
<path d="M79.909 501.944L79.25 501.449L96.3851 479.042L97.0441 479.536L79.909 501.944Z" fill="#744CA2"/>
<path d="M62.4444 256.038L47.6983 248.295L48.0278 247.553L62.8563 255.379L62.4444 256.038Z" fill="#744CA2"/>
<path d="M630.622 56.6777L630.045 56.1835L647.098 36.6593L647.675 37.236L630.622 56.6777Z" fill="#744CA2"/>
<path d="M305.631 119.534L297.97 104.211L298.711 103.882L306.29 119.204L305.631 119.534Z" fill="#744CA2"/>
<path d="M177.612 379.279L177.118 378.703L196.724 362.227L197.219 362.886L177.612 379.279Z" fill="#744CA2"/>
<path d="M368.641 263L368.042 277.214C368.019 277.766 368.447 278.232 368.999 278.256L377.652 278.62L377.775 274.694L373.601 274.484C373.051 274.456 372.627 273.989 372.652 273.439L373.125 263.147L368.641 263Z" fill="white"/>
<path d="M406.69 280.089L410.216 280.198C410.435 280.205 410.634 280.067 410.705 279.859L413.849 270.63C414.009 270.161 414.679 270.185 414.806 270.663L417.308 280.119C417.365 280.333 417.555 280.484 417.776 280.491L421.311 280.6C421.648 280.611 421.898 280.292 421.808 279.967L417.895 265.796C417.837 265.586 417.651 265.438 417.433 265.43C415.805 265.374 413.372 265.338 411.743 265.282C411.526 265.274 411.328 265.407 411.254 265.612L406.236 279.418C406.12 279.738 406.35 280.078 406.69 280.089Z" fill="white"/>
<path d="M335.902 263H331.326L337.286 272.277V277H340.465V272.277L346.426 263H341.85L338.935 268.886H338.816L335.902 263Z" fill="white"/>
<path d="M347.69 277.51L351.216 277.619C351.435 277.626 351.634 277.488 351.705 277.28L354.849 268.051C355.009 267.582 355.679 267.606 355.806 268.084L358.308 277.54C358.365 277.754 358.555 277.905 358.776 277.912L362.311 278.021C362.648 278.032 362.898 277.713 362.808 277.388L358.895 263.217C358.837 263.007 358.651 262.859 358.433 262.851C356.805 262.795 354.372 262.759 352.743 262.703C352.526 262.695 352.328 262.828 352.254 263.033L347.236 276.839C347.12 277.159 347.35 277.499 347.69 277.51Z" fill="white"/>
</g>
<defs>
<radialGradient id="paint0_radial_20_253" cx="0" cy="0" r="1" gradientUnits="userSpaceOnUse" gradientTransform="translate(335.7 261.269) rotate(90) scale(255.42 255.379)">
<stop stop-color="#FF0000"/>
<stop offset="0.692708" stop-color="#2B0B0B"/>
<stop offset="1" stop-color="#0D0D0D"/>
</radialGradient>
<linearGradient id="paint1_linear_20_253" x1="21347.4" y1="55330.9" x2="21347.4" y2="39939.9" gradientUnits="userSpaceOnUse">
<stop stop-color="#DBCCFF"/>
<stop offset="1" stop-color="#D1BBFF"/>
</linearGradient>
<linearGradient id="paint2_linear_20_253" x1="21516.2" y1="55915.6" x2="21516.2" y2="40519.8" gradientUnits="userSpaceOnUse">
<stop stop-color="#B5A6E7"/>
<stop offset="1" stop-color="#7760BF"/>
</linearGradient>
<linearGradient id="paint3_linear_20_253" x1="9521.25" y1="22164.8" x2="9521.25" y2="19440.1" gradientUnits="userSpaceOnUse">
<stop stop-color="#B5A6E7"/>
<stop offset="1" stop-color="#7760BF"/>
</linearGradient>
<linearGradient id="paint4_linear_20_253" x1="3820.06" y1="2706.94" x2="3940.14" y2="2587.13" gradientUnits="userSpaceOnUse">
<stop stop-color="#8B8BE0"/>
<stop offset="1" stop-color="#A177B7"/>
</linearGradient>
<linearGradient id="paint5_linear_20_253" x1="6397.64" y1="7121.45" x2="6340.72" y2="6954.51" gradientUnits="userSpaceOnUse">
<stop stop-color="white"/>
<stop offset="1" stop-color="#A177B7"/>
</linearGradient>
<linearGradient id="paint6_linear_20_253" x1="7808.95" y1="23744.9" x2="5969.08" y2="21918.4" gradientUnits="userSpaceOnUse">
<stop/>
<stop offset="1" stop-color="white"/>
</linearGradient>
<linearGradient id="paint7_linear_20_253" x1="92545.6" y1="118025" x2="92545.6" y2="91805.7" gradientUnits="userSpaceOnUse">
<stop stop-color="#C05656"/>
<stop offset="1" stop-color="#952C2C"/>
</linearGradient>
<radialGradient id="paint8_radial_20_253" cx="0" cy="0" r="1" gradientUnits="userSpaceOnUse" gradientTransform="translate(31983.4 110324) scale(2103.55 4687.94)">
<stop stop-color="#4B474B"/>
<stop offset="1"/>
</radialGradient>
<radialGradient id="paint9_radial_20_253" cx="0" cy="0" r="1" gradientUnits="userSpaceOnUse" gradientTransform="translate(45317 109121) scale(2218.19 4671.85)">
<stop stop-color="#4B474B"/>
<stop offset="1"/>
</radialGradient>
<linearGradient id="paint10_linear_20_253" x1="19654.1" y1="69826.5" x2="21450.7" y2="69826.5" gradientUnits="userSpaceOnUse">
<stop stop-color="#9E8CEF"/>
<stop offset="1" stop-color="#CAAFEE"/>
</linearGradient>
<linearGradient id="paint11_linear_20_253" x1="23961" y1="69826.5" x2="22156.6" y2="69826.5" gradientUnits="userSpaceOnUse">
<stop stop-color="#9E8CEF"/>
<stop offset="1" stop-color="#CAAFEE"/>
</linearGradient>
<linearGradient id="paint12_linear_20_253" x1="69561.4" y1="118025" x2="69561.4" y2="91805.7" gradientUnits="userSpaceOnUse">
<stop stop-color="#FFCCF7"/>
<stop offset="1" stop-color="#BB5C5C"/>
</linearGradient>
<linearGradient id="paint13_linear_20_253" x1="9011.51" y1="29001.3" x2="9011.51" y2="27047.5" gradientUnits="userSpaceOnUse">
<stop stop-color="#CCCCFF"/>
<stop offset="1" stop-color="#755CBB"/>
</linearGradient>
<linearGradient id="paint14_linear_20_253" x1="24701.3" y1="27698.5" x2="24701.3" y2="25824.1" gradientUnits="userSpaceOnUse">
<stop stop-color="#CCCCFF"/>
<stop offset="1" stop-color="#755CBB"/>
</linearGradient>
<linearGradient id="paint15_linear_20_253" x1="32140.5" y1="20870.5" x2="32140.5" y2="16694.3" gradientUnits="userSpaceOnUse">
<stop stop-color="#D5CDF8"/>
<stop offset="1" stop-color="#F3EDFB"/>
</linearGradient>
<linearGradient id="paint16_linear_20_253" x1="32370" y1="16436.8" x2="36556.3" y2="16436.8" gradientUnits="userSpaceOnUse">
<stop stop-color="#CCCCFF"/>
<stop offset="1" stop-color="#755CBB"/>
</linearGradient>
<linearGradient id="paint17_linear_20_253" x1="104496" y1="187822" x2="104496" y2="82525.6" gradientUnits="userSpaceOnUse">
<stop stop-color="#EF8C8C"/>
<stop offset="1" stop-color="#EEAFAF"/>
</linearGradient>
<linearGradient id="paint18_linear_20_253" x1="28818.2" y1="46167.9" x2="35111.1" y2="46167.9" gradientUnits="userSpaceOnUse">
<stop stop-color="#CCCCFF"/>
<stop offset="1" stop-color="#755CBB"/>
</linearGradient>
<linearGradient id="paint19_linear_20_253" x1="24852" y1="71318.5" x2="24852" y2="48122.8" gradientUnits="userSpaceOnUse">
<stop stop-color="#EF8C8C"/>
<stop offset="1" stop-color="#F3C7C7"/>
</linearGradient>
<linearGradient id="paint20_linear_20_253" x1="64237.4" y1="40713.8" x2="74204.2" y2="40713.8" gradientUnits="userSpaceOnUse">
<stop stop-color="#F19999"/>
<stop offset="1" stop-color="#F3C7C7"/>
</linearGradient>
<linearGradient id="paint21_linear_20_253" x1="10211.1" y1="11950.7" x2="10211.1" y2="10348.3" gradientUnits="userSpaceOnUse">
<stop stop-color="#FFC2A9"/>
<stop offset="1" stop-color="#FF9595"/>
</linearGradient>
<linearGradient id="paint22_linear_20_253" x1="10124.7" y1="19624.6" x2="10124.7" y2="15198.4" gradientUnits="userSpaceOnUse">
<stop stop-color="#FFEADB"/>
<stop offset="1" stop-color="#C27CB6"/>
</linearGradient>
<linearGradient id="paint23_linear_20_253" x1="19291.2" y1="34788.9" x2="19291.2" y2="24288.3" gradientUnits="userSpaceOnUse">
<stop stop-color="#FFC2A9"/>
<stop offset="1" stop-color="#FF9595"/>
</linearGradient>
<linearGradient id="paint24_linear_20_253" x1="10810.4" y1="9879" x2="11848.6" y2="9879" gradientUnits="userSpaceOnUse">
<stop stop-color="#D1A1D6"/>
<stop offset="1" stop-color="#BD89C4"/>
</linearGradient>
<linearGradient id="paint25_linear_20_253" x1="71656" y1="55050.2" x2="71656" y2="36357.4" gradientUnits="userSpaceOnUse">
<stop stop-color="#FFC2A9"/>
<stop offset="1" stop-color="#FF9595"/>
</linearGradient>
<linearGradient id="paint26_linear_20_253" x1="46858" y1="24470.2" x2="46858" y2="19836.3" gradientUnits="userSpaceOnUse">
<stop stop-color="#FFEADB"/>
<stop offset="1" stop-color="#C27CB6"/>
</linearGradient>
<linearGradient id="paint27_linear_20_253" x1="24282" y1="10378.8" x2="24282" y2="9470.03" gradientUnits="userSpaceOnUse">
<stop stop-color="#FFB0B0"/>
<stop offset="1" stop-color="#FFC2A9"/>
</linearGradient>
<linearGradient id="paint28_linear_20_253" x1="12329.6" y1="5870.79" x2="12329.6" y2="5591.88" gradientUnits="userSpaceOnUse">
<stop stop-color="#FFB0B0"/>
<stop offset="1" stop-color="#FFC2A9"/>
</linearGradient>
<linearGradient id="paint29_linear_20_253" x1="22322" y1="11614" x2="23291.2" y2="11614" gradientUnits="userSpaceOnUse">
<stop stop-color="#D1A1D6"/>
<stop offset="1" stop-color="#BD89C4"/>
</linearGradient>
<linearGradient id="paint30_linear_20_253" x1="77388.7" y1="73601.4" x2="77388.7" y2="50111.1" gradientUnits="userSpaceOnUse">
<stop stop-color="#FFCCCC"/>
<stop offset="1" stop-color="#BB5C5C"/>
</linearGradient>
<linearGradient id="paint31_linear_20_253" x1="82019.2" y1="82231.9" x2="147857" y2="82231.9" gradientUnits="userSpaceOnUse">
<stop stop-color="#FFCCCC"/>
<stop offset="1" stop-color="#BB5C5C"/>
</linearGradient>
<linearGradient id="paint32_linear_20_253" x1="27105.1" y1="8898.32" x2="29507.3" y2="8898.32" gradientUnits="userSpaceOnUse">
<stop stop-color="#CCEDFF"/>
<stop offset="1" stop-color="#755CBB"/>
</linearGradient>
<linearGradient id="paint33_linear_20_253" x1="36427" y1="15187.8" x2="41620.6" y2="15187.8" gradientUnits="userSpaceOnUse">
<stop stop-color="#CCEDFF"/>
<stop offset="1" stop-color="#755CBB"/>
</linearGradient>
<linearGradient id="paint34_linear_20_253" x1="39171.4" y1="14600.4" x2="45067.7" y2="14600.4" gradientUnits="userSpaceOnUse">
<stop stop-color="#CCEDFF"/>
<stop offset="1" stop-color="#755CBB"/>
</linearGradient>
<linearGradient id="paint35_linear_20_253" x1="39112.5" y1="38510.9" x2="39112.5" y2="31044.7" gradientUnits="userSpaceOnUse">
<stop stop-color="#FFCCDE"/>
<stop offset="1" stop-color="#BB5C5C"/>
</linearGradient>
<linearGradient id="paint36_linear_20_253" x1="17291.9" y1="29295.7" x2="17291.9" y2="23633.4" gradientUnits="userSpaceOnUse">
<stop stop-color="#FFCCDE"/>
<stop offset="1" stop-color="#BB5C5C"/>
</linearGradient>
<linearGradient id="paint37_linear_20_253" x1="12838.1" y1="18312.6" x2="12838.1" y2="15896.4" gradientUnits="userSpaceOnUse">
<stop stop-color="#CCEDFF"/>
<stop offset="1" stop-color="#755CBB"/>
</linearGradient>
<linearGradient id="paint38_linear_20_253" x1="7850.36" y1="15031" x2="8249.08" y2="15031" gradientUnits="userSpaceOnUse">
<stop stop-color="#CCEDFF"/>
<stop offset="1" stop-color="#755CBB"/>
</linearGradient>
<linearGradient id="paint39_linear_20_253" x1="8323.63" y1="40876.5" x2="8323.63" y2="32456.2" gradientUnits="userSpaceOnUse">
<stop stop-color="#CCCCFF"/>
<stop offset="1" stop-color="#755CBB"/>
</linearGradient>
<linearGradient id="paint40_linear_20_253" x1="12357.3" y1="20549" x2="12357.3" y2="18252.4" gradientUnits="userSpaceOnUse">
<stop stop-color="#CCCCFF"/>
<stop offset="1" stop-color="#755CBB"/>
</linearGradient>
<linearGradient id="paint41_linear_20_253" x1="23320.6" y1="15717.1" x2="23320.6" y2="14372.6" gradientUnits="userSpaceOnUse">
<stop stop-color="#CCCCFF"/>
<stop offset="1" stop-color="#755CBB"/>
</linearGradient>
<linearGradient id="paint42_linear_20_253" x1="7666.71" y1="5260.63" x2="7666.71" y2="5108.52" gradientUnits="userSpaceOnUse">
<stop stop-color="#CCEDFF"/>
<stop offset="1" stop-color="#755CBB"/>
</linearGradient>
<linearGradient id="paint43_linear_20_253" x1="8909.63" y1="30825.3" x2="8909.63" y2="25286" gradientUnits="userSpaceOnUse">
<stop stop-color="#CCCCFF"/>
<stop offset="1" stop-color="#755CBB"/>
</linearGradient>
<linearGradient id="paint44_linear_20_253" x1="21603.2" y1="20291" x2="21603.2" y2="17154.9" gradientUnits="userSpaceOnUse">
<stop stop-color="#CCEDFF"/>
<stop offset="1" stop-color="#755CBB"/>
</linearGradient>
<linearGradient id="paint45_linear_20_253" x1="27029.6" y1="27290.4" x2="27029.6" y2="21324.4" gradientUnits="userSpaceOnUse">
<stop stop-color="#CCEDFF"/>
<stop offset="1" stop-color="#755CBB"/>
</linearGradient>
<linearGradient id="paint46_linear_20_253" x1="59561" y1="10701.1" x2="76219" y2="10701.1" gradientUnits="userSpaceOnUse">
<stop stop-color="#A0425E"/>
<stop offset="1" stop-color="#6456C0"/>
</linearGradient>
<linearGradient id="paint47_linear_20_253" x1="39799.4" y1="18967.2" x2="46848.1" y2="18967.2" gradientUnits="userSpaceOnUse">
<stop stop-color="#CCCCFF"/>
<stop offset="1" stop-color="#755CBB"/>
</linearGradient>
<linearGradient id="paint48_linear_20_253" x1="10666.4" y1="20585.6" x2="10666.4" y2="18218.9" gradientUnits="userSpaceOnUse">
<stop stop-color="#CCCCFF"/>
<stop offset="1" stop-color="#755CBB"/>
</linearGradient>
<linearGradient id="paint49_linear_20_253" x1="20437.7" y1="65401.2" x2="20437.7" y2="52680.5" gradientUnits="userSpaceOnUse">
<stop stop-color="#FFCCDE"/>
<stop offset="1" stop-color="#BB5C5C"/>
</linearGradient>
<linearGradient id="paint50_linear_20_253" x1="28126" y1="23242.3" x2="28126" y2="21461" gradientUnits="userSpaceOnUse">
<stop stop-color="#CCCCFF"/>
<stop offset="1" stop-color="#755CBB"/>
</linearGradient>
<linearGradient id="paint51_linear_20_253" x1="37500.4" y1="11160.7" x2="37500.4" y2="10810.1" gradientUnits="userSpaceOnUse">
<stop stop-color="#CCCCFF"/>
<stop offset="1" stop-color="#755CBB"/>
</linearGradient>
<linearGradient id="paint52_linear_20_253" x1="63988.8" y1="42124.3" x2="63988.8" y2="33928.7" gradientUnits="userSpaceOnUse">
<stop stop-color="#CCEDFF"/>
<stop offset="1" stop-color="#BB5C5C"/>
</linearGradient>
<linearGradient id="paint53_linear_20_253" x1="47157.3" y1="37017.2" x2="47157.3" y2="18344.7" gradientUnits="userSpaceOnUse">
<stop stop-color="#FFC2A9"/>
<stop offset="1" stop-color="#FF9595"/>
</linearGradient>
<linearGradient id="paint54_linear_20_253" x1="11679.8" y1="8712.3" x2="11679.8" y2="7052.71" gradientUnits="userSpaceOnUse">
<stop stop-color="#FFC2A9"/>
<stop offset="1" stop-color="#FF9595"/>
</linearGradient>
<linearGradient id="paint55_linear_20_253" x1="20487.6" y1="2570.93" x2="20492.8" y2="2478.77" gradientUnits="userSpaceOnUse">
<stop stop-color="#E1616A"/>
<stop offset="1" stop-color="#FF8883"/>
</linearGradient>
<linearGradient id="paint56_linear_20_253" x1="44093.5" y1="19782.1" x2="44093.5" y2="11642.6" gradientUnits="userSpaceOnUse">
<stop stop-color="#FFEADB"/>
<stop offset="1" stop-color="#C27CB6"/>
</linearGradient>
<linearGradient id="paint57_linear_20_253" x1="10971.3" y1="3336.85" x2="10971.3" y2="3017.14" gradientUnits="userSpaceOnUse">
<stop stop-color="#CF6074"/>
<stop offset="1" stop-color="#F37270"/>
</linearGradient>
<linearGradient id="paint58_linear_20_253" x1="7003.41" y1="3002.63" x2="7003.41" y2="2761.74" gradientUnits="userSpaceOnUse">
<stop stop-color="#CF6074"/>
<stop offset="1" stop-color="#FF817F"/>
</linearGradient>
<linearGradient id="paint59_linear_20_253" x1="8807.41" y1="6968.01" x2="8807.41" y2="5749.91" gradientUnits="userSpaceOnUse">
<stop stop-color="#FFEADB"/>
<stop offset="1" stop-color="#C27CB6"/>
</linearGradient>
<linearGradient id="paint60_linear_20_253" x1="50978.6" y1="45122.6" x2="50978.6" y2="16736.2" gradientUnits="userSpaceOnUse">
<stop stop-color="#2EA08B"/>
<stop offset="1" stop-color="#A50636"/>
</linearGradient>
<linearGradient id="paint61_linear_20_253" x1="8946.37" y1="6370.33" x2="8946.37" y2="4832.91" gradientUnits="userSpaceOnUse">
<stop stop-color="#FFEADB"/>
<stop offset="1" stop-color="#8860C7"/>
</linearGradient>
<linearGradient id="paint62_linear_20_253" x1="42441.9" y1="45122.6" x2="42441.9" y2="16736.2" gradientUnits="userSpaceOnUse">
<stop stop-color="#CCC2DB"/>
<stop offset="1" stop-color="#8860C7"/>
</linearGradient>
<linearGradient id="paint63_linear_20_253" x1="20962.3" y1="2118.5" x2="20962.3" y2="2082.08" gradientUnits="userSpaceOnUse">
<stop stop-color="#776D7E"/>
<stop offset="1" stop-color="#9D68C2"/>
</linearGradient>
<linearGradient id="paint64_linear_20_253" x1="16138.3" y1="699.032" x2="17067.6" y2="699.032" gradientUnits="userSpaceOnUse">
<stop stop-color="#D11F3F"/>
<stop offset="1" stop-color="#0686C9"/>
</linearGradient>
<linearGradient id="paint65_linear_20_253" x1="24189.4" y1="2024.7" x2="25596.2" y2="2024.7" gradientUnits="userSpaceOnUse">
<stop stop-color="#D11F3F"/>
<stop offset="1" stop-color="#0686C9"/>
</linearGradient>
<linearGradient id="paint66_linear_20_253" x1="5046.2" y1="1846.39" x2="5319.04" y2="1846.39" gradientUnits="userSpaceOnUse">
<stop stop-color="#D11F3F"/>
<stop offset="1" stop-color="#0686C9"/>
</linearGradient>
<linearGradient id="paint67_linear_20_253" x1="9827.78" y1="6708.3" x2="9253.1" y2="6267.77" gradientUnits="userSpaceOnUse">
<stop stop-color="#FFEADB"/>
<stop offset="1" stop-color="#B060F4"/>
</linearGradient>
<linearGradient id="paint68_linear_20_253" x1="4948.23" y1="4034.9" x2="4799.18" y2="3944.25" gradientUnits="userSpaceOnUse">
<stop stop-color="#FFEADB"/>
<stop offset="1" stop-color="#F46095"/>
</linearGradient>
<linearGradient id="paint69_linear_20_253" x1="16986.1" y1="748.059" x2="17966.7" y2="748.059" gradientUnits="userSpaceOnUse">
<stop stop-color="#D11F3F"/>
<stop offset="1" stop-color="#0686C9"/>
</linearGradient>
<linearGradient id="paint70_linear_20_253" x1="5469.93" y1="2316.93" x2="5768.36" y2="2316.93" gradientUnits="userSpaceOnUse">
<stop stop-color="#D11F3F"/>
<stop offset="1" stop-color="#0686C9"/>
</linearGradient>
<linearGradient id="paint71_linear_20_253" x1="5844.51" y1="947.716" x2="6165.67" y2="947.716" gradientUnits="userSpaceOnUse">
<stop stop-color="#D11F3F"/>
<stop offset="1" stop-color="#0686C9"/>
</linearGradient>
<linearGradient id="paint72_linear_20_253" x1="205763" y1="5362.34" x2="308890" y2="5362.34" gradientUnits="userSpaceOnUse">
<stop stop-color="#9D68C2"/>
<stop offset="1" stop-color="#AEC2FF"/>
</linearGradient>
<linearGradient id="paint73_linear_20_253" x1="64391.5" y1="35338.1" x2="64391.5" y2="25941.5" gradientUnits="userSpaceOnUse">
<stop stop-color="#CCEDFF"/>
<stop offset="1" stop-color="#9D68C2"/>
</linearGradient>
<linearGradient id="paint74_linear_20_253" x1="36754.8" y1="13674" x2="36754.8" y2="11846.4" gradientUnits="userSpaceOnUse">
<stop stop-color="#CCEDFF"/>
<stop offset="1" stop-color="#9D68C2"/>
</linearGradient>
<linearGradient id="paint75_linear_20_253" x1="38954.1" y1="13674" x2="38954.1" y2="11846.4" gradientUnits="userSpaceOnUse">
<stop stop-color="#CCEDFF"/>
<stop offset="1" stop-color="#9D68C2"/>
</linearGradient>
<linearGradient id="paint76_linear_20_253" x1="34448" y1="13674" x2="34448" y2="11846.4" gradientUnits="userSpaceOnUse">
<stop stop-color="#CCEDFF"/>
<stop offset="1" stop-color="#9D68C2"/>
</linearGradient>
<linearGradient id="paint77_linear_20_253" x1="17315.4" y1="9511.97" x2="17315.4" y2="7509.72" gradientUnits="userSpaceOnUse">
<stop stop-color="#E33D3D"/>
<stop offset="1" stop-color="#FF6D6D"/>
</linearGradient>
<linearGradient id="paint78_linear_20_253" x1="1795.07" y1="9511.97" x2="1795.07" y2="7509.72" gradientUnits="userSpaceOnUse">
<stop stop-color="#A242EA"/>
<stop offset="1" stop-color="#FE117E"/>
</linearGradient>
<linearGradient id="paint79_linear_20_253" x1="49921.5" y1="115571" x2="53357.8" y2="82162.2" gradientUnits="userSpaceOnUse">
<stop stop-color="#067EFF" stop-opacity="0.79"/>
<stop offset="1" stop-color="#3E37A0" stop-opacity="0.77"/>
</linearGradient>
<linearGradient id="paint80_linear_20_253" x1="15315.1" y1="3452.51" x2="15315.1" y2="3188.56" gradientUnits="userSpaceOnUse">
<stop stop-color="#459FFF"/>
<stop offset="1" stop-color="#A96DFF"/>
</linearGradient>
<linearGradient id="paint81_linear_20_253" x1="2827.53" y1="8291.54" x2="2827.53" y2="7881.87" gradientUnits="userSpaceOnUse">
<stop stop-color="#459FFF"/>
<stop offset="1" stop-color="#FF6D6D"/>
</linearGradient>
<linearGradient id="paint82_linear_20_253" x1="15804.9" y1="3452.51" x2="15804.9" y2="3188.56" gradientUnits="userSpaceOnUse">
<stop stop-color="#B31A1A"/>
<stop offset="1" stop-color="#FE1111"/>
</linearGradient>
<linearGradient id="paint83_linear_20_253" x1="4916.1" y1="3150.85" x2="4916.1" y2="3017.98" gradientUnits="userSpaceOnUse">
<stop stop-color="#B31A1A"/>
<stop offset="1" stop-color="#FE1111"/>
</linearGradient>
<linearGradient id="paint84_linear_20_253" x1="9658.62" y1="6251" x2="9658.62" y2="6120.21" gradientUnits="userSpaceOnUse">
<stop stop-color="#8642A0"/>
<stop offset="1" stop-color="#6456C0"/>
</linearGradient>
<linearGradient id="paint85_linear_20_253" x1="2074.26" y1="6280.02" x2="2074.26" y2="6174.83" gradientUnits="userSpaceOnUse">
<stop stop-color="#8642A0"/>
<stop offset="1" stop-color="#6456C0"/>
</linearGradient>
<linearGradient id="paint86_linear_20_253" x1="21907.6" y1="43793" x2="21907.6" y2="36621.8" gradientUnits="userSpaceOnUse">
<stop stop-color="#E30663"/>
<stop offset="1" stop-color="#FF6D6D"/>
</linearGradient>
<linearGradient id="paint87_linear_20_253" x1="112603" y1="67483.5" x2="112603" y2="56264.2" gradientUnits="userSpaceOnUse">
<stop stop-color="#E30606"/>
<stop offset="1" stop-color="#FF6D6D"/>
</linearGradient>
<linearGradient id="paint88_linear_20_253" x1="38373.1" y1="44221.6" x2="38373.1" y2="38381.2" gradientUnits="userSpaceOnUse">
<stop stop-color="#1852A0"/>
<stop offset="1" stop-color="#067ED3"/>
</linearGradient>
<linearGradient id="paint89_linear_20_253" x1="45106.4" y1="47080.2" x2="45106.4" y2="40451.8" gradientUnits="userSpaceOnUse">
<stop stop-color="#1852A0"/>
<stop offset="1" stop-color="#067ED3"/>
</linearGradient>
<linearGradient id="paint90_linear_20_253" x1="37681.5" y1="44187.1" x2="37681.5" y2="38263.1" gradientUnits="userSpaceOnUse">
<stop stop-color="#188DC1"/>
<stop offset="1" stop-color="#06BFE7"/>
</linearGradient>
<linearGradient id="paint91_linear_20_253" x1="56648.3" y1="9020.81" x2="57637.6" y2="4217.04" gradientUnits="userSpaceOnUse">
<stop stop-color="#188DC1"/>
<stop offset="1" stop-color="#06BFE7"/>
</linearGradient>
<linearGradient id="paint92_linear_20_253" x1="4102.64" y1="9037.44" x2="5156.43" y2="8711.61" gradientUnits="userSpaceOnUse">
<stop stop-color="#1852A0"/>
<stop offset="1" stop-color="#067ED3"/>
</linearGradient>
<linearGradient id="paint93_linear_20_253" x1="10194.2" y1="11932.7" x2="9736.7" y2="9699.77" gradientUnits="userSpaceOnUse">
<stop stop-color="#188DC1"/>
<stop offset="1" stop-color="#06BFE7"/>
</linearGradient>
<linearGradient id="paint94_linear_20_253" x1="696.181" y1="11940.3" x2="212.721" y2="11792.9" gradientUnits="userSpaceOnUse">
<stop stop-color="#1852A0"/>
<stop offset="1" stop-color="#067ED3"/>
</linearGradient>
<clipPath id="clip0_20_253">
<rect width="800" height="600" fill="white"/>
</clipPath>
</defs>
</svg>
