<svg width="800" height="600" viewBox="0 0 800 600" fill="none" xmlns="http://www.w3.org/2000/svg">
<path d="M276.027 355.308C200.401 455.107 132.534 419.556 108.053 389.306" stroke="white" stroke-width="2" stroke-linecap="round"/>
<path d="M99.3467 375.772C98.0311 375.702 96.909 376.776 96.8421 378.168L95.7653 400.884C95.6985 402.279 96.7132 403.464 98.0287 403.535C99.3467 403.606 100.466 402.532 100.533 401.137L101.493 380.945L120.567 381.961C121.885 382.032 123.007 380.958 123.072 379.563C123.139 378.171 122.124 376.983 120.808 376.912L99.3467 375.772ZM104.762 381.006L100.999 376.601L97.4557 379.99L101.221 384.397L104.762 381.006Z" fill="white"/>
<path d="M30.82 359.682C30.4838 359.682 30.0636 359.503 29.5594 359.146C29.0972 358.833 28.7401 358.52 28.488 358.207C27.9838 357.537 27.6476 356.733 27.4796 355.794C27.3115 354.856 27.2275 353.828 27.2275 352.711C27.2275 351.772 27.2485 350.767 27.2905 349.694C27.3745 348.577 27.5006 347.393 27.6686 346.142C26.5762 347.482 25.3367 348.801 23.9501 350.097C22.6055 351.348 21.219 352.376 19.7904 353.18C18.4038 353.984 17.0802 354.387 15.8197 354.387C12.6684 354.387 11.0928 352.599 11.0928 349.024C11.0928 345.315 12.3113 341.74 14.7483 338.299C15.9668 336.601 17.3534 334.97 18.908 333.406C20.4627 331.842 22.1013 330.568 23.824 329.585C25.5467 328.602 27.2485 328.11 28.9292 328.11C30.1897 328.11 31.3032 328.624 32.2696 329.652C32.3536 329.473 32.4586 329.183 32.5847 328.781C32.7527 328.379 32.9838 327.865 33.278 327.239C34.2864 324.915 35.3998 322.502 36.6183 320C37.8368 317.452 38.9293 315.352 39.8957 313.699C40.9882 311.867 42.0176 310.95 42.984 310.95C43.6563 310.95 43.9924 311.509 43.9924 312.626C43.9924 314.548 42.2907 319.039 38.8873 326.099C38.6772 326.502 38.2991 327.239 37.7528 328.311C37.2486 329.339 36.6394 330.546 35.9251 331.931C35.2528 333.272 34.5595 334.612 33.8452 335.953C33.1309 337.294 32.4796 338.5 31.8914 339.573C31.3452 340.601 30.946 341.315 30.6939 341.718C30.2317 343.729 29.8746 345.65 29.6225 347.482C29.3704 349.27 29.2443 351.124 29.2443 353.046C29.2443 353.761 29.2653 354.409 29.3073 354.99C29.3913 355.615 29.5594 356.107 29.8115 356.464C30.0216 356.733 30.2527 356.934 30.5048 357.068C30.7569 357.247 31.051 357.403 31.3872 357.537C31.8914 357.671 32.1435 357.984 32.1435 358.475C32.1435 359.28 31.7023 359.682 30.82 359.682ZM33.7822 331.663C35.3788 328.758 36.7864 326.055 38.0049 323.552C39.2234 321.005 40.2108 318.614 40.9672 316.38C39.2865 318.704 37.8789 321.162 36.7444 323.753C35.6099 326.345 34.6225 328.982 33.7822 331.663ZM15.3785 352.376C16.597 352.376 17.8786 351.951 19.2231 351.102C20.6097 350.208 21.9122 349.158 23.1308 347.952C24.2232 346.879 25.2316 345.784 26.156 344.667C27.0804 343.505 27.9417 342.321 28.7401 341.114C29.0762 339.55 29.4544 338.009 29.8746 336.489C30.3368 334.97 30.841 333.451 31.3872 331.931C30.7149 330.814 29.7695 330.255 28.551 330.255C27.2905 330.255 25.8829 330.769 24.3283 331.797C22.8156 332.78 21.345 334.009 19.9164 335.484C18.5299 336.959 17.3324 338.366 16.3239 339.707C14.2231 342.701 13.1726 345.874 13.1726 349.225C13.1726 351.325 13.9079 352.376 15.3785 352.376ZM47.5195 327.306C46.8052 327.306 46.4481 326.926 46.4481 326.166C46.4481 325.943 46.5952 325.541 46.8893 324.96C47.1834 324.334 47.5195 323.709 47.8977 323.083C48.2758 322.457 48.57 322.033 48.7801 321.809C49.4944 320.96 50.0406 320.424 50.4187 320.201C50.8389 319.977 51.2171 319.866 51.5532 319.866C52.4356 319.866 52.8767 320.29 52.8767 321.139C52.8767 321.452 52.6877 321.832 52.3095 322.279C51.9734 322.681 51.5742 323.061 51.112 323.418C50.4397 323.865 50.0196 324.223 49.8515 324.491L48.4649 326.569C48.4229 326.747 48.3179 326.926 48.1498 327.105C48.0237 327.239 47.8136 327.306 47.5195 327.306ZM36.8051 354.454C35.6286 354.454 34.7673 354.208 34.221 353.716C33.7168 353.225 33.4647 352.487 33.4647 351.504C33.4647 350.566 33.7378 349.292 34.284 347.683C34.8303 346.03 35.5236 344.265 36.3639 342.388C37.2463 340.511 38.1707 338.724 39.1371 337.026C40.1035 335.327 41.0278 333.942 41.9102 332.87C42.8346 331.752 43.5699 331.194 44.1161 331.194C44.8724 331.194 45.2506 331.551 45.2506 332.266C45.2506 332.713 44.8934 333.562 44.1791 334.813C43.4648 336.065 42.6875 337.361 41.8472 338.701C41.511 339.193 41.0488 339.863 40.4606 340.712C39.8723 341.561 39.3051 342.366 38.7589 343.125C38.2127 343.84 37.8555 344.332 37.6875 344.6C37.2673 345.27 36.8261 346.365 36.3639 347.885C35.8597 349.404 35.6076 350.566 35.6076 351.37C35.6076 351.728 35.6706 351.996 35.7967 352.175C35.9648 352.353 36.3219 352.443 36.8681 352.443C37.9186 352.443 39.095 352.085 40.3976 351.37C41.7001 350.655 43.0237 349.761 44.3682 348.689C45.7128 347.572 46.9733 346.432 48.1498 345.27C49.3683 344.108 50.3977 343.103 51.2381 342.254C51.4061 342.075 51.6582 341.986 51.9944 341.986C52.6246 341.986 52.9398 342.254 52.9398 342.79C52.9398 343.282 52.6456 343.84 52.0574 344.466C50.9229 345.672 49.8725 346.745 48.9061 347.683C47.9397 348.622 47.0153 349.449 46.133 350.164C44.7464 351.236 43.2127 352.219 41.532 353.113C39.8513 354.007 38.2757 354.454 36.8051 354.454ZM47.7179 375.769C45.9532 375.769 44.6297 375.054 43.7473 373.624C42.8649 372.239 42.4237 370.653 42.4237 368.865C42.4237 367.525 42.4868 366.206 42.6128 364.91C42.6969 363.659 42.8439 362.408 43.054 361.157C43.1801 360.442 43.4742 360.084 43.9364 360.084C44.7767 360.084 45.1969 360.553 45.1969 361.492C45.1969 361.76 45.1339 362.162 45.0078 362.698C44.8818 363.145 44.8187 363.48 44.8187 363.704C44.7347 364.419 44.6717 365.156 44.6297 365.916C44.5877 366.72 44.5666 367.525 44.5666 368.329C44.5666 371.859 45.7852 373.624 48.2222 373.624C48.9365 373.624 49.7558 373.111 50.6802 372.083C51.6466 371.055 52.5079 369.938 53.2642 368.731C55.029 365.916 56.8987 361.469 58.8735 355.392L60.9534 349.024C57.55 353.359 54.4827 355.526 51.7516 355.526C50.0709 355.526 48.7684 354.856 47.844 353.515C46.9196 352.175 46.4574 350.543 46.4574 348.622C46.4574 344.779 48.0541 340.533 51.2474 335.886C54.7348 330.926 58.1593 328.446 61.5206 328.446C64.1677 328.446 65.9115 330.099 66.7518 333.406C68.3485 329.295 69.8191 327.239 71.1636 327.239C71.6678 327.239 71.92 327.686 71.92 328.58C71.92 330.367 71.1427 332.758 69.588 335.752C69.2519 336.333 68.8317 337.048 68.3275 337.897C67.8653 338.746 67.3401 339.751 66.7518 340.913L64.6089 346.477C64.1888 347.549 63.6636 348.912 63.0333 350.566C62.403 352.174 61.6887 354.074 60.8904 356.263C59.966 358.945 59.1047 361.246 58.3063 363.168C57.55 365.134 56.8567 366.743 56.2265 367.994C53.4953 373.178 50.7432 375.769 47.9701 375.769H47.7179ZM51.7516 353.18C54.3987 353.18 58.3063 349.404 63.4745 341.852L65.3022 336.891C65.0081 336.668 64.798 336.199 64.672 335.484C64.2938 333.562 63.8526 332.289 63.3484 331.663C62.8442 331.037 62.1719 330.725 61.3316 330.725C60.3652 330.725 59.2517 331.194 57.9912 332.132C56.7307 333.071 55.5332 334.233 54.3987 335.618C53.2642 336.958 52.3609 338.277 51.6886 339.573C49.6718 343.237 48.6633 346.387 48.6633 349.024C48.6633 351.795 49.6928 353.18 51.7516 353.18ZM81.9785 327.306C81.2642 327.306 80.907 326.926 80.907 326.166C80.907 325.943 81.0541 325.541 81.3482 324.96C81.6423 324.334 81.9785 323.709 82.3566 323.083C82.7348 322.457 83.0289 322.033 83.239 321.809C83.9533 320.96 84.4995 320.424 84.8776 320.201C85.2978 319.977 85.676 319.866 86.0121 319.866C86.8945 319.866 87.3357 320.29 87.3357 321.139C87.3357 321.452 87.1466 321.832 86.7685 322.279C86.4323 322.681 86.0332 323.061 85.571 323.418C84.8987 323.865 84.4785 324.223 84.3104 324.491L82.9239 326.569C82.8818 326.747 82.7768 326.926 82.6087 327.105C82.4827 327.239 82.2726 327.306 81.9785 327.306ZM71.264 354.454C70.0876 354.454 69.2262 354.208 68.68 353.716C68.1757 353.225 67.9236 352.487 67.9236 351.504C67.9236 350.566 68.1968 349.292 68.743 347.683C69.2892 346.03 69.9825 344.265 70.8228 342.388C71.7052 340.511 72.6296 338.724 73.596 337.026C74.5624 335.327 75.4868 333.942 76.3692 332.87C77.2935 331.752 78.0288 331.194 78.575 331.194C79.3314 331.194 79.7095 331.551 79.7095 332.266C79.7095 332.713 79.3524 333.562 78.6381 334.813C77.9238 336.065 77.1465 337.361 76.3061 338.701C75.97 339.193 75.5078 339.863 74.9195 340.712C74.3313 341.561 73.7641 342.366 73.2178 343.125C72.6716 343.84 72.3145 344.332 72.1464 344.6C71.7262 345.27 71.285 346.365 70.8228 347.885C70.3186 349.404 70.0665 350.566 70.0665 351.37C70.0665 351.728 70.1296 351.996 70.2556 352.175C70.4237 352.353 70.7808 352.443 71.3271 352.443C72.3775 352.443 73.554 352.085 74.8565 351.37C76.159 350.655 77.4826 349.761 78.8272 348.689C80.1717 347.572 81.4322 346.432 82.6087 345.27C83.8272 344.108 84.8567 343.103 85.697 342.254C85.8651 342.075 86.1172 341.986 86.4533 341.986C87.0836 341.986 87.3987 342.254 87.3987 342.79C87.3987 343.282 87.1046 343.84 86.5164 344.466C85.3819 345.672 84.3314 346.745 83.365 347.683C82.3986 348.622 81.4742 349.449 80.5919 350.164C79.2053 351.236 77.6717 352.219 75.991 353.113C74.3103 354.007 72.7347 354.454 71.264 354.454ZM81.0401 358.341C80.2417 358.341 79.8426 357.671 79.8426 356.33C79.8426 354.364 80.872 350.923 82.9308 346.008C85.0317 341.092 88.141 334.657 92.2587 326.703C90.662 326.703 89.1494 326.926 87.7208 327.373C86.3343 327.775 85.599 328.289 85.5149 328.915C85.4729 329.094 85.3679 329.272 85.1998 329.451C85.0737 329.585 84.8637 329.652 84.5695 329.652C83.8973 329.652 83.5611 329.295 83.5611 328.58C83.5611 327.418 84.4225 326.457 86.1452 325.697C87.8679 324.938 90.2839 324.558 93.3932 324.558L97.742 316.916C98.0361 316.425 98.3512 315.888 98.6874 315.307C99.0235 314.682 99.4017 314.012 99.8219 313.297C100.242 312.671 100.725 312.358 101.271 312.358C101.608 312.358 101.86 312.47 102.028 312.693C102.196 312.872 102.28 313.073 102.28 313.297C102.28 313.967 101.356 315.754 99.5067 318.659C97.1958 322.279 95.9563 324.245 95.7882 324.558C96.4185 324.558 97.3638 324.625 98.6244 324.759C99.8849 324.848 101.376 325.005 103.099 325.228C103.729 325.273 104.045 325.608 104.045 326.234C104.045 326.949 103.666 327.306 102.91 327.306C102.616 327.306 102.028 327.261 101.145 327.172C100.263 327.038 99.3177 326.926 98.3092 326.837C97.3008 326.747 96.4394 326.725 95.7251 326.77L94.7798 326.837C86.2502 342.79 82.0065 352.711 82.0485 356.599L82.1115 357.135V357.269C82.1115 357.984 81.7544 358.341 81.0401 358.341ZM95.2536 354.387C92.8166 354.387 91.5981 353.158 91.5981 350.7C91.5981 349.091 91.9553 347.371 92.6696 345.538C93.4259 343.662 94.4343 341.852 95.6948 340.109C96.9553 338.321 98.3629 336.713 99.9176 335.283C101.472 333.808 103.069 332.646 104.708 331.797C106.346 330.903 107.922 330.456 109.434 330.456C112.124 330.456 113.468 331.864 113.468 334.679C113.468 336.512 113.048 337.428 112.208 337.428C111.451 337.428 111.073 337.048 111.073 336.288C111.073 335.975 111.136 335.663 111.262 335.35C111.43 334.992 111.514 334.612 111.514 334.21C111.514 332.959 110.716 332.333 109.119 332.333C106.556 332.333 103.342 334.411 99.4764 338.567C98.552 339.595 97.6486 340.802 96.7662 342.187C95.8839 343.572 95.1486 344.98 94.5603 346.41C94.0141 347.795 93.741 349.113 93.741 350.365C93.741 351.571 94.3713 352.175 95.6318 352.175C96.7242 352.175 97.8797 351.817 99.0982 351.102C100.359 350.387 101.451 349.65 102.376 348.89C104.224 347.415 106.115 345.404 108.048 342.857C108.342 342.5 108.72 342.03 109.182 341.45C109.645 340.869 110.17 340.221 110.758 339.506C110.968 339.282 111.22 339.17 111.514 339.17C112.187 339.17 112.523 339.528 112.523 340.243L110.128 344.064C108.531 346.566 107.733 348.622 107.733 350.231C107.733 351.393 108.258 351.973 109.308 351.973C110.191 351.973 111.157 351.728 112.208 351.236C113.258 350.745 114.119 350.253 114.792 349.761C116.136 348.823 117.544 347.661 119.014 346.276C120.485 344.846 121.893 343.416 123.237 341.986C123.405 341.807 123.657 341.718 123.994 341.718C124.624 341.718 124.939 341.986 124.939 342.522C124.939 343.014 124.645 343.572 124.057 344.198C122.376 345.985 120.863 347.527 119.519 348.823C118.174 350.074 116.893 351.102 115.674 351.906C114.876 352.398 113.888 352.912 112.712 353.448C111.535 353.984 110.191 354.252 108.678 354.252C106.619 354.252 105.59 353.091 105.59 350.767C105.59 349.873 105.695 349.136 105.905 348.555C102.081 352.443 98.531 354.387 95.2536 354.387ZM125.198 355.526C123.265 355.526 121.774 354.9 120.723 353.649C119.715 352.353 119.211 350.655 119.211 348.555C119.211 347.035 119.463 345.203 119.967 343.058C120.849 339.439 122.341 335.238 124.442 330.456C126.08 326.837 127.845 323.284 129.736 319.799C131.627 316.268 133.707 312.805 135.976 309.409C139.589 303.957 142.11 301.231 143.539 301.231C144.463 301.231 144.925 301.499 144.925 302.035C144.925 302.795 143.749 304.694 141.396 307.733L136.984 313.431C133.16 318.346 130.03 323.374 127.593 328.513C125.198 333.652 123.328 338.791 121.984 343.93C121.606 345.404 121.416 346.79 121.416 348.086C121.416 351.482 122.719 353.18 125.324 353.18C126.248 353.18 127.194 352.89 128.16 352.309C129.127 351.772 129.652 351.504 129.736 351.504C130.24 351.504 130.492 351.884 130.492 352.644C130.492 353.314 130.261 353.828 129.799 354.185C128.37 355.079 126.837 355.526 125.198 355.526Z" fill="white"/>
<path d="M531.101 422.888C530.39 422.888 530.035 422.524 530.035 421.797C530.035 421.752 530.285 421.184 530.787 420.093C531.289 419.002 531.999 417.388 532.919 415.252L536.117 407.957C537.413 405.003 538.333 402.662 538.876 400.935C539.461 399.208 539.754 398.094 539.754 397.594C539.754 396.867 540.089 396.503 540.757 396.503C541.426 396.503 541.761 396.867 541.761 397.594C541.761 398.185 541.573 399.117 541.196 400.39C540.862 401.617 540.298 403.208 539.503 405.162L536.305 413.07C545.042 401.071 551.627 395.072 556.058 395.072C556.894 395.072 557.542 395.458 558.002 396.231C558.462 396.958 558.691 397.776 558.691 398.685C558.691 400.867 557.249 404.662 554.365 410.071C556.58 407.616 558.817 405.162 561.074 402.708C563.374 400.208 565.673 397.753 567.972 395.345C568.557 394.754 569.038 394.458 569.414 394.458C569.916 394.458 570.334 394.731 570.668 395.276C571.003 395.776 571.17 396.322 571.17 396.913C571.17 397.367 570.982 397.935 570.606 398.617C570.062 399.617 569.561 400.821 569.101 402.23C568.641 403.594 568.118 405.139 567.533 406.866C566.864 408.821 566.383 410.525 566.091 411.98C565.798 413.434 565.652 414.616 565.652 415.525C565.652 416.661 565.903 417.502 566.404 418.047C566.906 418.547 567.408 418.797 567.909 418.797C568.787 418.797 569.749 418.547 570.794 418.047C571.839 417.547 572.696 417.047 573.365 416.548C574.702 415.593 576.103 414.411 577.566 413.002C579.029 411.548 580.43 410.093 581.767 408.639C581.935 408.457 582.185 408.366 582.52 408.366C583.147 408.366 583.46 408.639 583.46 409.184C583.46 409.684 583.168 410.252 582.583 410.889C580.91 412.707 579.405 414.275 578.068 415.593C576.73 416.866 575.455 417.911 574.243 418.729C573.448 419.229 572.487 419.752 571.358 420.297C570.229 420.843 569.017 421.115 567.721 421.115C566.509 421.115 565.485 420.706 564.649 419.888C563.854 419.07 563.457 417.32 563.457 414.639C563.457 413.593 563.624 412.366 563.959 410.957C564.293 409.503 564.795 407.889 565.464 406.116L568.787 397.526L559.82 407.344C558.775 408.48 557.918 409.434 557.249 410.207C556.58 410.98 556.037 411.616 555.619 412.116C554.825 413.025 554.114 413.911 553.487 414.775C552.902 415.638 552.4 416.388 551.982 417.025C551.689 417.525 551.355 417.775 550.979 417.775C550.268 417.775 549.913 417.457 549.913 416.82C549.913 415.411 551.083 412.161 553.424 407.071C555.765 401.98 556.936 398.935 556.936 397.935C556.936 397.481 556.476 397.253 555.556 397.253C551.836 397.253 545.21 403.867 535.678 417.093C534.884 418.32 533.567 420.161 531.728 422.615C531.602 422.797 531.393 422.888 531.101 422.888ZM579.587 421.252C577.162 421.252 575.95 420.002 575.95 417.502C575.95 415.866 576.305 414.116 577.016 412.252C577.768 410.343 578.771 408.503 580.026 406.73C581.28 404.912 582.68 403.276 584.227 401.821C585.774 400.321 587.362 399.14 588.993 398.276C590.623 397.367 592.191 396.913 593.696 396.913C596.371 396.913 597.709 398.344 597.709 401.208C597.709 403.071 597.291 404.003 596.455 404.003C595.702 404.003 595.326 403.617 595.326 402.844C595.326 402.526 595.389 402.208 595.514 401.889C595.681 401.526 595.765 401.14 595.765 400.73C595.765 399.458 594.971 398.821 593.382 398.821C590.832 398.821 587.634 400.935 583.788 405.162C582.868 406.207 581.969 407.434 581.092 408.843C580.214 410.252 579.482 411.684 578.897 413.139C578.353 414.548 578.082 415.888 578.082 417.161C578.082 418.388 578.709 419.002 579.963 419.002C581.05 419.002 582.199 418.638 583.412 417.911C584.666 417.184 585.753 416.434 586.672 415.661C588.512 414.161 590.393 412.116 592.316 409.525C592.609 409.162 592.985 408.684 593.445 408.094C593.905 407.503 594.427 406.844 595.012 406.116C595.221 405.889 595.472 405.776 595.765 405.776C596.434 405.776 596.768 406.139 596.768 406.866L594.385 410.752C592.797 413.298 592.002 415.388 592.002 417.025C592.002 418.206 592.525 418.797 593.57 418.797C594.448 418.797 595.41 418.547 596.455 418.047C597.5 417.547 598.357 417.047 599.026 416.548C600.363 415.593 601.764 414.411 603.227 413.002C604.69 411.548 606.09 410.093 607.428 408.639C607.595 408.457 607.846 408.366 608.181 408.366C608.808 408.366 609.121 408.639 609.121 409.184C609.121 409.684 608.829 410.252 608.243 410.889C606.571 412.707 605.066 414.275 603.729 415.593C602.391 416.866 601.116 417.911 599.903 418.729C599.109 419.229 598.127 419.752 596.956 420.297C595.786 420.843 594.448 421.115 592.943 421.115C590.895 421.115 589.87 419.934 589.87 417.57C589.87 416.661 589.975 415.911 590.184 415.32C586.38 419.275 582.847 421.252 579.587 421.252ZM600.347 422.274C599.678 422.274 599.344 421.979 599.344 421.388C599.344 421.115 599.406 420.843 599.532 420.57C599.699 420.297 599.825 420.07 599.908 419.888L605.614 407.344C608.039 401.98 609.251 399.003 609.251 398.412C609.251 397.776 609.544 397.458 610.129 397.458C610.924 397.458 611.321 397.89 611.321 398.753C611.321 399.208 611.133 399.935 610.756 400.935C610.38 401.935 609.899 403.094 609.314 404.412C608.311 406.776 607.475 408.593 606.806 409.866C608.06 408.275 609.335 406.775 610.631 405.366C611.927 403.958 613.244 402.617 614.581 401.344C618.553 397.572 621.605 395.685 623.737 395.685C625.2 395.685 625.931 396.435 625.931 397.935C625.931 399.39 625.492 400.117 624.614 400.117C624.196 400.117 623.883 399.731 623.674 398.958C623.548 398.412 623.256 398.14 622.796 398.14C622.085 398.14 620.706 398.981 618.657 400.662C616.4 402.48 614.122 404.639 611.822 407.139C609.565 409.639 607.161 412.82 604.611 416.684L601.476 421.456C601.309 421.683 601.141 421.865 600.974 422.002C600.849 422.183 600.64 422.274 600.347 422.274ZM636.986 423.774C636.568 423.774 636.255 423.502 636.046 422.956L635.168 420.638C634.248 418.229 632.931 415.843 631.217 413.479C629.503 411.071 627.81 408.866 626.138 406.866C625.218 408.912 624.403 410.752 623.692 412.389C622.982 414.025 622.334 415.57 621.749 417.025C621.163 418.434 620.536 419.911 619.867 421.456C619.7 421.911 619.408 422.138 618.989 422.138C618.279 422.138 617.923 421.82 617.923 421.184C617.923 420.911 618.007 420.57 618.174 420.161C618.383 419.706 618.571 419.252 618.739 418.797C619.826 415.934 621.226 412.525 622.94 408.571C624.696 404.617 626.681 400.299 628.897 395.617C633.119 386.663 636.505 380.255 639.055 376.391C639.641 375.482 640.205 374.664 640.749 373.937C641.334 373.21 641.835 372.846 642.254 372.846C643.006 372.846 643.382 373.278 643.382 374.142C643.382 375.323 641.794 378.459 638.617 383.55C638.366 383.959 637.927 384.641 637.3 385.595C636.673 386.55 636.004 387.595 635.293 388.731C634.582 389.822 633.914 390.845 633.286 391.799C632.701 392.708 632.304 393.345 632.095 393.708L627.58 403.458C637.697 397.049 643.131 393.845 643.884 393.845C644.553 393.845 644.887 394.254 644.887 395.072C644.887 395.572 644.636 395.935 644.135 396.163C642.295 397.117 640.832 397.89 639.745 398.481C638.7 399.072 637.634 399.685 636.547 400.321C635.628 400.958 634.436 401.73 632.973 402.639C631.552 403.548 629.859 404.594 627.894 405.776C628.897 406.957 629.984 408.344 631.154 409.934C632.325 411.48 633.412 413.093 634.415 414.775C635.46 416.411 636.317 417.934 636.986 419.343C637.655 420.752 637.989 421.888 637.989 422.752C637.989 423.433 637.655 423.774 636.986 423.774ZM646.464 421.797C644.708 421.797 643.329 421.138 642.325 419.82C641.322 418.502 640.821 416.888 640.821 414.979C640.821 411.707 641.824 408.344 643.83 404.889C644.374 403.935 645.001 403.003 645.712 402.094C646.422 401.14 647.196 400.23 648.032 399.367C649.286 398.049 650.603 396.958 651.982 396.094C653.362 395.231 654.7 394.799 655.995 394.799C658.128 394.799 659.193 395.89 659.193 398.072C659.193 400.799 657.73 403.276 654.804 405.503C652.087 407.503 649.411 408.503 646.778 408.503C646.318 408.503 645.9 408.48 645.524 408.434C645.189 408.344 644.876 408.253 644.583 408.162C644.165 409.025 643.789 410.139 643.454 411.502C643.12 412.866 642.953 414.048 642.953 415.048C642.953 418.047 644.165 419.547 646.589 419.547C648.554 419.547 650.415 419.184 652.17 418.456C653.926 417.684 656.016 416.252 658.441 414.161C659.946 412.889 661.075 411.866 661.827 411.093C662.58 410.321 663.395 409.503 664.273 408.639C664.524 408.457 664.753 408.366 664.962 408.366C665.172 408.366 665.381 408.434 665.59 408.571C665.799 408.707 665.903 408.912 665.903 409.184C665.903 409.684 665.485 410.389 664.649 411.298C663.938 412.025 663.186 412.798 662.392 413.616C661.597 414.389 660.343 415.479 658.629 416.888C656.79 418.434 654.783 419.638 652.609 420.502C650.436 421.365 648.387 421.797 646.464 421.797ZM646.401 406.321C647.739 406.321 649.014 406.094 650.226 405.639C651.439 405.185 652.588 404.526 653.675 403.662C656.1 401.708 657.312 399.867 657.312 398.14C657.312 397.367 656.873 396.981 655.995 396.981C654.323 396.981 652.379 398.094 650.164 400.321C649.077 401.412 648.178 402.412 647.467 403.321C646.799 404.185 646.172 405.139 645.586 406.185C645.837 406.276 646.109 406.321 646.401 406.321ZM659.479 425.274C658.685 425.274 658.288 424.592 658.288 423.229C658.288 421.229 659.312 417.729 661.36 412.73C663.451 407.73 666.544 401.185 670.641 393.095C669.052 393.095 667.547 393.322 666.126 393.776C664.747 394.186 664.015 394.708 663.931 395.345C663.89 395.526 663.785 395.708 663.618 395.89C663.492 396.026 663.283 396.094 662.991 396.094C662.322 396.094 661.987 395.731 661.987 395.004C661.987 393.822 662.844 392.845 664.558 392.072C666.272 391.299 668.676 390.913 671.77 390.913L676.096 383.141C676.389 382.641 676.703 382.095 677.037 381.505C677.371 380.868 677.748 380.187 678.166 379.459C678.584 378.823 679.064 378.505 679.608 378.505C679.942 378.505 680.193 378.619 680.36 378.846C680.528 379.028 680.611 379.232 680.611 379.459C680.611 380.141 679.692 381.959 677.852 384.913C675.553 388.595 674.32 390.595 674.152 390.913C674.78 390.913 675.72 390.981 676.974 391.118C678.228 391.208 679.712 391.368 681.426 391.595C682.053 391.64 682.367 391.981 682.367 392.617C682.367 393.345 681.991 393.708 681.238 393.708C680.946 393.708 680.36 393.663 679.483 393.572C678.605 393.436 677.664 393.322 676.661 393.231C675.657 393.14 674.8 393.117 674.09 393.163L673.149 393.231C664.663 409.457 660.441 419.547 660.483 423.502L660.545 424.047V424.183C660.545 424.91 660.19 425.274 659.479 425.274ZM684.406 393.708C683.695 393.708 683.34 393.322 683.34 392.549C683.34 392.322 683.486 391.913 683.779 391.322C684.072 390.686 684.406 390.049 684.782 389.413C685.159 388.777 685.451 388.345 685.66 388.118C686.371 387.254 686.914 386.709 687.291 386.482C687.709 386.254 688.085 386.141 688.419 386.141C689.297 386.141 689.736 386.572 689.736 387.436C689.736 387.754 689.548 388.141 689.172 388.595C688.837 389.004 688.44 389.39 687.98 389.754C687.312 390.208 686.893 390.572 686.726 390.845L685.347 392.958C685.305 393.14 685.2 393.322 685.033 393.504C684.908 393.64 684.699 393.708 684.406 393.708ZM673.746 421.32C672.576 421.32 671.719 421.07 671.175 420.57C670.673 420.07 670.423 419.32 670.423 418.32C670.423 417.366 670.694 416.07 671.238 414.434C671.781 412.752 672.471 410.957 673.307 409.048C674.185 407.139 675.105 405.321 676.066 403.594C677.028 401.867 677.947 400.458 678.825 399.367C679.745 398.231 680.477 397.663 681.02 397.663C681.772 397.663 682.149 398.026 682.149 398.753C682.149 399.208 681.793 400.071 681.083 401.344C680.372 402.617 679.599 403.935 678.763 405.298C678.428 405.798 677.968 406.48 677.383 407.344C676.798 408.207 676.233 409.025 675.69 409.798C675.147 410.525 674.791 411.025 674.624 411.298C674.206 411.98 673.767 413.093 673.307 414.639C672.805 416.184 672.555 417.366 672.555 418.184C672.555 418.547 672.617 418.82 672.743 419.002C672.91 419.184 673.265 419.275 673.809 419.275C674.854 419.275 676.024 418.911 677.32 418.184C678.616 417.456 679.933 416.547 681.271 415.457C682.609 414.32 683.863 413.161 685.033 411.98C686.245 410.798 687.27 409.775 688.106 408.912C688.273 408.73 688.524 408.639 688.858 408.639C689.485 408.639 689.799 408.912 689.799 409.457C689.799 409.957 689.506 410.525 688.921 411.161C687.792 412.389 686.747 413.48 685.786 414.434C684.824 415.388 683.904 416.229 683.027 416.957C681.647 418.047 680.121 419.047 678.449 419.956C676.777 420.865 675.209 421.32 673.746 421.32ZM681.217 422.274C680.548 422.274 680.214 421.979 680.214 421.388C680.214 421.161 680.298 420.888 680.465 420.57C680.632 420.206 680.778 419.911 680.904 419.684L686.547 407.344C688.972 401.98 690.184 399.003 690.184 398.412C690.184 397.776 690.477 397.458 691.062 397.458C691.857 397.458 692.254 397.912 692.254 398.821C692.254 399.14 692.066 399.821 691.689 400.867C691.313 401.912 690.832 403.094 690.247 404.412C689.244 406.776 688.408 408.593 687.739 409.866C688.993 408.275 690.268 406.775 691.564 405.366C692.86 403.958 694.177 402.617 695.514 401.344C699.486 397.572 702.538 395.685 704.67 395.685C706.133 395.685 706.864 396.435 706.864 397.935C706.864 399.299 705.798 402.367 703.666 407.139C701.534 411.957 700.468 415.002 700.468 416.275C700.468 416.866 700.656 417.161 701.033 417.161C701.158 417.161 701.346 417.116 701.597 417.025C701.89 416.888 702.182 416.82 702.475 416.82C703.186 416.82 703.541 417.184 703.541 417.911C703.541 418.82 702.642 419.275 700.844 419.275C700.008 419.275 699.402 419.07 699.026 418.661C698.65 418.206 698.462 417.616 698.462 416.888C698.462 414.707 699.486 411.389 701.534 406.935C703.583 402.526 704.607 399.867 704.607 398.958C704.607 398.412 704.419 398.14 704.042 398.14C703.123 398.14 701.639 398.981 699.59 400.662C697.375 402.48 695.159 404.571 692.943 406.935C690.728 409.298 688.617 412.002 686.61 415.048L682.221 421.661C681.97 422.07 681.635 422.274 681.217 422.274ZM706.704 443C704.948 443 703.631 442.273 702.754 440.818C701.876 439.409 701.437 437.796 701.437 435.978C701.437 434.614 701.499 433.274 701.625 431.955C701.708 430.683 701.855 429.41 702.064 428.138C702.189 427.41 702.482 427.047 702.942 427.047C703.778 427.047 704.196 427.524 704.196 428.478C704.196 428.751 704.133 429.16 704.008 429.706C703.882 430.16 703.82 430.501 703.82 430.728C703.736 431.455 703.673 432.205 703.631 432.978C703.59 433.796 703.569 434.614 703.569 435.432C703.569 439.023 704.781 440.818 707.206 440.818C707.916 440.818 708.732 440.296 709.651 439.25C710.613 438.205 711.47 437.069 712.222 435.842C713.978 432.978 715.838 428.456 717.803 422.274L719.872 415.797C716.486 420.206 713.434 422.411 710.717 422.411C709.045 422.411 707.749 421.729 706.829 420.365C705.91 419.002 705.45 417.343 705.45 415.388C705.45 411.48 707.039 407.162 710.216 402.435C713.685 397.39 717.092 394.867 720.437 394.867C723.07 394.867 724.805 396.549 725.641 399.912C727.23 395.731 728.693 393.64 730.031 393.64C730.532 393.64 730.783 394.095 730.783 395.004C730.783 396.822 730.01 399.253 728.463 402.299C728.129 402.889 727.711 403.617 727.209 404.48C726.749 405.344 726.227 406.366 725.641 407.548L723.509 413.207C723.091 414.298 722.569 415.684 721.942 417.366C721.315 419.002 720.604 420.934 719.81 423.161C718.89 425.888 718.033 428.228 717.239 430.183C716.486 432.183 715.796 433.819 715.169 435.092C712.452 440.364 709.714 443 706.955 443H706.704ZM710.717 420.024C713.351 420.024 717.239 416.184 722.381 408.503L724.199 403.458C723.907 403.23 723.697 402.753 723.572 402.026C723.196 400.071 722.757 398.776 722.255 398.14C721.754 397.503 721.085 397.185 720.249 397.185C719.287 397.185 718.179 397.663 716.925 398.617C715.671 399.571 714.48 400.753 713.351 402.162C712.222 403.526 711.323 404.867 710.655 406.185C708.648 409.912 707.645 413.116 707.645 415.797C707.645 418.615 708.669 420.024 710.717 420.024Z" fill="white"/>
<path d="M408.493 359.692C450.047 413.625 490.447 417.121 505.453 412.127" stroke="white" stroke-width="2" stroke-linecap="round"/>
<path d="M524.453 406.685C524.858 405.369 524.198 403.947 522.976 403.508L503.061 396.36C501.839 395.923 500.519 396.634 500.11 397.95C499.704 399.266 500.365 400.687 501.587 401.127L519.288 407.478L513.387 426.54C512.981 427.856 513.641 429.278 514.864 429.718C516.086 430.155 517.406 429.444 517.814 428.128L524.453 406.685ZM518.617 410.648L523.282 408.136L521.196 403.646L516.531 406.157L518.617 410.648Z" fill="white"/>
<path d="M293.929 349.462C288.491 349.462 283.575 348.111 279.18 345.41C274.86 342.628 271.433 338.781 268.901 333.87C266.368 328.959 265.102 323.312 265.102 316.928C265.102 310.462 266.368 304.815 268.901 299.986C271.433 295.075 274.86 291.269 279.18 288.568C283.575 285.785 288.491 284.394 293.929 284.394C299.069 284.394 303.687 285.704 307.784 288.323C311.956 290.942 315.233 294.666 317.617 299.495C320.075 304.324 321.304 310.135 321.304 316.928C321.304 323.557 320.112 329.328 317.729 334.238C315.345 339.149 312.067 342.914 307.896 345.533C303.799 348.152 299.143 349.462 293.929 349.462ZM294.264 343.937C298.734 343.937 302.719 342.832 306.22 340.622C309.796 338.331 312.589 335.139 314.6 331.046C316.686 326.954 317.729 322.248 317.729 316.928C317.729 311.526 316.686 306.82 314.6 302.809C312.589 298.717 309.796 295.566 306.22 293.356C302.719 291.064 298.734 289.919 294.264 289.919C289.795 289.919 285.773 291.064 282.197 293.356C278.696 295.566 275.903 298.717 273.817 302.809C271.806 306.82 270.8 311.526 270.8 316.928C270.8 322.248 271.806 326.954 273.817 331.046C275.903 335.139 278.696 338.331 282.197 340.622C285.773 342.832 289.795 343.937 294.264 343.937ZM317.84 348.971V327.977L318.846 316.805L317.729 305.633V257.876H323.315V348.971H317.84ZM341.843 348.971V284.885H347.429V348.971H341.843ZM344.636 269.293C343.37 269.293 342.289 268.802 341.396 267.82C340.502 266.838 340.055 265.692 340.055 264.383C340.055 262.991 340.502 261.804 341.396 260.822C342.289 259.84 343.37 259.349 344.636 259.349C345.977 259.349 347.057 259.84 347.876 260.822C348.77 261.723 349.217 262.868 349.217 264.26C349.217 265.651 348.77 266.838 347.876 267.82C347.057 268.802 345.977 269.293 344.636 269.293ZM438.575 284.394C443.268 284.394 447.327 285.417 450.754 287.463C454.255 289.428 456.974 292.456 458.91 296.548C460.847 300.559 461.816 305.551 461.816 311.526V348.971H456.229V312.017C456.229 304.815 454.627 299.331 451.424 295.566C448.221 291.801 443.752 289.919 438.016 289.919C433.621 289.919 429.822 290.942 426.619 292.988C423.416 295.034 420.958 297.899 419.245 301.582C417.531 305.265 416.675 309.684 416.675 314.841V348.971H411.088V312.017C411.088 304.815 409.486 299.331 406.283 295.566C403.08 291.801 398.611 289.919 392.875 289.919C388.48 289.919 384.681 290.942 381.478 292.988C378.275 295.034 375.817 297.899 374.104 301.582C372.39 305.265 371.534 309.684 371.534 314.841V348.971H365.947V284.885H371.31V302.564L370.528 300.6C372.241 295.607 375.109 291.678 379.132 288.814C383.154 285.867 387.996 284.394 393.657 284.394C399.467 284.394 404.347 286.031 408.295 289.305C412.317 292.497 414.85 297.285 415.893 303.669L413.993 302.809C415.557 297.326 418.5 292.906 422.82 289.55C427.14 286.113 432.392 284.394 438.575 284.394ZM516.617 348.971V334.361L516.393 332.151V308.088C516.393 302.114 514.904 297.571 511.924 294.461C509.019 291.351 504.736 289.796 499.075 289.796C495.052 289.796 491.29 290.573 487.789 292.128C484.363 293.602 481.42 295.525 478.962 297.899L476.169 293.479C479.074 290.614 482.575 288.404 486.672 286.849C490.769 285.212 495.052 284.394 499.521 284.394C506.747 284.394 512.297 286.399 516.17 290.41C520.043 294.42 521.98 300.395 521.98 308.334V348.971H516.617ZM495.611 349.462C491.29 349.462 487.529 348.725 484.326 347.252C481.197 345.697 478.776 343.528 477.063 340.745C475.424 337.962 474.605 334.77 474.605 331.169C474.605 327.895 475.275 324.949 476.616 322.33C478.031 319.629 480.34 317.46 483.543 315.823C486.746 314.104 491.03 313.245 496.393 313.245H517.846V318.033H496.505C490.471 318.033 486.225 319.26 483.767 321.716C481.383 324.171 480.191 327.24 480.191 330.924C480.191 335.016 481.607 338.29 484.437 340.745C487.268 343.2 491.253 344.428 496.393 344.428C501.309 344.428 505.443 343.2 508.795 340.745C512.222 338.29 514.755 334.729 516.393 330.064L517.958 334.238C516.393 338.904 513.712 342.628 509.913 345.41C506.188 348.111 501.421 349.462 495.611 349.462ZM541.087 348.971V275.064C541.087 269.744 542.465 265.488 545.221 262.296C548.052 259.022 552.074 257.385 557.288 257.385C559.449 257.385 561.572 257.753 563.657 258.49C565.743 259.144 567.456 260.168 568.797 261.559L566.562 266.224C565.445 264.996 564.104 264.096 562.54 263.523C560.976 262.95 559.3 262.664 557.512 262.664C553.936 262.664 551.217 263.769 549.355 265.979C547.493 268.107 546.562 271.299 546.562 275.555V286.358L546.674 289.305V348.971H541.087ZM530.36 290.164V284.885H565.222V290.164H530.36ZM593.416 349.462C587.829 349.462 582.838 348.07 578.444 345.288C574.123 342.505 570.659 338.658 568.052 333.747C565.52 328.836 564.253 323.23 564.253 316.928C564.253 310.544 565.52 304.937 568.052 300.108C570.659 295.198 574.123 291.351 578.444 288.568C582.838 285.785 587.829 284.394 593.416 284.394C599.003 284.394 603.994 285.785 608.389 288.568C612.783 291.351 616.247 295.198 618.78 300.108C621.313 304.937 622.579 310.544 622.579 316.928C622.579 323.23 621.313 328.836 618.78 333.747C616.247 338.658 612.783 342.505 608.389 345.288C603.994 348.07 599.003 349.462 593.416 349.462ZM593.416 343.937C597.885 343.937 601.908 342.832 605.483 340.622C609.059 338.331 611.852 335.139 613.864 331.046C615.875 326.954 616.88 322.248 616.88 316.928C616.88 311.526 615.875 306.82 613.864 302.809C611.852 298.717 609.059 295.566 605.483 293.356C601.908 291.064 597.885 289.919 593.416 289.919C588.947 289.919 584.924 291.064 581.349 293.356C577.848 295.566 575.054 298.717 572.969 302.809C570.957 306.82 569.952 311.526 569.952 316.928C569.952 322.248 570.957 326.954 572.969 331.046C575.054 335.139 577.848 338.331 581.349 340.622C584.924 342.832 588.947 343.937 593.416 343.937ZM634.884 348.971V284.885H640.247V302.441L639.688 300.477C641.327 295.32 644.083 291.351 647.957 288.568C651.83 285.785 656.672 284.394 662.482 284.394V290.41C662.259 290.41 662.035 290.41 661.812 290.41C661.588 290.328 661.365 290.287 661.141 290.287C654.661 290.287 649.596 292.538 645.945 297.039C642.295 301.459 640.47 307.638 640.47 315.577V348.971H634.884ZM697.518 349.462C692.527 349.462 688.207 348.48 684.557 346.515C680.907 344.469 678.076 341.441 676.065 337.43C674.128 333.338 673.16 328.304 673.16 322.33V284.885H678.747V321.839C678.747 329.041 680.423 334.525 683.775 338.29C687.127 342.055 691.857 343.937 697.965 343.937C702.36 343.937 706.159 342.914 709.362 340.868C712.565 338.822 715.023 335.957 716.737 332.274C718.45 328.509 719.306 324.089 719.306 319.015V284.885H724.893V348.971H719.53V331.169L720.312 333.256C718.599 338.249 715.731 342.218 711.709 345.165C707.761 348.029 703.03 349.462 697.518 349.462ZM758.295 349.462C753.453 349.462 748.909 348.684 744.663 347.129C740.492 345.574 737.252 343.61 734.942 341.236L737.512 336.325C739.747 338.453 742.727 340.295 746.451 341.85C750.176 343.323 754.198 344.06 758.518 344.06C764.627 344.06 769.022 342.955 771.703 340.745C774.385 338.535 775.726 335.63 775.726 332.028C775.726 329.409 775.018 327.363 773.603 325.89C772.262 324.335 770.437 323.148 768.128 322.33C765.818 321.511 763.286 320.856 760.53 320.365C757.774 319.792 755.017 319.179 752.261 318.524C749.505 317.869 746.972 316.928 744.663 315.7C742.354 314.472 740.492 312.795 739.077 310.667C737.736 308.457 737.065 305.551 737.065 301.95C737.065 298.676 737.885 295.73 739.523 293.111C741.162 290.492 743.62 288.404 746.898 286.849C750.176 285.212 754.272 284.394 759.189 284.394C762.839 284.394 766.489 284.967 770.139 286.113C773.863 287.259 776.88 288.773 779.189 290.655L776.619 295.566C774.161 293.52 771.405 292.047 768.351 291.146C765.297 290.246 762.206 289.796 759.077 289.796C753.416 289.796 749.244 290.942 746.563 293.233C743.956 295.525 742.652 298.39 742.652 301.827C742.652 304.528 743.322 306.697 744.663 308.334C746.079 309.889 747.941 311.117 750.25 312.017C752.559 312.836 755.092 313.531 757.848 314.104C760.604 314.595 763.36 315.168 766.116 315.823C768.873 316.478 771.405 317.419 773.714 318.647C776.024 319.792 777.849 321.429 779.189 323.557C780.605 325.604 781.312 328.386 781.312 331.906C781.312 335.425 780.419 338.494 778.631 341.113C776.917 343.733 774.348 345.779 770.921 347.252C767.494 348.725 763.286 349.462 758.295 349.462Z" fill="#FF3131"/>
<path d="M531.419 228C530.397 228 529.886 227.489 529.886 226.467V183.324C529.886 182.302 530.397 181.791 531.419 181.791H549.012C554.974 181.791 559.293 183.141 561.969 185.842C564.67 188.519 566.021 192.838 566.021 198.8V210.991C566.021 216.928 564.67 221.247 561.969 223.948C559.293 226.649 554.974 228 549.012 228H531.419ZM532.952 224.934H549.012C552.394 224.934 555.107 224.484 557.151 223.583C559.195 222.659 560.668 221.174 561.568 219.13C562.493 217.086 562.955 214.373 562.955 210.991V198.8C562.955 195.418 562.493 192.704 561.568 190.66C560.668 188.617 559.195 187.144 557.151 186.244C555.107 185.319 552.394 184.857 549.012 184.857H532.952V224.934ZM589.163 228C588.141 228 587.63 227.489 587.63 226.467V209.75L571.424 184.2C570.888 183.373 571.059 182.667 571.935 182.083C572.811 181.523 573.516 181.694 574.052 182.594L589.163 206.465L604.347 182.521C604.614 182.107 604.918 181.864 605.259 181.791C605.624 181.718 606.026 181.815 606.464 182.083C607.34 182.594 607.486 183.3 606.902 184.2L590.696 209.75V226.467C590.696 227.489 590.185 228 589.163 228ZM606.781 227.854C605.88 227.416 605.613 226.735 605.978 225.81L624.301 182.959C624.593 182.18 625.177 181.791 626.053 181.791H626.272C627.075 181.791 627.659 182.18 628.024 182.959L646.274 225.81C646.687 226.735 646.42 227.416 645.471 227.854C644.546 228.243 643.889 227.976 643.5 227.051L638.353 214.933H614.044L608.825 227.051C608.435 227.976 607.754 228.243 606.781 227.854ZM615.358 211.867H637.039L626.272 186.609L615.358 211.867ZM656.032 228C655.01 228 654.499 227.489 654.499 226.467V183.324C654.499 182.302 655.01 181.791 656.032 181.791C657.054 181.791 657.565 182.302 657.565 183.324V224.934H680.414C681.436 224.934 681.947 225.445 681.947 226.467C681.947 227.489 681.436 228 680.414 228H656.032ZM691.534 228C690.512 228 690.001 227.489 690.001 226.467V183.324C690.001 182.302 690.512 181.791 691.534 181.791C692.094 181.791 692.629 182.083 693.14 182.667L724.603 223.036H723.946V183.324C723.946 182.302 724.457 181.791 725.479 181.791C726.501 181.791 727.012 182.302 727.012 183.324V226.467C727.012 227.489 726.501 228 725.479 228C724.92 228 724.384 227.708 723.873 227.124L692.41 186.755H693.067V226.467C693.067 227.489 692.556 228 691.534 228ZM735.956 227.854C735.056 227.416 734.788 226.735 735.153 225.81L753.476 182.959C753.768 182.18 754.352 181.791 755.228 181.791H755.447C756.25 181.791 756.834 182.18 757.199 182.959L775.449 225.81C775.863 226.735 775.595 227.416 774.646 227.854C773.722 228.243 773.065 227.976 772.675 227.051L767.529 214.933H743.22L738 227.051C737.611 227.976 736.93 228.243 735.956 227.854ZM744.534 211.867H766.215L755.447 186.609L744.534 211.867Z" fill="white"/>
</svg>
