<svg width="800" height="600" viewBox="0 0 800 600" fill="none" xmlns="http://www.w3.org/2000/svg">
<path d="M276.027 375.308C200.401 475.107 132.534 439.556 108.053 409.306" stroke="white" stroke-width="2" stroke-linecap="round"/>
<path d="M99.3467 395.772C98.0311 395.702 96.909 396.776 96.8421 398.168L95.7653 420.884C95.6985 422.279 96.7132 423.464 98.0287 423.535C99.3467 423.606 100.466 422.532 100.533 421.137L101.493 400.945L120.567 401.961C121.885 402.032 123.007 400.958 123.072 399.563C123.139 398.171 122.124 396.983 120.808 396.912L99.3467 395.772ZM104.762 401.006L100.999 396.601L97.4557 399.99L101.221 404.397L104.762 401.006Z" fill="white"/>
<path d="M30.82 359.682C30.4838 359.682 30.0636 359.503 29.5594 359.146C29.0972 358.833 28.7401 358.52 28.488 358.207C27.9838 357.537 27.6476 356.733 27.4796 355.794C27.3115 354.856 27.2275 353.828 27.2275 352.711C27.2275 351.772 27.2485 350.767 27.2905 349.694C27.3745 348.577 27.5006 347.393 27.6686 346.142C26.5762 347.482 25.3367 348.801 23.9501 350.097C22.6055 351.348 21.219 352.376 19.7904 353.18C18.4038 353.984 17.0802 354.387 15.8197 354.387C12.6684 354.387 11.0928 352.599 11.0928 349.024C11.0928 345.315 12.3113 341.74 14.7483 338.299C15.9668 336.601 17.3534 334.97 18.908 333.406C20.4627 331.842 22.1013 330.568 23.824 329.585C25.5467 328.602 27.2485 328.11 28.9292 328.11C30.1897 328.11 31.3032 328.624 32.2696 329.652C32.3536 329.473 32.4586 329.183 32.5847 328.781C32.7527 328.379 32.9838 327.865 33.278 327.239C34.2864 324.915 35.3998 322.502 36.6183 320C37.8368 317.452 38.9293 315.352 39.8957 313.699C40.9882 311.867 42.0176 310.95 42.984 310.95C43.6563 310.95 43.9924 311.509 43.9924 312.626C43.9924 314.548 42.2907 319.039 38.8873 326.099C38.6772 326.502 38.2991 327.239 37.7528 328.311C37.2486 329.339 36.6394 330.546 35.9251 331.931C35.2528 333.272 34.5595 334.612 33.8452 335.953C33.1309 337.294 32.4796 338.5 31.8914 339.573C31.3452 340.601 30.946 341.315 30.6939 341.718C30.2317 343.729 29.8746 345.65 29.6225 347.482C29.3704 349.27 29.2443 351.124 29.2443 353.046C29.2443 353.761 29.2653 354.409 29.3073 354.99C29.3913 355.615 29.5594 356.107 29.8115 356.464C30.0216 356.733 30.2527 356.934 30.5048 357.068C30.7569 357.247 31.051 357.403 31.3872 357.537C31.8914 357.671 32.1435 357.984 32.1435 358.475C32.1435 359.28 31.7023 359.682 30.82 359.682ZM33.7822 331.663C35.3788 328.758 36.7864 326.055 38.0049 323.552C39.2234 321.005 40.2108 318.614 40.9672 316.38C39.2865 318.704 37.8789 321.162 36.7444 323.753C35.6099 326.345 34.6225 328.982 33.7822 331.663ZM15.3785 352.376C16.597 352.376 17.8786 351.951 19.2231 351.102C20.6097 350.208 21.9122 349.158 23.1308 347.952C24.2232 346.879 25.2316 345.784 26.156 344.667C27.0804 343.505 27.9417 342.321 28.7401 341.114C29.0762 339.55 29.4544 338.009 29.8746 336.489C30.3368 334.97 30.841 333.451 31.3872 331.931C30.7149 330.814 29.7695 330.255 28.551 330.255C27.2905 330.255 25.8829 330.769 24.3283 331.797C22.8156 332.78 21.345 334.009 19.9164 335.484C18.5299 336.959 17.3324 338.366 16.3239 339.707C14.2231 342.701 13.1726 345.874 13.1726 349.225C13.1726 351.325 13.9079 352.376 15.3785 352.376ZM47.5195 327.306C46.8052 327.306 46.4481 326.926 46.4481 326.166C46.4481 325.943 46.5952 325.541 46.8893 324.96C47.1834 324.334 47.5195 323.709 47.8977 323.083C48.2758 322.457 48.57 322.033 48.7801 321.809C49.4944 320.96 50.0406 320.424 50.4187 320.201C50.8389 319.977 51.2171 319.866 51.5532 319.866C52.4356 319.866 52.8767 320.29 52.8767 321.139C52.8767 321.452 52.6877 321.832 52.3095 322.279C51.9734 322.681 51.5742 323.061 51.112 323.418C50.4397 323.865 50.0196 324.223 49.8515 324.491L48.4649 326.569C48.4229 326.747 48.3179 326.926 48.1498 327.105C48.0237 327.239 47.8136 327.306 47.5195 327.306ZM36.8051 354.454C35.6286 354.454 34.7673 354.208 34.221 353.716C33.7168 353.225 33.4647 352.487 33.4647 351.504C33.4647 350.566 33.7378 349.292 34.284 347.683C34.8303 346.03 35.5236 344.265 36.3639 342.388C37.2463 340.511 38.1707 338.724 39.1371 337.026C40.1035 335.327 41.0278 333.942 41.9102 332.87C42.8346 331.752 43.5699 331.194 44.1161 331.194C44.8724 331.194 45.2506 331.551 45.2506 332.266C45.2506 332.713 44.8934 333.562 44.1791 334.813C43.4648 336.065 42.6875 337.361 41.8472 338.701C41.511 339.193 41.0488 339.863 40.4606 340.712C39.8723 341.561 39.3051 342.366 38.7589 343.125C38.2127 343.84 37.8555 344.332 37.6875 344.6C37.2673 345.27 36.8261 346.365 36.3639 347.885C35.8597 349.404 35.6076 350.566 35.6076 351.37C35.6076 351.728 35.6706 351.996 35.7967 352.175C35.9648 352.353 36.3219 352.443 36.8681 352.443C37.9186 352.443 39.095 352.085 40.3976 351.37C41.7001 350.655 43.0237 349.761 44.3682 348.689C45.7128 347.572 46.9733 346.432 48.1498 345.27C49.3683 344.108 50.3977 343.103 51.2381 342.254C51.4061 342.075 51.6582 341.986 51.9944 341.986C52.6246 341.986 52.9398 342.254 52.9398 342.79C52.9398 343.282 52.6456 343.84 52.0574 344.466C50.9229 345.672 49.8725 346.745 48.9061 347.683C47.9397 348.622 47.0153 349.449 46.133 350.164C44.7464 351.236 43.2127 352.219 41.532 353.113C39.8513 354.007 38.2757 354.454 36.8051 354.454ZM47.7179 375.769C45.9532 375.769 44.6297 375.054 43.7473 373.624C42.8649 372.239 42.4237 370.653 42.4237 368.865C42.4237 367.525 42.4868 366.206 42.6128 364.91C42.6969 363.659 42.8439 362.408 43.054 361.157C43.1801 360.442 43.4742 360.084 43.9364 360.084C44.7767 360.084 45.1969 360.553 45.1969 361.492C45.1969 361.76 45.1339 362.162 45.0078 362.698C44.8818 363.145 44.8187 363.48 44.8187 363.704C44.7347 364.419 44.6717 365.156 44.6297 365.916C44.5877 366.72 44.5666 367.525 44.5666 368.329C44.5666 371.859 45.7852 373.624 48.2222 373.624C48.9365 373.624 49.7558 373.111 50.6802 372.083C51.6466 371.055 52.5079 369.938 53.2642 368.731C55.029 365.916 56.8987 361.469 58.8735 355.392L60.9534 349.024C57.55 353.359 54.4827 355.526 51.7516 355.526C50.0709 355.526 48.7684 354.856 47.844 353.515C46.9196 352.175 46.4574 350.543 46.4574 348.622C46.4574 344.779 48.0541 340.533 51.2474 335.886C54.7348 330.926 58.1593 328.446 61.5206 328.446C64.1677 328.446 65.9115 330.099 66.7518 333.406C68.3485 329.295 69.8191 327.239 71.1636 327.239C71.6678 327.239 71.92 327.686 71.92 328.58C71.92 330.367 71.1427 332.758 69.588 335.752C69.2519 336.333 68.8317 337.048 68.3275 337.897C67.8653 338.746 67.3401 339.751 66.7518 340.913L64.6089 346.477C64.1888 347.549 63.6636 348.912 63.0333 350.566C62.403 352.174 61.6887 354.074 60.8904 356.263C59.966 358.945 59.1047 361.246 58.3063 363.168C57.55 365.134 56.8567 366.743 56.2265 367.994C53.4953 373.178 50.7432 375.769 47.9701 375.769H47.7179ZM51.7516 353.18C54.3987 353.18 58.3063 349.404 63.4745 341.852L65.3022 336.891C65.0081 336.668 64.798 336.199 64.672 335.484C64.2938 333.562 63.8526 332.289 63.3484 331.663C62.8442 331.037 62.1719 330.725 61.3316 330.725C60.3652 330.725 59.2517 331.194 57.9912 332.132C56.7307 333.071 55.5332 334.233 54.3987 335.618C53.2642 336.958 52.3609 338.277 51.6886 339.573C49.6718 343.237 48.6633 346.387 48.6633 349.024C48.6633 351.795 49.6928 353.18 51.7516 353.18ZM81.9785 327.306C81.2642 327.306 80.907 326.926 80.907 326.166C80.907 325.943 81.0541 325.541 81.3482 324.96C81.6423 324.334 81.9785 323.709 82.3566 323.083C82.7348 322.457 83.0289 322.033 83.239 321.809C83.9533 320.96 84.4995 320.424 84.8776 320.201C85.2978 319.977 85.676 319.866 86.0121 319.866C86.8945 319.866 87.3357 320.29 87.3357 321.139C87.3357 321.452 87.1466 321.832 86.7685 322.279C86.4323 322.681 86.0332 323.061 85.571 323.418C84.8987 323.865 84.4785 324.223 84.3104 324.491L82.9239 326.569C82.8818 326.747 82.7768 326.926 82.6087 327.105C82.4827 327.239 82.2726 327.306 81.9785 327.306ZM71.264 354.454C70.0876 354.454 69.2262 354.208 68.68 353.716C68.1757 353.225 67.9236 352.487 67.9236 351.504C67.9236 350.566 68.1968 349.292 68.743 347.683C69.2892 346.03 69.9825 344.265 70.8228 342.388C71.7052 340.511 72.6296 338.724 73.596 337.026C74.5624 335.327 75.4868 333.942 76.3692 332.87C77.2935 331.752 78.0288 331.194 78.575 331.194C79.3314 331.194 79.7095 331.551 79.7095 332.266C79.7095 332.713 79.3524 333.562 78.6381 334.813C77.9238 336.065 77.1465 337.361 76.3061 338.701C75.97 339.193 75.5078 339.863 74.9195 340.712C74.3313 341.561 73.7641 342.366 73.2178 343.125C72.6716 343.84 72.3145 344.332 72.1464 344.6C71.7262 345.27 71.285 346.365 70.8228 347.885C70.3186 349.404 70.0665 350.566 70.0665 351.37C70.0665 351.728 70.1296 351.996 70.2556 352.175C70.4237 352.353 70.7808 352.443 71.3271 352.443C72.3775 352.443 73.554 352.085 74.8565 351.37C76.159 350.655 77.4826 349.761 78.8272 348.689C80.1717 347.572 81.4322 346.432 82.6087 345.27C83.8272 344.108 84.8567 343.103 85.697 342.254C85.8651 342.075 86.1172 341.986 86.4533 341.986C87.0836 341.986 87.3987 342.254 87.3987 342.79C87.3987 343.282 87.1046 343.84 86.5164 344.466C85.3819 345.672 84.3314 346.745 83.365 347.683C82.3986 348.622 81.4742 349.449 80.5919 350.164C79.2053 351.236 77.6717 352.219 75.991 353.113C74.3103 354.007 72.7347 354.454 71.264 354.454ZM81.0401 358.341C80.2417 358.341 79.8426 357.671 79.8426 356.33C79.8426 354.364 80.872 350.923 82.9308 346.008C85.0317 341.092 88.141 334.657 92.2587 326.703C90.662 326.703 89.1494 326.926 87.7208 327.373C86.3343 327.775 85.599 328.289 85.5149 328.915C85.4729 329.094 85.3679 329.272 85.1998 329.451C85.0737 329.585 84.8637 329.652 84.5695 329.652C83.8973 329.652 83.5611 329.295 83.5611 328.58C83.5611 327.418 84.4225 326.457 86.1452 325.697C87.8679 324.938 90.2839 324.558 93.3932 324.558L97.742 316.916C98.0361 316.425 98.3512 315.888 98.6874 315.307C99.0235 314.682 99.4017 314.012 99.8219 313.297C100.242 312.671 100.725 312.358 101.271 312.358C101.608 312.358 101.86 312.47 102.028 312.693C102.196 312.872 102.28 313.073 102.28 313.297C102.28 313.967 101.356 315.754 99.5067 318.659C97.1958 322.279 95.9563 324.245 95.7882 324.558C96.4185 324.558 97.3638 324.625 98.6244 324.759C99.8849 324.848 101.376 325.005 103.099 325.228C103.729 325.273 104.045 325.608 104.045 326.234C104.045 326.949 103.666 327.306 102.91 327.306C102.616 327.306 102.028 327.261 101.145 327.172C100.263 327.038 99.3177 326.926 98.3092 326.837C97.3008 326.747 96.4394 326.725 95.7251 326.77L94.7798 326.837C86.2502 342.79 82.0065 352.711 82.0485 356.599L82.1115 357.135V357.269C82.1115 357.984 81.7544 358.341 81.0401 358.341ZM95.2536 354.387C92.8166 354.387 91.5981 353.158 91.5981 350.7C91.5981 349.091 91.9553 347.371 92.6696 345.538C93.4259 343.662 94.4343 341.852 95.6948 340.109C96.9553 338.321 98.3629 336.713 99.9176 335.283C101.472 333.808 103.069 332.646 104.708 331.797C106.346 330.903 107.922 330.456 109.434 330.456C112.124 330.456 113.468 331.864 113.468 334.679C113.468 336.512 113.048 337.428 112.208 337.428C111.451 337.428 111.073 337.048 111.073 336.288C111.073 335.975 111.136 335.663 111.262 335.35C111.43 334.992 111.514 334.612 111.514 334.21C111.514 332.959 110.716 332.333 109.119 332.333C106.556 332.333 103.342 334.411 99.4764 338.567C98.552 339.595 97.6486 340.802 96.7662 342.187C95.8839 343.572 95.1486 344.98 94.5603 346.41C94.0141 347.795 93.741 349.113 93.741 350.365C93.741 351.571 94.3713 352.175 95.6318 352.175C96.7242 352.175 97.8797 351.817 99.0982 351.102C100.359 350.387 101.451 349.65 102.376 348.89C104.224 347.415 106.115 345.404 108.048 342.857C108.342 342.5 108.72 342.03 109.182 341.45C109.645 340.869 110.17 340.221 110.758 339.506C110.968 339.282 111.22 339.17 111.514 339.17C112.187 339.17 112.523 339.528 112.523 340.243L110.128 344.064C108.531 346.566 107.733 348.622 107.733 350.231C107.733 351.393 108.258 351.973 109.308 351.973C110.191 351.973 111.157 351.728 112.208 351.236C113.258 350.745 114.119 350.253 114.792 349.761C116.136 348.823 117.544 347.661 119.014 346.276C120.485 344.846 121.893 343.416 123.237 341.986C123.405 341.807 123.657 341.718 123.994 341.718C124.624 341.718 124.939 341.986 124.939 342.522C124.939 343.014 124.645 343.572 124.057 344.198C122.376 345.985 120.863 347.527 119.519 348.823C118.174 350.074 116.893 351.102 115.674 351.906C114.876 352.398 113.888 352.912 112.712 353.448C111.535 353.984 110.191 354.252 108.678 354.252C106.619 354.252 105.59 353.091 105.59 350.767C105.59 349.873 105.695 349.136 105.905 348.555C102.081 352.443 98.531 354.387 95.2536 354.387ZM125.198 355.526C123.265 355.526 121.774 354.9 120.723 353.649C119.715 352.353 119.211 350.655 119.211 348.555C119.211 347.035 119.463 345.203 119.967 343.058C120.849 339.439 122.341 335.238 124.442 330.456C126.08 326.837 127.845 323.284 129.736 319.799C131.627 316.268 133.707 312.805 135.976 309.409C139.589 303.957 142.11 301.231 143.539 301.231C144.463 301.231 144.925 301.499 144.925 302.035C144.925 302.795 143.749 304.694 141.396 307.733L136.984 313.431C133.16 318.346 130.03 323.374 127.593 328.513C125.198 333.652 123.328 338.791 121.984 343.93C121.606 345.404 121.416 346.79 121.416 348.086C121.416 351.482 122.719 353.18 125.324 353.18C126.248 353.18 127.194 352.89 128.16 352.309C129.127 351.772 129.652 351.504 129.736 351.504C130.24 351.504 130.492 351.884 130.492 352.644C130.492 353.314 130.261 353.828 129.799 354.185C128.37 355.079 126.837 355.526 125.198 355.526Z" fill="white"/>
<path d="M551.101 437.888C550.39 437.888 550.035 437.524 550.035 436.797C550.035 436.752 550.285 436.184 550.787 435.093C551.289 434.002 551.999 432.388 552.919 430.252L556.117 422.957C557.413 420.003 558.333 417.662 558.876 415.935C559.461 414.208 559.754 413.094 559.754 412.594C559.754 411.867 560.089 411.503 560.757 411.503C561.426 411.503 561.761 411.867 561.761 412.594C561.761 413.185 561.573 414.117 561.196 415.39C560.862 416.617 560.298 418.208 559.503 420.162L556.305 428.07C565.042 416.071 571.627 410.072 576.058 410.072C576.894 410.072 577.542 410.458 578.002 411.231C578.462 411.958 578.691 412.776 578.691 413.685C578.691 415.867 577.249 419.662 574.365 425.071C576.58 422.616 578.817 420.162 581.074 417.708C583.374 415.208 585.673 412.753 587.972 410.345C588.557 409.754 589.038 409.458 589.414 409.458C589.916 409.458 590.334 409.731 590.668 410.276C591.003 410.776 591.17 411.322 591.17 411.913C591.17 412.367 590.982 412.935 590.606 413.617C590.062 414.617 589.561 415.821 589.101 417.23C588.641 418.594 588.118 420.139 587.533 421.866C586.864 423.821 586.383 425.525 586.091 426.98C585.798 428.434 585.652 429.616 585.652 430.525C585.652 431.661 585.903 432.502 586.404 433.047C586.906 433.547 587.408 433.797 587.909 433.797C588.787 433.797 589.749 433.547 590.794 433.047C591.839 432.547 592.696 432.047 593.365 431.548C594.702 430.593 596.103 429.411 597.566 428.002C599.029 426.548 600.43 425.093 601.767 423.639C601.935 423.457 602.185 423.366 602.52 423.366C603.147 423.366 603.46 423.639 603.46 424.184C603.46 424.684 603.168 425.252 602.583 425.889C600.91 427.707 599.405 429.275 598.068 430.593C596.73 431.866 595.455 432.911 594.243 433.729C593.448 434.229 592.487 434.752 591.358 435.297C590.229 435.843 589.017 436.115 587.721 436.115C586.509 436.115 585.485 435.706 584.649 434.888C583.854 434.07 583.457 432.32 583.457 429.639C583.457 428.593 583.624 427.366 583.959 425.957C584.293 424.503 584.795 422.889 585.464 421.116L588.787 412.526L579.82 422.344C578.775 423.48 577.918 424.434 577.249 425.207C576.58 425.98 576.037 426.616 575.619 427.116C574.825 428.025 574.114 428.911 573.487 429.775C572.902 430.638 572.4 431.388 571.982 432.025C571.689 432.525 571.355 432.775 570.979 432.775C570.268 432.775 569.913 432.457 569.913 431.82C569.913 430.411 571.083 427.161 573.424 422.071C575.765 416.98 576.936 413.935 576.936 412.935C576.936 412.481 576.476 412.253 575.556 412.253C571.836 412.253 565.21 418.867 555.678 432.093C554.884 433.32 553.567 435.161 551.728 437.615C551.602 437.797 551.393 437.888 551.101 437.888ZM599.587 436.252C597.162 436.252 595.95 435.002 595.95 432.502C595.95 430.866 596.305 429.116 597.016 427.252C597.768 425.343 598.771 423.503 600.026 421.73C601.28 419.912 602.68 418.276 604.227 416.821C605.774 415.321 607.362 414.14 608.993 413.276C610.623 412.367 612.191 411.913 613.696 411.913C616.371 411.913 617.709 413.344 617.709 416.208C617.709 418.071 617.291 419.003 616.455 419.003C615.702 419.003 615.326 418.617 615.326 417.844C615.326 417.526 615.389 417.208 615.514 416.889C615.681 416.526 615.765 416.14 615.765 415.73C615.765 414.458 614.971 413.821 613.382 413.821C610.832 413.821 607.634 415.935 603.788 420.162C602.868 421.207 601.969 422.434 601.092 423.843C600.214 425.252 599.482 426.684 598.897 428.139C598.353 429.548 598.082 430.888 598.082 432.161C598.082 433.388 598.709 434.002 599.963 434.002C601.05 434.002 602.199 433.638 603.412 432.911C604.666 432.184 605.753 431.434 606.672 430.661C608.512 429.161 610.393 427.116 612.316 424.525C612.609 424.162 612.985 423.684 613.445 423.094C613.905 422.503 614.427 421.844 615.012 421.116C615.221 420.889 615.472 420.776 615.765 420.776C616.434 420.776 616.768 421.139 616.768 421.866L614.385 425.752C612.797 428.298 612.002 430.388 612.002 432.025C612.002 433.206 612.525 433.797 613.57 433.797C614.448 433.797 615.41 433.547 616.455 433.047C617.5 432.547 618.357 432.047 619.026 431.548C620.363 430.593 621.764 429.411 623.227 428.002C624.69 426.548 626.09 425.093 627.428 423.639C627.595 423.457 627.846 423.366 628.181 423.366C628.808 423.366 629.121 423.639 629.121 424.184C629.121 424.684 628.829 425.252 628.243 425.889C626.571 427.707 625.066 429.275 623.729 430.593C622.391 431.866 621.116 432.911 619.903 433.729C619.109 434.229 618.127 434.752 616.956 435.297C615.786 435.843 614.448 436.115 612.943 436.115C610.895 436.115 609.87 434.934 609.87 432.57C609.87 431.661 609.975 430.911 610.184 430.32C606.38 434.275 602.847 436.252 599.587 436.252ZM620.347 437.274C619.678 437.274 619.344 436.979 619.344 436.388C619.344 436.115 619.406 435.843 619.532 435.57C619.699 435.297 619.825 435.07 619.908 434.888L625.614 422.344C628.039 416.98 629.251 414.003 629.251 413.412C629.251 412.776 629.544 412.458 630.129 412.458C630.924 412.458 631.321 412.89 631.321 413.753C631.321 414.208 631.133 414.935 630.756 415.935C630.38 416.935 629.899 418.094 629.314 419.412C628.311 421.776 627.475 423.593 626.806 424.866C628.06 423.275 629.335 421.775 630.631 420.366C631.927 418.958 633.244 417.617 634.581 416.344C638.553 412.572 641.605 410.685 643.737 410.685C645.2 410.685 645.931 411.435 645.931 412.935C645.931 414.39 645.492 415.117 644.614 415.117C644.196 415.117 643.883 414.731 643.674 413.958C643.548 413.412 643.256 413.14 642.796 413.14C642.085 413.14 640.706 413.981 638.657 415.662C636.4 417.48 634.122 419.639 631.822 422.139C629.565 424.639 627.161 427.82 624.611 431.684L621.476 436.456C621.309 436.683 621.141 436.865 620.974 437.002C620.849 437.183 620.64 437.274 620.347 437.274ZM656.986 438.774C656.568 438.774 656.255 438.502 656.046 437.956L655.168 435.638C654.248 433.229 652.931 430.843 651.217 428.479C649.503 426.071 647.81 423.866 646.138 421.866C645.218 423.912 644.403 425.752 643.692 427.389C642.982 429.025 642.334 430.57 641.749 432.025C641.163 433.434 640.536 434.911 639.867 436.456C639.7 436.911 639.408 437.138 638.989 437.138C638.279 437.138 637.923 436.82 637.923 436.184C637.923 435.911 638.007 435.57 638.174 435.161C638.383 434.706 638.571 434.252 638.739 433.797C639.826 430.934 641.226 427.525 642.94 423.571C644.696 419.617 646.681 415.299 648.897 410.617C653.119 401.663 656.505 395.255 659.055 391.391C659.641 390.482 660.205 389.664 660.749 388.937C661.334 388.21 661.835 387.846 662.254 387.846C663.006 387.846 663.382 388.278 663.382 389.142C663.382 390.323 661.794 393.459 658.617 398.55C658.366 398.959 657.927 399.641 657.3 400.595C656.673 401.55 656.004 402.595 655.293 403.731C654.582 404.822 653.914 405.845 653.286 406.799C652.701 407.708 652.304 408.345 652.095 408.708L647.58 418.458C657.697 412.049 663.131 408.845 663.884 408.845C664.553 408.845 664.887 409.254 664.887 410.072C664.887 410.572 664.636 410.935 664.135 411.163C662.295 412.117 660.832 412.89 659.745 413.481C658.7 414.072 657.634 414.685 656.547 415.321C655.628 415.958 654.436 416.73 652.973 417.639C651.552 418.548 649.859 419.594 647.894 420.776C648.897 421.957 649.984 423.344 651.154 424.934C652.325 426.48 653.412 428.093 654.415 429.775C655.46 431.411 656.317 432.934 656.986 434.343C657.655 435.752 657.989 436.888 657.989 437.752C657.989 438.433 657.655 438.774 656.986 438.774ZM666.464 436.797C664.708 436.797 663.329 436.138 662.325 434.82C661.322 433.502 660.821 431.888 660.821 429.979C660.821 426.707 661.824 423.344 663.83 419.889C664.374 418.935 665.001 418.003 665.712 417.094C666.422 416.14 667.196 415.23 668.032 414.367C669.286 413.049 670.603 411.958 671.982 411.094C673.362 410.231 674.7 409.799 675.995 409.799C678.128 409.799 679.193 410.89 679.193 413.072C679.193 415.799 677.73 418.276 674.804 420.503C672.087 422.503 669.411 423.503 666.778 423.503C666.318 423.503 665.9 423.48 665.524 423.434C665.189 423.344 664.876 423.253 664.583 423.162C664.165 424.025 663.789 425.139 663.454 426.502C663.12 427.866 662.953 429.048 662.953 430.048C662.953 433.047 664.165 434.547 666.589 434.547C668.554 434.547 670.415 434.184 672.17 433.456C673.926 432.684 676.016 431.252 678.441 429.161C679.946 427.889 681.075 426.866 681.827 426.093C682.58 425.321 683.395 424.503 684.273 423.639C684.524 423.457 684.753 423.366 684.962 423.366C685.172 423.366 685.381 423.434 685.59 423.571C685.799 423.707 685.903 423.912 685.903 424.184C685.903 424.684 685.485 425.389 684.649 426.298C683.938 427.025 683.186 427.798 682.392 428.616C681.597 429.389 680.343 430.479 678.629 431.888C676.79 433.434 674.783 434.638 672.609 435.502C670.436 436.365 668.387 436.797 666.464 436.797ZM666.401 421.321C667.739 421.321 669.014 421.094 670.226 420.639C671.439 420.185 672.588 419.526 673.675 418.662C676.1 416.708 677.312 414.867 677.312 413.14C677.312 412.367 676.873 411.981 675.995 411.981C674.323 411.981 672.379 413.094 670.164 415.321C669.077 416.412 668.178 417.412 667.467 418.321C666.799 419.185 666.172 420.139 665.586 421.185C665.837 421.276 666.109 421.321 666.401 421.321ZM679.479 440.274C678.685 440.274 678.288 439.592 678.288 438.229C678.288 436.229 679.312 432.729 681.36 427.73C683.451 422.73 686.544 416.185 690.641 408.095C689.052 408.095 687.547 408.322 686.126 408.776C684.747 409.186 684.015 409.708 683.931 410.345C683.89 410.526 683.785 410.708 683.618 410.89C683.492 411.026 683.283 411.094 682.991 411.094C682.322 411.094 681.987 410.731 681.987 410.004C681.987 408.822 682.844 407.845 684.558 407.072C686.272 406.299 688.676 405.913 691.77 405.913L696.096 398.141C696.389 397.641 696.703 397.095 697.037 396.505C697.371 395.868 697.748 395.187 698.166 394.459C698.584 393.823 699.064 393.505 699.608 393.505C699.942 393.505 700.193 393.619 700.36 393.846C700.528 394.028 700.611 394.232 700.611 394.459C700.611 395.141 699.692 396.959 697.852 399.913C695.553 403.595 694.32 405.595 694.152 405.913C694.78 405.913 695.72 405.981 696.974 406.118C698.228 406.208 699.712 406.368 701.426 406.595C702.053 406.64 702.367 406.981 702.367 407.617C702.367 408.345 701.991 408.708 701.238 408.708C700.946 408.708 700.36 408.663 699.483 408.572C698.605 408.436 697.664 408.322 696.661 408.231C695.657 408.14 694.8 408.117 694.09 408.163L693.149 408.231C684.663 424.457 680.441 434.547 680.483 438.502L680.545 439.047V439.183C680.545 439.91 680.19 440.274 679.479 440.274ZM704.406 408.708C703.695 408.708 703.34 408.322 703.34 407.549C703.34 407.322 703.486 406.913 703.779 406.322C704.072 405.686 704.406 405.049 704.782 404.413C705.159 403.777 705.451 403.345 705.66 403.118C706.371 402.254 706.914 401.709 707.291 401.482C707.709 401.254 708.085 401.141 708.419 401.141C709.297 401.141 709.736 401.572 709.736 402.436C709.736 402.754 709.548 403.141 709.172 403.595C708.837 404.004 708.44 404.39 707.98 404.754C707.312 405.208 706.893 405.572 706.726 405.845L705.347 407.958C705.305 408.14 705.2 408.322 705.033 408.504C704.908 408.64 704.699 408.708 704.406 408.708ZM693.746 436.32C692.576 436.32 691.719 436.07 691.175 435.57C690.673 435.07 690.423 434.32 690.423 433.32C690.423 432.366 690.694 431.07 691.238 429.434C691.781 427.752 692.471 425.957 693.307 424.048C694.185 422.139 695.105 420.321 696.066 418.594C697.028 416.867 697.947 415.458 698.825 414.367C699.745 413.231 700.477 412.663 701.02 412.663C701.772 412.663 702.149 413.026 702.149 413.753C702.149 414.208 701.793 415.071 701.083 416.344C700.372 417.617 699.599 418.935 698.763 420.298C698.428 420.798 697.968 421.48 697.383 422.344C696.798 423.207 696.233 424.025 695.69 424.798C695.147 425.525 694.791 426.025 694.624 426.298C694.206 426.98 693.767 428.093 693.307 429.639C692.805 431.184 692.555 432.366 692.555 433.184C692.555 433.547 692.617 433.82 692.743 434.002C692.91 434.184 693.265 434.275 693.809 434.275C694.854 434.275 696.024 433.911 697.32 433.184C698.616 432.456 699.933 431.547 701.271 430.457C702.609 429.32 703.863 428.161 705.033 426.98C706.245 425.798 707.27 424.775 708.106 423.912C708.273 423.73 708.524 423.639 708.858 423.639C709.485 423.639 709.799 423.912 709.799 424.457C709.799 424.957 709.506 425.525 708.921 426.161C707.792 427.389 706.747 428.48 705.786 429.434C704.824 430.388 703.904 431.229 703.027 431.957C701.647 433.047 700.121 434.047 698.449 434.956C696.777 435.865 695.209 436.32 693.746 436.32ZM701.217 437.274C700.548 437.274 700.214 436.979 700.214 436.388C700.214 436.161 700.298 435.888 700.465 435.57C700.632 435.206 700.778 434.911 700.904 434.684L706.547 422.344C708.972 416.98 710.184 414.003 710.184 413.412C710.184 412.776 710.477 412.458 711.062 412.458C711.857 412.458 712.254 412.912 712.254 413.821C712.254 414.14 712.066 414.821 711.689 415.867C711.313 416.912 710.832 418.094 710.247 419.412C709.244 421.776 708.408 423.593 707.739 424.866C708.993 423.275 710.268 421.775 711.564 420.366C712.86 418.958 714.177 417.617 715.514 416.344C719.486 412.572 722.538 410.685 724.67 410.685C726.133 410.685 726.864 411.435 726.864 412.935C726.864 414.299 725.798 417.367 723.666 422.139C721.534 426.957 720.468 430.002 720.468 431.275C720.468 431.866 720.656 432.161 721.033 432.161C721.158 432.161 721.346 432.116 721.597 432.025C721.89 431.888 722.182 431.82 722.475 431.82C723.186 431.82 723.541 432.184 723.541 432.911C723.541 433.82 722.642 434.275 720.844 434.275C720.008 434.275 719.402 434.07 719.026 433.661C718.65 433.206 718.462 432.616 718.462 431.888C718.462 429.707 719.486 426.389 721.534 421.935C723.583 417.526 724.607 414.867 724.607 413.958C724.607 413.412 724.419 413.14 724.042 413.14C723.123 413.14 721.639 413.981 719.59 415.662C717.375 417.48 715.159 419.571 712.943 421.935C710.728 424.298 708.617 427.002 706.61 430.048L702.221 436.661C701.97 437.07 701.635 437.274 701.217 437.274ZM726.704 458C724.948 458 723.631 457.273 722.754 455.818C721.876 454.409 721.437 452.796 721.437 450.978C721.437 449.614 721.499 448.274 721.625 446.955C721.708 445.683 721.855 444.41 722.064 443.138C722.189 442.41 722.482 442.047 722.942 442.047C723.778 442.047 724.196 442.524 724.196 443.478C724.196 443.751 724.133 444.16 724.008 444.706C723.882 445.16 723.82 445.501 723.82 445.728C723.736 446.455 723.673 447.205 723.631 447.978C723.59 448.796 723.569 449.614 723.569 450.432C723.569 454.023 724.781 455.818 727.206 455.818C727.916 455.818 728.732 455.296 729.651 454.25C730.613 453.205 731.47 452.069 732.222 450.842C733.978 447.978 735.838 443.456 737.803 437.274L739.872 430.797C736.486 435.206 733.434 437.411 730.717 437.411C729.045 437.411 727.749 436.729 726.829 435.365C725.91 434.002 725.45 432.343 725.45 430.388C725.45 426.48 727.039 422.162 730.216 417.435C733.685 412.39 737.092 409.867 740.437 409.867C743.07 409.867 744.805 411.549 745.641 414.912C747.23 410.731 748.693 408.64 750.031 408.64C750.532 408.64 750.783 409.095 750.783 410.004C750.783 411.822 750.01 414.253 748.463 417.299C748.129 417.889 747.711 418.617 747.209 419.48C746.749 420.344 746.227 421.366 745.641 422.548L743.509 428.207C743.091 429.298 742.569 430.684 741.942 432.366C741.315 434.002 740.604 435.934 739.81 438.161C738.89 440.888 738.033 443.228 737.239 445.183C736.486 447.183 735.796 448.819 735.169 450.092C732.452 455.364 729.714 458 726.955 458H726.704ZM730.717 435.024C733.351 435.024 737.239 431.184 742.381 423.503L744.199 418.458C743.907 418.23 743.697 417.753 743.572 417.026C743.196 415.071 742.757 413.776 742.255 413.14C741.754 412.503 741.085 412.185 740.249 412.185C739.287 412.185 738.179 412.663 736.925 413.617C735.671 414.571 734.48 415.753 733.351 417.162C732.222 418.526 731.323 419.867 730.655 421.185C728.648 424.912 727.645 428.116 727.645 430.797C727.645 433.615 728.669 435.024 730.717 435.024Z" fill="white"/>
<path d="M428.493 374.692C470.047 428.625 510.447 432.121 525.453 427.127" stroke="white" stroke-width="2" stroke-linecap="round"/>
<path d="M544.453 421.685C544.858 420.369 544.198 418.947 542.976 418.508L523.061 411.36C521.839 410.923 520.519 411.634 520.11 412.95C519.704 414.266 520.365 415.687 521.587 416.127L539.288 422.478L533.387 441.54C532.981 442.856 533.641 444.278 534.864 444.718C536.086 445.155 537.406 444.444 537.814 443.128L544.453 421.685ZM538.617 425.648L543.282 423.136L541.196 418.646L536.531 421.157L538.617 425.648Z" fill="white"/>
<path d="M293.929 349.462C288.491 349.462 283.575 348.111 279.18 345.41C274.86 342.628 271.433 338.781 268.901 333.87C266.368 328.959 265.102 323.312 265.102 316.928C265.102 310.462 266.368 304.815 268.901 299.986C271.433 295.075 274.86 291.269 279.18 288.568C283.575 285.785 288.491 284.394 293.929 284.394C299.069 284.394 303.687 285.704 307.784 288.323C311.956 290.942 315.233 294.666 317.617 299.495C320.075 304.324 321.304 310.135 321.304 316.928C321.304 323.557 320.112 329.328 317.729 334.238C315.345 339.149 312.067 342.914 307.896 345.533C303.799 348.152 299.143 349.462 293.929 349.462ZM294.264 343.937C298.734 343.937 302.719 342.832 306.22 340.622C309.796 338.331 312.589 335.139 314.6 331.046C316.686 326.954 317.729 322.248 317.729 316.928C317.729 311.526 316.686 306.82 314.6 302.809C312.589 298.717 309.796 295.566 306.22 293.356C302.719 291.064 298.734 289.919 294.264 289.919C289.795 289.919 285.773 291.064 282.197 293.356C278.696 295.566 275.903 298.717 273.817 302.809C271.806 306.82 270.8 311.526 270.8 316.928C270.8 322.248 271.806 326.954 273.817 331.046C275.903 335.139 278.696 338.331 282.197 340.622C285.773 342.832 289.795 343.937 294.264 343.937ZM317.84 348.971V327.977L318.846 316.805L317.729 305.633V257.876H323.315V348.971H317.84ZM341.843 348.971V284.885H347.429V348.971H341.843ZM344.636 269.293C343.37 269.293 342.289 268.802 341.396 267.82C340.502 266.838 340.055 265.692 340.055 264.383C340.055 262.991 340.502 261.804 341.396 260.822C342.289 259.84 343.37 259.349 344.636 259.349C345.977 259.349 347.057 259.84 347.876 260.822C348.77 261.723 349.217 262.868 349.217 264.26C349.217 265.651 348.77 266.838 347.876 267.82C347.057 268.802 345.977 269.293 344.636 269.293ZM438.575 284.394C443.268 284.394 447.327 285.417 450.754 287.463C454.255 289.428 456.974 292.456 458.91 296.548C460.847 300.559 461.816 305.551 461.816 311.526V348.971H456.229V312.017C456.229 304.815 454.627 299.331 451.424 295.566C448.221 291.801 443.752 289.919 438.016 289.919C433.621 289.919 429.822 290.942 426.619 292.988C423.416 295.034 420.958 297.899 419.245 301.582C417.531 305.265 416.675 309.684 416.675 314.841V348.971H411.088V312.017C411.088 304.815 409.486 299.331 406.283 295.566C403.08 291.801 398.611 289.919 392.875 289.919C388.48 289.919 384.681 290.942 381.478 292.988C378.275 295.034 375.817 297.899 374.104 301.582C372.39 305.265 371.534 309.684 371.534 314.841V348.971H365.947V284.885H371.31V302.564L370.528 300.6C372.241 295.607 375.109 291.678 379.132 288.814C383.154 285.867 387.996 284.394 393.657 284.394C399.467 284.394 404.347 286.031 408.295 289.305C412.317 292.497 414.85 297.285 415.893 303.669L413.993 302.809C415.557 297.326 418.5 292.906 422.82 289.55C427.14 286.113 432.392 284.394 438.575 284.394ZM516.617 348.971V334.361L516.393 332.151V308.088C516.393 302.114 514.904 297.571 511.924 294.461C509.019 291.351 504.736 289.796 499.075 289.796C495.052 289.796 491.29 290.573 487.789 292.128C484.363 293.602 481.42 295.525 478.962 297.899L476.169 293.479C479.074 290.614 482.575 288.404 486.672 286.849C490.769 285.212 495.052 284.394 499.521 284.394C506.747 284.394 512.297 286.399 516.17 290.41C520.043 294.42 521.98 300.395 521.98 308.334V348.971H516.617ZM495.611 349.462C491.29 349.462 487.529 348.725 484.326 347.252C481.197 345.697 478.776 343.528 477.063 340.745C475.424 337.962 474.605 334.77 474.605 331.169C474.605 327.895 475.275 324.949 476.616 322.33C478.031 319.629 480.34 317.46 483.543 315.823C486.746 314.104 491.03 313.245 496.393 313.245H517.846V318.033H496.505C490.471 318.033 486.225 319.26 483.767 321.716C481.383 324.171 480.191 327.24 480.191 330.924C480.191 335.016 481.607 338.29 484.437 340.745C487.268 343.2 491.253 344.428 496.393 344.428C501.309 344.428 505.443 343.2 508.795 340.745C512.222 338.29 514.755 334.729 516.393 330.064L517.958 334.238C516.393 338.904 513.712 342.628 509.913 345.41C506.188 348.111 501.421 349.462 495.611 349.462ZM541.087 348.971V275.064C541.087 269.744 542.465 265.488 545.221 262.296C548.052 259.022 552.074 257.385 557.288 257.385C559.449 257.385 561.572 257.753 563.657 258.49C565.743 259.144 567.456 260.168 568.797 261.559L566.562 266.224C565.445 264.996 564.104 264.096 562.54 263.523C560.976 262.95 559.3 262.664 557.512 262.664C553.936 262.664 551.217 263.769 549.355 265.979C547.493 268.107 546.562 271.299 546.562 275.555V286.358L546.674 289.305V348.971H541.087ZM530.36 290.164V284.885H565.222V290.164H530.36ZM593.416 349.462C587.829 349.462 582.838 348.07 578.444 345.288C574.123 342.505 570.659 338.658 568.052 333.747C565.52 328.836 564.253 323.23 564.253 316.928C564.253 310.544 565.52 304.937 568.052 300.108C570.659 295.198 574.123 291.351 578.444 288.568C582.838 285.785 587.829 284.394 593.416 284.394C599.003 284.394 603.994 285.785 608.389 288.568C612.783 291.351 616.247 295.198 618.78 300.108C621.313 304.937 622.579 310.544 622.579 316.928C622.579 323.23 621.313 328.836 618.78 333.747C616.247 338.658 612.783 342.505 608.389 345.288C603.994 348.07 599.003 349.462 593.416 349.462ZM593.416 343.937C597.885 343.937 601.908 342.832 605.483 340.622C609.059 338.331 611.852 335.139 613.864 331.046C615.875 326.954 616.88 322.248 616.88 316.928C616.88 311.526 615.875 306.82 613.864 302.809C611.852 298.717 609.059 295.566 605.483 293.356C601.908 291.064 597.885 289.919 593.416 289.919C588.947 289.919 584.924 291.064 581.349 293.356C577.848 295.566 575.054 298.717 572.969 302.809C570.957 306.82 569.952 311.526 569.952 316.928C569.952 322.248 570.957 326.954 572.969 331.046C575.054 335.139 577.848 338.331 581.349 340.622C584.924 342.832 588.947 343.937 593.416 343.937ZM634.884 348.971V284.885H640.247V302.441L639.688 300.477C641.327 295.32 644.083 291.351 647.957 288.568C651.83 285.785 656.672 284.394 662.482 284.394V290.41C662.259 290.41 662.035 290.41 661.812 290.41C661.588 290.328 661.365 290.287 661.141 290.287C654.661 290.287 649.596 292.538 645.945 297.039C642.295 301.459 640.47 307.638 640.47 315.577V348.971H634.884ZM697.518 349.462C692.527 349.462 688.207 348.48 684.557 346.515C680.907 344.469 678.076 341.441 676.065 337.43C674.128 333.338 673.16 328.304 673.16 322.33V284.885H678.747V321.839C678.747 329.041 680.423 334.525 683.775 338.29C687.127 342.055 691.857 343.937 697.965 343.937C702.36 343.937 706.159 342.914 709.362 340.868C712.565 338.822 715.023 335.957 716.737 332.274C718.45 328.509 719.306 324.089 719.306 319.015V284.885H724.893V348.971H719.53V331.169L720.312 333.256C718.599 338.249 715.731 342.218 711.709 345.165C707.761 348.029 703.03 349.462 697.518 349.462ZM758.295 349.462C753.453 349.462 748.909 348.684 744.663 347.129C740.492 345.574 737.252 343.61 734.942 341.236L737.512 336.325C739.747 338.453 742.727 340.295 746.451 341.85C750.176 343.323 754.198 344.06 758.518 344.06C764.627 344.06 769.022 342.955 771.703 340.745C774.385 338.535 775.726 335.63 775.726 332.028C775.726 329.409 775.018 327.363 773.603 325.89C772.262 324.335 770.437 323.148 768.128 322.33C765.818 321.511 763.286 320.856 760.53 320.365C757.774 319.792 755.017 319.179 752.261 318.524C749.505 317.869 746.972 316.928 744.663 315.7C742.354 314.472 740.492 312.795 739.077 310.667C737.736 308.457 737.065 305.551 737.065 301.95C737.065 298.676 737.885 295.73 739.523 293.111C741.162 290.492 743.62 288.404 746.898 286.849C750.176 285.212 754.272 284.394 759.189 284.394C762.839 284.394 766.489 284.967 770.139 286.113C773.863 287.259 776.88 288.773 779.189 290.655L776.619 295.566C774.161 293.52 771.405 292.047 768.351 291.146C765.297 290.246 762.206 289.796 759.077 289.796C753.416 289.796 749.244 290.942 746.563 293.233C743.956 295.525 742.652 298.39 742.652 301.827C742.652 304.528 743.322 306.697 744.663 308.334C746.079 309.889 747.941 311.117 750.25 312.017C752.559 312.836 755.092 313.531 757.848 314.104C760.604 314.595 763.36 315.168 766.116 315.823C768.873 316.478 771.405 317.419 773.714 318.647C776.024 319.792 777.849 321.429 779.189 323.557C780.605 325.604 781.312 328.386 781.312 331.906C781.312 335.425 780.419 338.494 778.631 341.113C776.917 343.733 774.348 345.779 770.921 347.252C767.494 348.725 763.286 349.462 758.295 349.462Z" fill="#FF3131"/>
<path d="M531.419 228C530.397 228 529.886 227.489 529.886 226.467V183.324C529.886 182.302 530.397 181.791 531.419 181.791H549.012C554.974 181.791 559.293 183.141 561.969 185.842C564.67 188.519 566.021 192.838 566.021 198.8V210.991C566.021 216.928 564.67 221.247 561.969 223.948C559.293 226.649 554.974 228 549.012 228H531.419ZM532.952 224.934H549.012C552.394 224.934 555.107 224.484 557.151 223.583C559.195 222.659 560.668 221.174 561.568 219.13C562.493 217.086 562.955 214.373 562.955 210.991V198.8C562.955 195.418 562.493 192.704 561.568 190.66C560.668 188.617 559.195 187.144 557.151 186.244C555.107 185.319 552.394 184.857 549.012 184.857H532.952V224.934ZM589.163 228C588.141 228 587.63 227.489 587.63 226.467V209.75L571.424 184.2C570.888 183.373 571.059 182.667 571.935 182.083C572.811 181.523 573.516 181.694 574.052 182.594L589.163 206.465L604.347 182.521C604.614 182.107 604.918 181.864 605.259 181.791C605.624 181.718 606.026 181.815 606.464 182.083C607.34 182.594 607.486 183.3 606.902 184.2L590.696 209.75V226.467C590.696 227.489 590.185 228 589.163 228ZM606.781 227.854C605.88 227.416 605.613 226.735 605.978 225.81L624.301 182.959C624.593 182.18 625.177 181.791 626.053 181.791H626.272C627.075 181.791 627.659 182.18 628.024 182.959L646.274 225.81C646.687 226.735 646.42 227.416 645.471 227.854C644.546 228.243 643.889 227.976 643.5 227.051L638.353 214.933H614.044L608.825 227.051C608.435 227.976 607.754 228.243 606.781 227.854ZM615.358 211.867H637.039L626.272 186.609L615.358 211.867ZM656.032 228C655.01 228 654.499 227.489 654.499 226.467V183.324C654.499 182.302 655.01 181.791 656.032 181.791C657.054 181.791 657.565 182.302 657.565 183.324V224.934H680.414C681.436 224.934 681.947 225.445 681.947 226.467C681.947 227.489 681.436 228 680.414 228H656.032ZM691.534 228C690.512 228 690.001 227.489 690.001 226.467V183.324C690.001 182.302 690.512 181.791 691.534 181.791C692.094 181.791 692.629 182.083 693.14 182.667L724.603 223.036H723.946V183.324C723.946 182.302 724.457 181.791 725.479 181.791C726.501 181.791 727.012 182.302 727.012 183.324V226.467C727.012 227.489 726.501 228 725.479 228C724.92 228 724.384 227.708 723.873 227.124L692.41 186.755H693.067V226.467C693.067 227.489 692.556 228 691.534 228ZM735.956 227.854C735.056 227.416 734.788 226.735 735.153 225.81L753.476 182.959C753.768 182.18 754.352 181.791 755.228 181.791H755.447C756.25 181.791 756.834 182.18 757.199 182.959L775.449 225.81C775.863 226.735 775.595 227.416 774.646 227.854C773.722 228.243 773.065 227.976 772.675 227.051L767.529 214.933H743.22L738 227.051C737.611 227.976 736.93 228.243 735.956 227.854ZM744.534 211.867H766.215L755.447 186.609L744.534 211.867Z" fill="white"/>
<rect x="366.5" y="356.5" width="156" height="1" stroke="white" stroke-linecap="round" stroke-linejoin="round"/>
<rect x="265.5" y="356.5" width="84" height="1" stroke="white" stroke-linecap="round" stroke-linejoin="round"/>
</svg>
