<svg width="800" height="600" viewBox="0 0 800 600" fill="none" xmlns="http://www.w3.org/2000/svg">
<g clip-path="url(#clip0_169_98)">
<path d="M4.67868 331.58L96.065 187.546L131.744 234.01L4.67868 331.58Z" fill="#FF3131"/>
<path d="M261.504 106.856L170.118 250.89L134.439 204.426L261.504 106.856Z" fill="#FF3131"/>
<path d="M242.608 379.501L98.5737 288.115L145.038 252.436L242.608 379.501Z" fill="#FF3131"/>
<path d="M796.294 331.58L704.908 187.546L669.229 234.01L796.294 331.58Z" fill="#FF3131"/>
<path d="M539.469 106.856L630.855 250.89L666.534 204.426L539.469 106.856Z" fill="#FF3131"/>
<path d="M558.365 379.501L702.399 288.115L655.935 252.436L558.365 379.501Z" fill="#FF3131"/>
<path d="M320.773 143.95C323.029 143.95 324.837 143.342 326.197 142.126C327.573 140.894 328.261 139.046 328.261 136.582C328.261 134.118 327.485 132.158 325.933 130.702C324.397 129.246 322.493 128.518 320.221 128.518C318.765 128.518 317.501 128.558 316.429 128.638V143.758C317.469 143.886 318.917 143.95 320.773 143.95ZM320.221 127.462C322.861 127.462 325.069 128.286 326.845 129.934C328.621 131.566 329.509 133.79 329.509 136.606C329.509 138.03 329.277 139.294 328.813 140.398C328.365 141.486 327.741 142.358 326.941 143.014C325.293 144.342 323.237 145.006 320.773 145.006C319.157 145.006 317.325 144.918 315.277 144.742V127.63C316.909 127.518 318.557 127.462 320.221 127.462ZM353.697 144.79H352.545V138.646L346.089 127.63H347.481L352.473 136.318C352.761 136.83 353.001 137.278 353.193 137.662C353.257 137.454 353.481 137.022 353.865 136.366L358.857 127.63H360.177L353.697 138.694V144.79ZM377.028 138.838L374.556 144.79H373.332L380.556 127.51H381.228L388.476 144.79H387.18L384.708 138.838H377.028ZM380.82 129.43C380.804 129.446 380.772 129.542 380.724 129.718C380.5 130.406 380.284 130.99 380.076 131.47L377.436 137.854H384.3L381.66 131.494C381.1 130.278 380.82 129.59 380.82 129.43ZM406.431 144.79V127.63H407.583V143.734H415.479V144.79H406.431ZM434.685 130.366L434.733 132.406V144.79H433.581V127.486H434.109L445.413 140.518C446.181 141.43 446.773 142.158 447.189 142.702C447.125 141.934 447.093 141.054 447.093 140.062V127.63H448.245V144.934H447.717L436.197 131.662C435.397 130.75 434.885 130.142 434.661 129.838L434.685 130.366ZM469.893 138.838L467.421 144.79H466.197L473.421 127.51H474.093L481.341 144.79H480.045L477.573 138.838H469.893ZM473.685 129.43C473.669 129.446 473.637 129.542 473.589 129.718C473.365 130.406 473.149 130.99 472.941 131.47L470.301 137.854H477.165L474.525 131.494C473.965 130.278 473.685 129.59 473.685 129.43Z" fill="white"/>
<path d="M474.642 239.53L454.604 272.301L472.253 258.218L475.438 262.28L495.741 229.374L477.959 243.593L474.642 239.53Z" stroke="white"/>
<path d="M371.19 235.634L351.759 266.935L371.19 251.478L394.686 266.935L371.19 235.634Z" stroke="white"/>
<path d="M526.798 235.634L507.367 266.935L526.798 251.478L550.293 266.935L526.798 235.634Z" stroke="white"/>
<path d="M406.312 251.723L434.499 229.374L421.674 250.224L438.506 272.301L406.312 251.723Z" stroke="white"/>
<path d="M330.575 269.341L316.036 258.325L301.362 235.768L315.916 246.583L333.155 235.348L320.084 252.968L321.239 255.079L330.575 269.341Z" stroke="white"/>
<path d="M255.175 251.586L266.503 233.846L278.427 249.194L267.497 266.935L255.175 251.586Z" stroke="white"/>
<path d="M358.02 156.936V202.545" stroke="white"/>
<path d="M358.02 156.936V202.687V212.289H316.882V226.691" stroke="white"/>
<path d="M383.954 156.936V203.06V218.435H372.328V226.691" stroke="white"/>
<path d="M332.085 156.936V202.687H265.907V226.691" stroke="white"/>
<path d="M435.823 156.936V202.545" stroke="white"/>
<path d="M435.823 156.936V202.687V212.289H477.855V226.691" stroke="white"/>
<path d="M409.889 156.936V203.06V218.435H422.409V226.691" stroke="white"/>
<path d="M461.758 156.936V202.687H527.936V226.691" stroke="white"/>
<path d="M409.889 156.936V202.545" stroke="white"/>
<path d="M325.684 438.61L394.043 330.87L420.731 365.626L325.684 438.61Z" stroke="white"/>
<path d="M463.799 297.341L395.44 405.081L368.752 370.325L463.799 297.341Z" stroke="white"/>
<path d="M476.831 438.684L369.091 370.325L403.847 343.637L476.831 438.684Z" stroke="white"/>
<circle cx="307.939" cy="380.511" r="60.3122" stroke="#474747" stroke-opacity="0.24"/>
<circle cx="476.961" cy="367.096" r="71.0438" stroke="#474747" stroke-opacity="0.24"/>
<circle cx="401.84" cy="375.145" r="97.8727" stroke="#474747" stroke-opacity="0.24"/>
<circle cx="394.238" cy="367.543" r="36.6133" stroke="#474747" stroke-opacity="0.24"/>
<circle cx="349.524" cy="405.998" r="39.2962" stroke="#474747" stroke-opacity="0.24"/>
<circle cx="447.896" cy="399.738" r="45.5563" stroke="#474747" stroke-opacity="0.24"/>
<circle cx="437.612" cy="327.747" r="38.8491" stroke="#474747" stroke-opacity="0.24"/>
<path d="M306.15 467.705L412.125 300.471" stroke="black"/>
<path d="M373.887 302.793L486.061 448.549" stroke="black"/>
<path d="M476.631 279.286L377.951 434.496" stroke="black"/>
<path d="M426.954 447.638L314.87 301.812" stroke="black"/>
<path d="M496.7 452.386L341.271 354.05" stroke="black"/>
<path d="M491.2 274.836L345.495 387.077" stroke="black"/>
<path d="M300.255 460.111L445.747 347.593" stroke="black"/>
</g>
<defs>
<clipPath id="clip0_169_98">
<rect width="800" height="600" fill="white"/>
</clipPath>
</defs>
</svg>
