<svg width="787" height="533" viewBox="0 0 787 533" fill="none" xmlns="http://www.w3.org/2000/svg">
<g clip-path="url(#clip0_22_31)">
<path d="M109.455 149.963C109.455 141.083 116.653 133.884 125.533 133.884H770.823C779.703 133.884 786.902 141.083 786.902 149.963V477.967C786.902 486.847 779.703 494.045 770.823 494.045H125.533C116.653 494.045 109.455 486.847 109.455 477.967V149.963Z" fill="white" fill-opacity="0.5"/>
<path d="M125.533 134.525H770.823C779.349 134.525 786.261 141.437 786.261 149.963V477.967C786.261 486.493 779.349 493.404 770.823 493.404H125.533C117.007 493.404 110.096 486.493 110.096 477.967V149.963C110.096 141.437 117.007 134.525 125.533 134.525Z" stroke="white" stroke-opacity="0.4"/>
<path d="M135.717 156.394C139.565 156.394 142.684 153.274 142.684 149.426C142.684 145.578 139.565 142.459 135.717 142.459C131.869 142.459 128.749 145.578 128.749 149.426C128.749 153.274 131.869 156.394 135.717 156.394Z" fill="url(#paint0_linear_22_31)"/>
<path d="M164.658 156.394C168.506 156.394 171.625 153.274 171.625 149.426C171.625 145.578 168.506 142.459 164.658 142.459C160.81 142.459 157.691 145.578 157.691 149.426C157.691 153.274 160.81 156.394 164.658 156.394Z" fill="url(#paint1_linear_22_31)"/>
<path d="M193.599 156.394C197.447 156.394 200.567 153.274 200.567 149.426C200.567 145.578 197.447 142.459 193.599 142.459C189.751 142.459 186.632 145.578 186.632 149.426C186.632 153.274 189.751 156.394 193.599 156.394Z" fill="url(#paint2_linear_22_31)"/>
<path d="M153.702 199.646H608.541C609.57 199.646 610.358 200.41 610.358 201.299V210.177C610.358 211.066 609.57 211.829 608.541 211.829H153.701C152.673 211.829 151.884 211.066 151.884 210.177V201.299C151.884 200.41 152.673 199.646 153.702 199.646Z" fill="white" fill-opacity="0.4"/>
<path style="mix-blend-mode:overlay" d="M153.702 199.646H608.541C609.57 199.646 610.358 200.41 610.358 201.299V210.177C610.358 211.066 609.57 211.829 608.541 211.829H153.701C152.673 211.829 151.884 211.066 151.884 210.177V201.299C151.884 200.41 152.673 199.646 153.702 199.646Z" stroke="url(#paint3_linear_22_31)" stroke-width="0.5"/>
<path d="M552.526 443.204V392.977C552.526 391.172 552.526 389.854 552.611 388.818C552.696 387.788 552.86 387.091 553.155 386.51C553.709 385.424 554.591 384.541 555.677 383.989C556.258 383.692 556.956 383.528 557.986 383.445C559.022 383.359 560.339 383.359 562.145 383.359H641.314C643.12 383.359 644.435 383.359 645.473 383.445C646.503 383.528 647.2 383.692 647.78 383.989C648.866 384.541 649.75 385.424 650.303 386.51C650.599 387.091 650.762 387.788 650.846 388.818C650.931 389.854 650.932 391.172 650.932 392.977V443.204C650.932 445.01 650.931 446.327 650.846 447.363C650.762 448.393 650.599 449.091 650.303 449.672C649.75 450.758 648.866 451.64 647.78 452.194C647.2 452.489 646.503 452.653 645.473 452.738C644.435 452.823 643.12 452.823 641.314 452.823H562.145C560.339 452.823 559.022 452.823 557.986 452.738C556.956 452.653 556.258 452.489 555.677 452.194C554.591 451.64 553.709 450.758 553.156 449.672C552.86 449.091 552.696 448.393 552.611 447.363C552.526 446.327 552.526 445.01 552.526 443.204Z" fill="white" fill-opacity="0.2"/>
<path style="mix-blend-mode:overlay" d="M552.526 443.204V392.977C552.526 391.172 552.526 389.854 552.611 388.818C552.696 387.788 552.86 387.091 553.155 386.51C553.709 385.424 554.591 384.541 555.677 383.989C556.258 383.692 556.956 383.528 557.986 383.445C559.022 383.359 560.339 383.359 562.145 383.359H641.314C643.12 383.359 644.435 383.359 645.473 383.445C646.503 383.528 647.2 383.692 647.78 383.989C648.866 384.541 649.75 385.424 650.303 386.51C650.599 387.091 650.762 387.788 650.846 388.818C650.931 389.854 650.932 391.172 650.932 392.977V443.204C650.932 445.01 650.931 446.327 650.846 447.363C650.762 448.393 650.599 449.091 650.303 449.672C649.75 450.758 648.866 451.64 647.78 452.194C647.2 452.489 646.503 452.653 645.473 452.738C644.435 452.823 643.12 452.823 641.314 452.823H562.145C560.339 452.823 559.022 452.823 557.986 452.738C556.956 452.653 556.258 452.489 555.677 452.194C554.591 451.64 553.709 450.758 553.156 449.672C552.86 449.091 552.696 448.393 552.611 447.363C552.526 446.327 552.526 445.01 552.526 443.204Z" stroke="url(#paint4_linear_22_31)"/>
<path d="M552.526 346.016V295.789C552.526 293.983 552.526 292.667 552.611 291.631C552.696 290.601 552.86 289.902 553.155 289.322C553.709 288.236 554.591 287.354 555.677 286.8C556.258 286.505 556.956 286.34 557.986 286.256C559.022 286.171 560.339 286.171 562.145 286.171H641.314C643.12 286.171 644.435 286.171 645.473 286.256C646.503 286.34 647.2 286.505 647.78 286.8C648.866 287.354 649.75 288.236 650.303 289.322C650.599 289.902 650.762 290.601 650.846 291.631C650.931 292.667 650.932 293.983 650.932 295.789V346.016C650.932 347.822 650.931 349.138 650.846 350.175C650.762 351.205 650.599 351.903 650.303 352.484C649.75 353.57 648.866 354.452 647.78 355.005C647.2 355.301 646.503 355.465 645.473 355.549C644.435 355.633 643.12 355.635 641.314 355.635H562.145C560.339 355.635 559.022 355.633 557.986 355.549C556.956 355.465 556.258 355.301 555.677 355.005C554.591 354.452 553.709 353.57 553.156 352.484C552.86 351.903 552.696 351.205 552.611 350.175C552.526 349.138 552.526 347.822 552.526 346.016Z" fill="white" fill-opacity="0.2"/>
<path style="mix-blend-mode:overlay" d="M552.526 346.016V295.789C552.526 293.983 552.526 292.667 552.611 291.631C552.696 290.601 552.86 289.902 553.155 289.322C553.709 288.236 554.591 287.354 555.677 286.8C556.258 286.505 556.956 286.34 557.986 286.256C559.022 286.171 560.339 286.171 562.145 286.171H641.314C643.12 286.171 644.435 286.171 645.473 286.256C646.503 286.34 647.2 286.505 647.78 286.8C648.866 287.354 649.75 288.236 650.303 289.322C650.599 289.902 650.762 290.601 650.846 291.631C650.931 292.667 650.932 293.983 650.932 295.789V346.016C650.932 347.822 650.931 349.138 650.846 350.175C650.762 351.205 650.599 351.903 650.303 352.484C649.75 353.57 648.866 354.452 647.78 355.005C647.2 355.301 646.503 355.465 645.473 355.549C644.435 355.633 643.12 355.635 641.314 355.635H562.145C560.339 355.635 559.022 355.633 557.986 355.549C556.956 355.465 556.258 355.301 555.677 355.005C554.591 354.452 553.709 353.57 553.156 352.484C552.86 351.903 552.696 351.205 552.611 350.175C552.526 349.138 552.526 347.822 552.526 346.016Z" stroke="url(#paint5_linear_22_31)"/>
<path d="M151.564 257.264C151.564 254.305 153.958 251.906 156.912 251.906H484.78C487.735 251.906 490.129 254.305 490.129 257.264V336.319C490.129 339.277 487.735 341.677 484.78 341.677H156.912C153.958 341.677 151.564 339.277 151.564 336.319V257.264Z" fill="white" fill-opacity="0.2"/>
<path d="M151.564 372.683C151.564 369.725 153.958 367.325 156.912 367.325H484.78C487.735 367.325 490.129 369.725 490.129 372.683V451.739C490.129 454.697 487.735 457.097 484.78 457.097H156.912C153.958 457.097 151.564 454.697 151.564 451.739V372.683Z" fill="white" fill-opacity="0.2"/>
<path d="M358.271 61.6109V292.072C358.271 300.952 365.47 308.15 374.35 308.15H689.491C698.371 308.15 705.569 300.952 705.569 292.072V61.6109C705.569 52.7309 698.371 45.5322 689.491 45.5322H374.35C365.47 45.5322 358.271 52.7309 358.271 61.6109Z" fill="white" fill-opacity="0.6"/>
<path d="M358.912 292.072V61.6109C358.912 53.085 365.824 46.1735 374.35 46.1735H689.491C698.017 46.1735 704.928 53.085 704.928 61.6109V292.072C704.928 300.598 698.017 307.509 689.491 307.509H374.35C365.824 307.509 358.912 300.598 358.912 292.072Z" stroke="white" stroke-opacity="0.4"/>
<path d="M429.399 104.791H380.763C378.231 104.791 376.226 102.808 376.226 100.303C376.226 97.7975 378.231 95.8142 380.763 95.8142H429.399C431.932 95.8142 433.936 97.7975 433.936 100.303C433.936 102.808 431.932 104.791 429.399 104.791Z" fill="white" fill-opacity="0.6"/>
<path d="M429.399 226.624H380.763C378.231 226.624 376.226 224.641 376.226 222.135C376.226 219.63 378.231 217.646 380.763 217.646H429.399C431.932 217.646 433.936 219.63 433.936 222.135C433.936 224.641 431.932 226.624 429.399 226.624Z" fill="white" fill-opacity="0.6"/>
<path d="M476.794 126.593H380.819C378.256 126.593 376.226 124.61 376.226 122.104C376.226 119.599 378.256 117.616 380.819 117.616H476.794C479.357 117.616 481.387 119.599 481.387 122.104C481.387 124.61 479.25 126.593 476.794 126.593Z" fill="white" fill-opacity="0.6"/>
<path d="M476.794 248.425H380.819C378.256 248.425 376.226 246.442 376.226 243.937C376.226 241.432 378.256 239.448 380.819 239.448H476.794C479.357 239.448 481.387 241.432 481.387 243.937C481.387 246.442 479.25 248.425 476.794 248.425Z" fill="white" fill-opacity="0.6"/>
<path d="M476.794 148.394H380.819C378.256 148.394 376.226 146.411 376.226 143.906C376.226 141.401 378.256 139.417 380.819 139.417H476.794C479.357 139.417 481.387 141.401 481.387 143.906C481.387 146.411 479.25 148.394 476.794 148.394Z" fill="white" fill-opacity="0.6"/>
<path d="M476.794 270.227H380.819C378.256 270.227 376.226 268.244 376.226 265.738C376.226 263.233 378.256 261.25 380.819 261.25H476.794C479.357 261.25 481.387 263.233 481.387 265.738C481.387 268.244 479.25 270.227 476.794 270.227Z" fill="white" fill-opacity="0.6"/>
<path d="M476.794 170.196H380.819C378.256 170.196 376.226 168.213 376.226 165.707C376.226 163.202 378.256 161.219 380.819 161.219H476.794C479.357 161.219 481.387 163.202 481.387 165.707C481.387 168.213 479.25 170.196 476.794 170.196Z" fill="white" fill-opacity="0.6"/>
<path d="M429.399 191.997H380.763C378.231 191.997 376.226 190.015 376.226 187.509C376.226 185.004 378.231 183.02 380.763 183.02H429.399C431.932 183.02 433.936 185.004 433.936 187.509C433.936 190.015 431.932 191.997 429.399 191.997Z" fill="white" fill-opacity="0.6"/>
<path d="M678.356 265.034H505.293C502.197 265.034 499.741 262.579 499.741 259.482V101.366C499.741 98.2698 502.197 95.8142 505.293 95.8142H678.356C681.453 95.8142 683.908 98.2698 683.908 101.366V259.482C683.908 262.579 681.453 265.034 678.356 265.034Z" fill="white" fill-opacity="0.6"/>
<path d="M382.121 67.9582C385.969 67.9582 389.088 64.8387 389.088 60.9907C389.088 57.1427 385.969 54.0233 382.121 54.0233C378.273 54.0233 375.153 57.1427 375.153 60.9907C375.153 64.8387 378.273 67.9582 382.121 67.9582Z" fill="url(#paint6_linear_22_31)"/>
<path d="M411.063 67.9582C414.911 67.9582 418.03 64.8387 418.03 60.9907C418.03 57.1427 414.911 54.0233 411.063 54.0233C407.215 54.0233 404.096 57.1427 404.096 60.9907C404.096 64.8387 407.215 67.9582 411.063 67.9582Z" fill="url(#paint7_linear_22_31)"/>
<path d="M440.004 67.9582C443.852 67.9582 446.971 64.8387 446.971 60.9907C446.971 57.1427 443.852 54.0233 440.004 54.0233C436.156 54.0233 433.036 57.1427 433.036 60.9907C433.036 64.8387 436.156 67.9582 440.004 67.9582Z" fill="url(#paint8_linear_22_31)"/>
<path d="M0.950195 515.502V229.666C0.950195 220.487 7.35553 213.046 15.2569 213.046H137.577C145.478 213.046 151.884 220.487 151.884 229.666V515.502C151.884 524.682 145.478 532.123 137.577 532.123H15.2569C7.35553 532.123 0.950195 524.682 0.950195 515.502Z" fill="white" fill-opacity="0.6"/>
<path d="M1.59143 515.502V229.666C1.59143 220.747 7.79651 213.687 15.2569 213.687H137.577C145.037 213.687 151.243 220.747 151.243 229.666V515.502C151.243 524.421 145.037 531.481 137.577 531.481H15.2569C7.79651 531.481 1.59143 524.421 1.59143 515.502Z" stroke="white" stroke-opacity="0.4"/>
<path d="M18.8843 501.159V305C18.8843 303.224 20.3241 301.784 22.1 301.784H134.651C136.427 301.784 137.866 303.224 137.866 305V501.159C137.866 502.936 136.427 504.374 134.651 504.374H22.1C20.3241 504.374 18.8843 502.936 18.8843 501.159Z" fill="white" fill-opacity="0.4"/>
<path d="M18.8843 284.418V245.829C18.8843 244.053 20.3241 242.613 22.1 242.613H134.651C136.427 242.613 137.866 244.053 137.866 245.829V284.418C137.866 286.194 136.427 287.633 134.651 287.633H22.1C20.3241 287.633 18.8843 286.194 18.8843 284.418Z" fill="white" fill-opacity="0.4"/>
<path d="M233.156 384.708L237.023 360.382C237.023 360.382 240.921 361.082 243.986 361.377C247.051 361.672 252.72 361.895 252.72 361.895V389.616C252.976 392.086 256.566 397.822 259.086 400.093C259.086 400.093 247.812 443.399 248.562 445.334C249.311 447.269 263.019 451.635 268.722 456.409C274.425 461.184 284.154 474.833 287.138 476.623C290.122 478.413 291.979 478.944 295.428 478.944C298.876 478.944 301.369 478.365 304.202 478.944C307.034 479.524 308.969 482.903 307.849 487.776C306.729 492.65 304.542 492.591 303.737 499.979C302.989 506.846 305.859 513.432 302.212 517.155C299.029 520.404 297.239 521.63 294.387 523.521C292.085 525.047 288.882 523.92 289.546 520.922C290.209 517.925 290.998 517.462 292.132 512.646C293.147 508.335 292.265 506.544 291.535 503.559C290.806 500.575 290.806 494.049 283.113 489.102C275.42 484.157 270.228 480.469 259.948 473.307C253.361 468.717 244.782 465.295 239.277 462.51C233.638 459.656 231.253 459.128 227.274 453.822C224.536 450.171 227.692 424.788 228.136 418.542C228.673 410.991 230.504 395.716 233.156 384.708Z" fill="#ECB3B5"/>
<path d="M232.712 384.455L237.023 360.382C237.023 360.382 240.921 361.082 243.986 361.377C247.051 361.672 252.72 361.895 252.72 361.895V389.616C252.72 394.47 256.566 397.822 259.086 400.093C259.086 400.093 248.277 443.464 249.026 445.401C249.775 447.336 263.351 451.302 269.054 456.077C274.757 460.851 282.151 469.34 284.837 471.728C287.523 474.116 289.927 475.907 291.867 476.835C293.807 477.761 295.846 478.525 296.575 478.857C297.305 479.189 296.774 484.328 295.514 488.109C294.254 491.888 291.137 497.591 289.214 496.597C287.291 495.602 286.065 494.055 281.985 490.43C277.906 486.803 269.849 480.747 259.57 473.585C252.983 468.995 244.384 465.693 238.88 462.907C233.24 460.054 230.723 459.327 226.744 454.021C224.005 450.37 227.294 424.522 227.738 418.277C228.275 410.727 230.06 395.463 232.712 384.455Z" fill="url(#paint9_linear_22_31)"/>
<path d="M232.712 384.455L237.023 360.381C237.023 360.381 240.921 361.081 243.986 361.376C247.051 361.672 252.72 361.894 252.72 361.894V389.614C252.72 394.468 256.566 397.822 259.086 400.093C259.086 400.093 248.277 443.464 249.026 445.399C249.775 447.336 263.351 451.301 269.054 456.077C274.757 460.851 282.151 469.34 284.837 471.728C287.523 474.114 289.927 475.907 291.867 476.833C293.807 477.76 295.846 478.525 296.575 478.856C297.305 479.188 296.774 484.328 295.514 488.107C294.254 491.888 291.137 497.591 289.214 496.596C287.291 495.602 286.065 494.054 281.985 490.428C277.906 486.803 269.849 480.746 259.57 473.584C252.983 468.994 244.384 465.693 238.88 462.907C233.24 460.054 230.723 459.327 226.744 454.021C224.005 450.37 227.294 424.522 227.738 418.276C228.275 410.726 230.06 395.463 232.712 384.455Z" fill="black" fill-opacity="0.2"/>
<path d="M291.25 392.003C291.25 382.331 284.526 365.223 283.245 360.25C283.245 360.25 274.89 361.895 268.59 361.895H252.72V390.49C252.72 395.61 256.566 397.823 259.086 400.094C259.548 402.582 258.987 415.416 259.086 426.223C259.172 435.574 259.948 439.559 259.948 444.659C259.948 449.758 261.519 450.634 262.468 455.137C263.236 458.775 264.794 463.556 265.386 468.002C266.806 478.652 266.05 490.816 265.386 498.376C264.723 505.936 261.222 512.858 259.948 514.556C259.039 515.769 259.086 518.933 253.98 521.719C250.105 523.832 248.295 525.149 247.216 527.422C244.696 532.727 256.525 532.78 261.275 531.268C267.111 529.411 267.111 522.25 272.151 519.596C278.649 516.176 280.042 514.954 280.507 511.505C280.971 508.057 276.947 503.93 277.854 497.579C279.18 488.296 283.424 480.47 284.486 469.594C285.547 458.717 280.507 452.14 280.507 442.802C280.507 438.789 282.679 434.029 284.486 425.167C286.561 414.989 291.25 405.4 291.25 392.003Z" fill="#F8BCBF"/>
<path d="M291.781 392.003C291.781 382.331 284.526 365.223 283.246 360.25C283.246 360.25 274.89 361.895 268.59 361.895H252.19V390.49C252.19 395.61 256.036 397.823 258.556 400.094C259.018 402.582 258.456 415.428 258.556 426.236C258.642 435.587 259.04 439.432 259.438 444.405C259.836 449.38 260.61 451.045 261.56 455.547C262.328 459.185 263.573 463.943 263.948 468.413C264.876 479.488 264.611 490.496 263.948 498.056C263.681 501.098 262.95 506.658 263.098 507.15C263.247 507.641 266.667 508.866 271.972 508.866C277.277 508.866 279.125 507.859 279.628 507.15C280.13 506.44 279.692 502.035 279.996 498.056C280.71 488.705 283.799 480.452 284.837 469.805C285.876 459.159 280.792 452.881 280.792 443.543C280.792 439.531 283.209 434.029 285.016 425.167C287.092 414.989 291.781 405.4 291.781 392.003Z" fill="url(#paint10_linear_22_31)"/>
<path d="M252.72 280.259C250.465 281.519 246.809 282.393 244.696 281.387C243.712 280.918 243.257 280.57 242.394 279.741C241.134 279.741 237.167 280.593 234.105 281.387C233.462 281.553 234.342 282.876 234.834 288.959C235.327 295.042 234.834 296.586 234.834 300.432C234.834 304.278 234.503 307.528 234.503 307.528C234.503 307.528 233.442 313.496 235.166 326.295C236.89 339.095 237.686 352.756 237.023 360.382C237.023 360.382 240.838 361.322 244.848 361.709C248.858 362.095 253.071 362.239 253.071 362.239C253.071 362.239 264.565 362.534 270.513 362.239C278.199 361.857 283.179 360.382 283.179 360.382C283.179 351.628 283.975 345.461 284.373 338.232C284.771 331.004 288.707 313.802 289.347 308.788C285.946 306.991 283.869 304.822 282.317 303.151C279.348 299.953 278.619 291.465 280.858 287.832C284.088 282.59 287.47 282.05 290.918 281.387C289.755 280.769 287.377 279.952 284.638 279.409C282.311 278.948 269.385 278.879 265.871 276.193C263.776 274.593 263.125 267.858 263.728 265.471C263.728 265.471 261.938 272.301 259.086 275.153C256.235 278.004 254.975 278.999 252.72 280.259Z" fill="#ECB3B5"/>
<path d="M158.471 278.353C158.813 280.263 159.1 281.665 159.797 284.118L156.164 279.062C156.164 279.062 155.779 277.259 155.409 275.423C155.161 274.19 154.945 273.399 154.58 272.254C154.213 271.109 154.124 270.581 153.945 269.976C153.767 269.371 153.655 268.823 153.532 268.091C153.41 267.359 154.362 266.286 154.789 266.636C155.215 266.987 155.461 267.804 155.64 268.339C156.069 269.615 156.324 270.164 156.557 271.051C156.791 271.937 157.493 273.221 157.877 274.878C158.156 276.086 158.127 276.443 158.471 278.353Z" fill="#C29798"/>
<path d="M157.381 276.788C157.859 278.669 158.177 279.68 159.112 282.445L155.13 277.658C155.13 277.658 154.618 275.887 154.121 274.082C153.786 272.869 153.515 272.095 153.069 270.979C152.623 269.863 152.497 269.343 152.275 268.752C152.055 268.161 151.905 267.622 151.73 266.901C151.557 266.179 152.43 265.041 152.88 265.361C153.331 265.68 153.633 266.478 153.85 266.999C154.368 268.242 154.66 268.771 154.957 269.639C155.252 270.507 156.044 271.738 156.543 273.364C156.907 274.549 156.903 274.908 157.381 276.788Z" fill="#CA9C9D"/>
<path d="M156.378 275.829C156.941 277.686 157.306 278.681 158.367 281.4L154.169 276.802C154.169 276.802 153.531 275.156 152.95 273.375C152.56 272.179 152.287 271.502 151.789 270.408C151.292 269.313 151.143 268.766 150.894 268.186C150.645 267.606 150.377 267.003 150.148 266.213C149.919 265.423 150.918 264.141 151.353 264.621C151.789 265.102 151.913 265.72 152.187 266.213C152.868 267.44 153.173 267.938 153.626 268.799C154.077 269.661 154.84 271.22 155.383 272.447C155.898 273.614 155.813 273.972 156.378 275.829Z" fill="#DDA9AA"/>
<path d="M199.753 297.514C201.887 297.902 212.916 293.093 215.536 292.01C218.811 290.658 221.77 288.495 226.147 285.047C229.054 282.757 232.469 281.776 234.039 281.416C234.834 281.234 235.612 286.275 236.161 290.485C236.71 294.695 235.784 301.286 235.013 304.067C234.243 306.848 233.773 307.197 233.773 307.197C233.773 307.197 225.73 309.17 217.658 309.916C210.393 310.587 200.878 312.381 199.401 312.224C196.285 311.892 193.096 310.6 189.786 309.529C185.518 308.148 184.832 307.535 179.308 305.261C170.288 301.547 164.24 297.945 161.269 296.905C157.86 295.712 154.591 295.259 153.066 293.933C151.195 292.307 150.844 290.551 149.982 288.528C149.12 286.506 147.259 284.339 146.73 283.044C146.166 281.668 146.199 280.209 146.929 279.48C147.616 278.792 148.755 280.553 149.982 281.917C151.08 283.137 152.751 285.095 153.232 284.002C153.713 282.908 153.683 282.566 153.763 281.917C153.842 281.268 153.854 280.718 153.629 279.111C153.405 277.505 153.219 276.293 152.834 274.933C152.45 273.573 151.822 272.745 151.109 271.418C150.516 270.313 149.899 268.733 149.767 268.069C149.61 267.284 149.808 266.482 150.43 265.914C151.052 265.345 151.498 266.506 151.856 267.257C152.353 268.301 152.839 269.202 153.629 270.523C154.491 271.965 154.955 272.612 155.354 273.325C155.752 274.038 156.515 276.16 156.515 276.16L158.968 281.917C160.56 285.577 159.799 286.601 164.287 289.676C166.538 291.219 174.228 292.471 181.847 293.933C190.276 295.55 198.632 297.31 199.753 297.514Z" fill="#D7A5A5"/>
<path d="M281.339 285.578C278.971 289.649 278.917 300.087 281.886 303.284C283.438 304.956 285.946 306.992 289.347 308.789C288.707 313.803 286.23 326.761 285.235 334.851C284.24 342.942 283.954 344.667 284.24 351.032C284.527 357.398 284.917 362.014 286.959 369.071C289.002 376.127 292.125 384.515 290.938 385.65C289.752 386.785 285.371 384.756 274.89 385.65C264.409 386.544 257.448 386.976 249.49 386.445C243.535 386.049 233.309 383.925 233.309 380.61C233.309 377.294 235.104 364.135 236.492 354.415C237.881 344.694 236.38 334.981 234.901 326.164C233.422 317.347 233.376 307.429 233.376 307.429C233.376 307.429 234.901 303.218 234.901 298.808V288.396C234.901 284.152 233.44 281.56 234.105 281.388C236.387 280.796 241.334 279.344 242.096 279.642C242.859 279.941 246.274 287.501 252.541 287.501C260.565 287.501 265.738 276.725 266.235 276.492C266.733 276.26 282.597 279.006 284.638 279.411C287.377 279.954 288.999 280.422 290.109 280.902C291.22 281.383 285.351 278.681 281.339 285.578Z" fill="#396380"/>
<path d="M281.339 285.578C278.971 289.649 278.917 300.087 281.886 303.284C283.438 304.956 285.946 306.992 289.347 308.789C288.707 313.803 286.23 326.761 285.235 334.851C284.24 342.942 283.954 344.667 284.24 351.032C284.527 357.398 284.917 362.014 286.959 369.071C289.002 376.127 292.125 384.515 290.938 385.65C289.752 386.785 285.371 384.756 274.89 385.65C264.409 386.544 257.448 386.976 249.49 386.445C243.535 386.049 233.309 383.925 233.309 380.61C233.309 377.294 235.104 364.135 236.492 354.415C237.881 344.694 236.38 334.981 234.901 326.164C233.422 317.347 233.376 307.429 233.376 307.429C233.376 307.429 234.901 303.218 234.901 298.808V288.396C234.901 284.152 233.44 281.56 234.105 281.388C236.387 280.796 241.334 279.344 242.096 279.642C242.859 279.941 246.274 287.501 252.541 287.501C260.565 287.501 265.738 276.725 266.235 276.492C266.733 276.26 282.597 279.006 284.638 279.411C287.377 279.954 288.999 280.422 290.109 280.902C291.22 281.383 285.351 278.681 281.339 285.578Z" fill="url(#paint11_linear_22_31)"/>
<path d="M235.1 290.485C235.1 295.027 235.248 301.597 234.569 304.046C233.891 306.496 233.376 307.528 233.376 307.528C233.376 307.528 219.151 311.209 217.559 310.214C215.967 309.219 214.575 304.842 213.939 302.023C213.304 299.207 212.69 293.414 213.679 292.607C214.669 291.8 215.057 291.902 215.437 291.745C218.712 290.392 221.604 288.23 225.981 284.781C228.888 282.491 232.469 281.775 234.039 281.416C234.835 281.233 235.1 285.942 235.1 290.485Z" fill="#396380"/>
<path d="M235.1 290.485C235.1 295.027 235.248 301.597 234.569 304.046C233.891 306.496 233.376 307.528 233.376 307.528C233.376 307.528 219.151 311.209 217.559 310.214C215.967 309.219 214.575 304.842 213.939 302.023C213.304 299.207 212.69 293.414 213.679 292.607C214.669 291.8 215.057 291.902 215.437 291.745C218.712 290.392 221.604 288.23 225.981 284.781C228.888 282.491 232.469 281.775 234.039 281.416C234.835 281.233 235.1 285.942 235.1 290.485Z" fill="url(#paint12_linear_22_31)"/>
<path d="M249.735 237.087C240.213 237.087 233.156 245.802 233.156 255.324C233.156 257.418 233.516 261.946 234.482 263.747C235.941 266.466 234.935 266.802 236.737 271.572C237.943 274.763 239.53 277.06 241.069 278.66C242.409 280.053 243.712 280.918 244.695 281.387C246.809 282.393 250.465 281.519 252.72 280.259C254.974 278.999 256.234 278.005 259.086 275.153C261.938 272.301 263.728 265.471 263.728 265.471C263.925 264.884 264.109 264.31 264.28 263.747C265.707 259.044 266.248 255.112 266.248 251.412C266.248 241.889 259.258 237.087 249.735 237.087Z" fill="#F8BCBF"/>
<path d="M256.387 234.978C252.077 233.585 250.593 236.48 245.114 235.973C240.803 235.574 234.374 241.131 233.972 244.793C233.376 250.231 231.673 250.754 228.203 252.006C225.219 253.082 228.468 256.422 230.656 257.061C232.845 257.699 237.886 259.581 241.533 257.061C246.042 253.944 246.959 254.677 248.562 252.006C248.562 252.54 247.991 254.082 250.128 255.975C252.265 257.868 253.14 258.875 254.133 261.471C255.125 264.066 255.127 265.881 255.127 265.881H257.979C258.157 264.1 258.122 263.48 258.576 261.471C259.03 259.461 260.154 258.271 261.427 257.923C263.107 257.465 264.555 259.183 264.555 260.882C264.555 262.581 264.346 261.962 263.583 265.55C262.82 269.137 263.782 269.032 263.782 269.032C264.18 267.904 266.492 262.935 267.098 259.813C268.159 254.342 267.403 252.506 267.098 250.827C266.792 249.148 266.879 246.562 266.269 244.195C265.448 241.017 262.909 239.077 261.427 238.161C259.945 237.244 259.468 235.973 256.387 234.978Z" fill="black"/>
<path d="M229.029 334.757L252.6 343.771C253.453 344.097 253.511 345.974 252.6 346.046L239.483 346.436C239.163 346.461 238.842 346.419 238.539 346.311L214.355 338.474C213.499 338.17 213.849 336.239 214.752 336.135L227.952 334.621C228.316 334.579 228.686 334.625 229.029 334.757Z" fill="#396380"/>
<path d="M229.029 334.757L252.6 343.771C253.453 344.097 253.511 345.974 252.6 346.046L239.483 346.436C239.163 346.461 238.842 346.419 238.539 346.311L214.355 338.474C213.499 338.17 213.849 336.239 214.752 336.135L227.952 334.621C228.316 334.579 228.686 334.625 229.029 334.757Z" fill="black" fill-opacity="0.2"/>
<path d="M229.029 335.616L252.6 344.63C253.454 344.957 253.272 346.214 252.361 346.286L239.484 347.296C239.164 347.321 238.842 347.278 238.54 347.171L214.563 338.654C213.707 338.35 213.85 337.099 214.752 336.995L227.952 335.48C228.317 335.438 228.686 335.485 229.029 335.616Z" fill="#396380"/>
<path d="M238.962 349.871C237.221 349.44 235.365 349.042 233.375 348.296C232.265 347.88 231.518 347.6 230.358 347.152C229.321 346.752 228.65 346.24 228.866 345.726C229.081 345.212 229.678 344.974 230.358 345.015C231.431 345.079 232.285 345.582 234.085 346.081C235.178 346.385 237.237 346.81 239.63 347.152C242.645 347.582 244.805 346.959 244.805 346.959L251.281 350.501C249.681 350.697 247.665 351.181 246.705 351.065C245.714 350.945 244.836 350.692 244.14 350.501C242.447 350.037 240.703 350.302 238.962 349.871Z" fill="#B48A8A"/>
<path d="M239.045 349.68C237.189 349.216 234.856 348.345 232.867 347.599C231.757 347.183 231.087 346.907 229.993 346.389C228.989 345.913 228.286 345.477 228.501 344.963C228.717 344.449 229.314 344.211 229.993 344.252C231.066 344.316 231.892 345.01 233.693 345.51C234.786 345.813 237.237 346.511 239.63 346.853C242.645 347.283 245.038 347.025 245.038 347.025L251.48 350.467C249.88 350.663 247.865 351.148 246.904 351.031C245.913 350.911 245.068 350.758 244.373 350.567C242.68 350.103 240.902 350.145 239.045 349.68Z" fill="#BE9393"/>
<path d="M279.355 294.099C279.355 285.578 285.558 281.538 288.009 280.902C290.46 280.267 292.452 282.262 294.442 284.782C296.431 287.302 296.802 288.957 299.789 296.427C304.507 308.223 306.907 315.124 309.304 327.788C309.803 330.424 310.961 336.585 309.304 338.694C305.359 343.719 292.828 345.845 287.645 346.894C282.462 347.942 276.191 349.151 271.556 349.151C266.922 349.151 262.853 349.573 259.67 349.739C256.487 349.905 255.293 350.037 252.044 350.435C250.444 350.631 248.428 351.115 247.468 350.999C246.477 350.879 245.599 350.626 244.903 350.435C243.21 349.971 240.902 349.615 239.046 349.151C237.189 348.687 234.856 347.816 232.867 347.07C231.757 346.653 230.579 346.145 229.485 345.627C228.481 345.152 227.777 344.715 227.993 344.202C228.208 343.688 228.805 343.449 229.485 343.49C230.558 343.555 231.893 344.481 233.693 344.981C234.786 345.284 237.237 345.982 239.631 346.324C242.645 346.754 245.568 346.894 245.568 346.894L239.631 346.091L233.693 344.865C233.693 344.865 228.953 343.191 229.485 342.444C230.844 340.535 233.276 342.28 235.984 342.782C237.817 343.123 239.284 343.49 241.024 343.49C242.852 343.49 245.568 343.24 245.568 343.24L248.565 340.535H244.445C242.244 340.535 240.814 340.086 240.229 338.269C239.494 335.987 243.207 337.766 245.373 337.147C248.229 336.332 248.565 336.297 251.058 337.147C254.656 338.376 256.404 340.391 260.108 341.247C262.959 341.906 266.761 340.535 270.86 339.159C275.895 337.469 279.648 336.492 283.778 334.728C290.971 331.655 294.298 331.016 294.298 329.258C294.298 328.253 290.198 322.317 286.683 315.221C284.62 309.638 279.355 300.962 279.355 294.099Z" fill="#ECB3B5"/>
<path d="M239.046 349.15C237.189 348.686 234.856 347.815 232.867 347.069C231.757 346.652 230.579 346.145 229.485 345.626C228.481 345.151 227.777 344.714 227.993 344.201C228.208 343.687 228.805 343.449 229.485 343.489C230.558 343.554 231.893 344.48 233.693 344.98C234.786 345.283 237.237 345.981 239.631 346.323C242.646 346.753 245.568 346.893 245.568 346.893L252.044 350.434C250.444 350.63 248.428 351.114 247.468 350.998C246.477 350.878 245.599 350.625 244.903 350.434C243.21 349.97 240.902 349.614 239.046 349.15Z" fill="#D7A5A5"/>
<path d="M279.2 293.502C279.83 283.256 285.633 280.57 288.02 280.57C290.408 280.57 292.695 281.864 294.685 284.384C296.649 286.872 297.317 288.542 300.208 295.772L300.322 296.055C301.482 298.955 303.443 303.023 302.96 304.397C302.477 305.771 297.117 308.554 294.353 309.716C291.435 310.943 286.821 313.282 285.202 312.004C283.582 310.727 278.86 299.034 279.2 293.502Z" fill="#396380"/>
<path d="M279.2 293.502C279.83 283.256 285.633 280.57 288.02 280.57C290.408 280.57 292.695 281.864 294.685 284.384C296.649 286.872 297.317 288.542 300.208 295.772L300.322 296.055C301.482 298.955 303.443 303.023 302.96 304.397C302.477 305.771 297.117 308.554 294.353 309.716C291.435 310.943 286.821 313.282 285.202 312.004C283.582 310.727 278.86 299.034 279.2 293.502Z" fill="url(#paint13_linear_22_31)"/>
<path d="M260.193 200.021C259.138 198.916 258.482 197.924 258.482 197.924L258.381 196.878L251.327 199.353C251.327 199.353 251.95 201.241 251.796 202.501C251.642 203.761 250.628 205.039 249.853 206.119C248.144 208.502 248.725 209.287 246.169 212.283C245.268 213.338 244.435 213.565 242.847 214.689C241.258 215.812 240.902 216.816 241.179 217.518C241.457 218.218 241.717 219.163 244.706 218.874C246.806 218.672 251.429 218.106 252.425 215.945C253.422 213.786 254.674 211.316 255.53 210.426C257.424 208.456 258.306 210.158 258.306 210.158L258.975 210.948L263.021 207.44C263.021 207.44 262.219 205.057 262.255 204.196C262.292 203.335 261.248 201.125 260.193 200.021Z" fill="url(#paint14_linear_22_31)"/>
<path d="M260.193 200.021C259.138 198.916 258.482 197.924 258.482 197.924L258.381 196.878L251.327 199.353C251.327 199.353 251.95 201.241 251.796 202.501C251.642 203.761 250.628 205.039 249.853 206.119C248.144 208.502 248.725 209.287 246.169 212.283C245.268 213.338 244.435 213.565 242.847 214.689C241.258 215.812 240.902 216.816 241.179 217.518C241.457 218.218 241.717 219.163 244.706 218.874C246.806 218.672 251.429 218.106 252.425 215.945C253.422 213.786 254.674 211.316 255.53 210.426C257.424 208.456 258.306 210.158 258.306 210.158L258.975 210.948L263.021 207.44C263.021 207.44 262.219 205.057 262.255 204.196C262.292 203.335 261.248 201.125 260.193 200.021Z" fill="black" fill-opacity="0.2"/>
<path d="M263.021 207.442C263.021 207.442 262.309 205.292 262.239 204.571C262.239 204.571 256.1 208.802 255.015 210.119C253.93 211.436 252.526 214.482 251.464 216.04C250.467 217.504 249.26 217.555 247.52 217.89C245.14 218.349 241.754 218.447 241.754 218.447C242.195 218.807 243.012 219.039 244.706 218.876C246.806 218.672 251.429 218.108 252.425 215.947C253.422 213.787 254.674 211.317 255.53 210.427C257.424 208.457 258.306 210.159 258.306 210.159L258.975 210.949L263.021 207.442Z" fill="black" fill-opacity="0.98"/>
<path d="M260.193 200.021C259.138 198.917 258.482 197.924 258.482 197.924L258.381 196.878L256.47 197.565C256.47 197.565 260.47 200.293 260.123 202.743C259.849 204.678 258.075 205.005 256.851 206.528C255.803 207.833 255.203 208.558 254.271 209.947C252.989 211.859 253.037 213.489 251.371 215.078C250.09 216.301 249.117 216.735 247.473 217.394C245.365 218.24 241.754 218.446 241.754 218.446C242.195 218.805 243.012 219.037 244.706 218.874C246.806 218.672 251.429 218.106 252.425 215.947C253.422 213.786 254.674 211.316 255.53 210.427C257.424 208.457 258.306 210.158 258.306 210.158L258.975 210.949L263.021 207.44L262.428 205.99C262.428 205.99 262.072 205.42 262.255 204.196C262.439 202.972 261.248 201.127 260.193 200.021Z" fill="black" fill-opacity="0.1"/>
<path d="M236.426 200.85C236.015 199.379 235.903 198.194 235.903 198.194L236.307 197.223L227.875 195.996L227.625 200.119C227.625 200.119 225.858 201.275 224.666 201.863C222.036 203.161 221.558 204.143 217.893 205.583C216.601 206.09 216.147 206.451 214.216 206.695C212.286 206.939 211.499 207.657 211.414 208.406C211.329 209.155 211.113 210.11 213.886 211.263C215.835 212.072 220.179 212.679 222.075 211.243C223.972 209.805 226.239 208.216 227.413 207.834C230.012 206.987 229.989 208.905 229.989 208.905L230.207 209.917L235.428 208.726C235.428 208.726 235.842 206.246 236.279 205.504C236.717 204.761 236.836 202.321 236.426 200.85Z" fill="url(#paint15_linear_22_31)"/>
<path d="M236.426 200.85C236.015 199.379 235.903 198.194 235.903 198.194L236.307 197.223L227.875 195.996L227.625 200.119C227.625 200.119 225.858 201.275 224.666 201.863C222.036 203.161 221.558 204.143 217.893 205.583C216.601 206.09 216.147 206.451 214.216 206.695C212.286 206.939 211.499 207.657 211.414 208.406C211.329 209.155 211.113 210.11 213.886 211.263C215.835 212.072 220.179 212.679 222.075 211.243C223.972 209.805 226.239 208.216 227.413 207.834C230.012 206.987 229.989 208.905 229.989 208.905L230.207 209.917L235.428 208.726C235.428 208.726 235.842 206.246 236.279 205.504C236.717 204.761 236.836 202.321 236.426 200.85Z" fill="black" fill-opacity="0.2"/>
<path d="M236.426 200.847C236.016 199.376 235.904 198.191 235.904 198.191L236.308 197.221L234.298 196.928C234.298 196.928 236.543 201.218 235.083 203.215C233.931 204.793 232.211 204.247 230.415 205.014C228.876 205.672 228.005 206.03 226.529 206.817C224.498 207.9 223.772 209.36 221.555 209.978C219.849 210.453 218.826 211.433 217.065 211.24C214.808 210.993 211.485 209.494 211.485 209.494C211.704 210.018 212.316 210.608 213.887 211.261C215.835 212.07 220.18 212.677 222.076 211.24C223.972 209.803 226.24 208.214 227.414 207.832C230.012 206.985 229.989 208.902 229.989 208.902L230.208 209.914L235.429 208.724L235.589 207.165C235.589 207.165 235.542 206.495 236.28 205.501C237.019 204.507 236.837 202.318 236.426 200.847Z" fill="black" fill-opacity="0.1"/>
<path d="M235.429 208.724C235.429 208.724 235.812 206.493 236.09 205.824C236.09 205.824 228.683 206.666 227.105 207.317C225.527 207.969 222.855 209.995 221.185 210.87C219.616 211.69 218.238 211.647 216.73 211.447C214.327 211.126 211.485 209.494 211.485 209.494C211.705 210.018 212.834 211.038 213.816 211.447C214.798 211.855 216.395 212.451 217.869 212.451C220.147 212.451 221.056 212.012 222.076 211.24C223.973 209.803 226.24 208.214 227.414 207.831C230.012 206.985 229.99 208.902 229.99 208.902L230.208 209.914L235.429 208.724Z" fill="black" fill-opacity="0.98"/>
<path d="M310.336 95.4213C310.336 95.4213 317.679 107.717 315.908 116.416C313.816 126.701 311.855 131.236 304.348 135.182C296.415 139.354 282.934 138.417 271.369 137.612C263.753 137.084 253.879 136.681 253.343 138.205C252.807 139.73 252.356 143.621 252.07 147.049C251.746 150.934 251.925 154.668 250.462 159.491C247.156 170.387 246.381 170.308 244.165 176.909C242.41 182.133 237.465 200.711 236.46 201.85C235.455 202.989 226.679 202.252 226.545 200.041C226.411 197.83 232.467 175.698 234.048 162.591C235.053 154.265 235.175 148.575 235.723 141.538C236.272 134.501 235.455 125.275 240.145 122.11C244.835 118.944 294.14 109.51 294.14 109.51L295.19 93.1462L310.336 95.4213Z" fill="url(#paint16_linear_22_31)"/>
<path d="M310.336 95.4213C310.336 95.4213 317.679 107.717 315.908 116.416C313.816 126.701 311.855 131.236 304.348 135.182C296.415 139.354 282.934 138.417 271.369 137.612C263.753 137.084 253.879 136.681 253.343 138.205C252.807 139.73 252.356 143.621 252.07 147.049C251.746 150.934 251.925 154.668 250.462 159.491C247.156 170.387 246.381 170.308 244.165 176.909C242.41 182.133 237.465 200.711 236.46 201.85C235.455 202.989 226.679 202.252 226.545 200.041C226.411 197.83 232.467 175.698 234.048 162.591C235.053 154.265 235.175 148.575 235.723 141.538C236.272 134.501 234.651 125.007 240.681 121.574C246.71 118.14 294.14 109.51 294.14 109.51L295.19 93.1462L310.336 95.4213Z" fill="black" fill-opacity="0.2"/>
<path d="M320.598 128.876C323.282 120.414 319.514 107.182 319.514 107.182L305.173 101.807L300.741 117.594C300.741 117.594 255.118 117.326 251.367 118.666C247.615 120.006 243.36 119.965 243.36 126.933C243.36 133.9 246.389 147.676 247.492 163.601C248.455 177.498 249.792 200.359 251.065 201.431C252.338 202.502 260.779 202.703 261.114 200.425C261.114 200.425 261.943 185.768 262.119 180.26C262.341 173.302 263.028 168.6 263.057 157.213C263.077 149.129 259.305 139.394 260.016 137.384C270.426 137.384 290.429 140.376 303.562 139.304C312.015 138.614 317.899 137.384 320.598 128.876Z" fill="url(#paint17_linear_22_31)"/>
<path d="M284.46 51.3334C285.1 47.5477 292.784 47.6329 294.027 47.3665L294.383 54.1624C294.383 58.6639 294.738 61.5358 294.738 66.5107C294.738 69.2689 294.649 72.2851 294.649 76.1939C294.649 78.7066 294.027 83.1232 292.428 86.8543C290.829 90.5855 289.079 96.8179 287.302 99.1277L283.216 96.1073C284.815 93.7975 287.365 78.1483 287.365 75.8385C287.365 73.5288 286.871 71.5716 285.854 65.9777C284.837 60.3838 283.456 57.2718 284.46 51.3334Z" fill="#E4ACAF"/>
<path d="M281.798 71.591C279.209 68.3551 280.909 56.844 280.554 46.8943C280.213 37.3488 281.265 40.8534 280.554 32.325C279.843 23.7967 278.599 12.9587 285.351 6.38473C292.103 -0.189204 301.697 -0.900208 307.205 3.71944C313.393 8.90915 314.49 12.603 315.023 19.1771C315.556 25.7512 314.134 25.7512 318.043 40.3204C321.952 54.8896 324.135 46.1833 330.125 56.6663C331.359 58.8261 332.435 60.3976 332.968 69.9919C333.501 79.5863 338.83 78.3426 336.699 81.363C335.568 82.9645 330.861 83.2978 327.975 80.2576L284.996 74.8112C284.553 74.7626 283.592 73.8344 281.798 71.591Z" fill="black"/>
<path d="M283.04 17.7547C283.04 16.1913 284.639 12.6023 284.639 12.6023C284.639 12.6023 287.127 8.16043 291.924 8.1604C296.721 8.16036 297.288 8.46753 300.274 10.2925C303.472 12.2469 305.782 20.7753 306.315 23.7957C306.366 24.0805 306.41 24.3886 306.445 24.7157C306.901 27.7224 308.603 37.3667 312.356 42.6292C315.092 46.4646 321.24 48.8477 321.062 50.9798C320.885 53.1119 312.356 79.0523 308.625 78.8745C304.894 78.6969 295.655 78.1639 291.924 76.9202C288.193 75.6765 288.825 51.0724 290.968 49.7325C293.112 48.3926 295.655 47.2487 297.076 46.1826C298.498 45.1166 295.655 41.1311 295.655 41.1311C294.64 41.374 293.7 41.6396 292.812 41.3855C291.924 41.1311 287.748 37.4354 285.883 33.923C284.075 30.5194 283.724 25.6322 283.573 24.3287C283.422 23.0253 283.04 19.7092 283.04 17.7547Z" fill="#F8C7CA"/>
<path d="M297.078 40.6731C299.921 39.4294 300.987 38.5821 303.83 35.5206C306.084 33.0928 306.663 29.0407 306.54 25.9609C306.379 24.6211 306.317 23.7941 306.317 23.7941C306.428 24.4194 306.507 25.1569 306.54 25.9609C307.027 30.0175 308.427 38.7748 311.798 43.502C314.534 47.3374 322.548 53.0964 322.37 55.2285C322.192 57.3605 318.651 86.4518 317.23 91.8709C315.808 97.29 317.304 101.655 318.703 104.734C320.103 107.813 322.138 115.587 320.981 116.793C319.824 117.999 300.615 116.793 295.657 116.793C290.699 116.793 279.639 112.351 279.639 112.351C279.639 112.351 288.434 97.5822 289.411 95.3613C290.388 93.1404 290.744 91.8966 290.744 89.0538C290.744 86.211 289.944 82.5688 289.411 79.4595C288.878 76.3502 285.28 72.9299 286.302 67.0223C287.323 61.1146 286.68 50.5354 290.744 49.0614C294.808 47.5875 295.657 47.247 297.078 46.1811C298.499 45.115 295.657 41.1296 295.657 41.1296C296.187 41.0027 296.687 40.8443 297.078 40.6731Z" fill="#E4ACAF"/>
<path d="M322.371 55.2295C322.193 57.3616 318.652 86.4528 317.23 91.8719C315.809 97.291 317.305 101.656 318.704 104.735C320.104 107.814 322.956 112.352 322.371 116.794C321.786 121.236 295.658 117.866 290.745 116.794C285.832 115.722 280.25 115.052 279.446 112.238C278.642 109.425 288.036 97.0975 288.557 94.3508C289.077 91.604 288.959 91.135 289.412 88.7902C289.866 86.4454 289.492 82.9893 288.959 79.8801C288.425 76.7708 284.671 72.7786 285.006 67.486C285.341 62.1935 289.885 53.2223 291.772 48.6606L295.658 47.1198C295.658 47.1198 294.29 52.5338 294.29 57.2359C294.29 61.938 295.658 67.486 295.658 67.486C295.658 67.486 303.612 62.3657 307.756 58.0907C311.9 53.8157 315.02 48.9956 315.02 48.9956C318.101 51.893 322.485 53.8572 322.371 55.2295Z" fill="url(#paint18_linear_22_31)"/>
<path d="M298.295 13.5513C299.032 12.6033 299.361 12.1299 299.361 12.1299C298.752 13.3737 298.828 13.9066 298.828 13.9066C298.828 13.9066 298.854 17.1852 302.941 21.4869C306.316 25.0404 303.474 31.6141 306.317 37.4773C309.159 43.3405 309.159 43.5182 311.291 46.1833C312.997 48.3155 317.925 51.5728 320.175 52.935C325.505 56.4884 326.038 62.707 325.683 73.0121C325.328 83.3172 335.009 83.7569 336.699 81.363C338.83 78.3426 333.501 79.5863 332.968 69.9919C332.435 60.3976 331.359 58.8261 330.125 56.6663C324.135 46.1833 321.952 54.8896 318.043 40.3204C314.134 25.7512 315.556 25.7512 315.023 19.1771C314.49 12.603 313.393 8.90915 307.205 3.71944C301.697 -0.900208 292.103 -0.189204 285.351 6.38473C278.599 12.9587 279.843 23.7967 280.554 32.325C281.265 40.8534 280.213 37.3488 280.554 46.8943C280.909 56.844 279.209 68.3551 281.798 71.591C288.904 80.4746 284.657 68.6643 283.574 63.418C282.215 56.8302 283.015 56.9189 282.837 53.0102C282.659 49.1013 285.502 46.0656 284.614 37.182C283.725 28.2982 282.686 24.8627 283.574 21.4869C284.463 18.1111 285.706 17.9333 290.504 16.3343C295.301 14.7354 297.557 14.4994 298.295 13.5513Z" fill="black"/>
<path d="M298.295 13.5513C299.032 12.6033 299.361 12.1299 299.361 12.1299L301.137 8.93178L301.848 10.7085C301.848 10.7085 303.393 14.8563 304.513 17.4602C306.034 20.9951 308.003 22.5742 308.778 26.3438C309.42 29.4704 308.069 31.4046 308.778 34.5168C309.808 39.0476 311.684 41.4125 315.023 44.6443C317.576 47.1157 319.349 48.2763 322.636 49.6268C324.584 50.9452 326.75 50.7599 330.125 56.6663C331.359 58.8261 332.435 60.3976 332.968 69.9919C333.501 79.5863 338.83 78.3426 336.699 81.363C335.009 83.7569 325.328 83.3172 325.683 73.0121C326.038 62.707 325.505 56.4884 320.175 52.935C317.925 51.5728 312.997 48.3155 311.291 46.1833C309.159 43.5182 309.159 43.3405 306.317 37.4773C303.474 31.6141 306.316 25.0404 302.941 21.4869C298.854 17.1852 298.828 13.9066 298.828 13.9066C298.828 13.9066 298.752 13.3737 299.361 12.1299C299.361 12.1299 299.032 12.6033 298.295 13.5513C297.557 14.4994 295.301 14.7354 290.504 16.3343C285.706 17.9333 284.463 18.1111 283.574 21.4869C282.686 24.8627 284.107 28.2386 284.996 37.1222C285.884 46.006 284.107 49.0261 284.285 52.935C284.463 56.8438 284.463 56.1333 283.574 63.418C282.926 68.7354 288.904 80.4746 281.798 71.591C279.209 68.3551 280.909 56.844 280.554 46.8943C280.213 37.3488 281.265 40.8534 280.554 32.325C279.843 23.7967 278.599 12.9587 285.351 6.38473C289.643 2.20556 295.084 0.39582 299.894 0.818763C299.894 0.818763 291.839 7.75746 288.167 10.7085C285.715 12.6795 282.381 14.4396 281.798 20.4806C281.214 26.5215 281.798 29.9684 281.798 30.2527V49.2638V71.591C288.904 80.4746 282.926 68.7354 283.574 63.418C284.463 56.1333 284.463 56.8438 284.285 52.935C284.107 49.0261 285.884 46.006 284.996 37.1222C284.107 28.2386 282.686 24.8627 283.574 21.4869C284.463 18.1111 285.706 17.9333 290.504 16.3343C295.301 14.7354 297.557 14.4994 298.295 13.5513Z" fill="white" fill-opacity="0.1"/>
<path d="M278.384 102.801C278.857 102.23 279.383 101.795 279.764 101.183C278.858 101.767 276.68 103.307 276.355 103.743C276.03 104.178 276.161 105.208 276.354 106.137C276.531 106.986 276.516 107.106 276.54 107.61C276.573 108.292 276.568 109.066 276.93 109.003C277.292 108.94 277.941 108.224 277.893 107.703C277.858 107.33 277.655 106.096 277.577 105.894C277.499 105.693 277.637 105.253 277.682 104.772C277.727 104.291 277.91 103.371 278.384 102.801Z" fill="#C49194"/>
<path d="M276.929 109.005C276.765 109.034 276.676 108.889 276.625 108.659C276.625 108.659 276.497 108.091 276.576 107.906C276.636 107.766 276.735 107.694 276.886 107.708C277.046 107.723 277.194 107.944 277.202 108.126C277.213 108.353 277.303 108.782 277.303 108.782C277.15 108.924 277.054 108.983 276.929 109.005Z" fill="#FA9297"/>
<path d="M279.583 98.933C279.577 98.9491 279.57 98.9661 279.562 98.9839C279.486 99.3481 279.479 101.541 279.276 102.076C278.933 102.982 278.578 103.66 278.589 103.887C278.6 104.114 278.503 105.852 278.555 105.986C278.607 106.12 279.057 107.877 279.142 108.693C279.204 109.287 278.284 110.262 277.885 110.031C277.506 109.811 277.438 109.277 277.39 108.755C277.346 108.274 277.189 107.443 276.981 106.906C276.797 106.431 276.702 105.392 276.498 104.468C276.293 103.543 276.726 103.066 277.199 102.496C277.673 101.926 278.199 101.49 278.58 100.879C278.873 100.408 279.374 99.4363 279.562 98.9839C279.569 98.9535 279.576 98.9359 279.583 98.933Z" fill="#D39FA2"/>
<path d="M277.884 110.037C277.724 109.944 277.619 109.795 277.548 109.615C277.548 109.615 277.364 109.194 277.463 108.953C277.532 108.786 277.601 108.655 277.776 108.611C277.967 108.564 278.088 108.681 278.239 108.807C278.572 109.085 278.432 109.903 278.432 109.903C278.229 110.05 278.024 110.118 277.884 110.037Z" fill="#FA9297"/>
<path d="M279.814 98.8659C280.527 98.5121 280.462 99.2147 280.597 99.1626C280.421 99.6379 280.346 100.666 280.256 101.071C280.144 101.578 279.685 103.379 279.614 103.792C279.543 104.206 279.948 106.443 279.944 106.831C279.94 107.219 280.123 108.627 280.148 109.146C280.192 110.056 279.259 111.036 278.566 110.841C278.15 110.725 278.3 109.904 278.287 109.328C278.269 108.485 277.99 106.971 277.994 106.584C277.998 106.196 277.605 104.804 277.504 103.53C277.445 102.781 278.567 100.523 278.571 100.135C278.575 99.7473 279.102 99.2196 279.814 98.8659Z" fill="#E1A7AA"/>
<path d="M278.567 110.841C278.435 110.804 278.361 110.698 278.319 110.551C278.319 110.551 278.237 109.936 278.392 109.595C278.476 109.411 278.496 109.23 278.69 109.171C278.944 109.094 279.089 109.355 279.234 109.577C279.489 109.967 279.156 110.766 279.156 110.766C278.958 110.86 278.753 110.893 278.567 110.841Z" fill="#FA9297"/>
<path d="M283.734 95.2888C283.734 95.2888 284.992 95.8255 286.064 95.8255C287.136 95.8255 288.473 94.6355 288.473 94.6355C288.473 95.0207 286.731 101.645 286.064 102.058C285.819 102.21 284.661 103.221 284.579 103.407C284.497 103.593 284.135 104.197 283.971 104.57C283.807 104.943 282.805 105.795 282.554 105.893C282.285 105.997 281.782 106.888 281.487 106.925C281.193 106.962 280.828 106.022 281.022 105.329C281.174 104.787 282.335 103.738 282.391 103.484C282.447 103.231 282.787 101.322 282.616 101.08C282.616 101.08 281.531 101.269 281.255 101.608C280.979 101.947 280.761 104.514 280.761 104.514C280.753 105.882 280.83 106.881 280.654 108.417C280.549 109.337 279.711 110.163 279.26 109.798C278.928 109.528 278.896 108.872 278.852 107.976L278.851 107.948C278.851 107.948 278.712 106.599 278.673 106.097C278.613 105.348 278.627 104.347 278.64 103.627C278.662 102.489 278.932 101.197 279.116 100.276C279.299 99.3555 279.513 99.0417 280 98.7745C280.756 98.3597 280.774 98.357 281.504 97.7055C282.234 97.0541 283.734 95.2888 283.734 95.2888Z" fill="#E4ACAF"/>
<path d="M281.489 106.927C281.33 106.947 281.15 106.682 281.049 106.325C281.049 106.325 281.535 105.75 281.643 105.631C281.751 105.512 282.096 105.447 282.258 105.624C282.382 105.758 282.325 106.086 282.325 106.086C282.055 106.381 281.712 106.899 281.489 106.927Z" fill="#FA9297"/>
<path d="M279.262 109.8C279.141 109.702 279.06 109.553 279.003 109.36C279.003 109.36 278.98 108.519 279.009 108.354C279.038 108.188 279.184 107.92 279.427 107.882C279.714 107.838 280.013 108.195 279.998 108.356C279.983 108.516 280.046 109.632 280.046 109.632C279.777 109.879 279.476 109.974 279.262 109.8Z" fill="#FA9297"/>
<path d="M280.76 104.513C280.752 105.881 280.83 106.881 280.654 108.416C280.654 108.416 280.285 105.89 280.277 104.304C280.27 102.996 280.211 102.273 280.614 101.393C280.915 100.735 281.929 100.805 282.615 101.079C282.615 101.079 281.53 101.269 281.254 101.608C280.978 101.947 280.76 104.513 280.76 104.513Z" fill="black" fill-opacity="0.1"/>
<path d="M282.553 105.892C282.285 105.996 281.781 106.887 281.486 106.924C281.486 106.924 282.005 106.117 282.449 105.623C282.892 105.13 283.339 104.971 283.725 104.433C284.061 103.963 284.03 103.617 284.393 103.169C285.124 102.267 287.198 100.844 287.198 100.844C287.198 100.844 287.698 100.341 287.802 100.61C287.906 100.878 285.027 102.614 284.579 103.406C284.13 104.199 284.135 104.197 283.97 104.569C283.806 104.942 282.805 105.794 282.553 105.892Z" fill="black" fill-opacity="0.1"/>
<path d="M280.76 104.513C280.752 105.881 280.83 106.881 280.654 108.416C280.654 108.416 280.285 105.89 280.277 104.304C280.27 102.996 280.211 102.273 280.614 101.393C280.915 100.735 281.929 100.805 282.615 101.079C282.615 101.079 281.53 101.269 281.254 101.608C280.978 101.947 280.76 104.513 280.76 104.513Z" stroke="#F7BBBE" stroke-width="0.005703"/>
<path d="M282.553 105.892C282.285 105.996 281.781 106.887 281.486 106.924C281.486 106.924 282.005 106.117 282.449 105.623C282.892 105.13 283.339 104.971 283.725 104.433C284.061 103.963 284.03 103.617 284.393 103.169C285.124 102.267 287.198 100.844 287.198 100.844C287.198 100.844 287.698 100.341 287.802 100.61C287.906 100.878 285.027 102.614 284.579 103.406C284.13 104.199 284.135 104.197 283.97 104.569C283.806 104.942 282.805 105.794 282.553 105.892Z" stroke="#F7BBBE" stroke-width="0.005703"/>
<path d="M318.302 65.7441C317.892 62.1907 318.137 55.3821 321.768 54.6255C325.399 53.869 329.808 65.724 330.092 68.4247C330.448 71.8005 335.532 96.6988 333.317 100.021C330.474 104.285 309.509 105.351 308.62 105.351C307.91 105.351 303.882 105.707 300.803 105.707C300.803 105.707 298.671 106.595 296.894 106.95C295.117 107.306 293.163 106.95 292.274 106.95C291.386 106.95 290.142 107.661 290.142 107.661L288.543 108.372C288.543 108.372 287.832 108.854 287.299 109.083C286.766 109.311 286.056 109.26 286.056 108.727C286.056 108.194 287.477 107.306 287.477 107.306L288.721 106.595L291.208 105.351C291.208 105.351 289.254 106.062 288.721 106.24C288.188 106.418 287.299 107.128 287.299 107.128C287.299 107.128 286.766 107.543 286.056 108.016C285.345 108.49 284.101 108.372 283.924 107.839C283.746 107.306 286.056 106.062 286.056 106.062C286.056 106.062 287.299 104.996 287.833 104.641C288.366 104.285 289.965 103.752 289.965 103.752C289.965 103.752 287.832 104.285 287.655 104.463C287.477 104.641 286.056 105.809 285.345 106.342C284.634 106.875 284.546 106.773 283.746 107.306C282.946 107.839 281.792 107.306 281.969 106.773C282.147 106.24 284.101 105.174 284.101 105.174C284.101 105.174 286.056 103.219 286.411 103.042C286.766 102.864 289.254 101.798 289.254 101.798C289.254 101.798 286.589 102.509 286.411 102.686C286.233 102.864 284.457 104.463 284.457 104.463C284.457 104.463 283.746 105.178 282.858 105.707C281.969 106.236 281.081 105.986 281.259 105.351C281.436 104.716 283.568 103.219 283.568 103.219L285.345 101.265C285.345 101.265 289.076 99.1328 290.498 98.9551C291.919 98.7775 299.737 100.91 299.737 100.91C301.513 100.91 303.153 100.81 307.91 99.4881C312.666 98.1666 318.748 94.6908 323.012 94.1576C324.594 93.9597 322.301 88.65 321.768 84.7412C321.235 80.8324 320.474 75.2608 319.991 73.0148C319.508 70.7688 318.712 69.2975 318.302 65.7441Z" fill="#E4ACAF"/>
<path d="M281.259 105.352C281.274 105.298 281.302 105.239 281.343 105.174L281.969 104.641C281.969 104.641 282.331 104.523 282.502 104.641C282.683 104.766 282.68 104.997 282.68 105.174C282.68 105.352 281.792 105.989 281.792 105.989C281.4 105.949 281.158 105.713 281.259 105.352Z" fill="#FA9297"/>
<path d="M281.969 106.773C281.987 106.719 282.024 106.659 282.075 106.596L282.858 106.063C282.858 106.063 283.372 105.866 283.568 106.063C283.765 106.259 283.568 106.773 283.568 106.773L282.68 107.494C282.214 107.394 281.866 107.083 281.969 106.773Z" fill="#FA9297"/>
<path d="M283.924 107.84C283.892 107.744 283.94 107.625 284.042 107.494L284.99 106.951C284.99 106.951 285.504 106.755 285.7 106.951C285.897 107.147 285.7 107.662 285.7 107.662L284.812 108.308C284.38 108.274 284.014 108.111 283.924 107.84Z" fill="#FA9297"/>
<path d="M285.878 108.55C285.878 108.472 285.912 108.39 285.971 108.308L286.766 107.839C286.766 107.839 287.281 107.643 287.477 107.839C287.673 108.036 287.477 108.55 287.477 108.55L286.589 109.129C286.209 109.069 285.878 108.876 285.878 108.55Z" fill="#FA9297"/>
<path d="M314.912 114.966L286.976 113.784L287.753 116.357H314.912V114.966Z" fill="#9D9D9D"/>
<path d="M234.123 85.8736L243.232 116.355H287.753L286.975 113.782L277.239 85.4039C276.907 84.4373 275.992 83.7933 274.97 83.8072L235.239 84.3532C234.455 84.3639 233.899 85.122 234.123 85.8736Z" fill="#005B9D"/>
<path d="M234.123 85.8736L243.232 116.355H287.753L286.975 113.782L277.239 85.4039C276.907 84.4373 275.992 83.7933 274.97 83.8072L235.239 84.3532C234.455 84.3639 233.899 85.122 234.123 85.8736Z" fill="#9D9D9D"/>
<path d="M233.531 86.4648L242.641 116.946H287.161L286.963 116.29L286.384 114.373L276.647 85.9951C276.315 85.0285 275.4 84.3844 274.379 84.3984L234.648 84.9445C233.863 84.9552 233.307 85.7132 233.531 86.4648Z" fill="#C4C4C4"/>
<path d="M314.938 116.947H287.16L286.962 116.29H314.938V116.947Z" fill="#C4C4C4"/>
</g>
<defs>
<linearGradient id="paint0_linear_22_31" x1="135.717" y1="142.459" x2="135.717" y2="156.394" gradientUnits="userSpaceOnUse">
<stop stop-color="#FF43E1"/>
<stop offset="1" stop-color="#FF8D69"/>
</linearGradient>
<linearGradient id="paint1_linear_22_31" x1="164.658" y1="142.459" x2="164.658" y2="156.394" gradientUnits="userSpaceOnUse">
<stop stop-color="#D55353"/>
<stop offset="1" stop-color="#5432BD"/>
</linearGradient>
<linearGradient id="paint2_linear_22_31" x1="193.599" y1="142.459" x2="193.599" y2="156.394" gradientUnits="userSpaceOnUse">
<stop stop-color="#53D5BE"/>
<stop offset="1" stop-color="#329CBD"/>
</linearGradient>
<linearGradient id="paint3_linear_22_31" x1="151.564" y1="194.169" x2="151.564" y2="212.371" gradientUnits="userSpaceOnUse">
<stop stop-color="white" stop-opacity="0.6"/>
<stop offset="1"/>
</linearGradient>
<linearGradient id="paint4_linear_22_31" x1="551.885" y1="382.718" x2="618.666" y2="476.817" gradientUnits="userSpaceOnUse">
<stop stop-color="white" stop-opacity="0.6"/>
<stop offset="1"/>
</linearGradient>
<linearGradient id="paint5_linear_22_31" x1="551.885" y1="285.53" x2="618.666" y2="379.629" gradientUnits="userSpaceOnUse">
<stop stop-color="white" stop-opacity="0.6"/>
<stop offset="1"/>
</linearGradient>
<linearGradient id="paint6_linear_22_31" x1="382.121" y1="54.0233" x2="382.121" y2="67.9581" gradientUnits="userSpaceOnUse">
<stop stop-color="#FF36BB"/>
<stop offset="1" stop-color="#FF8D69"/>
</linearGradient>
<linearGradient id="paint7_linear_22_31" x1="411.063" y1="54.0233" x2="411.063" y2="67.9581" gradientUnits="userSpaceOnUse">
<stop stop-color="#D55353"/>
<stop offset="1" stop-color="#5432BD"/>
</linearGradient>
<linearGradient id="paint8_linear_22_31" x1="440.004" y1="54.0233" x2="440.004" y2="67.9581" gradientUnits="userSpaceOnUse">
<stop stop-color="#53D5BE"/>
<stop offset="1" stop-color="#329CBD"/>
</linearGradient>
<linearGradient id="paint9_linear_22_31" x1="261.286" y1="360.382" x2="261.286" y2="496.711" gradientUnits="userSpaceOnUse">
<stop stop-color="#D55353"/>
<stop offset="1" stop-color="#BD3232"/>
</linearGradient>
<linearGradient id="paint10_linear_22_31" x1="271.985" y1="360.25" x2="271.985" y2="508.866" gradientUnits="userSpaceOnUse">
<stop stop-color="#D55353"/>
<stop offset="1" stop-color="#BD3232"/>
</linearGradient>
<linearGradient id="paint11_linear_22_31" x1="252.794" y1="251.908" x2="276.52" y2="399.389" gradientUnits="userSpaceOnUse">
<stop stop-color="#FF4343"/>
<stop offset="1" stop-color="#993F81"/>
</linearGradient>
<linearGradient id="paint12_linear_22_31" x1="261.13" y1="296.152" x2="206.626" y2="305.771" gradientUnits="userSpaceOnUse">
<stop stop-color="#FF4343"/>
<stop offset="1" stop-color="#993F81"/>
</linearGradient>
<linearGradient id="paint13_linear_22_31" x1="295.007" y1="273.479" x2="290.148" y2="316.598" gradientUnits="userSpaceOnUse">
<stop stop-color="#FF4343"/>
<stop offset="1" stop-color="#993F81"/>
</linearGradient>
<linearGradient id="paint14_linear_22_31" x1="250.642" y1="197.626" x2="252.62" y2="218.11" gradientUnits="userSpaceOnUse">
<stop stop-color="#FF3641"/>
<stop offset="1" stop-color="#FF8D69"/>
</linearGradient>
<linearGradient id="paint15_linear_22_31" x1="229.317" y1="194.318" x2="221.039" y2="214.236" gradientUnits="userSpaceOnUse">
<stop stop-color="#FF3641"/>
<stop offset="1" stop-color="#FF8D69"/>
</linearGradient>
<linearGradient id="paint16_linear_22_31" x1="271.363" y1="93.1462" x2="271.363" y2="202.38" gradientUnits="userSpaceOnUse">
<stop stop-color="#D55353"/>
<stop offset="1" stop-color="#BD3232"/>
</linearGradient>
<linearGradient id="paint17_linear_22_31" x1="282.462" y1="101.807" x2="282.462" y2="202.203" gradientUnits="userSpaceOnUse">
<stop stop-color="#D55353"/>
<stop offset="1" stop-color="#FF3131"/>
</linearGradient>
<linearGradient id="paint18_linear_22_31" x1="274.729" y1="83.086" x2="301" y2="108" gradientUnits="userSpaceOnUse">
<stop stop-color="#FF4343"/>
<stop offset="1" stop-color="#993F81"/>
</linearGradient>
<clipPath id="clip0_22_31">
<rect width="787" height="533" fill="white"/>
</clipPath>
</defs>
</svg>
