<svg width="281" height="378" viewBox="0 0 281 378" fill="none" xmlns="http://www.w3.org/2000/svg">
<g filter="url(#filter0_b_115_66)">
<rect x="0.782532" y="0.393433" width="280.044" height="377.451" rx="10" fill="white" fill-opacity="0.39"/>
</g>
<path d="M25.7559 31.1533H27.0173L29.9832 38.3977H30.0855L33.0514 31.1533H34.3127V39.8806H33.3241V33.2499H33.2389L30.5116 39.8806H29.5571L26.8298 33.2499H26.7446V39.8806H25.7559V31.1533ZM36.4317 39.8806V31.1533H41.6987V32.0908H37.4885V35.0397H41.426V35.9772H37.4885V38.9431H41.7669V39.8806H36.4317ZM50.524 31.1533V39.8806H49.5013L44.7456 33.0283H44.6604V39.8806H43.6036V31.1533H44.6263L49.399 38.0227H49.4843V31.1533H50.524ZM58.366 31.1533H59.4228V36.9318C59.4228 37.5283 59.2822 38.061 59.0009 38.5298C58.7225 38.9957 58.3291 39.3636 57.8205 39.6335C57.312 39.9005 56.7154 40.034 56.0308 40.034C55.3461 40.034 54.7495 39.9005 54.241 39.6335C53.7325 39.3636 53.3376 38.9957 53.0563 38.5298C52.7779 38.061 52.6387 37.5283 52.6387 36.9318V31.1533H53.6955V36.8465C53.6955 37.2727 53.7893 37.6519 53.9768 37.9843C54.1643 38.3139 54.4313 38.5738 54.7779 38.7641C55.1274 38.9516 55.545 39.0454 56.0308 39.0454C56.5166 39.0454 56.9342 38.9516 57.2836 38.7641C57.633 38.5738 57.9001 38.3139 58.0848 37.9843C58.2723 37.6519 58.366 37.2727 58.366 36.8465V31.1533ZM64.9083 39.8806V31.1533H67.9594C68.5673 31.1533 69.0688 31.2585 69.4637 31.4687C69.8585 31.6761 70.1526 31.9559 70.3458 32.3082C70.5389 32.6576 70.6355 33.0454 70.6355 33.4715C70.6355 33.8465 70.5688 34.1562 70.4352 34.4005C70.3046 34.6448 70.1313 34.838 69.9154 34.98C69.7023 35.1221 69.4708 35.2272 69.2208 35.2954V35.3806C69.4878 35.3977 69.7563 35.4914 70.0262 35.6619C70.296 35.8323 70.5219 36.0766 70.7037 36.3948C70.8855 36.713 70.9764 37.1022 70.9764 37.5624C70.9764 37.9999 70.877 38.3934 70.6781 38.7428C70.4793 39.0923 70.1654 39.3693 69.7364 39.5738C69.3074 39.7783 68.7492 39.8806 68.0617 39.8806H64.9083ZM65.9651 38.9431H68.0617C68.752 38.9431 69.2421 38.8096 69.5318 38.5425C69.8245 38.2727 69.9708 37.946 69.9708 37.5624C69.9708 37.267 69.8955 36.9943 69.7449 36.7443C69.5943 36.4914 69.3798 36.2897 69.1014 36.1391C68.823 35.9857 68.4935 35.909 68.1128 35.909H65.9651V38.9431ZM65.9651 34.9886H67.9253C68.2435 34.9886 68.5304 34.9261 68.7861 34.8011C69.0446 34.6761 69.2492 34.4999 69.3997 34.2727C69.5531 34.0454 69.6298 33.7783 69.6298 33.4715C69.6298 33.088 69.4963 32.7627 69.2293 32.4957C68.9622 32.2258 68.5389 32.0908 67.9594 32.0908H65.9651V34.9886ZM78.4402 31.1533H79.497V36.9318C79.497 37.5283 79.3564 38.061 79.0752 38.5298C78.7968 38.9957 78.4033 39.3636 77.8948 39.6335C77.3862 39.9005 76.7897 40.034 76.105 40.034C75.4203 40.034 74.8237 39.9005 74.3152 39.6335C73.8067 39.3636 73.4118 38.9957 73.1306 38.5298C72.8522 38.061 72.7129 37.5283 72.7129 36.9318V31.1533H73.7698V36.8465C73.7698 37.2727 73.8635 37.6519 74.051 37.9843C74.2385 38.3139 74.5056 38.5738 74.8522 38.7641C75.2016 38.9516 75.6192 39.0454 76.105 39.0454C76.5908 39.0454 77.0084 38.9516 77.3578 38.7641C77.7073 38.5738 77.9743 38.3139 78.159 37.9843C78.3465 37.6519 78.4402 37.2727 78.4402 36.8465V31.1533ZM81.1302 32.0908V31.1533H87.6757V32.0908H84.9313V39.8806H83.8745V32.0908H81.1302ZM96.3071 35.517C96.3071 36.4374 96.1409 37.2329 95.8085 37.9033C95.4761 38.5738 95.0201 39.0908 94.4406 39.4545C93.861 39.8181 93.1991 39.9999 92.4548 39.9999C91.7105 39.9999 91.0485 39.8181 90.469 39.4545C89.8894 39.0908 89.4335 38.5738 89.1011 37.9033C88.7687 37.2329 88.6025 36.4374 88.6025 35.517C88.6025 34.5965 88.7687 33.8011 89.1011 33.1306C89.4335 32.4602 89.8894 31.9431 90.469 31.5795C91.0485 31.2158 91.7105 31.034 92.4548 31.034C93.1991 31.034 93.861 31.2158 94.4406 31.5795C95.0201 31.9431 95.4761 32.4602 95.8085 33.1306C96.1409 33.8011 96.3071 34.5965 96.3071 35.517ZM95.2843 35.517C95.2843 34.7613 95.1579 34.1235 94.9051 33.6036C94.6551 33.0837 94.3156 32.6903 93.8866 32.4232C93.4605 32.1562 92.9832 32.0227 92.4548 32.0227C91.9264 32.0227 91.4477 32.1562 91.0187 32.4232C90.5926 32.6903 90.2531 33.0837 90.0002 33.6036C89.7502 34.1235 89.6252 34.7613 89.6252 35.517C89.6252 36.2727 89.7502 36.9104 90.0002 37.4303C90.2531 37.9502 90.5926 38.3437 91.0187 38.6107C91.4477 38.8778 91.9264 39.0113 92.4548 39.0113C92.9832 39.0113 93.4605 38.8778 93.8866 38.6107C94.3156 38.3437 94.6551 37.9502 94.9051 37.4303C95.1579 36.9104 95.2843 36.2727 95.2843 35.517ZM105.448 35.517C105.448 36.4374 105.281 37.2329 104.949 37.9033C104.617 38.5738 104.161 39.0908 103.581 39.4545C103.002 39.8181 102.34 39.9999 101.595 39.9999C100.851 39.9999 100.189 39.8181 99.6096 39.4545C99.0301 39.0908 98.5741 38.5738 98.2417 37.9033C97.9093 37.2329 97.7431 36.4374 97.7431 35.517C97.7431 34.5965 97.9093 33.8011 98.2417 33.1306C98.5741 32.4602 99.0301 31.9431 99.6096 31.5795C100.189 31.2158 100.851 31.034 101.595 31.034C102.34 31.034 103.002 31.2158 103.581 31.5795C104.161 31.9431 104.617 32.4602 104.949 33.1306C105.281 33.8011 105.448 34.5965 105.448 35.517ZM104.425 35.517C104.425 34.7613 104.299 34.1235 104.046 33.6036C103.796 33.0837 103.456 32.6903 103.027 32.4232C102.601 32.1562 102.124 32.0227 101.595 32.0227C101.067 32.0227 100.588 32.1562 100.159 32.4232C99.7332 32.6903 99.3937 33.0837 99.1409 33.6036C98.8909 34.1235 98.7659 34.7613 98.7659 35.517C98.7659 36.2727 98.8909 36.9104 99.1409 37.4303C99.3937 37.9502 99.7332 38.3437 100.159 38.6107C100.588 38.8778 101.067 39.0113 101.595 39.0113C102.124 39.0113 102.601 38.8778 103.027 38.6107C103.456 38.3437 103.796 37.9502 104.046 37.4303C104.299 36.9104 104.425 36.2727 104.425 35.517ZM114.145 31.1533V39.8806H113.122L108.367 33.0283H108.281V39.8806H107.225V31.1533H108.247L113.02 38.0227H113.105V31.1533H114.145ZM121.033 33.3352C120.981 32.9033 120.774 32.5681 120.41 32.3295C120.047 32.0908 119.601 31.9715 119.072 31.9715C118.686 31.9715 118.348 32.034 118.058 32.159C117.771 32.284 117.547 32.4559 117.385 32.6746C117.226 32.8934 117.146 33.142 117.146 33.4204C117.146 33.6533 117.202 33.8536 117.312 34.0212C117.426 34.186 117.571 34.3238 117.747 34.4346C117.923 34.5425 118.108 34.632 118.301 34.7031C118.494 34.7712 118.672 34.8266 118.834 34.8693L119.72 35.1079C119.947 35.1675 120.2 35.2499 120.479 35.355C120.76 35.4602 121.028 35.6036 121.284 35.7854C121.542 35.9644 121.756 36.1945 121.923 36.4758C122.091 36.757 122.175 37.1022 122.175 37.5113C122.175 37.9829 122.051 38.409 121.804 38.7897C121.56 39.1704 121.202 39.4729 120.73 39.6974C120.261 39.9218 119.692 40.034 119.021 40.034C118.396 40.034 117.855 39.9332 117.398 39.7315C116.943 39.5298 116.585 39.2485 116.324 38.8877C116.065 38.5269 115.919 38.1079 115.885 37.6306H116.976C117.004 37.9602 117.115 38.2329 117.308 38.4488C117.504 38.6619 117.751 38.821 118.05 38.9261C118.351 39.0283 118.675 39.0795 119.021 39.0795C119.425 39.0795 119.787 39.0141 120.108 38.8835C120.429 38.7499 120.683 38.5653 120.871 38.3295C121.058 38.0908 121.152 37.8124 121.152 37.4943C121.152 37.2045 121.071 36.9687 120.909 36.7869C120.747 36.605 120.534 36.4573 120.27 36.3437C120.006 36.23 119.72 36.1306 119.413 36.0454L118.339 35.7386C117.658 35.5425 117.118 35.2627 116.72 34.8991C116.322 34.5354 116.123 34.0596 116.123 33.4715C116.123 32.9829 116.256 32.5568 116.52 32.1931C116.787 31.8266 117.145 31.5425 117.594 31.3408C118.045 31.1363 118.55 31.034 119.106 31.034C119.669 31.034 120.169 31.1349 120.606 31.3366C121.044 31.5354 121.391 31.8082 121.646 32.1548C121.905 32.5014 122.041 32.8948 122.055 33.3352H121.033Z" fill="black"/>
<rect x="23.8045" y="112.994" width="234" height="56.6469" fill="#540072" fill-opacity="0.38"/>
<rect x="42.8736" y="153.648" width="5.44725" height="25.3161" rx="2.72362" transform="rotate(-90 42.8736 153.648)" fill="white" fill-opacity="0.39"/>
<rect x="42.8736" y="144.041" width="5.44725" height="25.3161" rx="2.72362" transform="rotate(-90 42.8736 144.041)" fill="white" fill-opacity="0.39"/>
<rect x="42.8736" y="134.434" width="5.44725" height="25.3161" rx="2.72362" transform="rotate(-90 42.8736 134.434)" fill="white" fill-opacity="0.39"/>
<circle cx="234.5" cy="141.318" r="7.35566" fill="#832C8A"/>
<circle cx="234.5" cy="141.318" r="6.85566" stroke="white" stroke-opacity="0.39"/>
<rect x="23.8045" y="175.677" width="234" height="56.6469" fill="#540072" fill-opacity="0.38"/>
<rect x="42.4988" y="217.028" width="5.44725" height="25.3161" transform="rotate(-90 42.4988 217.028)" fill="white" fill-opacity="0.39"/>
<rect x="42.4988" y="207.421" width="5.44725" height="25.3161" transform="rotate(-90 42.4988 207.421)" fill="white" fill-opacity="0.39"/>
<rect x="42.4988" y="197.814" width="5.44725" height="25.3161" transform="rotate(-90 42.4988 197.814)" fill="white" fill-opacity="0.39"/>
<circle cx="234.5" cy="204.697" r="7.35566" fill="#832C8A"/>
<circle cx="234.5" cy="204.697" r="6.85566" stroke="white" stroke-opacity="0.39"/>
<rect x="23.8044" y="238.36" width="234" height="56.6469" fill="#540072" fill-opacity="0.38"/>
<rect x="43.201" y="279.014" width="5.44725" height="15.0544" rx="2.72362" transform="rotate(-90 43.201 279.014)" fill="white" fill-opacity="0.39"/>
<rect x="43.201" y="269.407" width="5.44725" height="19.2142" rx="2.72362" transform="rotate(-90 43.201 269.407)" fill="white" fill-opacity="0.39"/>
<rect x="43.201" y="259.8" width="5.44725" height="25.3161" rx="2.72362" transform="rotate(-90 43.201 259.8)" fill="white" fill-opacity="0.39"/>
<circle cx="234.5" cy="266.684" r="7.35566" fill="#832C8A"/>
<circle cx="234.5" cy="266.684" r="6.85566" stroke="white" stroke-opacity="0.39"/>
<rect x="23.8045" y="301.043" width="234" height="56.6469" fill="#540072" fill-opacity="0.38"/>
<circle cx="234.5" cy="329.367" r="7.35566" fill="#832C8A"/>
<circle cx="234.5" cy="329.367" r="6.85566" stroke="white" stroke-opacity="0.39"/>
<rect x="23.8045" y="50.3109" width="234" height="56.6469" fill="#540072" fill-opacity="0.38"/>
<circle cx="234.5" cy="79.5122" r="7.35566" fill="#832C8A"/>
<circle cx="234.5" cy="79.5122" r="6.85566" stroke="white" stroke-opacity="0.39"/>
<path d="M233.512 69.7529C233.693 68.6314 235.307 68.6314 235.487 69.7529L236.779 77.7848C236.818 78.0271 236.945 78.2466 237.135 78.4015L243.445 83.5367C244.326 84.2537 243.519 85.6512 242.458 85.2467L234.856 82.35C234.626 82.2626 234.373 82.2626 234.144 82.35L226.542 85.2467C225.48 85.6512 224.673 84.2537 225.554 83.5367L231.864 78.4015C232.054 78.2466 232.181 78.0271 232.22 77.7848L233.512 69.7529Z" fill="#FB29FF"/>
<rect x="43.201" y="65.9763" width="5.44725" height="25.3161" rx="2.72362" fill="white" fill-opacity="0.39"/>
<rect x="52.8081" y="65.9763" width="5.44725" height="25.3161" rx="2.72362" fill="white" fill-opacity="0.39"/>
<rect x="62.4152" y="65.9763" width="5.44725" height="25.3161" rx="2.72362" fill="white" fill-opacity="0.39"/>
<path d="M55.8887 335.003V334.85C55.9057 333.222 56.0762 331.926 56.4 330.963C56.7239 330 57.1841 329.22 57.7807 328.624C58.3773 328.027 59.0932 327.477 59.9285 326.975C60.4313 326.668 60.883 326.306 61.2836 325.888C61.6841 325.462 61.9995 324.972 62.2296 324.418C62.4682 323.864 62.5875 323.25 62.5875 322.577C62.5875 321.742 62.3915 321.017 61.9995 320.404C61.6074 319.79 61.0833 319.317 60.427 318.985C59.7708 318.652 59.0421 318.486 58.241 318.486C57.5421 318.486 56.8688 318.631 56.2211 318.921C55.5733 319.21 55.0321 319.666 54.5975 320.289C54.1628 320.911 53.9114 321.725 53.8432 322.73H50.6216C50.6898 321.281 51.0648 320.041 51.7466 319.01C52.437 317.979 53.3446 317.191 54.4696 316.645C55.6032 316.1 56.8603 315.827 58.241 315.827C59.741 315.827 61.0449 316.125 62.1529 316.722C63.2694 317.318 64.1302 318.137 64.7353 319.176C65.3489 320.216 65.6557 321.401 65.6557 322.73C65.6557 323.668 65.5108 324.516 65.2211 325.274C64.9398 326.033 64.5307 326.71 63.9938 327.307C63.4654 327.904 62.8262 328.432 62.0762 328.892C61.3262 329.361 60.7253 329.855 60.2736 330.375C59.8219 330.887 59.4938 331.496 59.2893 332.203C59.0847 332.911 58.9739 333.793 58.9569 334.85V335.003H55.8887ZM57.525 342.571C56.8944 342.571 56.3532 342.345 55.9015 341.894C55.4498 341.442 55.2239 340.901 55.2239 340.27C55.2239 339.639 55.4498 339.098 55.9015 338.647C56.3532 338.195 56.8944 337.969 57.525 337.969C58.1557 337.969 58.6969 338.195 59.1486 338.647C59.6003 339.098 59.8262 339.639 59.8262 340.27C59.8262 340.688 59.7196 341.071 59.5066 341.421C59.302 341.77 59.025 342.051 58.6756 342.264C58.3347 342.469 57.9512 342.571 57.525 342.571Z" fill="white" fill-opacity="0.39"/>
<circle cx="55.1569" cy="266.783" r="19.5966" stroke="white" stroke-opacity="0.39"/>
<path d="M244.861 114.237L254.456 121.881L264.051 129.524L253.301 129.352L247.806 138.594L246.334 126.416L244.861 114.237Z" fill="black"/>
<path d="M245.485 113.455L243.576 111.935L243.869 114.358L245.341 126.536L246.814 138.714L247.166 141.628L248.666 139.105L253.864 130.361L264.035 130.524L266.97 130.571L264.674 128.742L255.079 121.099L245.485 113.455Z" stroke="#AF30BB" stroke-opacity="0.51" stroke-width="2"/>
<defs>
<filter id="filter0_b_115_66" x="-9.21747" y="-9.60657" width="300.044" height="397.451" filterUnits="userSpaceOnUse" color-interpolation-filters="sRGB">
<feFlood flood-opacity="0" result="BackgroundImageFix"/>
<feGaussianBlur in="BackgroundImageFix" stdDeviation="5"/>
<feComposite in2="SourceAlpha" operator="in" result="effect1_backgroundBlur_115_66"/>
<feBlend mode="normal" in="SourceGraphic" in2="effect1_backgroundBlur_115_66" result="shape"/>
</filter>
</defs>
</svg>
