<svg width="119" height="249" viewBox="0 0 119 249" fill="none" xmlns="http://www.w3.org/2000/svg">
<path d="M0.55957 235.857V12.973C0.55957 5.81551 5.5542 0.0131836 11.7154 0.0131836H107.096C113.257 0.0131836 118.252 5.81553 118.252 12.9731V235.857C118.252 243.015 113.257 248.817 107.096 248.817H11.7154C5.5542 248.817 0.55957 243.015 0.55957 235.857Z" fill="white" fill-opacity="0.6"/>
<path d="M1.05957 235.857V12.973C1.05957 6.01869 5.89805 0.513184 11.7154 0.513184H107.096C112.913 0.513184 117.752 6.01871 117.752 12.9731V235.857C117.752 242.812 112.913 248.317 107.096 248.317H11.7154C5.89805 248.317 1.05957 242.812 1.05957 235.857Z" stroke="white" stroke-opacity="0.4"/>
<path d="M14.5439 224.673V71.7155C14.5439 70.3307 15.6666 69.208 17.0514 69.208H104.814C106.199 69.208 107.321 70.3307 107.321 71.7155V224.673C107.321 226.058 106.199 227.18 104.814 227.18H17.0514C15.6666 227.18 14.5439 226.058 14.5439 224.673Z" fill="white" fill-opacity="0.4"/>
<path d="M14.5439 55.6663V25.5763C14.5439 24.1915 15.6666 23.0688 17.0514 23.0688H104.814C106.199 23.0688 107.321 24.1915 107.321 25.5763V55.6663C107.321 57.0512 106.199 58.1738 104.814 58.1738H17.0514C15.6666 58.1738 14.5439 57.0512 14.5439 55.6663Z" fill="white" fill-opacity="0.4"/>
<g filter="url(#filter0_ii_103:24396)">
<path d="M23.5449 84.1403C23.5449 82.7555 24.6676 81.6328 26.0524 81.6328H37.7541C39.1389 81.6328 40.2616 82.7555 40.2616 84.1403V95.842C40.2616 97.2268 39.1389 98.3495 37.7541 98.3495H26.0524C24.6676 98.3495 23.5449 97.2268 23.5449 95.842V84.1403Z" fill="#31AAEF"/>
</g>
<g filter="url(#filter1_ii_103:24396)">
<path d="M23.3357 110.206C23.3357 108.821 24.4583 107.699 25.8432 107.699H37.5449C38.9297 107.699 40.0524 108.821 40.0524 110.206V121.908C40.0524 123.293 38.9297 124.415 37.5449 124.415H25.8432C24.4583 124.415 23.3357 123.293 23.3357 121.908V110.206Z" fill="#31AAEF"/>
</g>
<g filter="url(#filter2_ii_103:24396)">
<path d="M23.1272 136.272C23.1272 134.887 24.2498 133.764 25.6347 133.764H37.3364C38.7212 133.764 39.8439 134.887 39.8439 136.272V147.973C39.8439 149.358 38.7212 150.481 37.3364 150.481H25.6347C24.2498 150.481 23.1272 149.358 23.1272 147.973V136.272Z" fill="#31AAEF"/>
</g>
<g filter="url(#filter3_ii_103:24396)">
<path d="M51.0471 84.0148C51.0471 82.63 52.1698 81.5073 53.5546 81.5073H65.2563C66.6411 81.5073 67.7638 82.63 67.7638 84.0148V95.7165C67.7638 97.1013 66.6411 98.224 65.2563 98.224H53.5546C52.1698 98.224 51.0471 97.1013 51.0471 95.7165V84.0148Z" fill="#31AAEF"/>
</g>
<g filter="url(#filter4_ii_103:24396)">
<path d="M78.5496 84.1403C78.5496 82.7555 79.6722 81.6328 81.0571 81.6328H92.7587C94.1436 81.6328 95.2662 82.7555 95.2662 84.1403V95.842C95.2662 97.2268 94.1436 98.3495 92.7587 98.3495H81.0571C79.6722 98.3495 78.5496 97.2268 78.5496 95.842V84.1403Z" fill="#31AAEF"/>
</g>
<g filter="url(#filter5_ii_103:24396)">
<path d="M51.0471 110.206C51.0471 108.821 52.1698 107.699 53.5546 107.699H65.2563C66.6411 107.699 67.7638 108.821 67.7638 110.206V121.908C67.7638 123.293 66.6411 124.415 65.2563 124.415H53.5546C52.1698 124.415 51.0471 123.293 51.0471 121.908V110.206Z" fill="#31AAEF"/>
</g>
<g filter="url(#filter6_ii_103:24396)">
<path d="M51.0471 136.272C51.0471 134.887 52.1698 133.764 53.5546 133.764H65.2563C66.6411 133.764 67.7638 134.887 67.7638 136.272V147.973C67.7638 149.358 66.6411 150.481 65.2563 150.481H53.5546C52.1698 150.481 51.0471 149.358 51.0471 147.973V136.272Z" fill="#31AAEF"/>
</g>
<g filter="url(#filter7_ii_103:24396)">
<path d="M78.7585 110.206C78.7585 108.821 79.8812 107.699 81.266 107.699H92.9677C94.3526 107.699 95.4752 108.821 95.4752 110.206V121.908C95.4752 123.293 94.3526 124.415 92.9677 124.415H81.266C79.8812 124.415 78.7585 123.293 78.7585 121.908V110.206Z" fill="#31AAEF"/>
</g>
<g filter="url(#filter8_ii_103:24396)">
<path d="M78.9673 136.272C78.9673 134.887 80.0899 133.764 81.4748 133.764H93.1765C94.5613 133.764 95.684 134.887 95.684 136.272V147.973C95.684 149.358 94.5613 150.481 93.1765 150.481H81.4748C80.0899 150.481 78.9673 149.358 78.9673 147.973V136.272Z" fill="#31AAEF"/>
</g>
<g filter="url(#filter9_ii_103:24396)">
<path d="M23.5449 168.259C23.5449 166.874 24.6676 165.751 26.0524 165.751H93.337C94.7219 165.751 95.8445 166.874 95.8445 168.259V205.454C95.8445 206.838 94.7219 207.961 93.337 207.961H26.0524C24.6676 207.961 23.5449 206.838 23.5449 205.454V168.259Z" fill="#31AAEF"/>
</g>
<g filter="url(#filter10_dii_103:24396)">
<path d="M51.0471 194.912V178.693C51.0471 176.779 53.1046 175.571 54.7759 176.503L68.9504 184.408C70.644 185.352 70.6704 187.78 68.9977 188.761L54.8232 197.074C53.1516 198.055 51.0471 196.849 51.0471 194.912Z" fill="url(#paint0_linear_103:24396)"/>
</g>
<defs>
<filter id="filter0_ii_103:24396" x="23.5449" y="81.1328" width="16.7166" height="17.2168" filterUnits="userSpaceOnUse" color-interpolation-filters="sRGB">
<feFlood flood-opacity="0" result="BackgroundImageFix"/>
<feBlend mode="normal" in="SourceGraphic" in2="BackgroundImageFix" result="shape"/>
<feColorMatrix in="SourceAlpha" type="matrix" values="0 0 0 0 0 0 0 0 0 0 0 0 0 0 0 0 0 0 127 0" result="hardAlpha"/>
<feOffset/>
<feGaussianBlur stdDeviation="0.5"/>
<feComposite in2="hardAlpha" operator="arithmetic" k2="-1" k3="1"/>
<feColorMatrix type="matrix" values="0 0 0 0 1 0 0 0 0 1 0 0 0 0 1 0 0 0 0.25 0"/>
<feBlend mode="overlay" in2="shape" result="effect1_innerShadow_103:24396"/>
<feColorMatrix in="SourceAlpha" type="matrix" values="0 0 0 0 0 0 0 0 0 0 0 0 0 0 0 0 0 0 127 0" result="hardAlpha"/>
<feOffset dy="-0.5"/>
<feGaussianBlur stdDeviation="0.25"/>
<feComposite in2="hardAlpha" operator="arithmetic" k2="-1" k3="1"/>
<feColorMatrix type="matrix" values="0 0 0 0 0 0 0 0 0 0 0 0 0 0 0 0 0 0 0.15 0"/>
<feBlend mode="normal" in2="effect1_innerShadow_103:24396" result="effect2_innerShadow_103:24396"/>
</filter>
<filter id="filter1_ii_103:24396" x="23.3357" y="107.199" width="16.7166" height="17.2168" filterUnits="userSpaceOnUse" color-interpolation-filters="sRGB">
<feFlood flood-opacity="0" result="BackgroundImageFix"/>
<feBlend mode="normal" in="SourceGraphic" in2="BackgroundImageFix" result="shape"/>
<feColorMatrix in="SourceAlpha" type="matrix" values="0 0 0 0 0 0 0 0 0 0 0 0 0 0 0 0 0 0 127 0" result="hardAlpha"/>
<feOffset/>
<feGaussianBlur stdDeviation="0.5"/>
<feComposite in2="hardAlpha" operator="arithmetic" k2="-1" k3="1"/>
<feColorMatrix type="matrix" values="0 0 0 0 1 0 0 0 0 1 0 0 0 0 1 0 0 0 0.25 0"/>
<feBlend mode="overlay" in2="shape" result="effect1_innerShadow_103:24396"/>
<feColorMatrix in="SourceAlpha" type="matrix" values="0 0 0 0 0 0 0 0 0 0 0 0 0 0 0 0 0 0 127 0" result="hardAlpha"/>
<feOffset dy="-0.5"/>
<feGaussianBlur stdDeviation="0.25"/>
<feComposite in2="hardAlpha" operator="arithmetic" k2="-1" k3="1"/>
<feColorMatrix type="matrix" values="0 0 0 0 0 0 0 0 0 0 0 0 0 0 0 0 0 0 0.15 0"/>
<feBlend mode="normal" in2="effect1_innerShadow_103:24396" result="effect2_innerShadow_103:24396"/>
</filter>
<filter id="filter2_ii_103:24396" x="23.1272" y="133.264" width="16.7166" height="17.2168" filterUnits="userSpaceOnUse" color-interpolation-filters="sRGB">
<feFlood flood-opacity="0" result="BackgroundImageFix"/>
<feBlend mode="normal" in="SourceGraphic" in2="BackgroundImageFix" result="shape"/>
<feColorMatrix in="SourceAlpha" type="matrix" values="0 0 0 0 0 0 0 0 0 0 0 0 0 0 0 0 0 0 127 0" result="hardAlpha"/>
<feOffset/>
<feGaussianBlur stdDeviation="0.5"/>
<feComposite in2="hardAlpha" operator="arithmetic" k2="-1" k3="1"/>
<feColorMatrix type="matrix" values="0 0 0 0 1 0 0 0 0 1 0 0 0 0 1 0 0 0 0.25 0"/>
<feBlend mode="overlay" in2="shape" result="effect1_innerShadow_103:24396"/>
<feColorMatrix in="SourceAlpha" type="matrix" values="0 0 0 0 0 0 0 0 0 0 0 0 0 0 0 0 0 0 127 0" result="hardAlpha"/>
<feOffset dy="-0.5"/>
<feGaussianBlur stdDeviation="0.25"/>
<feComposite in2="hardAlpha" operator="arithmetic" k2="-1" k3="1"/>
<feColorMatrix type="matrix" values="0 0 0 0 0 0 0 0 0 0 0 0 0 0 0 0 0 0 0.15 0"/>
<feBlend mode="normal" in2="effect1_innerShadow_103:24396" result="effect2_innerShadow_103:24396"/>
</filter>
<filter id="filter3_ii_103:24396" x="51.0471" y="81.0073" width="16.7166" height="17.2168" filterUnits="userSpaceOnUse" color-interpolation-filters="sRGB">
<feFlood flood-opacity="0" result="BackgroundImageFix"/>
<feBlend mode="normal" in="SourceGraphic" in2="BackgroundImageFix" result="shape"/>
<feColorMatrix in="SourceAlpha" type="matrix" values="0 0 0 0 0 0 0 0 0 0 0 0 0 0 0 0 0 0 127 0" result="hardAlpha"/>
<feOffset/>
<feGaussianBlur stdDeviation="0.5"/>
<feComposite in2="hardAlpha" operator="arithmetic" k2="-1" k3="1"/>
<feColorMatrix type="matrix" values="0 0 0 0 1 0 0 0 0 1 0 0 0 0 1 0 0 0 0.25 0"/>
<feBlend mode="overlay" in2="shape" result="effect1_innerShadow_103:24396"/>
<feColorMatrix in="SourceAlpha" type="matrix" values="0 0 0 0 0 0 0 0 0 0 0 0 0 0 0 0 0 0 127 0" result="hardAlpha"/>
<feOffset dy="-0.5"/>
<feGaussianBlur stdDeviation="0.25"/>
<feComposite in2="hardAlpha" operator="arithmetic" k2="-1" k3="1"/>
<feColorMatrix type="matrix" values="0 0 0 0 0 0 0 0 0 0 0 0 0 0 0 0 0 0 0.15 0"/>
<feBlend mode="normal" in2="effect1_innerShadow_103:24396" result="effect2_innerShadow_103:24396"/>
</filter>
<filter id="filter4_ii_103:24396" x="78.5496" y="81.1328" width="16.7166" height="17.2168" filterUnits="userSpaceOnUse" color-interpolation-filters="sRGB">
<feFlood flood-opacity="0" result="BackgroundImageFix"/>
<feBlend mode="normal" in="SourceGraphic" in2="BackgroundImageFix" result="shape"/>
<feColorMatrix in="SourceAlpha" type="matrix" values="0 0 0 0 0 0 0 0 0 0 0 0 0 0 0 0 0 0 127 0" result="hardAlpha"/>
<feOffset/>
<feGaussianBlur stdDeviation="0.5"/>
<feComposite in2="hardAlpha" operator="arithmetic" k2="-1" k3="1"/>
<feColorMatrix type="matrix" values="0 0 0 0 1 0 0 0 0 1 0 0 0 0 1 0 0 0 0.25 0"/>
<feBlend mode="overlay" in2="shape" result="effect1_innerShadow_103:24396"/>
<feColorMatrix in="SourceAlpha" type="matrix" values="0 0 0 0 0 0 0 0 0 0 0 0 0 0 0 0 0 0 127 0" result="hardAlpha"/>
<feOffset dy="-0.5"/>
<feGaussianBlur stdDeviation="0.25"/>
<feComposite in2="hardAlpha" operator="arithmetic" k2="-1" k3="1"/>
<feColorMatrix type="matrix" values="0 0 0 0 0 0 0 0 0 0 0 0 0 0 0 0 0 0 0.15 0"/>
<feBlend mode="normal" in2="effect1_innerShadow_103:24396" result="effect2_innerShadow_103:24396"/>
</filter>
<filter id="filter5_ii_103:24396" x="51.0471" y="107.199" width="16.7166" height="17.2168" filterUnits="userSpaceOnUse" color-interpolation-filters="sRGB">
<feFlood flood-opacity="0" result="BackgroundImageFix"/>
<feBlend mode="normal" in="SourceGraphic" in2="BackgroundImageFix" result="shape"/>
<feColorMatrix in="SourceAlpha" type="matrix" values="0 0 0 0 0 0 0 0 0 0 0 0 0 0 0 0 0 0 127 0" result="hardAlpha"/>
<feOffset/>
<feGaussianBlur stdDeviation="0.5"/>
<feComposite in2="hardAlpha" operator="arithmetic" k2="-1" k3="1"/>
<feColorMatrix type="matrix" values="0 0 0 0 1 0 0 0 0 1 0 0 0 0 1 0 0 0 0.25 0"/>
<feBlend mode="overlay" in2="shape" result="effect1_innerShadow_103:24396"/>
<feColorMatrix in="SourceAlpha" type="matrix" values="0 0 0 0 0 0 0 0 0 0 0 0 0 0 0 0 0 0 127 0" result="hardAlpha"/>
<feOffset dy="-0.5"/>
<feGaussianBlur stdDeviation="0.25"/>
<feComposite in2="hardAlpha" operator="arithmetic" k2="-1" k3="1"/>
<feColorMatrix type="matrix" values="0 0 0 0 0 0 0 0 0 0 0 0 0 0 0 0 0 0 0.15 0"/>
<feBlend mode="normal" in2="effect1_innerShadow_103:24396" result="effect2_innerShadow_103:24396"/>
</filter>
<filter id="filter6_ii_103:24396" x="51.0471" y="133.264" width="16.7166" height="17.2168" filterUnits="userSpaceOnUse" color-interpolation-filters="sRGB">
<feFlood flood-opacity="0" result="BackgroundImageFix"/>
<feBlend mode="normal" in="SourceGraphic" in2="BackgroundImageFix" result="shape"/>
<feColorMatrix in="SourceAlpha" type="matrix" values="0 0 0 0 0 0 0 0 0 0 0 0 0 0 0 0 0 0 127 0" result="hardAlpha"/>
<feOffset/>
<feGaussianBlur stdDeviation="0.5"/>
<feComposite in2="hardAlpha" operator="arithmetic" k2="-1" k3="1"/>
<feColorMatrix type="matrix" values="0 0 0 0 1 0 0 0 0 1 0 0 0 0 1 0 0 0 0.25 0"/>
<feBlend mode="overlay" in2="shape" result="effect1_innerShadow_103:24396"/>
<feColorMatrix in="SourceAlpha" type="matrix" values="0 0 0 0 0 0 0 0 0 0 0 0 0 0 0 0 0 0 127 0" result="hardAlpha"/>
<feOffset dy="-0.5"/>
<feGaussianBlur stdDeviation="0.25"/>
<feComposite in2="hardAlpha" operator="arithmetic" k2="-1" k3="1"/>
<feColorMatrix type="matrix" values="0 0 0 0 0 0 0 0 0 0 0 0 0 0 0 0 0 0 0.15 0"/>
<feBlend mode="normal" in2="effect1_innerShadow_103:24396" result="effect2_innerShadow_103:24396"/>
</filter>
<filter id="filter7_ii_103:24396" x="78.7585" y="107.199" width="16.7166" height="17.2168" filterUnits="userSpaceOnUse" color-interpolation-filters="sRGB">
<feFlood flood-opacity="0" result="BackgroundImageFix"/>
<feBlend mode="normal" in="SourceGraphic" in2="BackgroundImageFix" result="shape"/>
<feColorMatrix in="SourceAlpha" type="matrix" values="0 0 0 0 0 0 0 0 0 0 0 0 0 0 0 0 0 0 127 0" result="hardAlpha"/>
<feOffset/>
<feGaussianBlur stdDeviation="0.5"/>
<feComposite in2="hardAlpha" operator="arithmetic" k2="-1" k3="1"/>
<feColorMatrix type="matrix" values="0 0 0 0 1 0 0 0 0 1 0 0 0 0 1 0 0 0 0.25 0"/>
<feBlend mode="overlay" in2="shape" result="effect1_innerShadow_103:24396"/>
<feColorMatrix in="SourceAlpha" type="matrix" values="0 0 0 0 0 0 0 0 0 0 0 0 0 0 0 0 0 0 127 0" result="hardAlpha"/>
<feOffset dy="-0.5"/>
<feGaussianBlur stdDeviation="0.25"/>
<feComposite in2="hardAlpha" operator="arithmetic" k2="-1" k3="1"/>
<feColorMatrix type="matrix" values="0 0 0 0 0 0 0 0 0 0 0 0 0 0 0 0 0 0 0.15 0"/>
<feBlend mode="normal" in2="effect1_innerShadow_103:24396" result="effect2_innerShadow_103:24396"/>
</filter>
<filter id="filter8_ii_103:24396" x="78.9673" y="133.264" width="16.7166" height="17.2168" filterUnits="userSpaceOnUse" color-interpolation-filters="sRGB">
<feFlood flood-opacity="0" result="BackgroundImageFix"/>
<feBlend mode="normal" in="SourceGraphic" in2="BackgroundImageFix" result="shape"/>
<feColorMatrix in="SourceAlpha" type="matrix" values="0 0 0 0 0 0 0 0 0 0 0 0 0 0 0 0 0 0 127 0" result="hardAlpha"/>
<feOffset/>
<feGaussianBlur stdDeviation="0.5"/>
<feComposite in2="hardAlpha" operator="arithmetic" k2="-1" k3="1"/>
<feColorMatrix type="matrix" values="0 0 0 0 1 0 0 0 0 1 0 0 0 0 1 0 0 0 0.25 0"/>
<feBlend mode="overlay" in2="shape" result="effect1_innerShadow_103:24396"/>
<feColorMatrix in="SourceAlpha" type="matrix" values="0 0 0 0 0 0 0 0 0 0 0 0 0 0 0 0 0 0 127 0" result="hardAlpha"/>
<feOffset dy="-0.5"/>
<feGaussianBlur stdDeviation="0.25"/>
<feComposite in2="hardAlpha" operator="arithmetic" k2="-1" k3="1"/>
<feColorMatrix type="matrix" values="0 0 0 0 0 0 0 0 0 0 0 0 0 0 0 0 0 0 0.15 0"/>
<feBlend mode="normal" in2="effect1_innerShadow_103:24396" result="effect2_innerShadow_103:24396"/>
</filter>
<filter id="filter9_ii_103:24396" x="23.5449" y="165.251" width="72.2996" height="42.7095" filterUnits="userSpaceOnUse" color-interpolation-filters="sRGB">
<feFlood flood-opacity="0" result="BackgroundImageFix"/>
<feBlend mode="normal" in="SourceGraphic" in2="BackgroundImageFix" result="shape"/>
<feColorMatrix in="SourceAlpha" type="matrix" values="0 0 0 0 0 0 0 0 0 0 0 0 0 0 0 0 0 0 127 0" result="hardAlpha"/>
<feOffset/>
<feGaussianBlur stdDeviation="0.5"/>
<feComposite in2="hardAlpha" operator="arithmetic" k2="-1" k3="1"/>
<feColorMatrix type="matrix" values="0 0 0 0 1 0 0 0 0 1 0 0 0 0 1 0 0 0 0.25 0"/>
<feBlend mode="overlay" in2="shape" result="effect1_innerShadow_103:24396"/>
<feColorMatrix in="SourceAlpha" type="matrix" values="0 0 0 0 0 0 0 0 0 0 0 0 0 0 0 0 0 0 127 0" result="hardAlpha"/>
<feOffset dy="-0.5"/>
<feGaussianBlur stdDeviation="0.25"/>
<feComposite in2="hardAlpha" operator="arithmetic" k2="-1" k3="1"/>
<feColorMatrix type="matrix" values="0 0 0 0 0 0 0 0 0 0 0 0 0 0 0 0 0 0 0.15 0"/>
<feBlend mode="normal" in2="effect1_innerShadow_103:24396" result="effect2_innerShadow_103:24396"/>
</filter>
<filter id="filter10_dii_103:24396" x="47.0471" y="173.182" width="27.1895" height="29.2412" filterUnits="userSpaceOnUse" color-interpolation-filters="sRGB">
<feFlood flood-opacity="0" result="BackgroundImageFix"/>
<feColorMatrix in="SourceAlpha" type="matrix" values="0 0 0 0 0 0 0 0 0 0 0 0 0 0 0 0 0 0 127 0" result="hardAlpha"/>
<feOffset dy="1"/>
<feGaussianBlur stdDeviation="2"/>
<feComposite in2="hardAlpha" operator="out"/>
<feColorMatrix type="matrix" values="0 0 0 0 0 0 0 0 0 0 0 0 0 0 0 0 0 0 0.1 0"/>
<feBlend mode="normal" in2="BackgroundImageFix" result="effect1_dropShadow_103:24396"/>
<feBlend mode="normal" in="SourceGraphic" in2="effect1_dropShadow_103:24396" result="shape"/>
<feColorMatrix in="SourceAlpha" type="matrix" values="0 0 0 0 0 0 0 0 0 0 0 0 0 0 0 0 0 0 127 0" result="hardAlpha"/>
<feOffset dy="-0.5"/>
<feGaussianBlur stdDeviation="0.25"/>
<feComposite in2="hardAlpha" operator="arithmetic" k2="-1" k3="1"/>
<feColorMatrix type="matrix" values="0 0 0 0 0 0 0 0 0 0 0 0 0 0 0 0 0 0 0.2 0"/>
<feBlend mode="normal" in2="shape" result="effect2_innerShadow_103:24396"/>
<feColorMatrix in="SourceAlpha" type="matrix" values="0 0 0 0 0 0 0 0 0 0 0 0 0 0 0 0 0 0 127 0" result="hardAlpha"/>
<feOffset dy="0.3"/>
<feComposite in2="hardAlpha" operator="arithmetic" k2="-1" k3="1"/>
<feColorMatrix type="matrix" values="0 0 0 0 1 0 0 0 0 1 0 0 0 0 1 0 0 0 1 0"/>
<feBlend mode="normal" in2="effect2_innerShadow_103:24396" result="effect3_innerShadow_103:24396"/>
</filter>
<linearGradient id="paint0_linear_103:24396" x1="60.6418" y1="176.182" x2="60.6418" y2="197.423" gradientUnits="userSpaceOnUse">
<stop stop-color="#F5EFFB"/>
<stop offset="1" stop-color="#F1EDF7"/>
</linearGradient>
</defs>
</svg>
