<svg width="271" height="206" viewBox="0 0 271 206" fill="none" xmlns="http://www.w3.org/2000/svg">
<path d="M-0.000732422 13.3456V193.05C-0.000732422 199.974 5.6125 205.587 12.5368 205.587H258.272C265.196 205.587 270.809 199.974 270.809 193.05V13.3456C270.809 6.42134 265.196 0.808105 258.272 0.808105H12.5368C5.6125 0.808105 -0.000732422 6.42134 -0.000732422 13.3456Z" fill="white" fill-opacity="0.6"/>
<path d="M0.499268 193.05V13.3456C0.499268 6.69748 5.88864 1.30811 12.5368 1.30811H258.272C264.92 1.30811 270.309 6.69748 270.309 13.3456V193.05C270.309 199.698 264.92 205.087 258.272 205.087H12.5368C5.88864 205.087 0.499268 199.698 0.499268 193.05Z" stroke="white" stroke-opacity="0.4"/>
<path d="M55.4625 47.0161H17.5375C15.5631 47.0161 14 45.4696 14 43.5161C14 41.5626 15.5631 40.0161 17.5375 40.0161H55.4625C57.4369 40.0161 59 41.5626 59 43.5161C59 45.4696 57.4369 47.0161 55.4625 47.0161Z" fill="white" fill-opacity="0.6"/>
<path d="M55.4625 142.016H17.5375C15.5631 142.016 14 140.47 14 138.516C14 136.563 15.5631 135.016 17.5375 135.016H55.4625C57.4369 135.016 59 136.563 59 138.516C59 140.47 57.4369 142.016 55.4625 142.016Z" fill="white" fill-opacity="0.6"/>
<path d="M92.4186 64.0161H17.5814C15.5825 64.0161 14 62.4696 14 60.5161C14 58.5626 15.5825 57.0161 17.5814 57.0161H92.4186C94.4175 57.0161 96 58.5626 96 60.5161C96 62.4696 94.3342 64.0161 92.4186 64.0161Z" fill="white" fill-opacity="0.6"/>
<path d="M92.4186 159.016H17.5814C15.5825 159.016 14 157.47 14 155.516C14 153.563 15.5825 152.016 17.5814 152.016H92.4186C94.4175 152.016 96 153.563 96 155.516C96 157.47 94.3342 159.016 92.4186 159.016Z" fill="white" fill-opacity="0.6"/>
<path d="M92.4186 81.0161H17.5814C15.5825 81.0161 14 79.4696 14 77.5161C14 75.5626 15.5825 74.0161 17.5814 74.0161H92.4186C94.4175 74.0161 96 75.5626 96 77.5161C96 79.4696 94.3342 81.0161 92.4186 81.0161Z" fill="white" fill-opacity="0.6"/>
<path d="M92.4186 176.016H17.5814C15.5825 176.016 14 174.47 14 172.516C14 170.563 15.5825 169.016 17.5814 169.016H92.4186C94.4175 169.016 96 170.563 96 172.516C96 174.47 94.3342 176.016 92.4186 176.016Z" fill="white" fill-opacity="0.6"/>
<path d="M92.4186 98.0161H17.5814C15.5825 98.0161 14 96.4696 14 94.5161C14 92.5626 15.5825 91.0161 17.5814 91.0161H92.4186C94.4175 91.0161 96 92.5626 96 94.5161C96 96.4696 94.3342 98.0161 92.4186 98.0161Z" fill="white" fill-opacity="0.6"/>
<path d="M55.4625 115.016H17.5375C15.5631 115.016 14 113.47 14 111.516C14 109.563 15.5631 108.016 17.5375 108.016H55.4625C57.4369 108.016 59 109.563 59 111.516C59 113.47 57.4369 115.016 55.4625 115.016Z" fill="white" fill-opacity="0.6"/>
<path d="M249.589 171.967H114.641C112.227 171.967 110.312 170.053 110.312 167.638V44.3451C110.312 41.9309 112.227 40.0161 114.641 40.0161H249.589C252.004 40.0161 253.918 41.9309 253.918 44.3451V167.638C253.918 170.053 252.004 171.967 249.589 171.967Z" fill="white" fill-opacity="0.6"/>
<g filter="url(#filter0_ii_103:24355)">
<path fillRule="evenodd" clipRule="evenodd" d="M161.818 119.323C165.04 119.323 167.998 118.194 170.318 116.311C173.369 113.836 175.318 110.057 175.318 105.823C175.318 98.3669 169.274 92.3228 161.818 92.3228C154.363 92.3228 148.318 98.3669 148.318 105.823C148.318 113.279 154.363 119.323 161.818 119.323ZM161.818 129.323C166.843 129.323 171.498 127.746 175.318 125.061C181.366 120.809 185.318 113.777 185.318 105.823C185.318 92.8441 174.797 82.3228 161.818 82.3228C148.84 82.3228 138.318 92.8441 138.318 105.823C138.318 118.801 148.84 129.323 161.818 129.323Z" fill="#31AAEF"/>
</g>
<g filter="url(#filter1_ii_103:24355)">
<path d="M175.318 105.823C175.318 98.3669 169.274 92.3228 161.818 92.3228V82.3228C174.797 82.3228 185.318 92.8441 185.318 105.823C185.318 113.777 181.366 120.809 175.318 125.061L170.318 116.311C173.369 113.836 175.318 110.057 175.318 105.823Z" fill="url(#paint0_linear_103:24355)"/>
</g>
<g filter="url(#filter2_ii_103:24355)">
<path d="M193.318 83.3228C193.318 80.5613 195.557 78.3228 198.318 78.3228H220.318C223.08 78.3228 225.318 80.5613 225.318 83.3228V128.323C225.318 131.084 223.08 133.323 220.318 133.323H198.318C195.557 133.323 193.318 131.084 193.318 128.323V83.3228Z" fill="#31AAEF"/>
</g>
<g filter="url(#filter3_ii_103:24355)">
<path fillRule="evenodd" clipRule="evenodd" d="M198.818 87.3228C198.818 86.7705 199.266 86.3228 199.818 86.3228H218.318C218.871 86.3228 219.318 86.7705 219.318 87.3228C219.318 87.875 218.871 88.3228 218.318 88.3228H199.818C199.266 88.3228 198.818 87.875 198.818 87.3228ZM198.818 93.3228C198.818 92.7705 199.266 92.3228 199.818 92.3228H218.318C218.871 92.3228 219.318 92.7705 219.318 93.3228C219.318 93.875 218.871 94.3228 218.318 94.3228H199.818C199.266 94.3228 198.818 93.875 198.818 93.3228ZM198.818 99.3228C198.818 98.7705 199.266 98.3228 199.818 98.3228H218.318C218.871 98.3228 219.318 98.7705 219.318 99.3228C219.318 99.875 218.871 100.323 218.318 100.323H199.818C199.266 100.323 198.818 99.875 198.818 99.3228ZM198.818 104.823C198.818 104.27 199.266 103.823 199.818 103.823H218.318C218.871 103.823 219.318 104.27 219.318 104.823C219.318 105.375 218.871 105.823 218.318 105.823H199.818C199.266 105.823 198.818 105.375 198.818 104.823ZM198.818 110.823C198.818 110.27 199.266 109.823 199.818 109.823H218.318C218.871 109.823 219.318 110.27 219.318 110.823C219.318 111.375 218.871 111.823 218.318 111.823H199.818C199.266 111.823 198.818 111.375 198.818 110.823ZM198.818 117.323C198.818 116.77 199.266 116.323 199.818 116.323H218.318C218.871 116.323 219.318 116.77 219.318 117.323C219.318 117.875 218.871 118.323 218.318 118.323H199.818C199.266 118.323 198.818 117.875 198.818 117.323ZM198.818 123.823C198.818 123.27 199.266 122.823 199.818 122.823H218.318C218.871 122.823 219.318 123.27 219.318 123.823C219.318 124.375 218.871 124.823 218.318 124.823H199.818C199.266 124.823 198.818 124.375 198.818 123.823Z" fill="url(#paint1_linear_103:24355)"/>
</g>
<g filter="url(#filter4_i_103:24355)">
<path d="M258.272 0.808105H12.5368C5.6125 0.808105 -0.000732422 6.42133 -0.000732422 13.3456V23.4425H270.809V13.3456C270.809 6.42133 265.196 0.808105 258.272 0.808105Z" fill="#37295C"/>
</g>
<circle cx="18.5965" cy="12.8621" r="5.43292" fill="url(#paint2_linear_103:24355)"/>
<circle cx="41.1644" cy="12.8621" r="5.43292" fill="url(#paint3_linear_103:24355)"/>
<circle cx="63.7313" cy="12.8621" r="5.43292" fill="url(#paint4_linear_103:24355)"/>
<defs>
<filter id="filter0_ii_103:24355" x="138.318" y="81.3228" width="47" height="48" filterUnits="userSpaceOnUse" color-interpolation-filters="sRGB">
<feFlood flood-opacity="0" result="BackgroundImageFix"/>
<feBlend mode="normal" in="SourceGraphic" in2="BackgroundImageFix" result="shape"/>
<feColorMatrix in="SourceAlpha" type="matrix" values="0 0 0 0 0 0 0 0 0 0 0 0 0 0 0 0 0 0 127 0" result="hardAlpha"/>
<feOffset/>
<feGaussianBlur stdDeviation="0.5"/>
<feComposite in2="hardAlpha" operator="arithmetic" k2="-1" k3="1"/>
<feColorMatrix type="matrix" values="0 0 0 0 1 0 0 0 0 1 0 0 0 0 1 0 0 0 0.25 0"/>
<feBlend mode="overlay" in2="shape" result="effect1_innerShadow_103:24355"/>
<feColorMatrix in="SourceAlpha" type="matrix" values="0 0 0 0 0 0 0 0 0 0 0 0 0 0 0 0 0 0 127 0" result="hardAlpha"/>
<feOffset dy="-1"/>
<feGaussianBlur stdDeviation="0.5"/>
<feComposite in2="hardAlpha" operator="arithmetic" k2="-1" k3="1"/>
<feColorMatrix type="matrix" values="0 0 0 0 0 0 0 0 0 0 0 0 0 0 0 0 0 0 0.15 0"/>
<feBlend mode="normal" in2="effect1_innerShadow_103:24355" result="effect2_innerShadow_103:24355"/>
</filter>
<filter id="filter1_ii_103:24355" x="161.818" y="81.8228" width="23.5" height="43.2378" filterUnits="userSpaceOnUse" color-interpolation-filters="sRGB">
<feFlood flood-opacity="0" result="BackgroundImageFix"/>
<feBlend mode="normal" in="SourceGraphic" in2="BackgroundImageFix" result="shape"/>
<feColorMatrix in="SourceAlpha" type="matrix" values="0 0 0 0 0 0 0 0 0 0 0 0 0 0 0 0 0 0 127 0" result="hardAlpha"/>
<feOffset dy="-0.5"/>
<feGaussianBlur stdDeviation="0.25"/>
<feComposite in2="hardAlpha" operator="arithmetic" k2="-1" k3="1"/>
<feColorMatrix type="matrix" values="0 0 0 0 0 0 0 0 0 0 0 0 0 0 0 0 0 0 0.2 0"/>
<feBlend mode="normal" in2="shape" result="effect1_innerShadow_103:24355"/>
<feColorMatrix in="SourceAlpha" type="matrix" values="0 0 0 0 0 0 0 0 0 0 0 0 0 0 0 0 0 0 127 0" result="hardAlpha"/>
<feOffset dy="0.3"/>
<feComposite in2="hardAlpha" operator="arithmetic" k2="-1" k3="1"/>
<feColorMatrix type="matrix" values="0 0 0 0 1 0 0 0 0 1 0 0 0 0 1 0 0 0 1 0"/>
<feBlend mode="normal" in2="effect1_innerShadow_103:24355" result="effect2_innerShadow_103:24355"/>
</filter>
<filter id="filter2_ii_103:24355" x="193.318" y="77.3228" width="32" height="56" filterUnits="userSpaceOnUse" color-interpolation-filters="sRGB">
<feFlood flood-opacity="0" result="BackgroundImageFix"/>
<feBlend mode="normal" in="SourceGraphic" in2="BackgroundImageFix" result="shape"/>
<feColorMatrix in="SourceAlpha" type="matrix" values="0 0 0 0 0 0 0 0 0 0 0 0 0 0 0 0 0 0 127 0" result="hardAlpha"/>
<feOffset/>
<feGaussianBlur stdDeviation="0.5"/>
<feComposite in2="hardAlpha" operator="arithmetic" k2="-1" k3="1"/>
<feColorMatrix type="matrix" values="0 0 0 0 1 0 0 0 0 1 0 0 0 0 1 0 0 0 0.25 0"/>
<feBlend mode="overlay" in2="shape" result="effect1_innerShadow_103:24355"/>
<feColorMatrix in="SourceAlpha" type="matrix" values="0 0 0 0 0 0 0 0 0 0 0 0 0 0 0 0 0 0 127 0" result="hardAlpha"/>
<feOffset dy="-1"/>
<feGaussianBlur stdDeviation="0.5"/>
<feComposite in2="hardAlpha" operator="arithmetic" k2="-1" k3="1"/>
<feColorMatrix type="matrix" values="0 0 0 0 0 0 0 0 0 0 0 0 0 0 0 0 0 0 0.15 0"/>
<feBlend mode="normal" in2="effect1_innerShadow_103:24355" result="effect2_innerShadow_103:24355"/>
</filter>
<filter id="filter3_ii_103:24355" x="198.818" y="86.1228" width="20.5" height="38.7" filterUnits="userSpaceOnUse" color-interpolation-filters="sRGB">
<feFlood flood-opacity="0" result="BackgroundImageFix"/>
<feBlend mode="normal" in="SourceGraphic" in2="BackgroundImageFix" result="shape"/>
<feColorMatrix in="SourceAlpha" type="matrix" values="0 0 0 0 0 0 0 0 0 0 0 0 0 0 0 0 0 0 127 0" result="hardAlpha"/>
<feOffset dy="-0.2"/>
<feGaussianBlur stdDeviation="0.25"/>
<feComposite in2="hardAlpha" operator="arithmetic" k2="-1" k3="1"/>
<feColorMatrix type="matrix" values="0 0 0 0 0 0 0 0 0 0 0 0 0 0 0 0 0 0 0.2 0"/>
<feBlend mode="normal" in2="shape" result="effect1_innerShadow_103:24355"/>
<feColorMatrix in="SourceAlpha" type="matrix" values="0 0 0 0 0 0 0 0 0 0 0 0 0 0 0 0 0 0 127 0" result="hardAlpha"/>
<feOffset dy="0.2"/>
<feComposite in2="hardAlpha" operator="arithmetic" k2="-1" k3="1"/>
<feColorMatrix type="matrix" values="0 0 0 0 1 0 0 0 0 1 0 0 0 0 1 0 0 0 1 0"/>
<feBlend mode="normal" in2="effect1_innerShadow_103:24355" result="effect2_innerShadow_103:24355"/>
</filter>
<filter id="filter4_i_103:24355" x="-0.000732422" y="0.808105" width="270.81" height="22.6343" filterUnits="userSpaceOnUse" color-interpolation-filters="sRGB">
<feFlood flood-opacity="0" result="BackgroundImageFix"/>
<feBlend mode="normal" in="SourceGraphic" in2="BackgroundImageFix" result="shape"/>
<feColorMatrix in="SourceAlpha" type="matrix" values="0 0 0 0 0 0 0 0 0 0 0 0 0 0 0 0 0 0 127 0" result="hardAlpha"/>
<feOffset dy="1"/>
<feComposite in2="hardAlpha" operator="arithmetic" k2="-1" k3="1"/>
<feColorMatrix type="matrix" values="0 0 0 0 1 0 0 0 0 1 0 0 0 0 1 0 0 0 0.5 0"/>
<feBlend mode="overlay" in2="shape" result="effect1_innerShadow_103:24355"/>
</filter>
<linearGradient id="paint0_linear_103:24355" x1="173.568" y1="82.3228" x2="173.568" y2="125.061" gradientUnits="userSpaceOnUse">
<stop stop-color="#F5EFFB"/>
<stop offset="1" stop-color="#F1EDF7"/>
</linearGradient>
<linearGradient id="paint1_linear_103:24355" x1="209.068" y1="86.3228" x2="209.068" y2="124.823" gradientUnits="userSpaceOnUse">
<stop stop-color="#F5EFFB"/>
<stop offset="1" stop-color="#F1EDF7"/>
</linearGradient>
<linearGradient id="paint2_linear_103:24355" x1="18.5965" y1="7.4292" x2="18.5965" y2="18.295" gradientUnits="userSpaceOnUse">
<stop stop-color="#FF3641"/>
<stop offset="1" stop-color="#FF8D69"/>
</linearGradient>
<linearGradient id="paint3_linear_103:24355" x1="41.1644" y1="7.4292" x2="41.1644" y2="18.295" gradientUnits="userSpaceOnUse">
<stop stop-color="#8153D5"/>
<stop offset="1" stop-color="#5432BD"/>
</linearGradient>
<linearGradient id="paint4_linear_103:24355" x1="63.7313" y1="7.4292" x2="63.7313" y2="18.295" gradientUnits="userSpaceOnUse">
<stop stop-color="#53D5BE"/>
<stop offset="1" stop-color="#329CBD"/>
</linearGradient>
</defs>
</svg>
