<svg width="529" height="282" viewBox="0 0 529 282" fill="none" xmlns="http://www.w3.org/2000/svg">
<path d="M0.165039 13.5248C0.165039 6.60054 5.77827 0.987305 12.7025 0.987305H515.874C522.798 0.987305 528.412 6.60053 528.412 13.5248V269.29C528.412 276.214 522.798 281.827 515.874 281.827H12.7025C5.77826 281.827 0.165039 276.214 0.165039 269.29V13.5248Z" fill="white" fill-opacity="0.5"/>
<path d="M12.7025 1.4873H515.874C522.522 1.4873 527.912 6.87668 527.912 13.5248V269.29C527.912 275.938 522.522 281.327 515.874 281.327H12.7025C6.0544 281.327 0.665039 275.938 0.665039 269.29V13.5248C0.665039 6.87668 6.05441 1.4873 12.7025 1.4873Z" stroke="white" stroke-opacity="0.4"/>
<g filter="url(#filter0_i_103:24269)">
<path d="M515.874 0.987305H12.7025C5.77827 0.987305 0.165039 6.60054 0.165039 13.5248V25.2265H528.412V13.5248C528.412 6.60053 522.799 0.987305 515.874 0.987305Z" fill="#37295C"/>
</g>
<circle cx="20.6431" cy="13.1067" r="5.43292" fill="url(#paint0_linear_103:24269)"/>
<circle cx="43.2105" cy="13.1067" r="5.43292" fill="url(#paint1_linear_103:24269)"/>
<circle cx="65.7779" cy="13.1067" r="5.43292" fill="url(#paint2_linear_103:24269)"/>
<path d="M34.6671 52.2661H389.333C390.135 52.2661 390.75 52.8615 390.75 53.5546V60.4777C390.75 61.1707 390.135 61.7661 389.333 61.7661H34.667C33.8652 61.7661 33.25 61.1707 33.25 60.4777V53.5546C33.25 52.8615 33.8652 52.2661 34.6671 52.2661Z" fill="white" fill-opacity="0.4"/>
<path d="M34.6671 52.2661H389.333C390.135 52.2661 390.75 52.8615 390.75 53.5546V60.4777C390.75 61.1707 390.135 61.7661 389.333 61.7661H34.667C33.8652 61.7661 33.25 61.1707 33.25 60.4777V53.5546C33.25 52.8615 33.8652 52.2661 34.6671 52.2661Z" stroke="url(#paint3_linear_103:24269)" stroke-width="0.5" style="mix-blend-mode:overlay"/>
<path d="M345.655 242.183V203.018C345.655 201.61 345.655 200.583 345.721 199.775C345.787 198.972 345.915 198.428 346.145 197.975C346.577 197.128 347.265 196.44 348.112 196.009C348.565 195.778 349.109 195.65 349.912 195.585C350.72 195.518 351.747 195.518 353.155 195.518H414.888C416.296 195.518 417.322 195.518 418.131 195.585C418.934 195.65 419.478 195.778 419.93 196.009C420.777 196.44 421.466 197.128 421.897 197.975C422.128 198.428 422.255 198.972 422.321 199.775C422.387 200.583 422.388 201.61 422.388 203.018V242.183C422.388 243.591 422.387 244.618 422.321 245.426C422.255 246.229 422.128 246.773 421.897 247.226C421.466 248.073 420.777 248.761 419.93 249.193C419.478 249.423 418.934 249.551 418.131 249.617C417.322 249.683 416.296 249.683 414.888 249.683H353.155C351.747 249.683 350.72 249.683 349.912 249.617C349.109 249.551 348.565 249.423 348.112 249.193C347.265 248.761 346.577 248.073 346.146 247.226C345.915 246.773 345.787 246.229 345.721 245.426C345.655 244.618 345.655 243.591 345.655 242.183Z" fill="white" fill-opacity="0.2"/>
<path d="M345.655 242.183V203.018C345.655 201.61 345.655 200.583 345.721 199.775C345.787 198.972 345.915 198.428 346.145 197.975C346.577 197.128 347.265 196.44 348.112 196.009C348.565 195.778 349.109 195.65 349.912 195.585C350.72 195.518 351.747 195.518 353.155 195.518H414.888C416.296 195.518 417.322 195.518 418.131 195.585C418.934 195.65 419.478 195.778 419.93 196.009C420.777 196.44 421.466 197.128 421.897 197.975C422.128 198.428 422.255 198.972 422.321 199.775C422.387 200.583 422.388 201.61 422.388 203.018V242.183C422.388 243.591 422.387 244.618 422.321 245.426C422.255 246.229 422.128 246.773 421.897 247.226C421.466 248.073 420.777 248.761 419.93 249.193C419.478 249.423 418.934 249.551 418.131 249.617C417.322 249.683 416.296 249.683 414.888 249.683H353.155C351.747 249.683 350.72 249.683 349.912 249.617C349.109 249.551 348.565 249.423 348.112 249.193C347.265 248.761 346.577 248.073 346.146 247.226C345.915 246.773 345.787 246.229 345.721 245.426C345.655 244.618 345.655 243.591 345.655 242.183Z" stroke="url(#paint4_linear_103:24269)" style="mix-blend-mode:overlay"/>
<path d="M345.655 166.4V127.235C345.655 125.826 345.655 124.8 345.721 123.992C345.787 123.189 345.915 122.644 346.145 122.192C346.577 121.345 347.265 120.657 348.112 120.225C348.565 119.995 349.109 119.867 349.912 119.801C350.72 119.735 351.747 119.735 353.155 119.735H414.888C416.296 119.735 417.322 119.735 418.131 119.801C418.934 119.867 419.478 119.995 419.93 120.225C420.777 120.657 421.466 121.345 421.897 122.192C422.128 122.644 422.255 123.189 422.321 123.992C422.387 124.8 422.388 125.826 422.388 127.235V166.4C422.388 167.808 422.387 168.834 422.321 169.643C422.255 170.446 422.128 170.99 421.897 171.443C421.466 172.29 420.777 172.978 419.93 173.409C419.478 173.64 418.934 173.768 418.131 173.833C417.322 173.899 416.296 173.9 414.888 173.9H353.155C351.747 173.9 350.72 173.899 349.912 173.833C349.109 173.768 348.565 173.64 348.112 173.409C347.265 172.978 346.577 172.29 346.146 171.443C345.915 170.99 345.787 170.446 345.721 169.643C345.655 168.834 345.655 167.808 345.655 166.4Z" fill="white" fill-opacity="0.2"/>
<path d="M345.655 166.4V127.235C345.655 125.826 345.655 124.8 345.721 123.992C345.787 123.189 345.915 122.644 346.145 122.192C346.577 121.345 347.265 120.657 348.112 120.225C348.565 119.995 349.109 119.867 349.912 119.801C350.72 119.735 351.747 119.735 353.155 119.735H414.888C416.296 119.735 417.322 119.735 418.131 119.801C418.934 119.867 419.478 119.995 419.93 120.225C420.777 120.657 421.466 121.345 421.897 122.192C422.128 122.644 422.255 123.189 422.321 123.992C422.387 124.8 422.388 125.826 422.388 127.235V166.4C422.388 167.808 422.387 168.834 422.321 169.643C422.255 170.446 422.128 170.99 421.897 171.443C421.466 172.29 420.777 172.978 419.93 173.409C419.478 173.64 418.934 173.768 418.131 173.833C417.322 173.899 416.296 173.9 414.888 173.9H353.155C351.747 173.9 350.72 173.899 349.912 173.833C349.109 173.768 348.565 173.64 348.112 173.409C347.265 172.978 346.577 172.29 346.146 171.443C345.915 170.99 345.787 170.446 345.721 169.643C345.655 168.834 345.655 167.808 345.655 166.4Z" stroke="url(#paint5_linear_103:24269)" style="mix-blend-mode:overlay"/>
<path d="M33 97.1942C33 94.8867 34.8672 93.0161 37.1706 93.0161H292.829C295.133 93.0161 297 94.8867 297 97.1942V158.838C297 161.145 295.133 163.016 292.829 163.016H37.1706C34.8673 163.016 33 161.145 33 158.838V97.1942Z" fill="white" fill-opacity="0.2"/>
<path d="M33 187.194C33 184.887 34.8672 183.016 37.1706 183.016H292.829C295.133 183.016 297 184.887 297 187.194V248.838C297 251.145 295.133 253.016 292.829 253.016H37.1706C34.8673 253.016 33 251.145 33 248.838V187.194Z" fill="white" fill-opacity="0.2"/>
<defs>
<filter id="filter0_i_103:24269" x="0.165039" y="0.987305" width="528.247" height="24.2393" filterUnits="userSpaceOnUse" color-interpolation-filters="sRGB">
<feFlood flood-opacity="0" result="BackgroundImageFix"/>
<feBlend mode="normal" in="SourceGraphic" in2="BackgroundImageFix" result="shape"/>
<feColorMatrix in="SourceAlpha" type="matrix" values="0 0 0 0 0 0 0 0 0 0 0 0 0 0 0 0 0 0 127 0" result="hardAlpha"/>
<feOffset dy="1"/>
<feComposite in2="hardAlpha" operator="arithmetic" k2="-1" k3="1"/>
<feColorMatrix type="matrix" values="0 0 0 0 1 0 0 0 0 1 0 0 0 0 1 0 0 0 0.5 0"/>
<feBlend mode="overlay" in2="shape" result="effect1_innerShadow_103:24269"/>
</filter>
<linearGradient id="paint0_linear_103:24269" x1="20.6431" y1="7.67383" x2="20.6431" y2="18.5397" gradientUnits="userSpaceOnUse">
<stop stop-color="#FF3641"/>
<stop offset="1" stop-color="#FF8D69"/>
</linearGradient>
<linearGradient id="paint1_linear_103:24269" x1="43.2105" y1="7.67383" x2="43.2105" y2="18.5397" gradientUnits="userSpaceOnUse">
<stop stop-color="#8153D5"/>
<stop offset="1" stop-color="#5432BD"/>
</linearGradient>
<linearGradient id="paint2_linear_103:24269" x1="65.7779" y1="7.67383" x2="65.7779" y2="18.5397" gradientUnits="userSpaceOnUse">
<stop stop-color="#53D5BE"/>
<stop offset="1" stop-color="#329CBD"/>
</linearGradient>
<linearGradient id="paint3_linear_103:24269" x1="33" y1="47.9952" x2="33" y2="62.1881" gradientUnits="userSpaceOnUse">
<stop stop-color="white" stop-opacity="0.6"/>
<stop offset="1"/>
</linearGradient>
<linearGradient id="paint4_linear_103:24269" x1="345.155" y1="195.018" x2="397.228" y2="268.393" gradientUnits="userSpaceOnUse">
<stop stop-color="white" stop-opacity="0.6"/>
<stop offset="1"/>
</linearGradient>
<linearGradient id="paint5_linear_103:24269" x1="345.155" y1="119.235" x2="397.228" y2="192.61" gradientUnits="userSpaceOnUse">
<stop stop-color="white" stop-opacity="0.6"/>
<stop offset="1"/>
</linearGradient>
</defs>
</svg>
