<svg width="129" height="232" viewBox="0 0 129 232" fill="none" xmlns="http://www.w3.org/2000/svg">
<path d="M60.813 117.052L57.7982 98.084C57.7982 98.084 54.7585 98.6293 52.3685 98.8597C49.9785 99.09 45.5582 99.2636 45.5582 99.2636V120.879C45.3584 122.805 42.5589 127.278 40.5939 129.049C40.5939 129.049 49.3848 162.817 48.8004 164.326C48.2161 165.835 37.5274 169.239 33.0802 172.962C28.6331 176.685 21.0471 187.328 18.7201 188.724C16.3931 190.12 14.9452 190.534 12.2562 190.534C9.56722 190.534 7.62316 190.082 5.41478 190.534C3.20639 190.986 1.69767 193.621 2.57066 197.421C3.44365 201.221 5.14893 201.175 5.77676 206.936C6.36033 212.291 4.12209 217.426 6.96611 220.329C9.44825 222.863 10.8441 223.819 13.068 225.293C14.8624 226.483 17.3601 225.604 16.8429 223.267C16.3258 220.93 15.7104 220.569 14.8262 216.813C14.035 213.452 14.7228 212.055 15.2916 209.728C15.8604 207.401 15.8604 202.312 21.8589 198.455C27.8574 194.599 31.9064 191.723 39.9217 186.138C45.0584 182.559 51.748 179.891 56.04 177.719C60.4374 175.494 62.2971 175.082 65.3997 170.945C67.5349 168.098 65.0739 148.305 64.7275 143.435C64.3087 137.547 62.8814 125.636 60.813 117.052Z" fill="#ECB3B5"/>
<path d="M61.1594 116.855L57.7982 98.084C57.7982 98.084 54.7585 98.6293 52.3685 98.8597C49.9785 99.09 45.5582 99.2636 45.5582 99.2636V120.879C45.5582 124.664 42.5589 127.278 40.5939 129.049C40.5939 129.049 49.0228 162.868 48.4385 164.378C47.8541 165.887 37.2688 168.98 32.8217 172.703C28.3745 176.426 22.6087 183.045 20.5144 184.907C18.4201 186.769 16.5457 188.166 15.033 188.889C13.5204 189.611 11.9304 190.207 11.3615 190.466C10.7927 190.725 11.2064 194.732 12.1889 197.68C13.1714 200.627 15.6019 205.074 17.1015 204.299C18.6011 203.523 19.5572 202.317 22.738 199.49C25.9188 196.662 32.2012 191.94 40.2164 186.355C45.3531 182.776 52.0582 180.201 56.3503 178.029C60.7477 175.804 62.7107 175.237 65.8134 171.1C67.9486 168.253 65.3842 148.098 65.0377 143.228C64.619 137.341 63.2278 125.439 61.1594 116.855Z" fill="url(#paint0_linear)"/>
<path d="M61.1594 116.855L57.7982 98.0835C57.7982 98.0835 54.7585 98.6288 52.3685 98.8592C49.9785 99.0895 45.5582 99.2632 45.5582 99.2632V120.878C45.5582 124.663 42.5589 127.278 40.5939 129.049C40.5939 129.049 49.0228 162.868 48.4385 164.377C47.8541 165.887 37.2688 168.979 32.8217 172.703C28.3745 176.426 22.6087 183.045 20.5144 184.907C18.4201 186.768 16.5457 188.166 15.033 188.888C13.5204 189.611 11.9304 190.207 11.3615 190.465C10.7927 190.724 11.2064 194.732 12.1889 197.679C13.1714 200.627 15.6019 205.074 17.1015 204.298C18.6011 203.523 19.5572 202.316 22.738 199.489C25.9188 196.662 32.2012 191.939 40.2164 186.354C45.3531 182.775 52.0582 180.201 56.3503 178.029C60.7477 175.804 62.7107 175.237 65.8134 171.1C67.9486 168.253 65.3842 148.098 65.0377 143.227C64.619 137.34 63.2278 125.439 61.1594 116.855Z" fill="black" fill-opacity="0.2"/>
<path d="M15.514 122.741C15.514 115.199 20.7572 101.859 21.7555 97.981C21.7555 97.981 28.2711 99.264 33.1836 99.264H45.5581V121.561C45.5581 125.553 42.5589 127.279 40.5939 129.05C40.2335 130.99 40.6714 140.997 40.5939 149.424C40.5268 156.716 39.9216 159.823 39.9216 163.8C39.9216 167.776 38.6971 168.459 37.9566 171.97C37.3582 174.807 36.1435 178.535 35.6813 182.002C34.5741 190.306 35.1642 199.791 35.6813 205.686C36.1984 211.581 38.9288 216.979 39.9216 218.303C40.631 219.249 40.5939 221.716 44.5756 223.888C47.5973 225.536 49.0082 226.563 49.8502 228.335C51.8152 232.472 42.5907 232.513 38.8874 231.334C34.3368 229.886 34.3368 224.302 30.4068 222.233C25.34 219.566 24.2531 218.613 23.8912 215.924C23.5292 213.235 26.667 210.017 25.9596 205.065C24.9254 197.826 21.6159 191.724 20.7885 183.243C19.9611 174.762 23.8912 169.633 23.8912 162.352C23.8912 159.223 22.1975 155.511 20.7885 148.601C19.1702 140.664 15.514 133.187 15.514 122.741Z" fill="#F8BCBF"/>
<path d="M15.1001 122.741C15.1001 115.199 20.757 101.859 21.7553 97.981C21.7553 97.981 28.2709 99.264 33.1835 99.264H45.9717V121.561C45.9717 125.553 42.9724 127.279 41.0074 129.05C40.647 130.99 41.085 141.007 41.0074 149.434C40.9403 156.726 40.6299 159.724 40.3196 163.602C40.0093 167.481 39.4054 168.779 38.6649 172.29C38.0665 175.127 37.0954 178.837 36.8033 182.322C36.0793 190.958 36.2861 199.542 36.8033 205.437C37.0113 207.809 37.5812 212.144 37.4654 212.528C37.3496 212.911 34.6831 213.866 30.5462 213.866C26.4093 213.866 24.9686 213.081 24.5765 212.528C24.1845 211.974 24.5261 208.539 24.2892 205.437C23.7324 198.145 21.3242 191.71 20.5142 183.408C19.7043 175.106 23.6686 170.211 23.6686 162.93C23.6686 159.801 21.7836 155.511 20.3747 148.601C18.7563 140.664 15.1001 133.187 15.1001 122.741Z" fill="url(#paint1_linear)"/>
<path d="M45.5581 35.6073C47.3163 36.5898 50.1672 37.2711 51.8152 36.4864C52.5821 36.1212 52.9373 35.8497 53.6095 35.2033C54.592 35.2033 57.6853 35.8674 60.0734 36.4864C60.5747 36.6163 59.8885 37.648 59.5046 42.3911C59.1208 47.1342 59.5046 48.3379 59.5046 51.3372C59.5046 54.3364 59.7632 56.8703 59.7632 56.8703C59.7632 56.8703 60.5906 61.5243 59.246 71.5045C57.9015 81.4848 57.281 92.1373 57.7981 98.084C57.7981 98.084 54.8232 98.8169 51.6963 99.1183C48.5694 99.4196 45.2841 99.532 45.2841 99.532C45.2841 99.532 36.3217 99.7623 31.6841 99.532C25.6906 99.2343 21.8072 98.084 21.8072 98.084C21.8072 91.2582 21.1867 86.449 20.8764 80.8125C20.5662 75.176 17.4972 61.7623 16.998 57.8528C19.6498 56.452 21.2694 54.7604 22.4794 53.4573C24.7948 50.9638 25.3627 44.3451 23.6171 41.512C21.0989 37.4251 18.4615 37.0035 15.7725 36.4864C16.6796 36.0051 18.5338 35.3681 20.6695 34.9447C22.4843 34.585 32.5631 34.531 35.3038 32.4367C36.9368 31.1889 37.445 25.9373 36.9741 24.0757C36.9741 24.0757 38.3703 29.4019 40.5939 31.6255C42.8175 33.8491 43.8 34.6248 45.5581 35.6073Z" fill="#ECB3B5"/>
<path d="M119.05 34.121C118.783 35.6102 118.559 36.7031 118.016 38.616L120.849 34.6735C120.849 34.6735 121.149 33.2679 121.437 31.8361C121.631 30.8745 121.799 30.2577 122.084 29.3651C122.37 28.4724 122.439 28.0608 122.579 27.5888C122.718 27.1168 122.805 26.6899 122.901 26.1189C122.996 25.548 122.254 24.7111 121.921 24.9845C121.589 25.2578 121.397 25.8951 121.257 26.3119C120.923 27.3072 120.724 27.7352 120.542 28.4267C120.36 29.1182 119.812 30.1188 119.513 31.4112C119.295 32.3527 119.318 32.6317 119.05 34.121Z" fill="#C29798"/>
<path d="M119.9 32.9009C119.527 34.3676 119.279 35.1556 118.55 37.3117L121.655 33.5791C121.655 33.5791 122.054 32.1983 122.442 30.7904C122.703 29.8448 122.914 29.2415 123.262 28.3712C123.61 27.501 123.708 27.0953 123.881 26.6344C124.053 26.1734 124.17 25.7537 124.306 25.1909C124.441 24.6281 123.76 23.7409 123.409 23.9901C123.058 24.2393 122.822 24.8614 122.653 25.2673C122.249 26.2365 122.021 26.6494 121.79 27.3263C121.56 28.0032 120.942 28.9626 120.553 30.2307C120.269 31.1545 120.272 31.4343 119.9 32.9009Z" fill="#CA9C9D"/>
<path d="M120.682 32.1527C120.243 33.6006 119.958 34.3762 119.131 36.4964L122.404 32.9111C122.404 32.9111 122.902 31.6278 123.355 30.2393C123.659 29.3068 123.872 28.7785 124.26 27.9253C124.648 27.072 124.764 26.6454 124.958 26.1929C125.152 25.7405 125.361 25.2702 125.54 24.6543C125.718 24.0384 124.939 23.0387 124.6 23.4134C124.26 23.7881 124.163 24.2697 123.95 24.6543C123.419 25.6109 123.181 25.9994 122.828 26.6713C122.476 27.3432 121.881 28.5584 121.458 29.5154C121.056 30.4252 121.122 30.7047 120.682 32.1527Z" fill="#DDA9AA"/>
<path d="M86.8597 49.0619C85.1956 49.3644 76.5959 45.614 74.5525 44.7699C71.999 43.7153 69.6916 42.0292 66.2787 39.3403C64.012 37.5544 61.3492 36.7896 60.1251 36.5091C59.5045 36.3669 58.8985 40.2977 58.4703 43.5806C58.0421 46.8635 58.7644 52.0026 59.3649 54.1714C59.9655 56.3402 60.3319 56.6118 60.3319 56.6118C60.3319 56.6118 66.6035 58.1504 72.8977 58.732C78.5627 59.2554 85.9826 60.6543 87.1338 60.5318C89.5642 60.2733 92.0505 59.266 94.6319 58.4307C97.9596 57.3539 98.4948 56.8758 102.802 55.1022C109.835 52.2063 114.551 49.3976 116.868 48.5865C119.526 47.6562 122.075 47.3037 123.264 46.2695C124.723 45.0014 124.997 43.6322 125.669 42.055C126.341 40.4778 127.792 38.7886 128.205 37.7789C128.645 36.7059 128.619 35.5683 128.05 34.9995C127.514 34.4629 126.626 35.8364 125.669 36.8998C124.813 37.8513 123.51 39.3782 123.135 38.5254C122.76 37.6725 122.783 37.4059 122.721 36.8998C122.659 36.3937 122.65 35.965 122.825 34.712C123 33.4591 123.145 32.5141 123.445 31.4539C123.745 30.3936 124.234 29.7476 124.79 28.7132C125.253 27.8517 125.734 26.6191 125.837 26.1018C125.959 25.4896 125.805 24.8644 125.32 24.4209C124.835 23.9775 124.487 24.8825 124.208 25.4687C123.82 26.2829 123.441 26.9851 122.825 28.0153C122.153 29.1398 121.791 29.644 121.48 30.1999C121.17 30.7558 120.575 32.4107 120.575 32.4107L118.662 36.8998C117.421 39.7535 118.014 40.5522 114.515 42.95C112.759 44.1531 106.763 45.1296 100.822 46.2695C94.2498 47.5303 87.7337 48.903 86.8597 49.0619Z" fill="#D7A5A5"/>
<path d="M23.242 39.7544C25.0885 42.9287 25.1307 51.0678 22.8153 53.5613C21.6053 54.8644 19.6495 56.4527 16.9978 57.8535C17.4969 61.7631 19.4283 71.8671 20.204 78.1758C20.9797 84.4846 21.2033 85.8299 20.9797 90.7934C20.7561 95.7569 20.4522 99.3567 18.8595 104.859C17.2669 110.361 14.8317 116.902 15.7568 117.787C16.682 118.672 20.0983 117.09 28.2709 117.787C36.4436 118.484 41.871 118.821 48.0763 118.407C52.72 118.098 60.6938 116.442 60.6938 113.857C60.6938 111.271 59.2945 101.01 58.2117 93.4306C57.129 85.8508 58.2994 78.277 59.4527 71.4017C60.6061 64.5264 60.6421 56.7933 60.6421 56.7933C60.6421 56.7933 59.4527 53.5096 59.4527 50.0708V41.9522C59.4527 38.6427 60.5915 36.6215 60.0732 36.4871C58.2938 36.0259 54.4367 34.8939 53.8421 35.1263C53.2474 35.3587 50.5843 41.2541 45.6976 41.2541C39.4405 41.2541 35.4069 32.851 35.0192 32.67C34.6314 32.489 22.2613 34.6299 20.6693 34.9455C18.5336 35.3689 17.2693 35.7339 16.4032 36.1088C15.537 36.4837 20.1134 34.3765 23.242 39.7544Z" fill="#396380"/>
<path d="M23.242 39.7544C25.0885 42.9287 25.1307 51.0678 22.8153 53.5613C21.6053 54.8644 19.6495 56.4527 16.9978 57.8535C17.4969 61.7631 19.4283 71.8671 20.204 78.1758C20.9797 84.4846 21.2033 85.8299 20.9797 90.7934C20.7561 95.7569 20.4522 99.3567 18.8595 104.859C17.2669 110.361 14.8317 116.902 15.7568 117.787C16.682 118.672 20.0983 117.09 28.2709 117.787C36.4436 118.484 41.871 118.821 48.0763 118.407C52.72 118.098 60.6938 116.442 60.6938 113.857C60.6938 111.271 59.2945 101.01 58.2117 93.4306C57.129 85.8508 58.2994 78.277 59.4527 71.4017C60.6061 64.5264 60.6421 56.7933 60.6421 56.7933C60.6421 56.7933 59.4527 53.5096 59.4527 50.0708V41.9522C59.4527 38.6427 60.5915 36.6215 60.0732 36.4871C58.2938 36.0259 54.4367 34.8939 53.8421 35.1263C53.2474 35.3587 50.5843 41.2541 45.6976 41.2541C39.4405 41.2541 35.4069 32.851 35.0192 32.67C34.6314 32.489 22.2613 34.6299 20.6693 34.9455C18.5336 35.3689 17.2693 35.7339 16.4032 36.1088C15.537 36.4837 20.1134 34.3765 23.242 39.7544Z" fill="url(#paint2_linear)"/>
<path d="M59.2976 43.5807C59.2976 47.1227 59.1823 52.2456 59.7112 54.1556C60.2402 56.0656 60.642 56.8702 60.642 56.8702C60.642 56.8702 71.7341 59.7407 72.9752 58.9647C74.2162 58.1888 75.3022 54.7761 75.7976 52.5781C76.2927 50.3818 76.7717 45.8647 76.0003 45.2354C75.2288 44.6062 74.9265 44.6857 74.6299 44.5632C72.0765 43.5085 69.8208 41.8225 66.4078 39.1335C64.1412 37.3477 61.349 36.7894 60.1249 36.5089C59.5044 36.3667 59.2976 40.0387 59.2976 43.5807Z" fill="#396380"/>
<path d="M59.2976 43.5807C59.2976 47.1227 59.1823 52.2456 59.7112 54.1556C60.2402 56.0656 60.642 56.8702 60.642 56.8702C60.642 56.8702 71.7341 59.7407 72.9752 58.9647C74.2162 58.1888 75.3022 54.7761 75.7976 52.5781C76.2927 50.3818 76.7717 45.8647 76.0003 45.2354C75.2288 44.6062 74.9265 44.6857 74.6299 44.5632C72.0765 43.5085 69.8208 41.8225 66.4078 39.1335C64.1412 37.3477 61.349 36.7894 60.1249 36.5089C59.5044 36.3667 59.2976 40.0387 59.2976 43.5807Z" fill="url(#paint3_linear)"/>
<path d="M47.8854 1.94336C55.3109 1.94336 60.8132 8.73851 60.8132 16.1639C60.8132 17.7964 60.5322 21.3276 59.779 22.7312C58.6414 24.8514 59.4259 25.114 58.0208 28.8332C57.0808 31.3214 55.8432 33.1124 54.6431 34.3603C53.5985 35.4464 52.5824 36.1212 51.8155 36.4864C50.1675 37.2712 47.3166 36.5898 45.5584 35.6073C43.8003 34.6248 42.8177 33.8491 40.5942 31.6256C38.3706 29.402 36.9744 24.0757 36.9744 24.0757C36.8208 23.6185 36.6775 23.1706 36.5442 22.7312C35.4314 19.0645 35.0094 15.9982 35.0094 13.113C35.0094 5.68756 40.46 1.94336 47.8854 1.94336Z" fill="#F8BCBF"/>
<path d="M42.6983 0.29842C46.0596 -0.787686 47.2168 1.47011 51.4892 1.07451C54.8505 0.763282 59.8633 5.09662 60.1767 7.9519C60.6421 12.1922 61.9693 12.6003 64.6756 13.5761C67.0026 14.4152 64.4687 17.0202 62.7623 17.5179C61.0558 18.0155 57.1253 19.4834 54.2816 17.5179C50.7653 15.0875 50.0502 15.6594 48.8002 13.5761C48.8002 13.9928 49.2458 15.1951 47.5792 16.6712C45.9126 18.1473 45.2303 18.933 44.4565 20.9567C43.6828 22.9805 43.6809 24.3959 43.6809 24.3959H41.4573C41.3184 23.0071 41.3457 22.5237 40.9919 20.9567C40.6381 19.3897 39.7616 18.4614 38.7683 18.1905C37.4589 17.8334 36.3299 19.173 36.3299 20.4977C36.3299 21.8223 36.4924 21.3399 37.0876 24.1374C37.6828 26.9349 36.9325 26.8523 36.9325 26.8523C36.6222 25.9732 34.819 22.0982 34.347 19.6644C33.5196 15.3982 34.1089 13.9666 34.347 12.6571C34.585 11.3477 34.5172 9.33107 34.9934 7.486C35.6329 5.00782 37.6127 3.49473 38.7683 2.78028C39.9239 2.06583 40.2965 1.07451 42.6983 0.29842Z" fill="black"/>
<path d="M64.0316 78.102L45.6518 85.1309C44.9863 85.3855 44.9415 86.8492 45.6519 86.9049L55.8795 87.2092C56.1289 87.2288 56.3797 87.1956 56.6155 87.1119L75.4739 81.0008C76.1413 80.7638 75.8681 79.2579 75.1644 79.1772L64.8715 77.996C64.5871 77.9634 64.299 77.9997 64.0316 78.102Z" fill="#396380"/>
<path d="M64.0316 78.102L45.6518 85.1309C44.9863 85.3855 44.9415 86.8492 45.6519 86.9049L55.8795 87.2092C56.1289 87.2288 56.3797 87.1956 56.6155 87.1119L75.4739 81.0008C76.1413 80.7638 75.8681 79.2579 75.1644 79.1772L64.8715 77.996C64.5871 77.9634 64.299 77.9997 64.0316 78.102Z" fill="black" fill-opacity="0.2"/>
<path d="M64.0313 78.7724L45.6515 85.8013C44.9859 86.0559 45.1275 87.0362 45.838 87.092L55.8792 87.8796C56.1286 87.8992 56.3793 87.866 56.6151 87.7823L75.3116 81.1414C75.979 80.9044 75.8677 79.9283 75.1641 79.8476L64.8711 78.6664C64.5867 78.6338 64.2987 78.6701 64.0313 78.7724Z" fill="#396380"/>
<path d="M56.2858 89.8879C57.6432 89.5518 59.0911 89.2415 60.6424 88.6598C61.5081 88.3352 62.0903 88.1168 62.9953 87.7675C63.8034 87.4556 64.3268 87.0565 64.1588 86.6557C63.9907 86.255 63.525 86.0693 62.9953 86.1011C62.1586 86.1514 61.4926 86.5432 60.0888 86.9327C59.2363 87.1693 57.6311 87.5011 55.7649 87.7674C53.414 88.1028 51.7296 87.6174 51.7296 87.6174L46.6804 90.379C47.9281 90.5317 49.4995 90.9092 50.2485 90.8185C51.0212 90.7249 51.7058 90.5277 52.2482 90.379C53.5683 90.017 54.9284 90.224 56.2858 89.8879Z" fill="#B48A8A"/>
<path d="M56.221 89.739C57.6689 89.377 59.4876 88.6979 61.0389 88.1161C61.9046 87.7915 62.4263 87.5763 63.2796 87.1723C64.0625 86.8016 64.6111 86.4613 64.4431 86.0605C64.275 85.6597 63.8092 85.4741 63.2796 85.5059C62.4429 85.5562 61.7986 86.0977 60.3948 86.4872C59.5423 86.7238 57.6309 87.2681 55.7648 87.5344C53.4139 87.8698 51.5484 87.6689 51.5484 87.6689L46.5251 90.3528C47.7728 90.5056 49.3442 90.8831 50.0932 90.7923C50.8659 90.6987 51.5247 90.5792 52.067 90.4305C53.3872 90.0685 54.7731 90.101 56.221 89.739Z" fill="#BE9393"/>
<path d="M24.7893 46.3991C24.7893 39.7542 19.9523 36.604 18.041 36.1085C16.1297 35.613 14.5763 37.1686 13.025 39.1337C11.4737 41.0988 11.1849 42.3896 8.85526 48.2145C5.17676 57.4119 3.30508 62.7932 1.43605 72.6682C1.04704 74.7236 0.144297 79.5275 1.43616 81.1727C4.5125 85.0906 14.2832 86.7488 18.3248 87.5662C22.3663 88.3835 27.2564 89.3262 30.8703 89.3262C34.4843 89.3262 37.6566 89.6555 40.1387 89.7847C42.6208 89.914 43.5516 90.0174 46.0855 90.3277C47.3332 90.4805 48.9046 90.858 49.6535 90.7673C50.4262 90.6736 51.1109 90.4764 51.6532 90.3277C52.9734 89.9657 54.773 89.6882 56.2209 89.3262C57.6688 88.9642 59.4875 88.2851 61.0388 87.7034C61.9044 87.3787 62.8228 86.9827 63.6761 86.5786C64.459 86.2079 65.0076 85.8676 64.8396 85.4669C64.6715 85.0661 64.2058 84.8805 63.6761 84.9123C62.8394 84.9625 61.7984 85.6849 60.3947 86.0745C59.5422 86.311 57.6308 86.8553 55.7647 87.1216C53.4138 87.4571 51.1346 87.5662 51.1346 87.5662L55.7647 86.9406L60.3947 85.984C60.3947 85.984 64.0908 84.6789 63.6761 84.0965C62.616 82.6077 60.7194 83.9683 58.6084 84.3603C57.1786 84.6259 56.0348 84.9123 54.6783 84.9123C53.2524 84.9123 51.1346 84.717 51.1346 84.717L48.7977 82.6077H52.0109C53.7265 82.6077 54.8417 82.2581 55.2981 80.841C55.8711 79.0617 52.9759 80.4489 51.2871 79.9664C49.0603 79.3302 48.7977 79.3029 46.8539 79.9664C44.0485 80.924 42.6853 82.4958 39.797 83.1631C37.5741 83.6768 34.6098 82.6077 31.4132 81.5346C27.4873 80.2168 24.5606 79.4554 21.3403 78.0799C15.7312 75.684 13.1374 75.1852 13.1374 73.8142C13.1374 73.0309 16.3345 68.4022 19.0752 62.8691C20.6834 58.5159 24.7893 51.7507 24.7893 46.3991Z" fill="#ECB3B5"/>
<path d="M56.2208 89.3256C57.6687 88.9637 59.4874 88.2845 61.0388 87.7028C61.9044 87.3782 62.8228 86.9821 63.6761 86.5781C64.4589 86.2073 65.0076 85.867 64.8396 85.4663C64.6715 85.0655 64.2057 84.8799 63.6761 84.9117C62.8393 84.9619 61.7984 85.6843 60.3947 86.0739C59.5422 86.3105 57.6308 86.8548 55.7646 87.121C53.4137 87.4565 51.1346 87.5656 51.1346 87.5656L46.0854 90.3271C47.3331 90.4799 48.9045 90.8574 49.6535 90.7667C50.4262 90.6731 51.1109 90.4758 51.6532 90.3271C52.9733 89.9651 54.7729 89.6876 56.2208 89.3256Z" fill="#D7A5A5"/>
<path d="M24.91 45.9334C24.4188 37.9441 19.894 35.8495 18.0324 35.8496C16.1708 35.8497 14.3868 36.8582 12.8355 38.8233C11.304 40.7633 10.783 42.066 8.52848 47.7033L8.44001 47.9245C7.53574 50.1854 6.0065 53.3576 6.38295 54.4288C6.7594 55.5 10.9388 57.6706 13.094 58.5768C15.3693 59.5335 18.9676 61.357 20.2302 60.3609C21.4927 59.3647 25.1752 50.2469 24.91 45.9334Z" fill="#396380"/>
<path d="M24.91 45.9334C24.4188 37.9441 19.894 35.8495 18.0324 35.8496C16.1708 35.8497 14.3868 36.8582 12.8355 38.8233C11.304 40.7633 10.783 42.066 8.52848 47.7033L8.44001 47.9245C7.53574 50.1854 6.0065 53.3576 6.38295 54.4288C6.7594 55.5 10.9388 57.6706 13.094 58.5768C15.3693 59.5335 18.9676 61.357 20.2302 60.3609C21.4927 59.3647 25.1752 50.2469 24.91 45.9334Z" fill="url(#paint4_linear)"/>
<defs>
<linearGradient id="paint0_linear" x1="38.8788" y1="98.084" x2="38.8788" y2="204.388" gradientUnits="userSpaceOnUse">
<stop stop-color="#8153D5"/>
<stop offset="1" stop-color="#5432BD"/>
</linearGradient>
<linearGradient id="paint1_linear" x1="30.5359" y1="97.981" x2="30.5359" y2="213.866" gradientUnits="userSpaceOnUse">
<stop stop-color="#8153D5"/>
<stop offset="1" stop-color="#5432BD"/>
</linearGradient>
<linearGradient id="paint2_linear" x1="45.5" y1="13.5" x2="27" y2="128.5" gradientUnits="userSpaceOnUse">
<stop stop-color="#F49791"/>
<stop offset="1" stop-color="#993F81"/>
</linearGradient>
<linearGradient id="paint3_linear" x1="39" y1="48" x2="81.5" y2="55.5" gradientUnits="userSpaceOnUse">
<stop stop-color="#F49791"/>
<stop offset="1" stop-color="#993F81"/>
</linearGradient>
<linearGradient id="paint4_linear" x1="12.5847" y1="30.32" x2="16.3735" y2="63.9427" gradientUnits="userSpaceOnUse">
<stop stop-color="#F49791"/>
<stop offset="1" stop-color="#993F81"/>
</linearGradient>
</defs>
</svg>
