<svg fill="none" height="172" viewBox="0 0 112 172" width="112" xmlns="http://www.w3.org/2000/svg" xmlns:xlink="http://www.w3.org/1999/xlink"><filter id="a" color-interpolation-filters="sRGB" filterUnits="userSpaceOnUse" height="40.3613" width="9.98438" x="56.365" y="37.1377"><feFlood flood-opacity="0" result="BackgroundImageFix"/><feBlend in="SourceGraphic" in2="BackgroundImageFix" mode="normal" result="shape"/><feColorMatrix in="SourceAlpha" result="hardAlpha" type="matrix" values="0 0 0 0 0 0 0 0 0 0 0 0 0 0 0 0 0 0 127 0"/><feOffset dx="-1"/><feGaussianBlur stdDeviation="2.5"/><feComposite in2="hardAlpha" k2="-1" k3="1" operator="arithmetic"/><feColorMatrix type="matrix" values="0 0 0 0 0 0 0 0 0 0 0 0 0 0 0 0 0 0 0.15 0"/><feBlend in2="shape" mode="normal" result="effect1_innerShadow"/></filter><filter id="b" color-interpolation-filters="sRGB" filterUnits="userSpaceOnUse" height="72.9346" width="34.3218" x="53.5762" y="18.7568"><feFlood flood-opacity="0" result="BackgroundImageFix"/><feBlend in="SourceGraphic" in2="BackgroundImageFix" mode="normal" result="shape"/><feColorMatrix in="SourceAlpha" result="hardAlpha" type="matrix" values="0 0 0 0 0 0 0 0 0 0 0 0 0 0 0 0 0 0 127 0"/><feOffset dx="-1"/><feGaussianBlur stdDeviation="2.5"/><feComposite in2="hardAlpha" k2="-1" k3="1" operator="arithmetic"/><feColorMatrix type="matrix" values="0 0 0 0 0 0 0 0 0 0 0 0 0 0 0 0 0 0 0.15 0"/><feBlend in2="shape" mode="normal" result="effect1_innerShadow"/></filter><filter id="c" color-interpolation-filters="sRGB" filterUnits="userSpaceOnUse" height="11.8921" width="8.67651" x="52.7881" y="73.9961"><feFlood flood-opacity="0" result="BackgroundImageFix"/><feBlend in="SourceGraphic" in2="BackgroundImageFix" mode="normal" result="shape"/><feColorMatrix in="SourceAlpha" result="hardAlpha" type="matrix" values="0 0 0 0 0 0 0 0 0 0 0 0 0 0 0 0 0 0 127 0"/><feOffset dx="-1"/><feGaussianBlur stdDeviation="2.5"/><feComposite in2="hardAlpha" k2="-1" k3="1" operator="arithmetic"/><feColorMatrix type="matrix" values="0 0 0 0 0 0 0 0 0 0 0 0 0 0 0 0 0 0 0.15 0"/><feBlend in2="shape" mode="normal" result="effect1_innerShadow"/></filter><filter id="d" color-interpolation-filters="sRGB" filterUnits="userSpaceOnUse" height="42.5908" width="42.0449" x="54.8208" y="42.771"><feFlood flood-opacity="0" result="BackgroundImageFix"/><feBlend in="SourceGraphic" in2="BackgroundImageFix" mode="normal" result="shape"/><feColorMatrix in="SourceAlpha" result="hardAlpha" type="matrix" values="0 0 0 0 0 0 0 0 0 0 0 0 0 0 0 0 0 0 127 0"/><feOffset dx="-1"/><feGaussianBlur stdDeviation="2.5"/><feComposite in2="hardAlpha" k2="-1" k3="1" operator="arithmetic"/><feColorMatrix type="matrix" values="0 0 0 0 0 0 0 0 0 0 0 0 0 0 0 0 0 0 0.15 0"/><feBlend in2="shape" mode="normal" result="effect1_innerShadow"/></filter><linearGradient id="e"><stop offset="0" stop-color="#ff3641"/><stop offset="1" stop-color="#ff8d69"/></linearGradient><linearGradient id="f" gradientUnits="userSpaceOnUse" x1="31.9649" x2="33.5076" xlink:href="#e" y1="154.304" y2="170.277"/><linearGradient id="g" gradientUnits="userSpaceOnUse" x1="15.3366" x2="8.88151" xlink:href="#e" y1="151.725" y2="167.256"/><linearGradient id="h"><stop offset="0" stop-color="#8153d5"/><stop offset="1" stop-color="#5432bd"/></linearGradient><linearGradient id="i" gradientUnits="userSpaceOnUse" x1="48.1228" x2="48.1228" xlink:href="#h" y1="72.835" y2="158.011"/><linearGradient id="j" gradientUnits="userSpaceOnUse" x1="56.7767" x2="56.7767" xlink:href="#h" y1="79.5879" y2="157.873"/><linearGradient id="k" gradientUnits="userSpaceOnUse" x1="50.7468" x2="84.3829" y1="64.9904" y2="79.469"><stop offset="0" stop-color="#f49791"/><stop offset="1" stop-color="#993f81"/></linearGradient><path d="m39.4125 156.172c-.8225-.862-1.3341-1.635-1.3341-1.635l-.0788-.816-5.5003 1.93s.4859 1.472.3657 2.455c-.1202.982-.9107 1.979-1.5149 2.821-1.3332 1.858-.88 2.47-2.8732 4.806-.7026.823-1.3517 1-2.5904 1.876-1.2388.876-1.5165 1.659-1.3 2.206.2165.546.4191 1.283 2.7496 1.058 1.6377-.158 5.2426-.599 6.0196-2.284.777-1.684 1.7534-3.61 2.4205-4.304 1.4773-1.536 2.1651-.209 2.1651-.209l.5218.616 3.1546-2.735s-.6255-1.858-.5971-2.53c.0283-.671-.7857-2.394-1.6081-3.255z" fill="url(#f)"/><path d="m39.4125 156.172c-.8225-.862-1.3341-1.635-1.3341-1.635l-.0788-.816-5.5003 1.93s.4859 1.472.3657 2.455c-.1202.982-.9107 1.979-1.5149 2.821-1.3332 1.858-.88 2.47-2.8732 4.806-.7026.823-1.3517 1-2.5904 1.876-1.2388.876-1.5165 1.659-1.3 2.206.2165.546.4191 1.283 2.7496 1.058 1.6377-.158 5.2426-.599 6.0196-2.284.777-1.684 1.7534-3.61 2.4205-4.304 1.4773-1.536 2.1651-.209 2.1651-.209l.5218.616 3.1546-2.735s-.6255-1.858-.5971-2.53c.0283-.671-.7857-2.394-1.6081-3.255z" fill="#000" fill-opacity=".2"/><path d="m41.6177 161.958s-.5552-1.676-.6094-2.238c0 0-4.787 3.299-5.6333 4.326s-1.9405 3.402-2.7687 4.617c-.778 1.141-1.7192 1.181-3.0753 1.442-1.8564.358-4.4963.435-4.4963.435.3438.28.9811.461 2.3014.334 1.6377-.159 5.2426-.599 6.0196-2.284.777-1.684 1.7534-3.61 2.4205-4.304 1.4773-1.536 2.1651-.209 2.1651-.209l.5218.616z" fill="#000" fill-opacity=".98"/><path d="m39.4124 156.172c-.8224-.861-1.334-1.635-1.334-1.635l-.0788-.816-1.4899.536s3.119 2.127 2.8481 4.037c-.2138 1.509-1.5969 1.764-2.5513 2.952-.8172 1.017-1.285 1.583-2.0116 2.666-.9996 1.491-.9623 2.762-2.261 4.001-.9995.953-1.7582 1.292-3.0401 1.806-1.6436.659-4.4591.82-4.4591.82.3438.28.9811.461 2.3014.334 1.6377-.158 5.2426-.599 6.0196-2.283.7769-1.685 1.7534-3.611 2.4205-4.304 1.4773-1.536 2.1651-.21 2.1651-.21l.5218.617 3.1546-2.736-.4621-1.131s-.278-.444-.135-1.399c.143-.954-.7857-2.393-1.6082-3.255z" fill="#000" fill-opacity=".1"/><path d="m20.8796 156.818c-.3201-1.147-.4071-2.071-.4071-2.071l.3145-.757-6.5745-.957-.1953 3.215s-1.3774.902-2.3069 1.36c-2.05097 1.012-2.42379 1.778-5.28196 2.901-1.00745.395-1.36123.677-2.86652.867-1.50528.19-2.11902.75-2.18523 1.334s-.23439 1.329 1.92762 2.228c1.51936.631 4.90708 1.104 6.38571-.016 1.47858-1.121 3.24668-2.36 4.16188-2.658 2.0264-.66 2.0085.835 2.0085.835l.1703.789 4.071-.928s.3229-1.934.6641-2.513c.3413-.579.4339-2.482.1139-3.629z" fill="url(#g)"/><path d="m20.8796 156.818c-.3201-1.147-.4071-2.071-.4071-2.071l.3145-.757-6.5745-.957-.1953 3.215s-1.3774.902-2.3069 1.36c-2.05097 1.012-2.42379 1.778-5.28196 2.901-1.00745.395-1.36123.677-2.86652.867-1.50528.19-2.11902.75-2.18523 1.334s-.23439 1.329 1.92762 2.228c1.51936.631 4.90708 1.104 6.38571-.016 1.47858-1.121 3.24668-2.36 4.16188-2.658 2.0264-.66 2.0085.835 2.0085.835l.1703.789 4.071-.928s.3229-1.934.6641-2.513c.3413-.579.4339-2.482.1139-3.629z" fill="#000" fill-opacity=".2"/><path d="m20.8803 156.816c-.3201-1.147-.4071-2.071-.4071-2.071l.3145-.757-1.567-.228s1.7505 3.345.6123 4.902c-.8989 1.231-2.2394.805-3.6405 1.403-1.1996.513-1.879.792-3.0301 1.406-1.5835.844-2.1493 1.983-3.87804 2.465-1.33047.37-2.12847 1.134-3.50128.984-1.76005-.193-4.35128-1.362-4.35128-1.362.1713.409.64826.869 1.8731 1.378 1.51937.631 4.90708 1.104 6.38571-.016 1.47859-1.121 3.24669-2.36 4.16189-2.658 2.0264-.66 2.0085.835 2.0085.835l.1703.789 4.071-.928.125-1.216s-.0365-.522.5391-1.297c.5757-.775.4339-2.482.1139-3.629z" fill="#000" fill-opacity=".1"/><path d="m20.1024 162.958s.2991-1.74.5158-2.261c0 0-5.7762.656-7.0065 1.164s-3.3137 2.088-4.61618 2.77c-1.22357.64-2.29777.606-3.47337.45-1.87395-.25-4.09024-1.523-4.09024-1.523.17131.409 1.05172 1.204 1.81762 1.523.76589.318 2.01142.783 3.16069.783 1.77615 0 2.48519-.342 3.28051-.944 1.47867-1.121 3.24667-2.36 4.16187-2.658 2.0264-.66 2.0085.835 2.0085.835l.1703.789z" fill="#000" fill-opacity=".98"/><path d="m78.5123 74.609s5.7254 9.5874 4.345 16.3711c-1.6319 8.0195-3.1608 11.5559-9.0141 14.6329-6.186 3.253-16.6984 2.522-25.7158 1.895-5.9391-.412-13.6385-.726-14.0563.462-.4178 1.189-.7697 4.223-.9926 6.896-.2526 3.03-.1127 5.941-1.2536 9.702-2.5777 8.496-3.1822 8.435-4.9105 13.582-1.368 4.073-5.2241 18.56-6.0077 19.448s-7.6269.313-7.7314-1.411 4.6173-18.981 5.8508-29.202c.7836-6.492.8786-10.929 1.3061-16.416s-.2093-12.6811 3.4477-15.1494c3.6569-2.4683 42.1029-9.8245 42.1029-9.8245l.8194-12.7601z" fill="url(#i)"/><path d="m78.5123 74.609s5.7254 9.5874 4.345 16.3711c-1.6319 8.0195-3.1608 11.5559-9.0141 14.6329-6.186 3.253-16.6984 2.522-25.7158 1.895-5.9391-.412-13.6385-.726-14.0563.462-.4178 1.189-.7697 4.223-.9926 6.896-.2526 3.03-.1127 5.941-1.2536 9.702-2.5777 8.496-3.1822 8.435-4.9105 13.582-1.368 4.073-5.2241 18.56-6.0077 19.448s-7.6269.313-7.7314-1.411 4.6173-18.981 5.8508-29.202c.7836-6.492.8786-10.929 1.3061-16.416s-.836-12.89 3.8656-15.5673c4.7015-2.6773 41.685-9.4066 41.685-9.4066l.8194-12.7601z" fill="#000" fill-opacity=".2"/><path d="m86.5138 100.696c2.0934-6.5984-.845-16.9166-.845-16.9166l-11.1829-4.1915-3.4554 12.3107s-35.575-.209-38.5004.8358-6.243 1.0129-6.243 6.4458c0 5.4328 2.362 16.1748 3.2221 28.5928.7504 10.836 1.7929 28.662 2.7855 29.498.9925.835 7.5747.992 7.8359-.784 0 0 .6463-11.429.7836-15.724.1734-5.426.7087-9.092.7313-17.971.0161-6.304-2.9254-13.895-2.3713-15.462 8.1177 0 23.7149 2.333 33.9559 1.497 6.5911-.538 11.1793-1.497 13.2837-8.131z" fill="url(#j)"/><g filter="url(#a)"><path d="m58.3348 40.231c.4991-2.952 6.4907-2.8855 7.4605-3.0933l.2771 5.2992c0 3.5101.2771 5.7495.2771 9.6287 0 2.1508-.0693 4.5027-.0693 7.5506 0 1.9593-.4849 5.4032-1.7318 8.3126s-2.6115 7.7692-3.9969 9.5703l-3.1865-2.3552c1.2469-1.8011 3.235-14.0037 3.235-15.8048 0-1.801-.3846-3.3272-1.1777-7.6891-.793-4.3619-1.8703-6.7885-1.0875-11.419z" fill="#e4acaf"/></g><path d="m56.259 56.0271c-2.0186-2.5232-.6927-11.4991-.9698-19.2575-.2658-7.4432.5542-4.7105.0001-11.3606-.5542-6.65-1.5241-15.1011 3.7405-20.22719 5.2646-5.1260954 12.746-5.680508 17.0409-2.07829 4.8248 4.04673 5.6803 6.92708 6.0959 12.05328s-.6927 5.1262 2.3552 16.4867c3.048 11.3605 4.75 4.5717 9.421 12.7459.9623 1.6841 1.801 2.9095 2.2166 10.3908.4157 7.4813 4.5716 6.5115 2.9094 8.8667-.8815 1.2488-4.5519 1.5087-6.8022-.8619l-33.5138-4.2469c-.3456-.0379-1.0944-.7617-2.4938-2.511z" fill="#000"/><path d="m57.2278 14.0477c0-1.2191 1.2469-4.0177 1.2469-4.0177s1.9396-3.46357 5.6802-3.46359c3.7407-.00003 4.183.23949 6.5116 1.66251 2.4937 1.52398 4.2948 8.17408 4.7104 10.52928.0392.2221.0735.4623.1015.7174.3551 2.3445 1.6822 9.8647 4.609 13.9682 2.1331 2.9907 6.9271 4.849 6.7886 6.5115s-6.7886 21.8898-9.698 21.7512c-2.9094-.1385-10.1137-.5541-13.0231-1.5239s-2.4166-20.1551-.7449-21.1999 3.6543-1.9368 4.7627-2.7681c1.1083-.8312-1.1084-3.9389-1.1084-3.9389-.7912.1894-1.5239.3965-2.2166.1983-.6928-.1983-3.9487-3.0801-5.4032-5.8189-1.4095-2.654-1.6832-6.4649-1.8011-7.4813-.1178-1.0163-.4156-3.6021-.4156-5.1261z" fill="#f8c7ca"/><g filter="url(#b)"><path d="m68.1742 31.9184c2.2167-.9698 3.0479-1.6305 5.2646-4.0177 1.7579-1.8931 2.2089-5.0528 2.113-7.4543-.1255-1.0447-.1734-1.6896-.1734-1.6896.0861.4876.1483 1.0627.1734 1.6896.3799 3.1632 1.4716 9.9918 4.1007 13.6779 2.1331 2.9907 8.3818 7.4813 8.2433 9.1438-.1386 1.6625-2.9 24.3467-4.0083 28.5723-1.1084 4.2256.0579 7.6291 1.1492 10.03 1.0914 2.4009 2.6784 8.4628 1.7762 9.4031s-15.8808 0-19.7471 0c-3.8662 0-12.4896-3.4638-12.4896-3.4638s6.8579-11.5158 7.6196-13.2476 1.0393-2.7016 1.0393-4.9183-.6237-5.0568-1.0393-7.4813c-.4157-2.4245-3.2212-5.0915-2.4245-9.698.7966-4.6066.2949-12.8559 3.4638-14.0052s3.8307-1.4148 4.9391-2.246c1.1083-.8313-1.1084-3.9389-1.1084-3.9389.4138-.099.8033-.2225 1.1084-.356z" fill="#e4acaf"/></g><path d="m87.8964 43.269c-.1385 1.6625-2.8999 24.3467-4.0083 28.5723-1.1083 4.2256.058 7.6291 1.1493 10.03s3.3151 5.9393 2.859 9.4031c-.456 3.4639-20.8299.8358-24.6606 0s-8.1837-1.3582-8.8106-3.5522c-.6268-2.1941 6.6986-11.8062 7.1041-13.948.4056-2.1418.3135-2.5075.6671-4.3359.3537-1.8284.062-4.5233-.3536-6.9478-.4157-2.4245-3.3434-5.5374-3.0822-9.6644.2612-4.1269 3.8046-11.1223 5.2762-14.6793l3.0299-1.2015s-1.0667 4.2217-1.0667 7.8882 1.0667 7.9926 1.0667 7.9926 6.2019-3.9926 9.4333-7.3261 5.6642-7.092 5.6642-7.092c2.4025 2.2593 5.8214 3.7909 5.7322 4.861z" fill="url(#k)"/><path d="m69.1228 10.77c.5749-.7392.8313-1.10832.8313-1.10832-.4746.96982-.4157 1.38542-.4157 1.38542s.0207 2.5565 3.2073 5.9108c2.6322 2.7709.4155 7.8968 2.6322 12.4687s2.2167 4.7104 3.8792 6.7886c1.33 1.6626 5.1723 4.2025 6.9272 5.2647 4.1563 2.7708 4.5719 7.6198 4.2948 15.6553s7.2721 8.3784 8.5897 6.5117c1.6622-2.3552-2.4937-1.3854-2.9094-8.8667-.4156-7.4813-1.2543-8.7067-2.2166-10.3908-4.671-8.1742-6.373-1.3854-9.421-12.7459-3.0479-11.3605-1.9396-11.3605-2.3552-16.4867s-1.2711-8.00655-6.0959-12.05328c-4.2949-3.602218-11.7763-3.0478054-17.0409 2.07829-5.2646 5.12609-4.2947 13.57719-3.7405 20.22719.5541 6.6501-.2659 3.9174-.0001 11.3606.2771 7.7584-1.0488 16.7343.9698 19.2575 5.5417 6.9271 2.2294-2.2821 1.3854-6.373-1.0597-5.1369-.4363-5.0677-.5748-8.1156-.1386-3.048 2.0781-5.4151 1.3854-12.3422-.6927-6.9272-1.5033-9.6061-.8106-12.2384s1.6625-2.771 5.4032-4.0178 5.5003-1.4308 6.0752-2.1701z" fill="#000"/><path d="m69.1228 10.77c.5749-.7392.8313-1.10832.8313-1.10832l1.3854-2.49378.5542 1.38543s1.2045 3.23427 2.0781 5.26467c1.186 2.7564 2.7214 3.9877 3.3251 6.9271.5006 2.438-.5522 3.9462 0 6.373.8038 3.5329 2.2664 5.377 4.8697 7.897 1.9908 1.9271 3.3738 2.8321 5.9366 3.8852 1.5186 1.028 3.2078.8835 5.8396 5.4891.9623 1.6841 1.801 2.9095 2.2166 10.3908.4157 7.4813 4.5716 6.5115 2.9094 8.8667-1.3176 1.8667-8.8668 1.5238-8.5897-6.5117s-.1385-12.8845-4.2948-15.6553c-1.7549-1.0622-5.5972-3.6021-6.9272-5.2647-1.6625-2.0782-1.6625-2.2167-3.8792-6.7886s0-9.6978-2.6322-12.4687c-3.1866-3.3543-3.2073-5.9108-3.2073-5.9108s-.0589-.4156.4157-1.38542c0 0-.2564.36912-.8313 1.10832-.5749.7393-2.3345.9233-6.0752 2.1701s-4.7105 1.3855-5.4032 4.0178.4157 5.2647 1.1084 12.1918c.6927 6.9272-.6927 9.2822-.5542 12.3302.1386 3.0479.1385 2.4939-.5542 8.1742-.5056 4.1463 4.1563 13.3001-1.3854 6.373-2.0186-2.5232-.6927-11.4991-.9698-19.2575-.2658-7.4432.5542-4.7105.0001-11.3606-.5542-6.65-1.5241-15.1011 3.7405-20.22719 3.3468-3.25875 7.5895-4.669917 11.3399-4.340123 0 0-6.2807 5.410523-9.1438 7.711643-1.9122 1.53687-4.512 2.90937-4.9669 7.61987s0 7.3982 0 7.6199v14.8241 17.4099c5.5417 6.9271.8798-2.2267 1.3854-6.373.6927-5.6803.6928-5.1263.5542-8.1742-.1385-3.048 1.2469-5.403.5542-12.3302-.6927-6.9271-1.8011-9.5595-1.1084-12.1918s1.6625-2.771 5.4032-4.0178 5.5003-1.4308 6.0752-2.1701z" fill="#fff" fill-opacity=".1"/><path d="m53.5969 80.363c.3694-.4445.7794-.7844 1.0762-1.261-.7066.455-2.4043 1.6562-2.658 1.9956s-.1513 1.1426-.0005 1.867c.1378.6619.1256.7558.1447 1.1483.0258.532.0222 1.1359.3042 1.0866.282-.0492.788-.6071.7505-1.0141-.0268-.2907-.1853-1.2529-.2463-1.41-.061-.157.0468-.4999.0819-.8749.035-.375.1779-1.0929.5473-1.5375z" fill="#c49194"/><path d="m52.4628 85.2008c-.1281.0224-.1973-.0901-.2371-.2695 0 0-.0997-.4431-.0381-.5875.0463-.1086.1238-.1648.2414-.1539.1249.0117.24.1839.2469.3257.0085.1772.0782.5117.0782.5117-.1188.1105-.1942.1566-.2913.1735z" fill="#fa9297"/><path d="m54.5323 77.3473c-.005.0126-.0104.0258-.0162.0397-.0596.284-.065 1.9941-.2231 2.411-.2678.7062-.5443 1.235-.5357 1.4123s-.0676 1.532-.0269 1.6367c.0406.1047.3916 1.4741.4581 2.1107.0484.4631-.6692 1.2234-.9802 1.0431-.2954-.1714-.3486-.5874-.3861-.9944-.0347-.375-.1564-1.0233-.319-1.4421-.1437-.3701-.2174-1.1803-.3769-1.9013s.1779-1.0929.5473-1.5375c.3695-.4446.7795-.7844 1.0763-1.261.2284-.3668.6194-1.1247.7662-1.4775.005-.0237.0104-.0374.0162-.0397z" fill="#d39fa2"/><path d="m53.2073 86.0057c-.1247-.0724-.2062-.1883-.2616-.3288 0 0-.1437-.3282-.0665-.5162.0537-.1306.1071-.2329.2442-.2668.1484-.0366.243.0546.3604.1525.2603.2171.1511.8546.1511.8546-.1588.1153-.3183.168-.4276.1047z" fill="#fa9297"/><path d="m54.7126 77.2949c.5553-.2759.5052.272.6098.2314-.1371.3706-.1953 1.1721-.2652 1.4883-.0874.3953-.4457 1.7991-.5011 2.1218-.0555.3227.2605 2.067.2574 2.3693s.1393 1.4009.1589 1.8053c.0346.7093-.6926 1.4734-1.2332 1.322-.3243-.0909-.2076-.7313-.2173-1.1804-.0143-.6569-.2317-1.8373-.2286-2.1396s-.3039-1.3876-.3825-2.381c-.0462-.5843.8293-2.3452.8324-2.6475.003-.3023.414-.7138.9694-.9896z" fill="#e1a7aa"/><path d="m53.7395 86.6327c-.1022-.0286-.1606-.1118-.193-.2263 0 0-.0636-.4792.0569-.7448.0653-.1439.0815-.2852.2327-.3311.1979-.0601.311.1439.4242.3169.1986.3037-.0615.9272-.0615.9272-.1543.0732-.3136.099-.4593.0581z" fill="#fa9297"/><g filter="url(#c)"><path d="m57.7686 74.5057s.9811.4185 1.817.4185c.8358 0 1.879-.9279 1.879-.9279 0 .3004-1.3586 5.4654-1.879 5.788-.1909.1183-1.0936.9064-1.1576 1.0517-.0639.1453-.3461.6162-.4742.9068-.128.2906-.9089.9551-1.1052 1.0313-.2093.0813-.6021.7759-.8318.8048-.2296.029-.5141-.7037-.3627-1.2443.1183-.4222 1.024-1.2407 1.0677-1.4384.0436-.1976.3089-1.6858.1753-1.8748 0 0-.8459.1477-1.0613.412-.2154.2644-.3851 2.2655-.3851 2.2655-.0065 1.0667.0541 1.846-.0831 3.0435-.0823.7176-.736 1.3618-1.0875 1.0767-.2589-.21-.2839-.7221-.3179-1.4203l-.0011-.0217s-.1079-1.0518-.1389-1.4436c-.0462-.5843-.0356-1.3643-.025-1.9256.0168-.8874.2277-1.8952.3706-2.6131.1428-.718.3095-.9627.6895-1.1711.5896-.3234.6036-.3255 1.1726-.8335.5691-.508 1.7387-1.8845 1.7387-1.8845z" fill="#e4acaf"/></g><path d="m56.0181 83.5806c-.1241.0156-.2641-.1909-.3428-.4693 0 0 .3788-.4483.4632-.5412.0843-.093.3528-.1435.4796-.0056.0963.1047.0519.3605.0519.3605-.2105.23-.478.6337-.6519.6556z" fill="#fa9297"/><path d="m54.2815 85.8211c-.0942-.0764-.1574-.1928-.2014-.3436 0 0-.0183-.6553.0042-.7845s.1368-.3384.3266-.3677c.2231-.0345.4562.2444.4445.3694-.0116.125.0377.9955.0377.9955-.2096.1921-.4447.2663-.6116.1309z" fill="#fa9297"/><path d="m55.4501 81.6985c-.0065 1.0667.0542 1.846-.0831 3.0435 0 0-.2873-1.9702-.2937-3.2063-.0053-1.0202-.0517-1.5837.2628-2.2704.2349-.5129 1.025-.458 1.5605-.2443 0 0-.846.1477-1.0613.412-.2154.2643-.3852 2.2655-.3852 2.2655z" fill="#000" fill-opacity=".1"/><path d="m56.8481 82.7737c-.2094.0813-.6022.7759-.8318.8048 0 0 .4044-.6295.7504-1.0143.3456-.3845.6944-.5083.9954-.9285.2619-.3658.2375-.6358.5208-.9852.5702-.7032 2.187-1.8128 2.187-1.8128s.3897-.3922.471-.1829c.0813.2094-2.1636 1.5628-2.5134 2.1808-.3498.6179-.3462.6162-.4742.9068-.1281.2906-.909.9551-1.1052 1.0313z" fill="#000" fill-opacity=".1"/><path d="m55.4501 81.6985c-.0065 1.0667.0542 1.846-.0831 3.0435 0 0-.2873-1.9702-.2937-3.2063-.0053-1.0202-.0517-1.5837.2628-2.2704.2349-.5129 1.025-.458 1.5605-.2443 0 0-.846.1477-1.0613.412-.2154.2643-.3852 2.2655-.3852 2.2655z" stroke="#f7bbbe" stroke-width=".005703"/><path d="m56.8481 82.7737c-.2094.0813-.6022.7759-.8318.8048 0 0 .4044-.6295.7504-1.0143.3456-.3845.6944-.5083.9954-.9285.2619-.3658.2375-.6358.5208-.9852.5702-.7032 2.187-1.8128 2.187-1.8128s.3897-.3922.471-.1829c.0813.2094-2.1636 1.5628-2.5134 2.1808-.3498.6179-.3462.6162-.4742.9068-.1281.2906-.909.9551-1.1052 1.0313z" stroke="#f7bbbe" stroke-width=".005703"/><g filter="url(#d)"><path d="m84.724 51.4679c-.3197-2.7708-.1287-8.0799 2.7024-8.6699 2.8312-.5899 6.2693 8.6542 6.4909 10.7601.2771 2.6323 4.2414 22.047 2.5144 24.6374-2.2167 3.3251-18.5647 4.1566-19.2574 4.1566-.5542 0-3.6945.2771-6.0959.2771 0 0-1.6626.6926-3.048.9698s-2.9094 0-3.6021 0c-.6928 0-1.6625.5542-1.6625.5542l-1.2469.5541s-.5542.3761-.9698.5542-.9698.1385-.9698-.2771 1.1084-1.1082 1.1084-1.1082l.9698-.5543 1.9395-.9698s-1.5239.5542-1.9395.6927c-.4156.1386-1.1084.6927-1.1084.6927s-.4156.3233-.9698.6927c-.5542.3695-1.5239.277-1.6625-.1385s1.6625-1.3854 1.6625-1.3854.9698-.8313 1.3855-1.1084c.4156-.2771 1.6624-.6927 1.6624-.6927s-1.6625.4156-1.801.5542c-.1386.1385-1.2469 1.0493-1.8011 1.4649-.5542.4157-.6233.3362-1.2469.7519-.6236.4156-1.5239-.0001-1.3854-.4158.1386-.4156 1.6625-1.2468 1.6625-1.2468s1.524-1.5241 1.8011-1.6626 2.2167-.9698 2.2167-.9698-2.0782.5542-2.2167.6927c-.1385.1386-1.524 1.3855-1.524 1.3855s-.5541.5571-1.2469.9698c-.6927.4127-1.3854.2181-1.2469-.2771.1386-.4952 1.8011-1.6625 1.8011-1.6625l1.3854-1.524s2.9095-1.6625 4.0178-1.8011c1.1083-.1385 7.2042 1.524 7.2042 1.524 1.3854 0 2.664-.078 6.373-1.1084 3.7089-1.0304 8.4511-3.7407 11.7762-4.1565 1.2335-.1543-.5542-4.2946-.9699-7.3425-.4156-3.048-1.0088-7.3925-1.3854-9.1438-.3767-1.7514-.9973-2.8986-1.317-5.6694z" fill="#e4acaf"/></g><g fill="#fa9297"><path d="m55.8386 82.3525c.0117-.0417.0342-.0883.0657-.1385l.4885-.4156s.2822-.0924.4157 0c.1406.0974.1385.2771.1385.4156 0 .1386-.6927.6352-.6927.6352-.3051-.0313-.4943-.2155-.4157-.4967z"/><path d="m56.3928 83.4609c.0141-.0423.0426-.0889.0823-.1385l.6104-.4157s.4012-.153.5542 0c.153.1531 0 .5542 0 .5542l-.6927.5618c-.3637-.0781-.6348-.32-.5542-.5618z"/><path d="m57.9168 84.2922c-.0249-.0748.013-.1676.0919-.2695l.7394-.4233s.4011-.153.5541 0c.1531.1531 0 .5542 0 .5542l-.6927.5036c-.3366-.0259-.6222-.1536-.6927-.365z"/><path d="m59.4408 84.8463c0-.0608.0267-.1245.0722-.1891l.6205-.365s.4011-.1531.5542 0c.153.153 0 .5541 0 .5541l-.6927.4515c-.2959-.0472-.5542-.1976-.5542-.4515z"/></g><path d="m82.0805 89.8494-21.7839-.9217.6062 2.0064h21.1777z" fill="#9d9d9d"/><path d="m19.0843 67.1642 7.1031 23.768h34.7152l-.6062-2.0064-7.5922-22.1279c-.2586-.7537-.9722-1.2559-1.7689-1.245l-30.9805.4257c-.6117.0084-1.0456.5995-.8705 1.1856z" fill="#005b9d"/><path d="m19.0843 67.1642 7.1031 23.768h34.7152l-.6062-2.0064-7.5922-22.1279c-.2586-.7537-.9722-1.2559-1.7689-1.245l-30.9805.4257c-.6117.0084-1.0456.5995-.8705 1.1856z" fill="#9d9d9d"/><path d="m18.6229 67.6251 7.1031 23.7681h34.7152l-.1546-.5118-.4516-1.4946-7.5922-22.128c-.2586-.7537-.9722-1.2559-1.7689-1.245l-30.9806.4258c-.6116.0084-1.0455.5994-.8704 1.1855z" fill="#c4c4c4"/><path d="m82.1006 91.3936h-21.6599l-.1546-.5118h21.8145z" fill="#c4c4c4"/></svg>